<svg xmlns="http://www.w3.org/2000/svg" width="124.001" height="124" viewBox="0 0 124.001 124">
  <g id="Grupo_1071510" data-name="Grupo 1071510" transform="translate(-736.999 -2058)">
    <g id="Grupo_159183" data-name="Grupo 159183" transform="translate(352.001)">
      <path id="Unión_12" data-name="Unión 12" d="M8464.769,11817.939a62.055,62.055,0,1,1,20.7-16.051l8.516,22.111Z" transform="translate(-7991 -9642)" fill="#a3bfe4"/>
      <circle id="Elipse_4842" data-name="Elipse 4842" cx="48" cy="48" r="48" transform="translate(399 2072)" fill="#fffbe5"/>
    </g>
    <g id="metrica" transform="translate(743.542 2087.067)">
      <path id="Trazado_608933" data-name="Trazado 608933" d="M83.826,10H39.573A2.573,2.573,0,0,0,37,12.573V70.72a2.573,2.573,0,0,0,2.573,2.573H83.826A2.573,2.573,0,0,0,86.4,70.72V12.573A2.573,2.573,0,0,0,83.826,10Z" transform="translate(-8.714 -8.714)" fill="#fff"/>
      <path id="Trazado_608934" data-name="Trazado 608934" d="M110.618,79.695l-8.767-8.767L89,83.779v6.046h36.02V65.292Z" transform="translate(-54.024 -56.893)" fill="#ade5ff"/>
      <circle id="Elipse_4854" data-name="Elipse 4854" cx="12.58" cy="12.58" r="12.58" transform="translate(59.818 39.382)" fill="#ff5d5d"/>
      <circle id="Elipse_4855" data-name="Elipse 4855" cx="7.161" cy="7.161" r="7.161" transform="translate(65.121 45.068)" fill="#fff"/>
      <circle id="Elipse_4856" data-name="Elipse 4856" cx="2.735" cy="2.735" r="2.735" transform="translate(69.664 49.227)" fill="#ff5d5d"/>
      <path id="Trazado_608935" data-name="Trazado 608935" d="M59.933,63.293H30.859a1.288,1.288,0,0,1-1.286-1.286V3.859a1.288,1.288,0,0,1,1.286-1.286H75.113A1.288,1.288,0,0,1,76.4,3.859V29.516a1.286,1.286,0,1,0,2.573,0V3.859A3.864,3.864,0,0,0,75.113,0H30.859A3.864,3.864,0,0,0,27,3.859V62.006a3.864,3.864,0,0,0,3.859,3.859H59.933a1.286,1.286,0,0,0,0-2.573Z"/>
      <path id="Trazado_608936" data-name="Trazado 608936" d="M412.286,254a1.287,1.287,0,1,0,.909.377A1.3,1.3,0,0,0,412.286,254Z" transform="translate(-334.601 -221.324)"/>
      <path id="Trazado_608937" data-name="Trazado 608937" d="M80.286,56.573a1.287,1.287,0,1,0-.91-.377A1.3,1.3,0,0,0,80.286,56.573Z" transform="translate(-45.311 -47.053)"/>
      <path id="Trazado_608938" data-name="Trazado 608938" d="M117.3,56.842a1.287,1.287,0,1,0-1.819-1.819L101.9,68.6l-7.857-7.857a1.287,1.287,0,0,0-1.819,0L81.573,71.4V61.034a1.286,1.286,0,1,0-2.573,0V80.549a1.287,1.287,0,0,0,1.286,1.286h36.02a1.287,1.287,0,0,0,1.286-1.286V64.083a1.286,1.286,0,0,0-2.573,0v15.18h-4.631V63.752Zm-16.687,22.42H95.981V66.315l4.631,4.631ZM93.137,63.471l.271.271V79.263H88.777V67.831ZM81.573,75.036,86.2,70.4v8.858H81.573Zm26.243,4.227h-4.631V70.957l4.631-4.631Z" transform="translate(-45.311 -47.616)"/>
      <path id="Trazado_608939" data-name="Trazado 608939" d="M91.993,294H80.286a1.286,1.286,0,1,0,0,2.573H91.993a1.286,1.286,0,0,0,0-2.573Z" transform="translate(-45.311 -256.179)"/>
      <path id="Trazado_608940" data-name="Trazado 608940" d="M91.993,342H80.286a1.286,1.286,0,1,0,0,2.573H91.993a1.286,1.286,0,0,0,0-2.573Z" transform="translate(-45.311 -298.004)"/>
      <path id="Trazado_608941" data-name="Trazado 608941" d="M91.993,390H80.286a1.286,1.286,0,1,0,0,2.573H91.993a1.286,1.286,0,0,0,0-2.573Z" transform="translate(-45.311 -339.829)"/>
      <path id="Trazado_608942" data-name="Trazado 608942" d="M91.993,438H80.286a1.286,1.286,0,1,0,0,2.573H91.993a1.286,1.286,0,0,0,0-2.573Z" transform="translate(-45.311 -381.654)"/>
      <path id="Trazado_608943" data-name="Trazado 608943" d="M280.27,293.634a13.574,13.574,0,0,0-8.685,3.132l-.02-.02V293.98a1.286,1.286,0,1,0-2.573,0v.192l-1.1-1.1a1.287,1.287,0,0,0-1.819,1.819l1.1,1.1h-.192a1.286,1.286,0,0,0,0,2.573h2.765l.02.02a13.631,13.631,0,1,0,10.5-4.951Zm0,24.7a11.054,11.054,0,0,1-8.674-17.918l1.833,1.833a8.5,8.5,0,1,0,1.819-1.819l-1.833-1.833a11.06,11.06,0,1,1,6.855,19.738Zm-3.482-12.726a3.861,3.861,0,1,0,1.819-1.819l-1.509-1.509a5.926,5.926,0,1,1-1.819,1.819Zm2.279,1.746a1.284,1.284,0,0,0,1.283-1.366,1.286,1.286,0,1,1-1.362,1.362C279.014,307.351,279.04,307.353,279.067,307.353Z" transform="translate(-207.987 -255.041)"/>
    </g>
  </g>
</svg>
