<svg xmlns="http://www.w3.org/2000/svg" width="124.001" height="124" viewBox="0 0 124.001 124">
  <g id="Grupo_1015241" data-name="Grupo 1015241" transform="translate(-1088 -2058)">
    <g id="Grupo_159184" data-name="Grupo 159184" transform="translate(703.001)">
      <path id="Unión_12" data-name="Unión 12" d="M8464.769,11817.939a62.055,62.055,0,1,1,20.7-16.051l8.516,22.111Z" transform="translate(-7991 -9642)" fill="#a3bfe4"/>
      <circle id="Elipse_4842" data-name="Elipse 4842" cx="48" cy="48" r="48" transform="translate(399 2072)" fill="#e3ecf7"/>
    </g>
    <g id="objetivo_11_" data-name="objetivo (11)" transform="translate(1066.097 2081.564)">
      <g id="Grupo_1071459" data-name="Grupo 1071459" transform="translate(62.327 5.349)">
        <path id="Trazado_608864" data-name="Trazado 608864" d="M120.456,39.825a21.031,21.031,0,1,0,21.031,21.031,21.032,21.032,0,0,0-21.031-21.031Zm0,37.72a16.689,16.689,0,1,1,16.689-16.689A16.709,16.709,0,0,1,120.456,77.545Z" transform="translate(-99.425 -39.825)" fill="#e278b1"/>
      </g>
      <g id="Grupo_1071460" data-name="Grupo 1071460" transform="translate(62.327 20.953)">
        <path id="Trazado_608865" data-name="Trazado 608865" d="M103.767,161.42a16.616,16.616,0,0,1,.907-5.427h-4.54a21.142,21.142,0,0,0,0,10.855h4.54A16.617,16.617,0,0,1,103.767,161.42Z" transform="translate(-99.425 -155.993)" fill="#dd5ca2"/>
      </g>
      <g id="Grupo_1071461" data-name="Grupo 1071461" transform="translate(77.931 5.349)">
        <path id="Trazado_608866" data-name="Trazado 608866" d="M215.593,40.534v4.54a16.7,16.7,0,0,1,10.855,0v-4.54a21.141,21.141,0,0,0-10.855,0Z" transform="translate(-215.593 -39.825)" fill="#dd5ca2"/>
      </g>
      <g id="Grupo_1071462" data-name="Grupo 1071462" transform="translate(99.14 20.953)">
        <path id="Trazado_608867" data-name="Trazado 608867" d="M374.406,161.42a16.617,16.617,0,0,1-.907,5.427h4.54a21.141,21.141,0,0,0,0-10.855H373.5A16.618,16.618,0,0,1,374.406,161.42Z" transform="translate(-373.499 -155.993)" fill="#dd5ca2"/>
      </g>
      <g id="Grupo_1071463" data-name="Grupo 1071463" transform="translate(71.011 14.033)">
        <path id="Trazado_608868" data-name="Trazado 608868" d="M176.422,104.476a12.347,12.347,0,1,0,12.347,12.347A12.361,12.361,0,0,0,176.422,104.476Zm0,20.353a8.005,8.005,0,1,1,8.005-8.005A8.015,8.015,0,0,1,176.422,124.829Z" transform="translate(-164.075 -104.476)" fill="#ffe07d"/>
      </g>
      <g id="Grupo_1071464" data-name="Grupo 1071464" transform="translate(79.695 22.717)">
        <circle id="Elipse_4844" data-name="Elipse 4844" cx="3.663" cy="3.663" r="3.663" transform="translate(0)" fill="#e278b1"/>
      </g>
      <g id="Grupo_1071465" data-name="Grupo 1071465" transform="translate(81.187 1.007)">
        <path id="Trazado_608869" data-name="Trazado 608869" d="M242.822,20.526h-1.628a1.357,1.357,0,0,1-1.357-1.357V8.857A1.357,1.357,0,0,1,241.194,7.5h1.628a1.357,1.357,0,0,1,1.357,1.357V19.169A1.357,1.357,0,0,1,242.822,20.526Z" transform="translate(-239.837 -7.5)" fill="#c3247d"/>
      </g>
      <g id="Grupo_1071466" data-name="Grupo 1071466" transform="translate(57.985 24.209)">
        <path id="Trazado_608870" data-name="Trazado 608870" d="M80.126,181.594v1.628a1.357,1.357,0,0,1-1.357,1.357H68.457a1.357,1.357,0,0,1-1.357-1.357v-1.628a1.357,1.357,0,0,1,1.357-1.357H78.769A1.357,1.357,0,0,1,80.126,181.594Z" transform="translate(-67.1 -180.237)" fill="#c3247d"/>
      </g>
      <g id="Grupo_1071467" data-name="Grupo 1071467" transform="translate(95.706 24.209)">
        <path id="Trazado_608871" data-name="Trazado 608871" d="M347.926,183.222v-1.628a1.357,1.357,0,0,1,1.357-1.357h10.312a1.357,1.357,0,0,1,1.357,1.357v1.628a1.357,1.357,0,0,1-1.357,1.357H349.283A1.357,1.357,0,0,1,347.926,183.222Z" transform="translate(-347.926 -180.237)" fill="#c3247d"/>
      </g>
      <g id="Grupo_1071473" data-name="Grupo 1071473" transform="translate(89.057 42.527)">
        <g id="Grupo_1071468" data-name="Grupo 1071468" transform="translate(15.74 20.081)">
          <path id="Trazado_608872" data-name="Trazado 608872" d="M415.606,466.114h4.342v5.156h-4.342Z" transform="translate(-415.606 -466.114)" fill="#f1d0a5"/>
        </g>
        <g id="Grupo_1071469" data-name="Grupo 1071469" transform="translate(5.02)">
          <circle id="Elipse_4845" data-name="Elipse 4845" cx="5.02" cy="5.02" r="5.02" fill="#f1d0a5"/>
        </g>
        <g id="Grupo_1071470" data-name="Grupo 1071470" transform="translate(5.599 0.578)">
          <path id="Trazado_608873" data-name="Trazado 608873" d="M346.889,320.915a5.02,5.02,0,0,1-6.781,6.781,5.02,5.02,0,1,0,6.781-6.781Z" transform="translate(-340.108 -320.915)" fill="#f1b986"/>
        </g>
        <g id="Grupo_1071471" data-name="Grupo 1071471" transform="translate(0 10.041)">
          <path id="Trazado_608874" data-name="Trazado 608874" d="M313.08,391.362h-9.227a5.427,5.427,0,0,0-5.427,5.427V401.4h4.342v5.156h11.4V401.4h4.342v-4.613A5.427,5.427,0,0,0,313.08,391.362Z" transform="translate(-298.426 -391.362)" fill="#a2f4c1"/>
        </g>
        <g id="Grupo_1071472" data-name="Grupo 1071472" transform="translate(0 10.041)">
          <path id="Trazado_608875" data-name="Trazado 608875" d="M305.754,406.559V394.076a8.369,8.369,0,0,0-.452-2.714h-1.448a5.427,5.427,0,0,0-5.427,5.427V401.4h4.342v5.156Z" transform="translate(-298.427 -391.362)" fill="#78d0b1"/>
        </g>
      </g>
      <g id="Grupo_1071479" data-name="Grupo 1071479" transform="translate(57.578 42.527)">
        <g id="Grupo_1071474" data-name="Grupo 1071474" transform="translate(0 20.081)">
          <path id="Trazado_608876" data-name="Trazado 608876" d="M0,0H4.342V5.156H0Z" transform="translate(4.342 5.156) rotate(180)" fill="#f1d0a5"/>
        </g>
        <g id="Grupo_1071475" data-name="Grupo 1071475" transform="translate(5.02)">
          <circle id="Elipse_4846" data-name="Elipse 4846" cx="5.02" cy="5.02" r="5.02" fill="#f1d0a5"/>
        </g>
        <g id="Grupo_1071476" data-name="Grupo 1071476" transform="translate(5.599 0.578)">
          <path id="Trazado_608877" data-name="Trazado 608877" d="M105.75,327.7a5.02,5.02,0,0,0,6.781-6.781,5.02,5.02,0,1,1-6.781,6.781Z" transform="translate(-105.75 -320.915)" fill="#f1b986"/>
        </g>
        <g id="Grupo_1071477" data-name="Grupo 1071477" transform="translate(0 10.041)">
          <path id="Trazado_608878" data-name="Trazado 608878" d="M69.5,391.362h9.227a5.427,5.427,0,0,1,5.427,5.427V401.4H79.808v5.156h-11.4V401.4H64.069v-4.613A5.427,5.427,0,0,1,69.5,391.362Z" transform="translate(-64.069 -391.362)" fill="#ffe07d"/>
        </g>
        <g id="Grupo_1071478" data-name="Grupo 1071478" transform="translate(12.754 10.041)">
          <path id="Trazado_608879" data-name="Trazado 608879" d="M159.024,406.559V394.076a8.371,8.371,0,0,1,.452-2.714h1.448a5.427,5.427,0,0,1,5.427,5.427V401.4h-4.342v5.156Z" transform="translate(-159.024 -391.362)" fill="#ffd064"/>
        </g>
      </g>
      <g id="Grupo_1071486" data-name="Grupo 1071486" transform="translate(73.317 39.813)">
        <g id="Grupo_1071480" data-name="Grupo 1071480" transform="translate(15.739 20.081)">
          <path id="Trazado_608880" data-name="Trazado 608880" d="M298.427,445.911h4.342v7.87h-4.342Z" transform="translate(-298.427 -445.911)" fill="#f1d0a5"/>
        </g>
        <g id="Grupo_1071481" data-name="Grupo 1071481" transform="translate(0 20.081)">
          <path id="Trazado_608881" data-name="Trazado 608881" d="M0,0H4.342V7.87H0Z" transform="translate(4.342 7.87) rotate(180)" fill="#f1d0a5"/>
        </g>
        <g id="Grupo_1071482" data-name="Grupo 1071482" transform="translate(5.02)">
          <circle id="Elipse_4847" data-name="Elipse 4847" cx="5.02" cy="5.02" r="5.02" fill="#f1d0a5"/>
        </g>
        <g id="Grupo_1071483" data-name="Grupo 1071483" transform="translate(5.599 0.578)">
          <path id="Trazado_608882" data-name="Trazado 608882" d="M229.71,300.712a5.02,5.02,0,0,1-6.781,6.781,5.02,5.02,0,1,0,6.781-6.781Z" transform="translate(-222.929 -300.712)" fill="#f1b986"/>
        </g>
        <g id="Grupo_1071484" data-name="Grupo 1071484" transform="translate(0 10.041)">
          <path id="Trazado_608883" data-name="Trazado 608883" d="M195.9,371.159h-9.227a5.427,5.427,0,0,0-5.427,5.427V381.2h4.342v7.87h11.4V381.2h4.342v-4.613A5.428,5.428,0,0,0,195.9,371.159Z" transform="translate(-181.249 -371.159)" fill="#80b4fb"/>
        </g>
        <g id="Grupo_1071485" data-name="Grupo 1071485" transform="translate(4.342 10.347)">
          <path id="Trazado_608884" data-name="Trazado 608884" d="M225.682,373.437a22.647,22.647,0,0,1-12.109,12.319v5.286h11.4v-7.87h4.342v-4.613A5.429,5.429,0,0,0,225.682,373.437Z" transform="translate(-213.573 -373.437)" fill="#61a2f9"/>
        </g>
      </g>
      <g id="Grupo_1071487" data-name="Grupo 1071487" transform="translate(56.571 0)">
        <path id="Trazado_608885" data-name="Trazado 608885" d="M197.913,147.326a9.013,9.013,0,1,0-9.013-9.013A9.023,9.023,0,0,0,197.913,147.326Zm0-16.011a7,7,0,1,1-7,7A7.006,7.006,0,0,1,197.913,131.315Z" transform="translate(-171.126 -111.933)"/>
        <path id="Trazado_608886" data-name="Trazado 608886" d="M225.9,170.969a4.671,4.671,0,1,0-4.671-4.671A4.676,4.676,0,0,0,225.9,170.969Zm0-7.327a2.656,2.656,0,1,1-2.656,2.656A2.659,2.659,0,0,1,225.9,163.642Z" transform="translate(-199.11 -139.917)"/>
        <path id="Trazado_608887" data-name="Trazado 608887" d="M110.145,57.995a6.442,6.442,0,0,0-6.435-6.435h-.12a6.023,6.023,0,0,0-4.225-10.034c.139-.147.278-.3.413-.448a21.846,21.846,0,0,0,5.39-11.52h2.206a2.367,2.367,0,0,0,2.364-2.364V25.566a2.367,2.367,0,0,0-2.364-2.364h-2.206A22.047,22.047,0,0,0,86.536,4.572V2.364A2.367,2.367,0,0,0,84.172,0H82.544A2.367,2.367,0,0,0,80.18,2.364V4.572A22.047,22.047,0,0,0,61.548,23.2H59.342a2.367,2.367,0,0,0-2.364,2.364v1.628a2.367,2.367,0,0,0,2.364,2.364h2.206a21.845,21.845,0,0,0,5.39,11.52c.136.152.274.3.413.448A6.023,6.023,0,0,0,63.126,51.56h-.12A6.442,6.442,0,0,0,56.571,58v9.769a1.007,1.007,0,0,0,1.007,1.007h6.848a1.007,1.007,0,1,0,0-2.015h-1.5V59.894a1.007,1.007,0,1,0-2.015,0V61.6H58.586V58a4.425,4.425,0,0,1,4.42-4.42h9.226c.1,0,.2,0,.306.012a6.417,6.417,0,0,0-.228,1.695V66.757H69.127a1.007,1.007,0,0,0,0,2.015H97.178a1.007,1.007,0,1,0,0-2.015H94.406V55.281a6.422,6.422,0,0,0-.228-1.695c.1-.007.2-.012.306-.012h9.226a4.425,4.425,0,0,1,4.42,4.42V61.6H105.8V59.894a1.007,1.007,0,1,0-2.015,0v6.862h-1.91a1.007,1.007,0,1,0,0,2.015h7.259a1.007,1.007,0,0,0,1.007-1.007Zm-49.233,5.62v3.142H58.586V63.615Zm42.2-16.068a4.017,4.017,0,0,1-4,4.013h-.021a4.013,4.013,0,1,1,4.023-4.013ZM89.349,45.493a5.986,5.986,0,0,0-.216-2.386,17.736,17.736,0,0,0,11.633-13.548h2.365A19.96,19.96,0,0,1,89.349,45.493ZM83.358,15.04a11.34,11.34,0,1,1-11.34,11.342v-.005A11.353,11.353,0,0,1,83.358,15.04Zm3.178-2.364v-1.65A15.68,15.68,0,0,1,98.713,23.2H97.062a2.358,2.358,0,0,0-.706.108,13.4,13.4,0,0,0-9.927-9.927A2.352,2.352,0,0,0,86.537,12.676Zm-.459,26.78A13.4,13.4,0,0,0,96.356,29.451a2.356,2.356,0,0,0,.706.108h1.654A15.635,15.635,0,0,1,88.227,41.286a6.069,6.069,0,0,0-2.15-1.83Zm-5.438,0a6.067,6.067,0,0,0-2.15,1.83A15.635,15.635,0,0,1,68,29.559h1.654a2.355,2.355,0,0,0,.706-.108A13.4,13.4,0,0,0,80.639,39.456Zm-1.294,5.377a4.013,4.013,0,1,1,4.013,4.013A4.017,4.017,0,0,1,79.345,44.833Zm28.379-19.267v1.628a.35.35,0,0,1-.349.349H97.062a.35.35,0,0,1-.35-.349V25.566a.35.35,0,0,1,.35-.35h10.312A.35.35,0,0,1,107.724,25.566ZM103.129,23.2h-2.362A17.7,17.7,0,0,0,86.537,8.972V6.61A20.086,20.086,0,0,1,103.129,23.2ZM82.544,2.015h1.628a.35.35,0,0,1,.35.349V9.8s0,0,0,.007v2.864a.35.35,0,0,1-.35.349H82.544a.35.35,0,0,1-.349-.349V2.364a.35.35,0,0,1,.349-.349ZM80.18,6.61V8.974a17.643,17.643,0,0,0-7.727,3.477A1.007,1.007,0,1,0,73.7,14.036a15.633,15.633,0,0,1,6.483-3.011v1.651a2.356,2.356,0,0,0,.108.706A13.4,13.4,0,0,0,70.36,23.31a2.356,2.356,0,0,0-.706-.108H68a15.674,15.674,0,0,1,2.638-5.986,1.007,1.007,0,1,0-1.633-1.18A17.69,17.69,0,0,0,65.95,23.2H63.587A20.086,20.086,0,0,1,80.18,6.61ZM58.993,27.194V25.566a.35.35,0,0,1,.349-.35H69.654a.35.35,0,0,1,.349.35v1.628a.35.35,0,0,1-.349.35H59.342a.35.35,0,0,1-.349-.35Zm4.593,2.364h2.365A17.735,17.735,0,0,0,77.584,43.107a5.986,5.986,0,0,0-.216,2.386A19.96,19.96,0,0,1,63.586,29.559Zm.02,17.988a4.013,4.013,0,1,1,4.023,4.013h-.021A4.017,4.017,0,0,1,63.606,47.547Zm8.627,4.013h-.121a6.015,6.015,0,0,0,1.354-5.475,21.922,21.922,0,0,0,4.642,1.705,6.063,6.063,0,0,0,.757,1.057h-.12a6.433,6.433,0,0,0-5.323,2.824,6.459,6.459,0,0,0-1.189-.111Zm4.419,15.2H74.325V60.9h2.327Zm2.015-9.576a1.007,1.007,0,1,0-2.015,0v1.706H74.325V55.281a4.425,4.425,0,0,1,4.42-4.42h9.227a4.425,4.425,0,0,1,4.42,4.42v3.606H90.064V57.181a1.007,1.007,0,1,0-2.015,0v9.576H78.667V57.181Zm13.725,9.576H90.064V60.9h2.327Zm.9-15.086a6.433,6.433,0,0,0-5.323-2.824h-.12a6.058,6.058,0,0,0,.757-1.057,21.916,21.916,0,0,0,4.642-1.705A6.015,6.015,0,0,0,94.6,51.56h-.121A6.458,6.458,0,0,0,93.295,51.67ZM105.8,66.757V63.615h2.326v3.142Z" transform="translate(-56.571 0)"/>
      </g>
    </g>
  </g>
</svg>
