<svg xmlns="http://www.w3.org/2000/svg" width="124.001" height="124" viewBox="0 0 124.001 124">
  <g id="Grupo_1071488" data-name="Grupo 1071488" transform="translate(-384.999 -2058)">
    <g id="Grupo_159182" data-name="Grupo 159182" transform="translate(0.001)">
      <path id="Uni칩n_12" data-name="Uni칩n 12" d="M8464.769,11817.939a62.055,62.055,0,1,1,20.7-16.051l8.516,22.111Z" transform="translate(-7991 -9642)" fill="#a3bfe4"/>
      <circle id="Elipse_4842" data-name="Elipse 4842" cx="48" cy="48" r="48" transform="translate(399 2072)" fill="#e3ecf7"/>
    </g>
    <g id="correo-electronico_1_" data-name="correo-electronico (1)" transform="translate(417.371 2090.371)">
      <path id="Trazado_608890" data-name="Trazado 608890" d="M17.639,163,10,169.134V197.49a4.745,4.745,0,0,0,4.745,4.745H62.2a4.745,4.745,0,0,0,4.745-4.745V169.134l-7.639-5.949" transform="translate(-8.843 -144.134)" fill="#72d8ff"/>
      <rect id="Rect치ngulo_377354" data-name="Rect치ngulo 377354" width="40.74" height="44.104" transform="translate(9.259 1.157)" fill="#edf2fa"/>
      <path id="Trazado_608891" data-name="Trazado 608891" d="M46.227,236.786H30.084L10,216v28.356a4.745,4.745,0,0,0,4.745,4.745H62.2a4.745,4.745,0,0,0,4.745-4.745V216Z" transform="translate(-8.843 -191)" fill="#feda9b"/>
      <path id="Trazado_608892" data-name="Trazado 608892" d="M44.055,355.657l16.781-15.244a11.526,11.526,0,0,1,15.5,0l16.781,15.244Z" transform="translate(-38.956 -298.366)" fill="#ffb954"/>
      <g id="Grupo_1071491" data-name="Grupo 1071491" transform="translate(16.092 8.634)">
        <path id="Trazado_608893" data-name="Trazado 608893" d="M317.061,81.023a3.762,3.762,0,0,0-5.32-5.32Z" transform="translate(-291.753 -74.6)" fill="#ff5d5d"/>
        <path id="Trazado_608894" data-name="Trazado 608894" d="M152.083,197.34l-4.357,4.357a5.088,5.088,0,0,1-7.2,0h0a5.088,5.088,0,0,1,0-7.2l4.357-4.357Z" transform="translate(-139.04 -176.771)" fill="#ff5d5d"/>
      </g>
      <path id="Trazado_608895" data-name="Trazado 608895" d="M228.072,252.336l5.1,5.1-3.1,3.1-5.1-5.1Z" transform="translate(-198.936 -223.131)" fill="#6a80ff"/>
      <path id="Trazado_608896" data-name="Trazado 608896" d="M196.756,55.81l-7.2-7.2,7.888-18.525,17.828,17.828Z" transform="translate(-167.619 -26.605)" fill="#4dbaf6"/>
      <path id="Trazado_608897" data-name="Trazado 608897" d="M255.318,49.941l4.752-2.026L242.242,30.087l-2.024,4.754Z" transform="translate(-212.415 -26.605)" fill="#fff"/>
      <path id="Trazado_608898" data-name="Trazado 608898" d="M188.339,56.339a1.157,1.157,0,1,0,.818-.339A1.166,1.166,0,0,0,188.339,56.339Z" transform="translate(-166.241 -49.519)"/>
      <path id="Trazado_608899" data-name="Trazado 608899" d="M112.032,58.315h4.65a1.157,1.157,0,1,0,0-2.315h-4.65a1.157,1.157,0,1,0,0,2.315Z" transform="translate(-98.042 -49.519)"/>
      <path id="Trazado_608900" data-name="Trazado 608900" d="M112.032,114.315h5.578a1.157,1.157,0,0,0,0-2.315h-5.578a1.157,1.157,0,1,0,0,2.315Z" transform="translate(-98.042 -99.037)"/>
      <path id="Trazado_608901" data-name="Trazado 608901" d="M58.812,24.088h0l-7.639-5.949-.017-.012V16.9a1.157,1.157,0,0,0-2.315,0V32.6c0,.007,0,.014,0,.021L39.266,42.2l-1.109-1.007a12.655,12.655,0,0,0-6.108-3.063l3.005-3.005a1.158,1.158,0,0,0,0-1.637L31.167,29.6l16.942-7.223a1.157,1.157,0,0,0,.364-1.883l-5.532-5.532A4.921,4.921,0,0,0,36.178,8.2L30.645,2.664a1.157,1.157,0,0,0-1.883.365l-7.8,18.319-4.2,4.2A6.246,6.246,0,1,0,25.6,34.378l.441-.441L30,37.9c-.124,0-.249-.006-.374-.006a12.657,12.657,0,0,0-8.528,3.3L19.992,42.2l-9.577-9.577c0-.007,0-.014,0-.021V2.315H23.378a1.157,1.157,0,0,0,0-2.315H9.259A1.157,1.157,0,0,0,8.1,1.157V17.941l-.03.022L.433,24.1h0A1.155,1.155,0,0,0,0,25V53.356a5.909,5.909,0,0,0,5.9,5.9H53.356a5.909,5.909,0,0,0,5.9-5.9V25A1.154,1.154,0,0,0,58.812,24.088ZM28.2,10.267,40.873,22.944,29.4,27.834l-6.092-6.092Zm10.545-.475a2.6,2.6,0,0,1,2.467,3.435l-3.3-3.3A2.605,2.605,0,0,1,38.741,9.792ZM30.221,5.513l5.04,5.04v0h0l5.319,5.319h0l5.042,5.042-2.457,1.048L29.174,7.971Zm-9.04,28.38a3.931,3.931,0,0,1-2.78-6.71l3.538-3.538L27.5,29.2,23.96,32.741A3.9,3.9,0,0,1,21.181,33.893Zm7.954-3.052L32.6,34.3l-1.46,1.46L27.675,32.3Zm22.022-9.782,5.2,4.049-5.2,5.2ZM22.658,42.9a10.328,10.328,0,0,1,13.943,0l15.455,14.04H7.2l3.822-3.472h8.5a1.157,1.157,0,0,0,0-2.315H13.573ZM8.1,20.908v9.4L2.889,25.094ZM2.315,53.356V27.794L18.277,43.756,4.321,56.435a1.183,1.183,0,0,0-.092.094A3.591,3.591,0,0,1,2.315,53.356ZM55.03,56.528a1.165,1.165,0,0,0-.092-.094L40.982,43.756,56.944,27.794V53.356A3.591,3.591,0,0,1,55.03,56.528Z"/>
      <path id="Trazado_608902" data-name="Trazado 608902" d="M383.158,7.386a1.154,1.154,0,0,0,.818-.339l4.675-4.675A1.157,1.157,0,0,0,387.015.735L382.339,5.41a1.157,1.157,0,0,0,.818,1.976Z" transform="translate(-337.788 -0.35)"/>
      <path id="Trazado_608903" data-name="Trazado 608903" d="M345.569,4.64a1.157,1.157,0,0,0,1.157-1.157V1.157a1.157,1.157,0,1,0-2.315,0V3.482A1.157,1.157,0,0,0,345.569,4.64Z" transform="translate(-304.55)"/>
      <path id="Trazado_608904" data-name="Trazado 608904" d="M405.489,77.521h-2.4a1.157,1.157,0,1,0,0,2.315h2.4a1.157,1.157,0,0,0,0-2.315Z" transform="translate(-355.41 -68.549)"/>
      <path id="Trazado_608905" data-name="Trazado 608905" d="M200.817,444.315a1.156,1.156,0,1,0-.819-.339A1.168,1.168,0,0,0,200.817,444.315Z" transform="translate(-176.551 -390.843)"/>
    </g>
  </g>
</svg>
