<svg xmlns="http://www.w3.org/2000/svg" width="124.001" height="124" viewBox="0 0 124.001 124">
  <g id="Grupo_1071490" data-name="Grupo 1071490" transform="translate(-1087.999 -2058)">
    <g id="Grupo_159184" data-name="Grupo 159184" transform="translate(703.001)">
      <path id="Unión_12" data-name="Unión 12" d="M8464.769,11817.939a62.055,62.055,0,1,1,20.7-16.051l8.516,22.111Z" transform="translate(-7991 -9642)" fill="#a3bfe4"/>
      <circle id="Elipse_4842" data-name="Elipse 4842" cx="48" cy="48" r="48" transform="translate(399 2072)" fill="#e3ecf7"/>
    </g>
    <g id="servicio-al-cliente_1_" data-name="servicio-al-cliente (1)" transform="translate(1117.35 2087.35)">
      <circle id="Elipse_4848" data-name="Elipse 4848" cx="13.866" cy="13.866" r="13.866" transform="translate(18.784 18.784)" fill="#f2fbff"/>
      <circle id="Elipse_4849" data-name="Elipse 4849" cx="13.866" cy="13.866" r="13.866" transform="translate(0.957 0.957)" fill="#01c0fa"/>
      <path id="Trazado_608922" data-name="Trazado 608922" d="M101.822,7.5a13.981,13.981,0,0,0-2.1.159,13.868,13.868,0,0,1,0,27.415,13.867,13.867,0,1,0,2.1-27.573Z" transform="translate(-86.999 -6.543)" fill="#08a9f1"/>
      <circle id="Elipse_4850" data-name="Elipse 4850" cx="13.866" cy="13.866" r="13.866" transform="translate(36.612 0.957)" fill="#05e39c"/>
      <path id="Trazado_608923" data-name="Trazado 608923" d="M381.384,7.5a13.981,13.981,0,0,0-2.1.159,13.868,13.868,0,0,1,0,27.415,13.867,13.867,0,1,0,2.1-27.573Z" transform="translate(-330.906 -6.543)" fill="#0ed290"/>
      <path id="Trazado_608924" data-name="Trazado 608924" d="M346.314,54.094h-9.47a3.189,3.189,0,0,0-3.189,3.189v5.508a3.189,3.189,0,0,0,3.189,3.189h4.735l2.329,2.329a.957.957,0,0,0,1.633-.676V65.979h.773a3.189,3.189,0,0,0,3.189-3.189V57.283A3.188,3.188,0,0,0,346.314,54.094Z" transform="translate(-291.101 -47.195)" fill="#f2fbff"/>
      <circle id="Elipse_4851" data-name="Elipse 4851" cx="13.866" cy="13.866" r="13.866" transform="translate(36.612 36.612)" fill="#01c0fa"/>
      <path id="Trazado_608925" data-name="Trazado 608925" d="M340.368,290.581a13.871,13.871,0,0,1-12.127,24.284,13.868,13.868,0,1,0,12.127-24.284Z" transform="translate(-286.377 -253.52)" fill="#08a9f1"/>
      <path id="Trazado_608926" data-name="Trazado 608926" d="M348.228,334.333a4.108,4.108,0,0,0-.471-.443,1.055,1.055,0,0,0-1.408.075l-3.442,3.442a1.052,1.052,0,0,0-.1,1.371,3.533,3.533,0,0,0,1.344,1.09.9.9,0,0,1,.453,1.186,7.421,7.421,0,0,1-3.543,3.543.9.9,0,0,1-1.186-.453,3.5,3.5,0,0,0-.706-1.011,3.54,3.54,0,0,0-.385-.333,1.052,1.052,0,0,0-1.371.1l-3.442,3.442a1.055,1.055,0,0,0-.075,1.408,4.1,4.1,0,0,0,.443.471c2.6,2.395,7.677,1.329,11.45-2.444S350.623,336.935,348.228,334.333Z" transform="translate(-291.103 -291.101)" fill="#05e39c"/>
      <circle id="Elipse_4852" data-name="Elipse 4852" cx="13.866" cy="13.866" r="13.866" transform="translate(0.957 36.612)" fill="#05e39c"/>
      <path id="Trazado_608927" data-name="Trazado 608927" d="M60.806,290.581a13.871,13.871,0,0,1-12.127,24.284,13.868,13.868,0,1,0,12.127-24.284Z" transform="translate(-42.47 -253.52)" fill="#0ed290"/>
      <circle id="Elipse_4853" data-name="Elipse 4853" cx="7.923" cy="7.923" r="7.923" transform="translate(6.899 42.555)" fill="#01c0fa"/>
      <path id="Trazado_608928" data-name="Trazado 608928" d="M190.072,236.411h-2.049a1.913,1.913,0,0,1-1.913-1.913v-2.116a1.913,1.913,0,0,1,1.913-1.913h2.049Z" transform="translate(-162.373 -201.074)" fill="#ffc344"/>
      <path id="Trazado_608929" data-name="Trazado 608929" d="M294.828,236.411h2.049a1.913,1.913,0,0,0,1.913-1.913v-2.116a1.913,1.913,0,0,0-1.913-1.913h-2.049Z" transform="translate(-257.225 -201.074)" fill="#ffc344"/>
      <path id="Trazado_608930" data-name="Trazado 608930" d="M68.984,81.51H55.051a.957.957,0,0,1-.957-.957V70.582a.957.957,0,0,1,.957-.957H68.984a.957.957,0,0,1,.957.957v9.972A.956.956,0,0,1,68.984,81.51Z" transform="translate(-47.195 -60.745)" fill="#ffc344"/>
      <path id="Trazado_608931" data-name="Trazado 608931" d="M14.823,29.645A14.823,14.823,0,1,1,27.661,7.41a.957.957,0,0,1-1.656.958A12.857,12.857,0,1,0,27.47,12.22a.957.957,0,1,1,1.874-.383A14.835,14.835,0,0,1,14.823,29.645Z" transform="translate(0)"/>
      <path id="Trazado_608932" data-name="Trazado 608932" d="M294.385,29.645a14.823,14.823,0,1,1,10.5-4.364.957.957,0,0,1-1.356-1.35,12.872,12.872,0,1,0-3.388,2.448A.957.957,0,1,1,301,28.091,14.673,14.673,0,0,1,294.385,29.645Z" transform="translate(-243.907 0)"/>
      <path id="Elipse_4854" data-name="Elipse 4854" d="M7.323-7.5A14.823,14.823,0,1,1-7.5,7.323,14.839,14.839,0,0,1,7.323-7.5Zm0,27.732A12.91,12.91,0,1,0-5.587,7.323,12.924,12.924,0,0,0,7.323,20.232Z" transform="translate(43.156 43.155)"/>
      <path id="Elipse_4855" data-name="Elipse 4855" d="M7.323-7.5A14.823,14.823,0,1,1-7.5,7.323,14.839,14.839,0,0,1,7.323-7.5Zm0,27.732A12.91,12.91,0,1,0-5.587,7.323,12.924,12.924,0,0,0,7.323,20.232Z" transform="translate(7.5 43.155)"/>
      <path id="Trazado_608933" data-name="Trazado 608933" d="M55.473,343.916a8.88,8.88,0,1,1,5.215-16.068.957.957,0,0,1-1.125,1.548,6.951,6.951,0,1,0,2.395,3.088.957.957,0,0,1,1.78-.7,8.885,8.885,0,0,1-8.265,12.133Z" transform="translate(-40.651 -284.558)"/>
      <path id="Trazado_608934" data-name="Trazado 608934" d="M109.676,343.916a.957.957,0,1,1,0-1.913c1.419,0,3.005-2.979,3.005-6.967s-1.587-6.967-3.005-6.967a.957.957,0,1,1,0-1.913c2.8,0,4.918,3.818,4.918,8.88S112.479,343.916,109.676,343.916Z" transform="translate(-94.853 -284.558)"/>
      <path id="Trazado_608935" data-name="Trazado 608935" d="M82.575,343.916c-2.8,0-4.918-3.818-4.918-8.88s2.114-8.88,4.918-8.88a.957.957,0,1,1,0,1.913c-1.419,0-3.005,2.979-3.005,6.967S81.157,342,82.575,342a.957.957,0,1,1,0,1.913Z" transform="translate(-67.753 -284.558)"/>
      <path id="Trazado_608936" data-name="Trazado 608936" d="M214.59,202.86h-2.049a2.873,2.873,0,0,1-2.87-2.87v-7.706a5.909,5.909,0,0,1,11.817,0v6.933a.957.957,0,1,1-1.913,0v-6.933a4,4,0,0,0-7.991,0v7.706a.958.958,0,0,0,.957.957h2.049a.957.957,0,1,1,0,1.913Z" transform="translate(-182.93 -162.605)"/>
      <path id="Trazado_608937" data-name="Trazado 608937" d="M183.528,230.824H181.48a2.873,2.873,0,0,1-2.87-2.87v-2.116a2.873,2.873,0,0,1,2.87-2.87h2.049a.957.957,0,0,1,.957.957v5.943A.957.957,0,0,1,183.528,230.824Zm-2.049-5.943a.958.958,0,0,0-.957.957v2.116a.958.958,0,0,0,.957.957h1.092v-4.03Z" transform="translate(-155.83 -194.531)"/>
      <path id="Trazado_608938" data-name="Trazado 608938" d="M290.333,230.824h-2.049a.957.957,0,0,1-.957-.957v-5.943a.957.957,0,0,1,.957-.957h2.049a2.873,2.873,0,0,1,2.87,2.87v2.116A2.873,2.873,0,0,1,290.333,230.824Zm-1.092-1.913h1.092a.958.958,0,0,0,.957-.957v-2.116a.958.958,0,0,0-.957-.957h-1.092Z" transform="translate(-250.682 -194.531)"/>
      <path id="Trazado_608939" data-name="Trazado 608939" d="M340.543,326.156h0a2.017,2.017,0,0,1,1.263.446,5.068,5.068,0,0,1,.58.547c2.762,3,1.676,8.612-2.478,12.767a12.692,12.692,0,0,1-8.529,4,6.131,6.131,0,0,1-4.245-1.529,5.04,5.04,0,0,1-.54-.574,2.007,2.007,0,0,1,.144-2.685l3.442-3.442a2.008,2.008,0,0,1,2.62-.194,4.491,4.491,0,0,1,1.387,1.709,7.664,7.664,0,0,0,1.721-1.286,6.149,6.149,0,0,0,1.267-1.794,3.257,3.257,0,0,1-1.267-.824,4.488,4.488,0,0,1-.423-.489,2.018,2.018,0,0,1,.194-2.62l3.442-3.442A2,2,0,0,1,340.543,326.156ZM331.379,342a10.766,10.766,0,0,0,7.176-3.44c3.37-3.37,4.454-7.912,2.416-10.126a3.182,3.182,0,0,0-.368-.346l-.061-.022h0a.1.1,0,0,0-.07.029l-3.442,3.442a.789.789,0,0,0,.23.4,2.543,2.543,0,0,0,.735.514,1.866,1.866,0,0,1,.925,2.446,8.375,8.375,0,0,1-4.025,4.025,1.831,1.831,0,0,1-.754.162A1.871,1.871,0,0,1,332.449,338a2.542,2.542,0,0,0-.513-.735,2.591,2.591,0,0,0-.281-.243l-3.565,3.456a.1.1,0,0,0-.007.131,3.145,3.145,0,0,0,.339.361A4.263,4.263,0,0,0,331.379,342Z" transform="translate(-284.55 -284.558)"/>
      <path id="Línea_139" data-name="Línea 139" d="M9.3-5.587H-6.543A.957.957,0,0,1-7.5-6.543.957.957,0,0,1-6.543-7.5H9.3a.957.957,0,0,1,.957.957A.957.957,0,0,1,9.3-5.587Z" transform="translate(13.442 57.022)"/>
      <path id="Línea_140" data-name="Línea 140" d="M-6.543,10.26A.957.957,0,0,1-7.5,9.3V-6.543A.957.957,0,0,1-6.543-7.5a.957.957,0,0,1,.957.957V9.3A.957.957,0,0,1-6.543,10.26Z" transform="translate(21.366 49.098)"/>
      <path id="Trazado_608940" data-name="Trazado 608940" d="M330.3,46.594h9.47a4.145,4.145,0,0,1,4.145,4.145v5.508a4.15,4.15,0,0,1-3.962,4.141v.7A1.92,1.92,0,0,1,338.034,63a1.893,1.893,0,0,1-1.346-.562l-2.049-2.049H330.3a4.15,4.15,0,0,1-4.145-4.145V50.739A4.15,4.15,0,0,1,330.3,46.594Zm9.47,11.885A2.234,2.234,0,0,0,342,56.247V50.739a2.232,2.232,0,0,0-2.232-2.232H330.3a2.235,2.235,0,0,0-2.232,2.232v5.508a2.235,2.235,0,0,0,2.232,2.232h4.735a.956.956,0,0,1,.676.28l2.329,2.329V59.436a.957.957,0,0,1,.957-.957Z" transform="translate(-284.558 -40.651)"/>
      <g id="Grupo_1071504" data-name="Grupo 1071504" transform="translate(50.478 12.842)">
        <g id="Grupo_1071503" data-name="Grupo 1071503">
          <path id="Línea_141" data-name="Línea 141"/>
        </g>
      </g>
      <g id="Grupo_1071506" data-name="Grupo 1071506" transform="translate(46.516 12.842)">
        <g id="Grupo_1071505" data-name="Grupo 1071505">
          <path id="Línea_142" data-name="Línea 142"/>
        </g>
      </g>
      <g id="Grupo_1071508" data-name="Grupo 1071508" transform="translate(54.44 12.842)">
        <g id="Grupo_1071507" data-name="Grupo 1071507">
          <path id="Línea_143" data-name="Línea 143"/>
        </g>
      </g>
      <path id="Trazado_608941" data-name="Trazado 608941" d="M62.441,75.923H48.507a1.915,1.915,0,0,1-1.913-1.913V64.038a1.915,1.915,0,0,1,1.913-1.913H62.441a1.915,1.915,0,0,1,1.913,1.913V74.01A1.915,1.915,0,0,1,62.441,75.923ZM48.507,64.038V74.01H62.44V64.038Z" transform="translate(-40.651 -54.202)"/>
      <path id="Trazado_608942" data-name="Trazado 608942" d="M57.39,72.885a3.342,3.342,0,0,1-2.37-.98l-5.95-5.95A.957.957,0,0,1,50.423,64.6l5.95,5.95a1.441,1.441,0,0,0,2.035,0l5.95-5.95a.957.957,0,0,1,1.353,1.353L59.76,71.9A3.342,3.342,0,0,1,57.39,72.885Z" transform="translate(-42.567 -56.118)"/>
      <path id="Línea_144" data-name="Línea 144" d="M-.881.076A.954.954,0,0,1-1.557-.2L-7.22-5.867a.957.957,0,0,1,0-1.353.957.957,0,0,1,1.353,0L-.2-1.557A.957.957,0,0,1-.2-.2.954.954,0,0,1-.881.076Z" transform="translate(23.347 21.366)"/>
      <path id="Línea_145" data-name="Línea 145" d="M-6.543.076A.954.954,0,0,1-7.22-.2a.957.957,0,0,1,0-1.353L-1.557-7.22A.957.957,0,0,1-.2-7.22a.957.957,0,0,1,0,1.353L-5.867-.2A.954.954,0,0,1-6.543.076Z" transform="translate(13.723 21.366)"/>
      <path id="Trazado_608943" data-name="Trazado 608943" d="M216.456,353.232a14.773,14.773,0,0,1-5.157-.922.957.957,0,1,1,.666-1.794,12.97,12.97,0,0,0,8.982,0,.957.957,0,0,1,.666,1.794A14.775,14.775,0,0,1,216.456,353.232Z" transform="translate(-183.805 -305.759)"/>
      <path id="Trazado_608944" data-name="Trazado 608944" d="M141.6,222.237a.957.957,0,0,1-.9-.624,14.883,14.883,0,0,1,0-10.313.957.957,0,0,1,1.794.666,12.97,12.97,0,0,0,0,8.982.957.957,0,0,1-.9,1.29Z" transform="translate(-121.953 -183.805)"/>
      <path id="Trazado_608945" data-name="Trazado 608945" d="M211.632,142.558a.957.957,0,0,1-.333-1.854,14.883,14.883,0,0,1,10.314,0,.957.957,0,0,1-.666,1.794,12.97,12.97,0,0,0-8.982,0A.956.956,0,0,1,211.632,142.558Z" transform="translate(-183.805 -121.954)"/>
      <path id="Trazado_608946" data-name="Trazado 608946" d="M351.413,222.237a.957.957,0,0,1-.9-1.29,12.969,12.969,0,0,0,0-8.982.957.957,0,0,1,1.794-.666,14.883,14.883,0,0,1,0,10.313A.957.957,0,0,1,351.413,222.237Z" transform="translate(-305.759 -183.805)"/>
    </g>
  </g>
</svg>
