<svg xmlns="http://www.w3.org/2000/svg" width="124.001" height="124" viewBox="0 0 124.001 124">
  <g id="Grupo_1083537" data-name="Grupo 1083537" transform="translate(-1088 -2058)">
    <g id="Grupo_159184" data-name="Grupo 159184" transform="translate(703.001)">
      <path id="Unión_12" data-name="Unión 12" d="M8464.769,11817.939a62.055,62.055,0,1,1,20.7-16.051l8.516,22.111Z" transform="translate(-7991 -9642)" fill="#a3bfe4"/>
      <circle id="Elipse_4842" data-name="Elipse 4842" cx="48" cy="48" r="48" transform="translate(399 2072)" fill="#e3ecf7"/>
    </g>
    <g id="lluvia-de-ideas_1_" data-name="lluvia-de-ideas (1)" transform="translate(1117.641 2085.692)">
      <path id="Trazado_838300" data-name="Trazado 838300" d="M215.121,137.053v2.94a1.056,1.056,0,0,0,1.056,1.056h2.378a1.056,1.056,0,0,0,1.056-1.056v-2.94A1.056,1.056,0,0,0,218.555,136h-2.378A1.056,1.056,0,0,0,215.121,137.053Zm0,0" transform="translate(-183.677 -116.118)" fill="#86919e"/>
      <path id="Trazado_838301" data-name="Trazado 838301" d="M29.119,102.728,17.588,83.605a2.751,2.751,0,0,0-3.781-.934L8.8,85.7a2.76,2.76,0,0,0-.935,3.787L19.71,109.138Zm0,0" transform="translate(-6.374 -70.248)" fill="#84eaf5"/>
      <path id="Trazado_838302" data-name="Trazado 838302" d="M188.932,16.055a8.582,8.582,0,1,0-12.016,7.866V25.96a1.881,1.881,0,0,0,1.881,1.881h3.1a1.881,1.881,0,0,0,1.881-1.881V23.921a8.583,8.583,0,0,0,5.15-7.866Zm0,0" transform="translate(-146.66 -6.379)" fill="#feda5f"/>
      <path id="Trazado_838303" data-name="Trazado 838303" d="M341.388,102.191l5.351-8.873-.074-11.045-9.805,5.095-5.282,8.758Zm0,0" transform="translate(-283.112 -70.247)" fill="#fce49d"/>
      <path id="Trazado_838304" data-name="Trazado 838304" d="M312.95,121.47v0l-4.115-4.343-10.08,16.743,3.715,5.026,5.9,1.384,10.344-17.2Zm0,0" transform="translate(-255.086 -100.008)" fill="#f4c84e"/>
      <path id="Trazado_838305" data-name="Trazado 838305" d="M340.708,165.641l10.344-17.2-5.763-1.609-8.66,14.3Zm0,0" transform="translate(-287.424 -125.366)" fill="#feda5f"/>
      <path id="Trazado_838306" data-name="Trazado 838306" d="M414.342,82.273l-3.5,1.82,3.529,2.171Zm0,0" transform="translate(-350.788 -70.247)" fill="#86919e"/>
      <path id="Trazado_838307" data-name="Trazado 838307" d="M73.478,225.148H87.716a8.413,8.413,0,0,0,.582-16.805,8.413,8.413,0,0,0-12.294-9.2,8.415,8.415,0,0,0-15.546,0,8.412,8.412,0,0,0-12.288,9.221,8.414,8.414,0,0,0,.872,16.783Zm0,0" transform="translate(-34.69 -165.603)" fill="#f0a8d0"/>
      <path id="Trazado_838308" data-name="Trazado 838308" d="M300.089,232.483a8.413,8.413,0,0,0-11.413-9.623,8.411,8.411,0,0,1,5,9.623,8.413,8.413,0,0,1-.582,16.805h6.41a8.413,8.413,0,0,0,.582-16.805Zm0,0" transform="translate(-246.481 -189.743)" fill="#ea89bf"/>
      <path id="Trazado_838309" data-name="Trazado 838309" d="M178.932,293.324l7.958.1-4.4,11.359,7.271.191-15.494,19.235,5.391-14.217-6.717-.084Zm0,0" transform="translate(-147.666 -250.449)" fill="#feda5f"/>
      <path id="Trazado_838310" data-name="Trazado 838310" d="M296.841,110.556l2.331,1.457a1.093,1.093,0,0,0,1.159-1.853L298,108.7A1.093,1.093,0,0,0,296.841,110.556Zm0,0" transform="translate(-253.023 -92.665)"/>
      <path id="Trazado_838311" data-name="Trazado 838311" d="M299.464,4.538a1.089,1.089,0,0,0,.578-.166l2.331-1.457a1.093,1.093,0,0,0-1.158-1.853l-2.331,1.457a1.1,1.1,0,0,0,.58,2.02Zm0,0" transform="translate(-254.775 -0.758)"/>
      <path id="Trazado_838312" data-name="Trazado 838312" d="M310.219,60.842a1.092,1.092,0,0,0,1.092,1.093h2.914a1.093,1.093,0,0,0,0-2.185h-2.914A1.092,1.092,0,0,0,310.219,60.842Zm0,0" transform="translate(-264.875 -51.016)"/>
      <path id="Trazado_838313" data-name="Trazado 838313" d="M136.721,108.705l-2.331,1.457a1.093,1.093,0,0,0,1.158,1.853l2.331-1.457A1.093,1.093,0,0,0,136.721,108.705Zm0,0" transform="translate(-114.319 -92.667)"/>
      <path id="Trazado_838314" data-name="Trazado 838314" d="M132.388,2.914l2.331,1.457a1.093,1.093,0,0,0,1.158-1.853l-2.331-1.457a1.093,1.093,0,0,0-1.158,1.853Zm0,0" transform="translate(-112.608 -0.757)"/>
      <path id="Trazado_838315" data-name="Trazado 838315" d="M117.164,61.935h2.914a1.093,1.093,0,0,0,0-2.185h-2.914A1.093,1.093,0,0,0,117.164,61.935Zm0,0" transform="translate(-99.136 -51.016)"/>
      <path id="Trazado_838316" data-name="Trazado 838316" d="M169.437,18.227v1.354a2.968,2.968,0,0,0,1.188,2.372v2.978a1.093,1.093,0,0,0,1.093,1.092h4.491a1.092,1.092,0,0,0,1.092-1.092V21.953a2.966,2.966,0,0,0,1.188-2.372V18.227a9.684,9.684,0,0,0,5.092-9.612,1.093,1.093,0,0,0-2.172.238,7.5,7.5,0,0,1-4.45,7.688,1.094,1.094,0,0,0-.655,1v2.04a.789.789,0,0,1-.788.789h-3.1a.79.79,0,0,1-.789-.789v-2.04a1.091,1.091,0,0,0-.655-1,7.49,7.49,0,1,1,7.19-13.071,1.093,1.093,0,0,0,1.225-1.809,9.676,9.676,0,1,0-9.946,16.567Zm3.373,5.612V22.554h2.305v1.284Zm0,0" transform="translate(-140.274 0)"/>
      <path id="Trazado_838317" data-name="Trazado 838317" d="M59.207,96.375l.005-.007,5.351-8.873a1.111,1.111,0,0,0,.157-.572l-.074-11.044a1.1,1.1,0,0,0-1.6-.963L53.244,80.01c-.634.329-.958,1.277-1.3,1.839L43.78,95.392a9.514,9.514,0,0,0-1.958.557,9.509,9.509,0,0,0-16.559,0,9.546,9.546,0,0,0-1.8-.529L12.15,76.653a3.845,3.845,0,0,0-5.283-1.3l-5.01,3.03A3.858,3.858,0,0,0,.552,83.665l11.761,19.5a9.516,9.516,0,0,0-.086,2.553A9.508,9.508,0,0,0,14.352,124.5h3.312a1.093,1.093,0,0,0,0-2.185H14.352a7.322,7.322,0,0,1-.76-14.6,1.1,1.1,0,0,0,.954-1.328,7.318,7.318,0,0,1,7.138-8.945,7.508,7.508,0,0,1,6.006,3.115,1.093,1.093,0,0,0,1.732-1.332A11.634,11.634,0,0,0,27.177,97a7.322,7.322,0,0,1,13.128.816,1.1,1.1,0,0,0,1.54.536,7.321,7.321,0,0,1,10.874,6.4,7.206,7.206,0,0,1-.051.85,7.84,7.84,0,0,0-4.351,1.821,1.093,1.093,0,0,0,1.546,1.545,6.175,6.175,0,0,1,3.776-1.24c3.734,0,6.708,3.711,6.708,7.258a7.329,7.329,0,0,1-7.321,7.322H40.339l2.612-3.242a1.109,1.109,0,0,0-.823-1.777l-5.721-.15,3.836-9.914a1.1,1.1,0,0,0-1.005-1.487l-7.958-.1a1.086,1.086,0,0,0-1.041.722l-5.978,16.558a1.11,1.11,0,0,0,.979,1.576h5.173l-4.829,12.735a1.1,1.1,0,0,0,1.873,1.073l11.137-13.826a1.1,1.1,0,0,0,.195.018H53.026a9.506,9.506,0,0,0,1.836-18.833c.057-.587-.214-1.732.071-2.2Zm-45.988,4.064L2.424,82.536a1.669,1.669,0,0,1,.565-2.287L8,77.218a1.657,1.657,0,0,1,2.28.563l1.135,1.881L9.361,80.9a1.093,1.093,0,0,0,1.131,1.87l2.049-1.24,2.215,3.674-3.284,1.986a1.093,1.093,0,0,0,1.131,1.87l3.281-1.984L18.1,90.753l-2.052,1.241a1.093,1.093,0,1,0,1.131,1.87l2.049-1.24,1.607,2.666a9.52,9.52,0,0,0-7.617,5.149Zm19.8,23.351a1.093,1.093,0,0,0-1.008-1.48l-5.182-.065,5.2-14.408,5.608.07L33.81,117.8a1.093,1.093,0,0,0,.991,1.487l5.063.132-9.8,12.169ZM46.386,95.3l3.01-4.989L49.4,90.3l4.54-7.529L56.5,85.468l-6.627,10.9A9.444,9.444,0,0,0,46.386,95.3Zm12.06-10.951-2.907-3.068,4.434-2.3,2.519,1.518.033,4.993Zm4.029-6.417-.228-.137.227-.118ZM51.667,97.618l6.7-11.021,3.582,1-7.933,13.152a9.558,9.558,0,0,0-2.35-3.131Zm0,0" transform="translate(0 -63.859)"/>
    </g>
  </g>
</svg>
