<svg xmlns="http://www.w3.org/2000/svg" width="124.001" height="124" viewBox="0 0 124.001 124">
  <g id="Grupo_1083633" data-name="Grupo 1083633" transform="translate(-737 -2058)">
    <g id="Grupo_159183" data-name="Grupo 159183" transform="translate(352.001)">
      <path id="Unión_12" data-name="Unión 12" d="M8464.769,11817.939a62.055,62.055,0,1,1,20.7-16.051l8.516,22.111Z" transform="translate(-7991 -9642)" fill="#a3bfe4"/>
      <circle id="Elipse_4842" data-name="Elipse 4842" cx="48" cy="48" r="48" transform="translate(399 2072)" fill="#fffbe5"/>
    </g>
    <g id="Layer_x0020_1" transform="translate(772.521 2094.709)">
      <g id="_278720528" transform="translate(0 0.194)">
        <g id="Grupo_1083638" data-name="Grupo 1083638" transform="translate(5.162 5.161)">
          <path id="_278723600" d="M40.514,45.363H.9A.761.761,0,0,1,.136,44.6V1.09A.761.761,0,0,1,.9.329H31.574a.762.762,0,0,1,.538.223l8.94,8.941a.761.761,0,0,1,.223.538V44.6a.763.763,0,0,1-.762.761ZM1.657,43.841h38.1V10.347l-8.495-8.5H1.657v41.99Z" transform="translate(-0.136 -0.329)" fill-rule="evenodd"/>
        </g>
        <g id="Grupo_1083639" data-name="Grupo 1083639" transform="translate(35.838 5.161)">
          <path id="_278723192" d="M10.654,10.793H1.7a.761.761,0,0,1-.761-.761V1.091a.761.761,0,0,1,1.3-.538l8.87,8.871a.761.761,0,0,1-.458,1.369ZM2.464,9.271H8.807L2.464,2.928Z" transform="translate(-0.942 -0.329)" fill-rule="evenodd"/>
        </g>
        <g id="Grupo_1083640" data-name="Grupo 1083640" transform="translate(8.22 9.7)">
          <path id="_278722640" d="M7.853,15.705A7.628,7.628,0,0,1,7.836.449,7.712,7.712,0,0,1,8.758.5a.76.76,0,0,1,.664.846L8.691,7.413l6.062.731a.761.761,0,0,1,.664.847,7.629,7.629,0,0,1-7.565,6.714ZM7.816,1.97a6.106,6.106,0,0,0-.7,12.169,6.223,6.223,0,0,0,.74.044A6.106,6.106,0,0,0,13.77,9.557L7.754,8.831a.761.761,0,0,1-.664-.847L7.815,1.97Z" transform="translate(-0.216 -0.449)" fill-rule="evenodd"/>
        </g>
        <g id="Grupo_1083641" data-name="Grupo 1083641" transform="translate(17.364 7.696)">
          <path id="_278722736" d="M8.251,9.856c-.268,0-1.852-.189-6.054-.723L1.126,9a.761.761,0,0,1-.664-.847c.016-.137.061-.528.121-1.059C1.3.823,1.3.823,1.6.588A.914.914,0,0,1,2.17.4C3.785.4,8.484,6.9,8.984,8.351a1.093,1.093,0,0,1-.243,1.342.817.817,0,0,1-.49.164ZM2.06,7.582l.33.042c1.094.139,3.508.446,4.885.608a32.545,32.545,0,0,0-4.6-5.869c-.171,1.378-.448,3.8-.573,4.9-.014.112-.025.218-.037.316Z" transform="translate(-0.457 -0.396)" fill-rule="evenodd"/>
        </g>
        <g id="Grupo_1083642" data-name="Grupo 1083642" transform="translate(9.686 16.567)">
          <path id="_278722568" d="M1.016,6.39a.761.761,0,0,1-.47-1.36L5.948.792a.761.761,0,0,1,.939,1.2l-5.4,4.239A.757.757,0,0,1,1.016,6.39Z" transform="translate(-0.255 -0.629)" fill-rule="evenodd"/>
        </g>
        <g id="Grupo_1083643" data-name="Grupo 1083643" transform="translate(31.644 25.143)">
          <path id="_278722688" d="M9.747,22.3H3.939a.761.761,0,0,1-.761-.761V9.19H1.592a.761.761,0,0,1-.6-1.226L6.24,1.151a.762.762,0,0,1,1.206,0l5.185,6.73A.761.761,0,0,1,12.1,9.19h-1.6V21.536a.761.761,0,0,1-.761.762ZM4.7,20.776H8.987V8.43a.761.761,0,0,1,.761-.761h.8l-3.7-4.807-3.7,4.807h.8A.761.761,0,0,1,4.7,8.43V20.776h0Z" transform="translate(-0.832 -0.855)" fill-rule="evenodd"/>
        </g>
        <g id="Grupo_1083644" data-name="Grupo 1083644" transform="translate(26.58 34.879)">
          <path id="_278722472" d="M6.077,12.818H1.46A.761.761,0,0,1,.7,12.057V1.871A.761.761,0,0,1,1.46,1.11H6.077a.761.761,0,0,1,.761.761V12.057A.761.761,0,0,1,6.077,12.818ZM2.221,11.3h3.1V2.632h-3.1Z" transform="translate(-0.699 -1.11)" fill-rule="evenodd"/>
        </g>
        <g id="Grupo_1083645" data-name="Grupo 1083645" transform="translate(19.169 37.896)">
          <path id="_278722928" d="M5.882,9.88H1.265A.761.761,0,0,1,.5,9.119V1.951a.761.761,0,0,1,.761-.761H5.882a.761.761,0,0,1,.761.761V9.119A.761.761,0,0,1,5.882,9.88ZM2.026,8.358h3.1V2.711h-3.1V8.358Z" transform="translate(-0.504 -1.19)" fill-rule="evenodd"/>
        </g>
        <g id="Grupo_1083646" data-name="Grupo 1083646" transform="translate(16.69 45.065)">
          <path id="_278722712" d="M25.6,2.9H1.2a.761.761,0,0,1,0-1.522H25.6a.761.761,0,0,1,0,1.522Z" transform="translate(-0.439 -1.378)" fill-rule="evenodd"/>
        </g>
        <g id="Grupo_1083647" data-name="Grupo 1083647" transform="translate(44.779 28.02)">
          <path id="_278722400" d="M8.588,19.807a9.421,9.421,0,0,1-7.233-3.376.764.764,0,0,1-.178-.489V4.8a.764.764,0,0,1,.178-.489,9.438,9.438,0,1,1,7.233,15.5ZM2.7,15.659a7.916,7.916,0,1,0,0-10.579V15.659Z" transform="translate(-1.177 -0.93)" fill-rule="evenodd"/>
        </g>
        <g id="Grupo_1083648" data-name="Grupo 1083648" transform="translate(49.517 32.874)">
          <path id="_278721800" d="M3.974,10.224A2.675,2.675,0,0,1,1.3,7.552a.761.761,0,1,1,1.522,0,1.15,1.15,0,0,0,2.3,0c0-.816-.319-.931-1.326-1.171-.934-.222-2.5-.594-2.5-2.651a2.672,2.672,0,0,1,5.345,0,.761.761,0,1,1-1.522,0,1.15,1.15,0,0,0-2.3,0c0,.816.318.931,1.326,1.171.934.222,2.5.595,2.5,2.652a2.675,2.675,0,0,1-2.673,2.672Z" transform="translate(-1.302 -1.058)" fill-rule="evenodd"/>
        </g>
        <g id="Grupo_1083649" data-name="Grupo 1083649" transform="translate(51.429 40.519)">
          <path id="_278721944" d="M2.112,3.8a.761.761,0,0,1-.761-.761V2.019a.761.761,0,0,1,1.522,0V3.034A.761.761,0,0,1,2.112,3.8Z" transform="translate(-1.352 -1.259)" fill-rule="evenodd"/>
        </g>
        <g id="Grupo_1083650" data-name="Grupo 1083650" transform="translate(44.779 24.723)">
          <path id="_278721632" d="M8.589,26.316a12.679,12.679,0,0,1-7.074-2.144.763.763,0,0,1-.338-.633V3.619a.761.761,0,0,1,.338-.633A12.737,12.737,0,1,1,8.589,26.316ZM2.7,23.124a11.214,11.214,0,1,0,0-19.091V23.124Z" transform="translate(-1.177 -0.843)" fill-rule="evenodd"/>
        </g>
        <g id="Grupo_1083651" data-name="Grupo 1083651" transform="translate(51.429 31.861)">
          <path id="_278722304" d="M2.112,3.568a.761.761,0,0,1-.761-.761V1.792a.761.761,0,0,1,1.522,0V2.807A.761.761,0,0,1,2.112,3.568Z" transform="translate(-1.352 -1.031)" fill-rule="evenodd"/>
        </g>
        <g id="Grupo_1083652" data-name="Grupo 1083652">
          <path id="_278722280" d="M5.923,46.575H.761A.761.761,0,0,1,0,45.814V.955A.761.761,0,0,1,.761.194H31.656a.761.761,0,0,1,.761.761V6.116a.761.761,0,0,1-.761.761H6.683V45.814a.761.761,0,0,1-.76.761Zm-4.4-1.522h3.64V6.116a.761.761,0,0,1,.761-.761H30.9V1.716H1.522V45.053Z" transform="translate(0 -0.194)" fill-rule="evenodd"/>
        </g>
        <g id="Grupo_1083653" data-name="Grupo 1083653" transform="translate(10.39 18.44)">
          <path id="_278721848" d="M1.033,18.787a.761.761,0,0,1-.1-1.516,32.819,32.819,0,0,0,12.708-4.948.761.761,0,1,1,.86,1.255,33.777,33.777,0,0,1-13.375,5.2.89.89,0,0,1-.1.006ZM18.508,9.77a.761.761,0,0,1-.578-1.256,18.46,18.46,0,0,0,3.842-7.272.761.761,0,0,1,1.47.395A19.966,19.966,0,0,1,19.087,9.5a.757.757,0,0,1-.579.266Z" transform="translate(-0.273 -0.678)" fill-rule="evenodd"/>
        </g>
        <g id="Grupo_1083654" data-name="Grupo 1083654" transform="translate(28.197 18.44)">
          <path id="_278722160" d="M6.334,6.235a.761.761,0,0,1-.731-.55L4.7,2.57,1.873,4.149A.761.761,0,1,1,1.131,2.82L4.8.775a.761.761,0,0,1,1.1.453L7.066,5.262a.761.761,0,0,1-.52.942.777.777,0,0,1-.212.03Z" transform="translate(-0.741 -0.678)" fill-rule="evenodd"/>
        </g>
        <g id="Grupo_1083655" data-name="Grupo 1083655" transform="translate(8.64 39.532)">
          <path id="_278720840" d="M8,2.754H6.427a.761.761,0,1,1,0-1.522H8A.761.761,0,1,1,8,2.754Zm-3.5,0H.988a.761.761,0,1,1,0-1.522h3.5a.761.761,0,0,1,0,1.522Z" transform="translate(-0.227 -1.233)" fill-rule="evenodd"/>
        </g>
        <g id="Grupo_1083656" data-name="Grupo 1083656" transform="translate(8.64 42.867)">
          <path id="_278721080" d="M8,2.842H4.7a.761.761,0,1,1,0-1.522H8A.761.761,0,1,1,8,2.842Zm-5.166,0H.988a.761.761,0,1,1,0-1.522H2.83a.761.761,0,0,1,0,1.522Z" transform="translate(-0.227 -1.32)" fill-rule="evenodd"/>
        </g>
        <g id="Grupo_1083657" data-name="Grupo 1083657" transform="translate(36.147 19.15)">
          <path id="_278721440" d="M7.741,2.219H6.391A.761.761,0,1,1,6.391.7H7.741a.761.761,0,1,1,0,1.522Zm-3.015,0H1.711A.761.761,0,1,1,1.711.7H4.726a.761.761,0,1,1,0,1.522Z" transform="translate(-0.95 -0.697)" fill-rule="evenodd"/>
        </g>
        <g id="Grupo_1083658" data-name="Grupo 1083658" transform="translate(36.147 22.485)">
          <path id="_278721320" d="M7.741,2.306H4.909a.761.761,0,1,1,0-1.522H7.741a.761.761,0,1,1,0,1.522Zm-4.446,0H1.711a.761.761,0,1,1,0-1.522H3.3a.761.761,0,1,1,0,1.522Z" transform="translate(-0.95 -0.785)" fill-rule="evenodd"/>
        </g>
        <g id="Grupo_1083659" data-name="Grupo 1083659" transform="translate(9.24 27.153)">
          <path id="_278721176" d="M7.034,2.429H5.684a.761.761,0,1,1,0-1.522h1.35a.761.761,0,0,1,0,1.522Zm-3.015,0H1A.761.761,0,0,1,1,.907H4.019a.761.761,0,0,1,0,1.522Z" transform="translate(-0.243 -0.907)" fill-rule="evenodd"/>
        </g>
        <g id="Grupo_1083660" data-name="Grupo 1083660" transform="translate(9.24 30.487)">
          <path id="_278721032" d="M7.035,2.517H4.2A.761.761,0,0,1,4.2.995H7.035a.761.761,0,0,1,0,1.522Zm-4.446,0H1A.761.761,0,0,1,1,.995H2.589a.761.761,0,1,1,0,1.522Z" transform="translate(-0.243 -0.995)" fill-rule="evenodd"/>
        </g>
        <g id="Grupo_1083661" data-name="Grupo 1083661" transform="translate(25.423 9.176)">
          <path id="_278720864" d="M9.687,1.957H7.838a.761.761,0,1,1,0-1.522H9.687a.761.761,0,1,1,0,1.522Zm-4.129,0H1.429a.761.761,0,0,1,0-1.522H5.558a.761.761,0,1,1,0,1.522Z" transform="translate(-0.668 -0.435)" fill-rule="evenodd"/>
        </g>
        <g id="Grupo_1083662" data-name="Grupo 1083662" transform="translate(25.423 12.511)">
          <path id="_278720792" d="M9.688,2.044H5.809a.761.761,0,0,1,0-1.522H9.688a.761.761,0,0,1,0,1.522Zm-6.088,0H1.429a.761.761,0,0,1,0-1.522H3.6a.761.761,0,0,1,0,1.522Z" transform="translate(-0.668 -0.523)" fill-rule="evenodd"/>
        </g>
        <g id="Grupo_1083663" data-name="Grupo 1083663" transform="translate(22.806 25.155)">
          <path id="_278720552" d="M4.333,8.321A3.733,3.733,0,1,1,8.065,4.588,3.737,3.737,0,0,1,4.333,8.321Zm0-5.944A2.211,2.211,0,1,0,6.544,4.588,2.214,2.214,0,0,0,4.333,2.376Z" transform="translate(-0.6 -0.855)" fill-rule="evenodd"/>
        </g>
      </g>
      <path id="Trazado_838322" data-name="Trazado 838322" d="M4.441,3.873H29.413V.234H.04V43.571H3.68V4.634a.761.761,0,0,1,.761-.761Z" transform="translate(1.482 1.482)" fill="#d4d8e0" fill-rule="evenodd"/>
      <path id="Trazado_838323" data-name="Trazado 838323" d="M6.333.489a6.1,6.1,0,0,0-5.2,9.247L5.645,6.191l.688-5.7Z" transform="translate(9.487 10.927)" fill="#ffc107" fill-rule="evenodd"/>
      <path id="Trazado_838324" data-name="Trazado 838324" d="M10.523,1.358,4.821.67.3,4.215A6.076,6.076,0,0,0,3.867,5.939a6.223,6.223,0,0,0,.74.044,6.106,6.106,0,0,0,5.916-4.626Z" transform="translate(11.251 17.645)" fill="#2196f3" fill-rule="evenodd"/>
      <path id="Trazado_838325" data-name="Trazado 838325" d="M.828,5.708c1.094.139,3.508.446,4.885.608A32.545,32.545,0,0,0,1.109.448C.937,1.826.66,4.251.535,5.35L.5,5.667l.33.042Z" transform="translate(18.469 9.409)" fill="#4caf50" fill-rule="evenodd"/>
      <path id="Trazado_838326" data-name="Trazado 838326" d="M.982.4V6.741H7.325Z" transform="translate(36.379 7.555)" fill="#d4d8e0" fill-rule="evenodd"/>
      <path id="Trazado_838327" data-name="Trazado 838327" d="M27.935,7.72H24.056a.761.761,0,0,1,0-1.522h3.879a.761.761,0,0,1,0,1.522Zm1.4.83V.369H.176v41.99h38.1V9.31H30.092a.761.761,0,0,1-.761-.761Zm-7.484-.83H19.676a.761.761,0,0,1,0-1.522h2.171a.761.761,0,0,1,0,1.522Zm6.088-3.335H26.086a.761.761,0,1,1,0-1.522h1.849a.761.761,0,1,1,0,1.522Zm-4.129,0H19.677a.761.761,0,0,1,0-1.522h4.129a.761.761,0,1,1,0,1.522ZM21.786,15.3a.761.761,0,0,1,.294-1.035l3.641-2.031.026-.015a.761.761,0,0,1,1.1.453l0,.014,1.162,4.02a.761.761,0,0,1-.52.942.777.777,0,0,1-.212.03.761.761,0,0,1-.731-.55l-.489-1.694a19.95,19.95,0,0,1-2.957,5.02,3.731,3.731,0,0,1-5.528,4.927A33.921,33.921,0,0,1,4.74,30.229a.892.892,0,0,1-.1.006.761.761,0,0,1-.1-1.516,33.046,33.046,0,0,0,12.11-4.55A3.732,3.732,0,0,1,22,19.4a18.427,18.427,0,0,0,2.8-4.909l-1.977,1.1a.761.761,0,0,1-1.035-.294Zm8.614-.946a.761.761,0,1,1,0-1.522h3.015a.761.761,0,1,1,0,1.522Zm4.68,0a.761.761,0,1,1,0-1.522h1.351a.761.761,0,1,1,0,1.522ZM18.651,10.843c-.268,0-1.852-.189-6.054-.723l-1.071-.135a.761.761,0,0,1-.664-.847l.121-1.059c.715-6.27.715-6.27,1.017-6.5a.914.914,0,0,1,.569-.192c1.615,0,6.314,6.506,6.814,7.955a1.093,1.093,0,0,1-.243,1.342.817.817,0,0,1-.49.164Zm-1.737,1.086A7.624,7.624,0,0,1,3.388,15.778c-.016-.017-.032-.035-.047-.054s-.028-.038-.041-.058A7.624,7.624,0,0,1,9.332,3.387a7.712,7.712,0,0,1,.923.056.76.76,0,0,1,.664.846l-.731,6.062,6.062.731a.761.761,0,0,1,.664.847Zm8.536,16.637a.761.761,0,0,1,.761.761v9.424h1.271V27.165H25.9a.761.761,0,0,1-.6-1.226l5.25-6.814a.762.762,0,0,1,1.206,0l5.185,6.73a.761.761,0,0,1-.528,1.309h-1.6V38.751h.527a.761.761,0,0,1,0,1.522h-24.4a.761.761,0,0,1,0-1.522h1.718V32.343a.761.761,0,0,1,.761-.761h4.617a.761.761,0,0,1,.761.761v6.408h1.271V29.327a.761.761,0,0,1,.761-.761h4.617ZM8.174,20.839h1.35a.761.761,0,0,1,0,1.522H8.174a.761.761,0,0,1,0-1.522ZM3.493,24.174H5.078a.761.761,0,1,1,0,1.522H3.493a.761.761,0,0,1,0-1.522Zm6.031,0a.761.761,0,0,1,0,1.522H6.692a.761.761,0,0,1,0-1.522ZM29.64,16.932a.761.761,0,0,1,.761-.761h1.585a.761.761,0,1,1,0,1.522H30.4a.761.761,0,0,1-.761-.761Zm3.958.761a.761.761,0,1,1,0-1.522h2.833a.761.761,0,1,1,0,1.522ZM6.509,20.839a.761.761,0,0,1,0,1.522H3.494a.761.761,0,0,1,0-1.522ZM9.9,33.219a.761.761,0,1,1,0,1.522H8.333a.761.761,0,1,1,0-1.522ZM6.611,36.554H9.9a.761.761,0,1,1,0,1.522H6.611a.761.761,0,1,1,0-1.522ZM6.4,33.219a.761.761,0,0,1,0,1.522h-3.5a.761.761,0,1,1,0-1.522ZM4.736,36.554a.761.761,0,0,1,0,1.522H2.894a.761.761,0,1,1,0-1.522Z" transform="translate(6.507 6.507)" fill="#ecf0f9" fill-rule="evenodd"/>
      <path id="Trazado_838328" data-name="Trazado 838328" d="M3.64,6.877V1.23H.544V6.877Z" transform="translate(20.147 38.381)" fill="#f8cf26" fill-rule="evenodd"/>
      <path id="Trazado_838329" data-name="Trazado 838329" d="M.739,1.15V9.813h3.1V1.15Z" transform="translate(27.363 35.444)" fill="#39b54a" fill-rule="evenodd"/>
      <path id="Trazado_838330" data-name="Trazado 838330" d="M2.453,6.475V18.821H6.74V6.475A.761.761,0,0,1,7.5,5.714h.8L4.6.907.892,5.714h.8a.761.761,0,0,1,.761.761Z" transform="translate(33.059 26.437)" fill="#177dc0" fill-rule="evenodd"/>
      <path id="Trazado_838331" data-name="Trazado 838331" d="M2.851,5.317A2.211,2.211,0,1,0,.64,3.106,2.214,2.214,0,0,0,2.851,5.317Z" transform="translate(23.688 25.976)" fill="#f25960" fill-rule="evenodd"/>
      <path id="Trazado_838332" data-name="Trazado 838332" d="M7.107,2.659a9.439,9.439,0,1,1-5.89,16.814v2.169a11.214,11.214,0,1,0,0-19.092V4.722a9.415,9.415,0,0,1,5.89-2.063Z" transform="translate(45.084 25.554)" fill="#ffcb49" fill-rule="evenodd"/>
      <path id="Trazado_838333" data-name="Trazado 838333" d="M15.022,8.886A7.916,7.916,0,0,0,1.217,3.6V14.176a7.916,7.916,0,0,0,13.805-5.29ZM7.867,4.413A2.677,2.677,0,0,1,9.778,6.974a.761.761,0,1,1-1.522,0A1.152,1.152,0,0,0,7.135,5.825H7.077A1.151,1.151,0,0,0,5.956,6.974c0,.816.318.931,1.326,1.171.934.222,2.5.595,2.5,2.652a2.677,2.677,0,0,1-1.912,2.562v.364a.761.761,0,1,1-1.522,0v-.364A2.677,2.677,0,0,1,4.434,10.8a.761.761,0,1,1,1.522,0,1.15,1.15,0,0,0,2.3,0c0-.816-.319-.931-1.326-1.171C6,9.4,4.434,9.031,4.434,6.974A2.677,2.677,0,0,1,6.345,4.412V4.049a.761.761,0,0,1,1.522,0v.364Z" transform="translate(45.084 28.766)" fill="#ffad09" fill-rule="evenodd"/>
    </g>
  </g>
</svg>
