<svg xmlns="http://www.w3.org/2000/svg" width="124.001" height="124" viewBox="0 0 124.001 124">
  <g id="Grupo_1083634" data-name="Grupo 1083634" transform="translate(-1088 -2058)">
    <g id="Grupo_159184" data-name="Grupo 159184" transform="translate(703.001)">
      <path id="Unión_12" data-name="Unión 12" d="M8464.769,11817.939a62.055,62.055,0,1,1,20.7-16.051l8.516,22.111Z" transform="translate(-7991 -9642)" fill="#a3bfe4"/>
      <circle id="Elipse_4842" data-name="Elipse 4842" cx="48" cy="48" r="48" transform="translate(399 2072)" fill="#e3ecf7"/>
    </g>
    <g id="Layer_22" transform="translate(1103.353 2081.666)">
      <g id="Grupo_1083754" data-name="Grupo 1083754" transform="translate(14.55 0)">
        <g id="Grupo_1083665" data-name="Grupo 1083665" transform="translate(8.13 6.625)">
          <g id="Grupo_1083664" data-name="Grupo 1083664">
            <path id="Trazado_838334" data-name="Trazado 838334" d="M74.55,59.993H90.376V25.542A1.547,1.547,0,0,0,88.834,24H45.542A1.547,1.547,0,0,0,44,25.542V85.81a1.547,1.547,0,0,0,1.542,1.542H88.834a1.547,1.547,0,0,0,1.542-1.542v-1.8H74.55a.987.987,0,0,1-.987-.987V60.98a.987.987,0,0,1,.987-.987Z" transform="translate(-44 -24)" fill="#dae6f1"/>
          </g>
        </g>
        <g id="Grupo_1083667" data-name="Grupo 1083667" transform="translate(8.13 6.625)">
          <g id="Grupo_1083666" data-name="Grupo 1083666">
            <path id="Trazado_838335" data-name="Trazado 838335" d="M88.834,24H45.542A1.547,1.547,0,0,0,44,25.542v4.669H90.376V25.542A1.547,1.547,0,0,0,88.834,24Z" transform="translate(-44 -24)" fill="#6cadef"/>
          </g>
        </g>
        <g id="Grupo_1083669" data-name="Grupo 1083669" transform="translate(11.442 16.425)">
          <g id="Grupo_1083668" data-name="Grupo 1083668">
            <path id="Trazado_838336" data-name="Trazado 838336" d="M94.865,59.5H56.886a.886.886,0,0,0-.886.886v21.14a.886.886,0,0,0,.886.886H94.864a.886.886,0,0,0,.886-.886V60.386a.886.886,0,0,0-.886-.886Z" transform="translate(-56 -59.5)" fill="#70d6f9"/>
          </g>
        </g>
        <g id="Grupo_1083671" data-name="Grupo 1083671" transform="translate(26.563 20.251)">
          <g id="Grupo_1083670" data-name="Grupo 1083670">
            <path id="Trazado_838337" data-name="Trazado 838337" d="M119.208,81.223a6.6,6.6,0,0,1,.881-6.536.347.347,0,0,0-.1-.481l-1.181-.788a.347.347,0,0,0-.416.025,4.763,4.763,0,0,1-5.725,0,.347.347,0,0,0-.416-.025l-1.181.788a.347.347,0,0,0-.1.481,6.6,6.6,0,0,1,.881,6.536,13.812,13.812,0,0,0-1.078,5.445v1.984a.458.458,0,0,0,.458.458h8.592a.458.458,0,0,0,.458-.458V86.669a13.812,13.812,0,0,0-1.078-5.445Z" transform="translate(-110.778 -73.362)" fill="#f5c84c"/>
          </g>
        </g>
        <g id="Grupo_1083673" data-name="Grupo 1083673" transform="translate(27.373 26.452)">
          <g id="Grupo_1083672" data-name="Grupo 1083672">
            <path id="Trazado_838338" data-name="Trazado 838338" d="M121.332,97.487a6.157,6.157,0,0,1-.451-1.661h-6.45a6.165,6.165,0,0,1-.451,1.661q-.145.337-.268.682H121.6C121.517,97.939,121.429,97.711,121.332,97.487Z" transform="translate(-113.712 -95.826)" fill="#fcdd86"/>
          </g>
        </g>
        <g id="Grupo_1083675" data-name="Grupo 1083675" transform="translate(47.164 16.425)">
          <g id="Grupo_1083674" data-name="Grupo 1083674">
            <path id="Trazado_838339" data-name="Trazado 838339" d="M188.549,59.5h-3.143v3.4a.628.628,0,0,0,.628.628h3.4V60.386A.886.886,0,0,0,188.549,59.5Z" transform="translate(-185.407 -59.5)" fill="#f98fa6"/>
          </g>
        </g>
        <g id="Grupo_1083677" data-name="Grupo 1083677" transform="translate(37.692 42.618)">
          <g id="Grupo_1083676" data-name="Grupo 1083676">
            <path id="Trazado_838340" data-name="Trazado 838340" d="M174.123,154.388H152.081a.987.987,0,0,0-.987.987v22.042a.987.987,0,0,0,.987.987h22.042a.987.987,0,0,0,.987-.987V155.375A.987.987,0,0,0,174.123,154.388Z" transform="translate(-151.094 -154.388)" fill="#b598f9"/>
          </g>
        </g>
        <g id="Grupo_1083679" data-name="Grupo 1083679" transform="translate(48.679 46.152)">
          <g id="Grupo_1083678" data-name="Grupo 1083678" transform="translate(0)">
            <path id="Trazado_838341" data-name="Trazado 838341" d="M197.955,179.75l-4.615-12.112a.693.693,0,0,0-.894-.4l-1.1.478a.693.693,0,0,0-.4.894l4.615,12.112a.693.693,0,0,0,.894.4l1.1-.478A.693.693,0,0,0,197.955,179.75Z" transform="translate(-190.896 -167.192)" fill="#dae6f1"/>
          </g>
        </g>
        <g id="Grupo_1083681" data-name="Grupo 1083681" transform="translate(44.976 47.869)">
          <g id="Grupo_1083680" data-name="Grupo 1083680" transform="translate(0)">
            <path id="Trazado_838342" data-name="Trazado 838342" d="M181.342,173.411a6.077,6.077,0,0,1-3.4,4.476.818.818,0,0,0-.41,1.023l1.694,4.445a.818.818,0,0,0,.987.491,6.077,6.077,0,0,1,5.516,1.079Z" transform="translate(-177.479 -173.411)" fill="#fc657e"/>
          </g>
        </g>
        <g id="Grupo_1083683" data-name="Grupo 1083683" transform="translate(40.282 53.566)">
          <g id="Grupo_1083682" data-name="Grupo 1083682" transform="translate(0)">
            <path id="Trazado_838343" data-name="Trazado 838343" d="M165.3,194.046l-3.425,1.305a2.168,2.168,0,1,0,1.544,4.052l3.425-1.305Z" transform="translate(-160.474 -194.046)" fill="#f98fa6"/>
          </g>
        </g>
        <g id="Grupo_1083685" data-name="Grupo 1083685" transform="translate(42.153 58.338)">
          <g id="Grupo_1083684" data-name="Grupo 1083684" transform="translate(0)">
            <path id="Trazado_838344" data-name="Trazado 838344" d="M171.84,214.2l-1.983-2.862-1.534.585a2.156,2.156,0,0,1-1.069.121l2.5,3.6a1.271,1.271,0,0,0,2.089-1.448Z" transform="translate(-167.254 -211.334)" fill="#dae6f1"/>
          </g>
        </g>
        <g id="Grupo_1083687" data-name="Grupo 1083687" transform="translate(19.206)">
          <g id="Grupo_1083686" data-name="Grupo 1083686">
            <path id="Trazado_838345" data-name="Trazado 838345" d="M87.651,1.7A2.152,2.152,0,0,1,85.94.021c0-.028-.083-.028-.083,0A2.152,2.152,0,0,1,84.146,1.7c-.028,0-.028.055,0,.083a2.152,2.152,0,0,1,1.711,1.684c0,.028.083.028.083,0a2.152,2.152,0,0,1,1.711-1.684c.028-.028.028-.083,0-.083Z" transform="translate(-84.125 0)" fill="#fc657e"/>
          </g>
        </g>
        <g id="Grupo_1083689" data-name="Grupo 1083689" transform="translate(59.39 33.678)">
          <g id="Grupo_1083688" data-name="Grupo 1083688" transform="translate(0)">
            <path id="Trazado_838346" data-name="Trazado 838346" d="M233.644,123.518h-.663v-.635A.872.872,0,0,0,232.1,122a.884.884,0,0,0-.883.856v.663h-.635a.872.872,0,0,0-.883.883.855.855,0,0,0,.883.883h.635v.635a.872.872,0,0,0,.883.883.884.884,0,0,0,.883-.856v-.663h.635a.872.872,0,0,0,.883-.883A.884.884,0,0,0,233.644,123.518Z" transform="translate(-229.695 -122)" fill="#70d6f9"/>
          </g>
        </g>
        <g id="Grupo_1083691" data-name="Grupo 1083691" transform="translate(58.342 27.19)">
          <g id="Grupo_1083690" data-name="Grupo 1083690" transform="translate(0)">
            <path id="Trazado_838347" data-name="Trazado 838347" d="M226.839,98.5a.939.939,0,1,0,.939.939A.938.938,0,0,0,226.839,98.5Z" transform="translate(-225.9 -98.5)" fill="#f5c84c"/>
          </g>
        </g>
        <g id="Grupo_1083693" data-name="Grupo 1083693" transform="translate(2.857 22.636)">
          <g id="Grupo_1083692" data-name="Grupo 1083692">
            <path id="Trazado_838348" data-name="Trazado 838348" d="M25.839,82a.939.939,0,1,0,.939.939A.938.938,0,0,0,25.839,82Z" transform="translate(-24.9 -82)" fill="#87d147"/>
          </g>
        </g>
        <g id="Grupo_1083695" data-name="Grupo 1083695" transform="translate(0 12.795)">
          <g id="Grupo_1083694" data-name="Grupo 1083694">
            <path id="Trazado_838349" data-name="Trazado 838349" d="M19.615,48.793a3.063,3.063,0,0,1-2.457-2.4c0-.055-.11-.055-.11,0a3.063,3.063,0,0,1-2.457,2.4c-.055,0-.055.083,0,.11a3.063,3.063,0,0,1,2.457,2.4c0,.055.11.055.11,0a3.063,3.063,0,0,1,2.457-2.4C19.671,48.876,19.671,48.793,19.615,48.793Z" transform="translate(-14.55 -46.35)" fill="#f5c84c"/>
          </g>
        </g>
        <g id="Grupo_1083697" data-name="Grupo 1083697" transform="translate(12.311 43.821)">
          <g id="Grupo_1083696" data-name="Grupo 1083696">
            <path id="Trazado_838350" data-name="Trazado 838350" d="M80.691,158.745H59.839a.69.69,0,1,0,0,1.38H80.691a.69.69,0,1,0,0-1.38Z" transform="translate(-59.149 -158.745)"/>
          </g>
        </g>
        <g id="Grupo_1083699" data-name="Grupo 1083699" transform="translate(12.311 47.03)">
          <g id="Grupo_1083698" data-name="Grupo 1083698">
            <path id="Trazado_838351" data-name="Trazado 838351" d="M80.691,170.37H59.839a.69.69,0,1,0,0,1.38H80.691a.69.69,0,1,0,0-1.38Z" transform="translate(-59.149 -170.37)"/>
          </g>
        </g>
        <g id="Grupo_1083701" data-name="Grupo 1083701" transform="translate(12.311 50.239)">
          <g id="Grupo_1083700" data-name="Grupo 1083700">
            <path id="Trazado_838352" data-name="Trazado 838352" d="M80.691,181.995H59.839a.69.69,0,1,0,0,1.38H80.691a.69.69,0,1,0,0-1.38Z" transform="translate(-59.149 -181.995)"/>
          </g>
        </g>
        <g id="Grupo_1083703" data-name="Grupo 1083703" transform="translate(12.311 53.448)">
          <g id="Grupo_1083702" data-name="Grupo 1083702">
            <path id="Trazado_838353" data-name="Trazado 838353" d="M80.691,193.62H59.839a.69.69,0,1,0,0,1.38H80.691a.69.69,0,1,0,0-1.38Z" transform="translate(-59.149 -193.62)"/>
          </g>
        </g>
        <g id="Grupo_1083705" data-name="Grupo 1083705" transform="translate(12.311 56.657)">
          <g id="Grupo_1083704" data-name="Grupo 1083704">
            <path id="Trazado_838354" data-name="Trazado 838354" d="M80.691,205.245H59.839a.69.69,0,1,0,0,1.38H80.691a.69.69,0,1,0,0-1.38Z" transform="translate(-59.149 -205.245)"/>
          </g>
        </g>
        <g id="Grupo_1083707" data-name="Grupo 1083707" transform="translate(12.311 59.866)">
          <g id="Grupo_1083706" data-name="Grupo 1083706">
            <path id="Trazado_838355" data-name="Trazado 838355" d="M80.691,216.87H59.839a.69.69,0,1,0,0,1.38H80.691a.69.69,0,1,0,0-1.38Z" transform="translate(-59.149 -216.87)"/>
          </g>
        </g>
        <g id="Grupo_1083709" data-name="Grupo 1083709" transform="translate(12.311 63.075)">
          <g id="Grupo_1083708" data-name="Grupo 1083708">
            <path id="Trazado_838356" data-name="Trazado 838356" d="M70.265,228.495H59.839a.69.69,0,1,0,0,1.38H70.265a.69.69,0,0,0,0-1.38Z" transform="translate(-59.149 -228.495)"/>
          </g>
        </g>
        <g id="Grupo_1083711" data-name="Grupo 1083711" transform="translate(11.026 9.11)">
          <g id="Grupo_1083710" data-name="Grupo 1083710">
            <path id="Trazado_838357" data-name="Trazado 838357" d="M55.443,33h-.26a.69.69,0,1,0,0,1.38h.26a.69.69,0,1,0,0-1.38Z" transform="translate(-54.493 -33)"/>
          </g>
        </g>
        <g id="Grupo_1083713" data-name="Grupo 1083713" transform="translate(13.925 9.11)">
          <g id="Grupo_1083712" data-name="Grupo 1083712">
            <path id="Trazado_838358" data-name="Trazado 838358" d="M65.943,33h-.26a.69.69,0,0,0,0,1.38h.26a.69.69,0,0,0,0-1.38Z" transform="translate(-64.993 -33)"/>
          </g>
        </g>
        <g id="Grupo_1083715" data-name="Grupo 1083715" transform="translate(16.823 9.11)">
          <g id="Grupo_1083714" data-name="Grupo 1083714">
            <path id="Trazado_838359" data-name="Trazado 838359" d="M76.443,33h-.26a.69.69,0,1,0,0,1.38h.26a.69.69,0,1,0,0-1.38Z" transform="translate(-75.493 -33)"/>
          </g>
        </g>
        <g id="Grupo_1083717" data-name="Grupo 1083717" transform="translate(21.99 9.11)">
          <g id="Grupo_1083716" data-name="Grupo 1083716">
            <path id="Trazado_838360" data-name="Trazado 838360" d="M113.857,33H94.9a.69.69,0,0,0,0,1.38h18.955a.69.69,0,1,0,0-1.38Z" transform="translate(-94.211 -33)"/>
          </g>
        </g>
        <g id="Grupo_1083719" data-name="Grupo 1083719" transform="translate(44.64 9.11)">
          <g id="Grupo_1083718" data-name="Grupo 1083718">
            <path id="Trazado_838361" data-name="Trazado 838361" d="M181.26,33h-4.307a.69.69,0,0,0,0,1.38h4.307a.69.69,0,0,0,0-1.38Z" transform="translate(-176.263 -33)"/>
          </g>
        </g>
        <g id="Grupo_1083721" data-name="Grupo 1083721" transform="translate(7.439 5.935)">
          <g id="Grupo_1083720" data-name="Grupo 1083720">
            <path id="Trazado_838362" data-name="Trazado 838362" d="M88.566,58.64a.69.69,0,0,0,.69-.69V23.732A2.235,2.235,0,0,0,87.024,21.5H43.732A2.235,2.235,0,0,0,41.5,23.732V84a2.235,2.235,0,0,0,2.232,2.232H87.024A2.235,2.235,0,0,0,89.256,84V82.472a.69.69,0,0,0-1.38,0V84a.853.853,0,0,1-.852.852H43.732A.853.853,0,0,1,42.88,84V23.732a.853.853,0,0,1,.852-.852H87.024a.853.853,0,0,1,.852.852V57.95a.69.69,0,0,0,.69.69Z" transform="translate(-41.5 -21.5)"/>
          </g>
        </g>
        <g id="Grupo_1083723" data-name="Grupo 1083723" transform="translate(55.907 49.918)">
          <g id="Grupo_1083722" data-name="Grupo 1083722" transform="translate(0)">
            <path id="Trazado_838363" data-name="Trazado 838363" d="M220.218,181.273a.69.69,0,0,0-.893-.394l-1.8.7a.69.69,0,1,0,.5,1.287l1.8-.7A.69.69,0,0,0,220.218,181.273Z" transform="translate(-217.079 -180.832)"/>
          </g>
        </g>
        <g id="Grupo_1083725" data-name="Grupo 1083725" transform="translate(54.144 46.515)">
          <g id="Grupo_1083724" data-name="Grupo 1083724">
            <path id="Trazado_838364" data-name="Trazado 838364" d="M212.728,168.6a.69.69,0,0,0-.946.239l-.992,1.662a.69.69,0,1,0,1.185.707l.992-1.662A.69.69,0,0,0,212.728,168.6Z" transform="translate(-210.692 -168.503)"/>
          </g>
        </g>
        <g id="Grupo_1083727" data-name="Grupo 1083727" transform="translate(56.248 53.608)">
          <g id="Grupo_1083726" data-name="Grupo 1083726">
            <path id="Trazado_838365" data-name="Trazado 838365" d="M221.056,194.789l-1.853-.56a.69.69,0,0,0-.4,1.321l1.853.56a.69.69,0,0,0,.4-1.321Z" transform="translate(-218.314 -194.199)"/>
          </g>
        </g>
        <g id="Grupo_1083729" data-name="Grupo 1083729" transform="translate(7.658 12.146)">
          <g id="Grupo_1083728" data-name="Grupo 1083728">
            <path id="Trazado_838366" data-name="Trazado 838366" d="M88.777,44H42.982a.69.69,0,0,0,0,1.38H88.777a.69.69,0,1,0,0-1.38Z" transform="translate(-42.292 -44)"/>
          </g>
        </g>
        <g id="Grupo_1083732" data-name="Grupo 1083732" transform="translate(10.752 15.735)">
          <g id="Grupo_1083731" data-name="Grupo 1083731">
            <g id="Grupo_1083730" data-name="Grupo 1083730">
              <path id="Trazado_838367" data-name="Trazado 838367" d="M93.055,57H55.076A1.578,1.578,0,0,0,53.5,58.576v21.14a1.578,1.578,0,0,0,1.576,1.576H93.055a1.578,1.578,0,0,0,1.576-1.576V58.576A1.577,1.577,0,0,0,93.055,57Zm.2,22.716a.2.2,0,0,1-.2.2H55.076a.2.2,0,0,1-.2-.2V58.576a.2.2,0,0,1,.2-.2H93.055a.2.2,0,0,1,.2.2v21.14Z" transform="translate(-53.5 -57)"/>
            </g>
          </g>
        </g>
        <g id="Grupo_1083735" data-name="Grupo 1083735" transform="translate(25.873 19.562)">
          <g id="Grupo_1083734" data-name="Grupo 1083734">
            <g id="Grupo_1083733" data-name="Grupo 1083733">
              <path id="Trazado_838368" data-name="Trazado 838368" d="M118.033,79.145a5.946,5.946,0,0,1,.821-5.881,1.037,1.037,0,0,0-.288-1.438l-1.181-.788a1.043,1.043,0,0,0-1.244.072,4.08,4.08,0,0,1-4.836,0,1.043,1.043,0,0,0-1.244-.072l-1.181.787a1.037,1.037,0,0,0-.288,1.439,5.945,5.945,0,0,1,.82,5.881,14.427,14.427,0,0,0-1.134,5.717v1.984a1.149,1.149,0,0,0,1.148,1.148h8.592a1.149,1.149,0,0,0,1.148-1.148V84.862A14.427,14.427,0,0,0,118.033,79.145Zm-.247,7.469h-8.128V84.862a13.055,13.055,0,0,1,1.022-5.173,7.183,7.183,0,0,0-.754-6.9l.692-.462a5.5,5.5,0,0,0,6.208,0l.692.462a7.182,7.182,0,0,0-.754,6.9,13.054,13.054,0,0,1,1.022,5.173v1.752Z" transform="translate(-108.278 -70.867)"/>
            </g>
          </g>
        </g>
        <g id="Grupo_1083737" data-name="Grupo 1083737" transform="translate(26.84 28.105)">
          <g id="Grupo_1083736" data-name="Grupo 1083736">
            <path id="Trazado_838369" data-name="Trazado 838369" d="M120.011,101.812h-7.54a.69.69,0,1,0,0,1.38h7.54a.69.69,0,0,0,0-1.38Z" transform="translate(-111.781 -101.812)"/>
          </g>
        </g>
        <g id="Grupo_1083739" data-name="Grupo 1083739" transform="translate(27.608 25.762)">
          <g id="Grupo_1083738" data-name="Grupo 1083738">
            <path id="Trazado_838370" data-name="Trazado 838370" d="M121.292,93.326h-6.038a.69.69,0,0,0,0,1.38h6.038a.69.69,0,0,0,0-1.38Z" transform="translate(-114.563 -93.326)"/>
          </g>
        </g>
        <g id="Grupo_1083741" data-name="Grupo 1083741" transform="translate(46.474 16.011)">
          <g id="Grupo_1083740" data-name="Grupo 1083740">
            <path id="Trazado_838371" data-name="Trazado 838371" d="M187.3,61.753h-3.011V58.69a.69.69,0,1,0-1.38,0v3.125a1.319,1.319,0,0,0,1.318,1.318H187.3a.69.69,0,0,0,0-1.38Z" transform="translate(-182.906 -58)"/>
          </g>
        </g>
        <g id="Grupo_1083744" data-name="Grupo 1083744" transform="translate(37.002 41.928)">
          <g id="Grupo_1083743" data-name="Grupo 1083743">
            <g id="Grupo_1083742" data-name="Grupo 1083742">
              <path id="Trazado_838372" data-name="Trazado 838372" d="M172.313,151.888H150.271a1.679,1.679,0,0,0-1.677,1.677v22.042a1.679,1.679,0,0,0,1.677,1.677h22.042a1.679,1.679,0,0,0,1.677-1.677V153.565A1.679,1.679,0,0,0,172.313,151.888Zm.3,23.719a.3.3,0,0,1-.3.3H150.271a.3.3,0,0,1-.3-.3V153.565a.3.3,0,0,1,.3-.3h22.042a.3.3,0,0,1,.3.3Z" transform="translate(-148.594 -151.888)"/>
            </g>
          </g>
        </g>
        <g id="Grupo_1083747" data-name="Grupo 1083747" transform="translate(47.989 45.462)">
          <g id="Grupo_1083746" data-name="Grupo 1083746">
            <g id="Grupo_1083745" data-name="Grupo 1083745">
              <path id="Trazado_838373" data-name="Trazado 838373" d="M196.79,177.693l-4.615-12.112a1.383,1.383,0,0,0-1.785-.8l-.029.012-1.092.473a1.385,1.385,0,0,0-.783,1.778l4.615,12.112a1.384,1.384,0,0,0,1.785.8l.029-.012,1.092-.473a1.382,1.382,0,0,0,.783-1.779Zm-1.291.495-.029.012-1.078.467-4.614-12.118.029-.012,1.078-.467,4.615,12.117Z" transform="translate(-188.395 -164.689)"/>
            </g>
          </g>
        </g>
        <g id="Grupo_1083749" data-name="Grupo 1083749" transform="translate(44.285 47.22)">
          <g id="Grupo_1083748" data-name="Grupo 1083748" transform="translate(0)">
            <path id="Trazado_838374" data-name="Trazado 838374" d="M184.273,182.624a6.785,6.785,0,0,0-6.053-1.145.128.128,0,0,1-.16-.071l-1.694-4.445a.129.129,0,0,1,.072-.16,6.765,6.765,0,0,0,3.767-4.938.69.69,0,0,0-1.361-.23,5.392,5.392,0,0,1-3.019,3.932,1.5,1.5,0,0,0-.748,1.887l1.694,4.445a1.5,1.5,0,0,0,1.814.911,5.409,5.409,0,0,1,4.836.9.69.69,0,1,0,.852-1.085Z" transform="translate(-174.977 -171.06)"/>
          </g>
        </g>
        <g id="Grupo_1083751" data-name="Grupo 1083751" transform="translate(39.592 52.936)">
          <g id="Grupo_1083750" data-name="Grupo 1083750" transform="translate(0)">
            <path id="Trazado_838375" data-name="Trazado 838375" d="M165.489,196.273a.69.69,0,0,0-.891-.4l-3.238,1.234a1.478,1.478,0,0,1-1.052-2.762l3.265-1.244a.69.69,0,1,0-.492-1.29l-3.265,1.244a2.858,2.858,0,1,0,2.036,5.341l3.238-1.234A.689.689,0,0,0,165.489,196.273Z" transform="translate(-157.976 -191.766)"/>
          </g>
        </g>
        <g id="Grupo_1083753" data-name="Grupo 1083753" transform="translate(41.519 57.788)">
          <g id="Grupo_1083752" data-name="Grupo 1083752">
            <path id="Trazado_838376" data-name="Trazado 838376" d="M170.743,212.36l-1.886-2.722a.69.69,0,0,0-1.135.786l1.886,2.722a.581.581,0,0,1-.955.662l-2.441-3.523a.69.69,0,1,0-1.135.786l2.441,3.523a1.961,1.961,0,1,0,3.224-2.234Z" transform="translate(-164.956 -209.341)"/>
          </g>
        </g>
      </g>
    </g>
  </g>
</svg>
