<svg xmlns="http://www.w3.org/2000/svg" width="1240" height="581" viewBox="0 0 1240 581">
  <g id="Grupo_1083529" data-name="Grupo 1083529" transform="translate(-180 -1556)">
    <rect id="Rectángulo_377398" data-name="Rectángulo 377398" width="295" height="197" rx="30" transform="translate(180 1556)" fill="#e4fdfb"/>
    <rect id="Rectángulo_377400" data-name="Rectángulo 377400" width="295" height="197" rx="30" transform="translate(810 1556)" fill="#e3ecf7"/>
    <rect id="Rectángulo_377402" data-name="Rectángulo 377402" width="295" height="154" rx="30" transform="translate(810 1778)" fill="#e0e5ec"/>
    <rect id="Rectángulo_377404" data-name="Rectángulo 377404" width="295" height="183" rx="30" transform="translate(810 1954)" fill="#e4fdfb"/>
    <rect id="Rectángulo_377399" data-name="Rectángulo 377399" width="295" height="197" rx="30" transform="translate(495 1556)" fill="#fffbe5"/>
    <rect id="Rectángulo_377401" data-name="Rectángulo 377401" width="295" height="197" rx="30" transform="translate(1125 1556)" fill="#e4fdfb"/>
    <rect id="Rectángulo_377403" data-name="Rectángulo 377403" width="295" height="154" rx="30" transform="translate(1125 1778)" fill="#fffbe5"/>
    <rect id="Rectángulo_377405" data-name="Rectángulo 377405" width="295" height="183" rx="30" transform="translate(1125 1954)" fill="#e3ecf7"/>
    <text id="Segmentación_de_mercado:_identificar_grupos_de_consumidores_con_necesidades_y_características_similares_para_dirigir_las_estrategias_de_manera_más_efectiva." data-name="Segmentación de mercado: identificar grupos de consumidores con necesidades y características similares para dirigir las estrategias de manera más efectiva." transform="translate(217 1582)" fill="#12263f" font-size="16" font-family="Roboto-Bold, Roboto" font-weight="700"><tspan x="0" y="15">Segmentación de mercado:</tspan><tspan y="15" font-family="Roboto-Regular, Roboto" font-weight="400"> </tspan><tspan x="0" y="39" font-family="Roboto-Regular, Roboto" font-weight="400">identificar grupos de </tspan><tspan x="0" y="63" font-family="Roboto-Regular, Roboto" font-weight="400">consumidores con necesidades </tspan><tspan x="0" y="87" font-family="Roboto-Regular, Roboto" font-weight="400">y características similares para </tspan><tspan x="0" y="111" font-family="Roboto-Regular, Roboto" font-weight="400">dirigir las estrategias de manera </tspan><tspan x="0" y="135" font-family="Roboto-Regular, Roboto" font-weight="400">más efectiva.</tspan></text>
    <text id="Mix_de_marketing:_destacar_la_importancia_de_la_gestión_de_los_4P_producto_precio_plaza_y_promoción_en_las_estrategias_de_marketing." data-name="Mix de marketing: destacar la importancia de la gestión de los 4P (producto, precio, plaza y promoción) en las estrategias de marketing." transform="translate(847 1582)" fill="#12263f" font-size="16" font-family="Roboto-Bold, Roboto" font-weight="700"><tspan x="0" y="17">Mix de </tspan><tspan y="17" font-family="Roboto-BoldItalic, Roboto" font-style="italic">marketing</tspan><tspan y="17">: </tspan><tspan y="17" font-family="Roboto-Regular, Roboto" font-weight="400">destacar la </tspan><tspan x="0" y="41" font-family="Roboto-Regular, Roboto" font-weight="400">importancia de la gestión de los </tspan><tspan x="0" y="65" font-family="Roboto-Regular, Roboto" font-weight="400">4P (producto, precio, plaza y </tspan><tspan x="0" y="89" font-family="Roboto-Regular, Roboto" font-weight="400">promoción) en las estrategias </tspan><tspan x="0" y="113" font-family="Roboto-Regular, Roboto" font-weight="400">de </tspan><tspan y="113" font-family="Roboto-Italic, Roboto" font-weight="400" font-style="italic">marketing</tspan><tspan y="113" font-family="Roboto-Regular, Roboto" font-weight="400">.</tspan></text>
    <text id="Relación_con_el_cliente:_fomentar_la_construcción_de_relaciones_a_largo_plazo_con_los_clientes_para_lograr_la_lealtad." data-name="Relación con el cliente: fomentar la construcción de relaciones a largo plazo con los clientes para lograr la lealtad." transform="translate(847 1804)" fill="#12263f" font-size="16" font-family="Roboto-Bold, Roboto" font-weight="700"><tspan x="0" y="15">Relación con el cliente: </tspan><tspan x="0" y="39" font-family="Roboto-Regular, Roboto" font-weight="400">fomentar la construcción de </tspan><tspan x="0" y="63" font-family="Roboto-Regular, Roboto" font-weight="400">relaciones a largo plazo con los </tspan><tspan x="0" y="87" font-family="Roboto-Regular, Roboto" font-weight="400">clientes para lograr la lealtad.</tspan></text>
    <text id="Innovación:_la_necesidad_de_adaptarse_y_evolucionar_constantemente_en_un_entorno_de_marketing_en_constante_cambio." data-name="Innovación: la necesidad de adaptarse y evolucionar constantemente en un entorno de marketing en constante cambio." transform="translate(847 1980)" fill="#12263f" font-size="16" font-family="Roboto-Bold, Roboto" font-weight="700"><tspan x="0" y="15">Innovación: </tspan><tspan y="15" font-family="Roboto-Regular, Roboto" font-weight="400">la necesidad de </tspan><tspan x="0" y="39" font-family="Roboto-Regular, Roboto" font-weight="400">adaptarse y evolucionar </tspan><tspan x="0" y="63" font-family="Roboto-Regular, Roboto" font-weight="400">constantemente en un entorno </tspan><tspan x="0" y="87" font-family="Roboto-Regular, Roboto" font-weight="400">de </tspan><tspan y="87" font-family="Roboto-Italic, Roboto" font-weight="400" font-style="italic">marketing </tspan><tspan y="87" font-family="Roboto-Regular, Roboto" font-weight="400">en constante </tspan><tspan x="0" y="111" font-family="Roboto-Regular, Roboto" font-weight="400">cambio.</tspan></text>
    <text id="Posicionamiento:_crear_una_imagen_o_posición_única_en_la_mente_de_los_consumidores_para_diferenciarse_de_la_competencia." data-name="Posicionamiento: crear una imagen o posición única en la mente de los consumidores para diferenciarse de la competencia." transform="translate(532 1582)" fill="#12263f" font-size="16" font-family="Roboto-Bold, Roboto" font-weight="700"><tspan x="0" y="15">Posicionamiento: </tspan><tspan y="15" font-family="Roboto-Regular, Roboto" font-weight="400">crear una </tspan><tspan x="0" y="39" font-family="Roboto-Regular, Roboto" font-weight="400">imagen o posición única en la </tspan><tspan x="0" y="63" font-family="Roboto-Regular, Roboto" font-weight="400">mente de los consumidores </tspan><tspan x="0" y="87" font-family="Roboto-Regular, Roboto" font-weight="400">para diferenciarse de la </tspan><tspan x="0" y="111" font-family="Roboto-Regular, Roboto" font-weight="400">competencia.</tspan></text>
    <text id="Orientación_al_cliente:_poner_al_cliente_en_el_centro_de_todas_las_decisiones_y_estrategias." data-name="Orientación al cliente: poner al cliente en el centro de todas las decisiones y estrategias." transform="translate(1162 1582)" fill="#12263f" font-size="16" font-family="Roboto-Bold, Roboto" font-weight="700"><tspan x="0" y="15">Orientación al cliente:</tspan><tspan y="15" xml:space="preserve" font-family="Roboto-Regular, Roboto" font-weight="400"> poner al </tspan><tspan x="0" y="39" font-family="Roboto-Regular, Roboto" font-weight="400">cliente en el centro de todas las </tspan><tspan x="0" y="63" font-family="Roboto-Regular, Roboto" font-weight="400">decisiones y estrategias.</tspan></text>
    <text id="Medición_de_resultados:_la_importancia_de_la_analítica_y_las_métricas_para_evaluar_el_rendimiento_de_las_estrategias." data-name="Medición de resultados: la importancia de la analítica y las métricas para evaluar el rendimiento de las estrategias." transform="translate(1162 1804)" fill="#12263f" font-size="16" font-family="Roboto-Bold, Roboto" font-weight="700"><tspan x="0" y="15">Medición de resultados:</tspan><tspan y="15" xml:space="preserve" font-family="Roboto-Regular, Roboto" font-weight="400"> la </tspan><tspan x="0" y="39" font-family="Roboto-Regular, Roboto" font-weight="400">importancia de la analítica y las </tspan><tspan x="0" y="63" font-family="Roboto-Regular, Roboto" font-weight="400">métricas para evaluar el </tspan><tspan x="0" y="87" font-family="Roboto-Regular, Roboto" font-weight="400">rendimiento de las estrategias.</tspan></text>
    <text id="Comunicación_efectiva:_la_relevancia_de_transmitir_el_mensaje_de_manera_clara_y_persuasiva_a_la_audiencia." data-name="Comunicación efectiva: la relevancia de transmitir el mensaje de manera clara y persuasiva a la audiencia." transform="translate(1162 1980)" fill="#12263f" font-size="16" font-family="Roboto-Bold, Roboto" font-weight="700"><tspan x="0" y="15">Comunicación efectiva:</tspan><tspan y="15" xml:space="preserve" font-family="Roboto-Regular, Roboto" font-weight="400"> la </tspan><tspan x="0" y="39" font-family="Roboto-Regular, Roboto" font-weight="400">relevancia de transmitir el </tspan><tspan x="0" y="63" font-family="Roboto-Regular, Roboto" font-weight="400">mensaje de manera clara y </tspan><tspan x="0" y="87" font-family="Roboto-Regular, Roboto" font-weight="400">persuasiva a la audiencia.</tspan></text>
    <g id="Group_3_12_" data-name="Group 3 (12)" transform="translate(304.51 1737.182)">
      <path id="Trazado_609020" data-name="Trazado 609020" d="M419.2,239.363a80.214,80.214,0,0,1-6.315,20.137c-9.176,19.341-20.765,20.067-30.136,34.687A57.817,57.817,0,0,0,377.776,304a81.3,81.3,0,0,0-4.641,16.717c-.022.131-.046.26-.066.388a97.163,97.163,0,0,0-1.125,10.293,119.447,119.447,0,0,0,1.125,23.593.111.111,0,0,0,0,.02c.115.814.223,1.531.314,2.146a101.84,101.84,0,0,0,3.654,15.872c5.8,18.191,14.14,25.411,11.708,36.05a17.866,17.866,0,0,1-.765,2.5c-2.172,5.574-7.169,9.96-15.044,13.624-10.182,4.735-25.175,8.261-45.09,11.571q-6.007,1-12.614,1.979c-12.007,1.79-23.283,3.459-33.934,4.955-16.022,2.248-30.633,4.1-44.2,5.381-22.525,2.122-42.182,2.656-60.672.764a181.233,181.233,0,0,1-44.722-10.236q-4.226-1.547-8.481-3.339A249.412,249.412,0,0,1,86.6,416.811c-2.643-1.675-5.151-3.316-7.52-4.894l-.51-.342c-3.327-2.225-6.37-4.32-9.1-6.2-11.94-8.223-20.827-14.4-27.352-20.259-.392-.351-.773-.7-1.148-1.051A49.723,49.723,0,0,1,32.441,374a37.064,37.064,0,0,1-3.019-5.989c-5.588-14.108-2.041-23.674.033-35.811a68.515,68.515,0,0,0-.585-28.2c-6.61-29.354-23.546-28.727-27.43-54.392A61.785,61.785,0,0,1,.763,239.36c.216-13.813,4.847-26.632,10.18-36.916a126.556,126.556,0,0,1,15.733-23.3A98.165,98.165,0,0,1,41.939,164.6c.058-.047.116-.092.174-.136,1.7-1.3,3.407-2.513,5.1-3.645a107.014,107.014,0,0,1,33.053-14.69c2.24-.576,4.347-1.035,6.338-1.4,19.866-3.632,28.274,2.081,41.016-7.622a34.241,34.241,0,0,0,6.693-6.657,39.513,39.513,0,0,0,4.747-8.427.047.047,0,0,1,.007-.016c3.615-8.453,5.211-17.113,14.888-24.456a40.624,40.624,0,0,1,22.479-7.9c16.22-1,31.28,5.662,33.476,6.669,14.532,6.667,15.957,13.745,28.617,25.109.211.188.423.379.639.568.011.011.025.021.036.032a119.075,119.075,0,0,0,9.617,7.592c6.1,4.36,17.562,12.55,32.725,18.191a95.949,95.949,0,0,0,21.625,5.372,61.31,61.31,0,0,0,25.415-1.695c9.5-2.572,16.98-6.048,31.64-3.249a81.078,81.078,0,0,1,12.847,3.48c.072.025.144.052.216.079a75.385,75.385,0,0,1,17.432,9.025,66.549,66.549,0,0,1,19.976,22.03,75.762,75.762,0,0,1,7.589,19.652A91.458,91.458,0,0,1,419.2,239.363Z" transform="translate(-0.155 -52.291)" fill="#e0fcfb"/>
      <path id="Trazado_609021" data-name="Trazado 609021" d="M899.581,746.53,893,746.522l0-19.115,2.193-.151c.114.809.221,1.525.313,2.136a100.393,100.393,0,0,0,3.613,15.7Zm-4.378-2.21,1.374,0c-.5-1.657-.957-3.332-1.374-5.035Z" transform="translate(-521.187 -424.686)" fill="#fff"/>
      <path id="Trazado_609022" data-name="Trazado 609022" d="M909.772,809.022H893V768.266l5.878.009.243.765a119,119,0,0,0,7.062,16.919c3.625,7.445,6.246,12.824,4.671,19.711a19.119,19.119,0,0,1-.811,2.648l-.273.7Zm-14.569-2.2h13.042a16.638,16.638,0,0,0,.462-1.639c1.4-6.13-1.076-11.217-4.5-18.255a122.815,122.815,0,0,1-6.933-16.447l-2.068,0V806.82Z" transform="translate(-521.187 -448.634)" fill="#fff"/>
      <path id="Trazado_609023" data-name="Trazado 609023" d="M255.323,450.613a236.317,236.317,0,0,1-24.118-1.161,182.8,182.8,0,0,1-44.989-10.3c-2.815-1.031-5.684-2.161-8.528-3.357A248.739,248.739,0,0,1,140.9,416.248c-2.426-1.536-4.891-3.141-7.541-4.907l-.509-.343c-3.41-2.28-6.576-4.462-9.12-6.214-12.831-8.838-21.083-14.617-27.463-20.346-.365-.328-.746-.677-1.164-1.066l-.352-.329.977-220.465.411-.329c.057-.046.114-.089.171-.132l.021-.016c1.652-1.261,3.385-2.5,5.154-3.687a108.4,108.4,0,0,1,33.392-14.841c2.166-.558,4.324-1.034,6.416-1.416a99.931,99.931,0,0,1,18.566-1.468c8.312-.064,14.318-.111,21.981-5.946a33.034,33.034,0,0,0,6.48-6.445,37.75,37.75,0,0,0,4.594-8.15l.032-.1.033-.05c.686-1.611,1.313-3.265,1.92-4.864,2.581-6.812,5.251-13.857,13.278-19.949a41.61,41.61,0,0,1,23.078-8.127l1.169-.072v32.428l59.888-.012-.006-1.932,1.907,1.7c.188.167.377.337.569.5l.026.024.02.017a117.447,117.447,0,0,0,9.522,7.516c6.106,4.362,17.45,12.469,32.47,18.055a95,95,0,0,0,21.377,5.311,60.215,60.215,0,0,0,24.992-1.665c1.424-.386,2.826-.8,4.18-1.2,7.842-2.312,15.25-4.494,27.954-2.07a82.154,82.154,0,0,1,13.016,3.526c.069.025.149.053.226.083l.715.268v87.225h46.133l-.233,1.3a80.814,80.814,0,0,1-6.4,20.415c-5.308,11.188-11.448,16.3-17.386,21.249-4.552,3.793-8.853,7.375-12.818,13.561a56.52,56.52,0,0,0-4.879,9.631,80.336,80.336,0,0,0-4.563,16.4l-.065,35.85v53.812h15.426l-.585,1.5c-2.23,5.722-7.335,10.375-15.605,14.222-9.527,4.431-23.521,8.027-45.375,11.659-3.793.631-7.925,1.28-12.632,1.983-11.138,1.66-22.934,3.409-33.944,4.955-18.293,2.566-31.94,4.227-44.251,5.386-13.644,1.285-25.734,1.925-36.771,1.925ZM96.956,382.088c.272.251.53.486.781.71,6.281,5.641,14.482,11.383,27.242,20.171,2.538,1.749,5.7,3.925,9.093,6.2l.51.342c2.633,1.754,5.086,3.35,7.5,4.878a246.529,246.529,0,0,0,36.465,19.38c2.812,1.184,5.648,2.3,8.432,3.319a180.607,180.607,0,0,0,44.455,10.174c17.119,1.751,36.329,1.508,60.457-.766,12.276-1.155,25.892-2.814,44.151-5.375,11-1.545,22.791-3.293,33.925-4.953,4.694-.7,8.813-1.347,12.6-1.977,21.651-3.6,35.47-7.14,44.807-11.483,6.969-3.241,11.506-7.023,13.807-11.524H426.857l0-57.667.062-34.385.015-.09a82.645,82.645,0,0,1,4.7-16.943,58.751,58.751,0,0,1,5.07-10c4.148-6.471,8.781-10.332,13.263-14.064,5.755-4.794,11.7-9.75,16.8-20.5a77.991,77.991,0,0,0,5.983-18.562H427.07v-87.89a80.206,80.206,0,0,0-12.162-3.25c-12.184-2.325-19.343-.215-26.921,2.018-1.367.4-2.779.819-4.227,1.211a62.254,62.254,0,0,1-25.839,1.724,97.323,97.323,0,0,1-21.873-5.433c-15.294-5.688-26.794-13.906-32.972-18.321-3.489-2.492-6.577-4.922-9.439-7.427h-.221l-63.2.012V89.34a39.07,39.07,0,0,0-20.711,7.6c-7.522,5.71-9.965,12.153-12.55,18.974-.626,1.65-1.271,3.357-1.991,5.039l-.043.1a40.332,40.332,0,0,1-4.844,8.573,35.238,35.238,0,0,1-6.905,6.871c-8.246,6.28-14.889,6.331-23.3,6.4a97.955,97.955,0,0,0-18.186,1.432c-2.042.372-4.148.837-6.261,1.381a106.218,106.218,0,0,0-32.715,14.538c-1.64,1.1-3.248,2.246-4.784,3.411L97.6,237.872l-.245,54.879-.394,89.336Z" transform="translate(-55.043 -50.796)" fill="#fff"/>
      <path id="Trazado_609024" data-name="Trazado 609024" d="M430.673,457.066H135.247l-.785-.527c-3.41-2.28-6.576-4.462-9.12-6.214-12.832-8.838-21.083-14.617-27.463-20.346l-.366-.328V207.969l.433-.33c1.648-1.259,3.381-2.5,5.15-3.684a108.4,108.4,0,0,1,33.392-14.841c2.165-.557,4.324-1.034,6.416-1.416a99.925,99.925,0,0,1,18.566-1.468c8.312-.064,14.318-.111,21.981-5.946a33.048,33.048,0,0,0,6.481-6.445,37.754,37.754,0,0,0,4.613-8.2l.286-.668H296.116l.312.276a118.062,118.062,0,0,0,9.529,7.523c6.106,4.362,17.451,12.469,32.47,18.055a95.014,95.014,0,0,0,21.377,5.311,60.215,60.215,0,0,0,24.992-1.665c1.425-.386,2.826-.8,4.18-1.2,7.843-2.312,15.25-4.494,27.954-2.07a82.162,82.162,0,0,1,13.016,3.526l.727.263Zm-294.755-2.2H428.47V196.544a80.147,80.147,0,0,0-11.948-3.175c-12.184-2.325-19.343-.215-26.921,2.018-1.367.4-2.779.819-4.227,1.211a62.254,62.254,0,0,1-25.839,1.724,97.323,97.323,0,0,1-21.873-5.433c-15.294-5.688-26.794-13.906-32.971-18.321-3.474-2.481-6.55-4.9-9.4-7.394H196.281a39.521,39.521,0,0,1-4.589,7.989,35.239,35.239,0,0,1-6.905,6.871c-8.246,6.28-14.889,6.331-23.3,6.4a97.991,97.991,0,0,0-18.187,1.432c-2.042.372-4.148.837-6.261,1.383a106.211,106.211,0,0,0-32.714,14.538c-1.577,1.058-3.124,2.158-4.607,3.278v219.6c6.235,5.537,14.363,11.226,26.876,19.844,2.538,1.749,5.7,3.925,9.093,6.2l.233.156Z" transform="translate(-56.657 -96.336)" fill="#fff"/>
      <path id="Trazado_609025" data-name="Trazado 609025" d="M448.642,472.808H204.531v-214.1h244.11v214.1Zm-241.908-2.2H446.44V260.915H206.735V470.6Z" transform="translate(-119.151 -151.077)" fill="#fff"/>
      <path id="Trazado_609026" data-name="Trazado 609026" d="M467.8,489.584H318.6V358.625H467.8Zm-147-2.2H465.592V360.829H320.8V487.381Z" transform="translate(-185.761 -209.421)" fill="#fff"/>
      <path id="Trazado_609027" data-name="Trazado 609027" d="M484.829,504.505H420.047V447.489h64.782Zm-62.578-2.2h60.375V449.691H422.251Z" transform="translate(-245.003 -261.314)" fill="#fff"/>
      <path id="Trazado_609028" data-name="Trazado 609028" d="M95.728,269.963l-1,219.457,2.2.01,1-219.457Z" transform="translate(-55.033 -157.647)" fill="#fff"/>
      <path id="Trazado_609029" data-name="Trazado 609029" d="M206.645,222.2h-2.2V494.276h2.2Z" transform="translate(-119.099 -129.755)" fill="#fff"/>
      <path id="Trazado_609030" data-name="Trazado 609030" d="M319.114,167.6v-.016h2.2Z" transform="translate(-186.063 -97.861)" fill="#fff"/>
      <path id="Trazado_609031" data-name="Trazado 609031" d="M315.066,497.05l-2.2-.025.3-27.7.006-.349.423-38.65v-.159l.866-78.537.6-54.861.4-36.8V187.877h2.2v72.139l-2.3,209.343Z" transform="translate(-182.412 -109.712)" fill="#fff"/>
      <path id="Trazado_609032" data-name="Trazado 609032" d="M422.56,89.8h-2.2V450h2.2Z" transform="translate(-245.184 -52.438)" fill="#fff"/>
      <path id="Trazado_609033" data-name="Trazado 609033" d="M568.392,493.835l-2.2-.009.165-37.168,0-.35.924-208.973,0-.33.57-41,.158-35.5-.4-4.339,2.2-.007.013,3.906-.157,35.7-.182,41.251,0,.329-.163,36.959-.241,54.814-.519,117.2,0,.35Z" transform="translate(-330.343 -97.034)" fill="#fff"/>
      <path id="Trazado_609034" data-name="Trazado 609034" d="M674.632,525.461h-2.2v-282.5l.01-.4.229-13.011,2.2.04L674.632,243Z" transform="translate(-392.384 -134.045)" fill="#fff"/>
      <path id="Trazado_609035" data-name="Trazado 609035" d="M786.514,523.72l-2.2-.007.079-25.191.12-38.656.128-41.524.288-92.038.079-24.074.037-12.893v-50.9h2.2V289.9l-.038,12.336-.079,24.073-.288,92.038-.127,41.559-.121,38.955Z" transform="translate(-457.717 -139.236)" fill="#fff"/>
      <path id="Trazado_609036" data-name="Trazado 609036" d="M895.311,418.781l-2.2,0,.07-37.213.1-54.824V239.178h2.2V327.15l-.149,80.95Z" transform="translate(-521.249 -139.67)" fill="#fff"/>
      <path id="Trazado_609037" data-name="Trazado 609037" d="M894.895,800.12l-2.2-.005.128-68.54,2.2,0-.1,54.918,0,.351Z" transform="translate(-521.007 -427.208)" fill="#fff"/>
      <path id="Trazado_609038" data-name="Trazado 609038" d="M333.19,167.114v-2.2l37.367,0,62.733-.012v2.2h-.637l-62.1.012Z" transform="translate(-194.282 -96.291)" fill="#fff"/>
      <path id="Trazado_609039" data-name="Trazado 609039" d="M455.915,258.221H112.406v2.2H455.915Z" transform="translate(-65.354 -150.79)" fill="#fff"/>
      <path id="Trazado_609040" data-name="Trazado 609040" d="M432.576,360.095l-45.212-.057-44.525-.055-47.241-.061-146.139-.194-.85,0-92.545.23-30.826.075,0-2.2,31.173-.075,92.193-.229.853-.005,41.271.053,104.874.14,47.278.06,44.7.056,45,.058Z" transform="translate(-14.449 -208.779)" fill="#fff"/>
      <path id="Trazado_609041" data-name="Trazado 609041" d="M419.209,447H.769v2.2h418.44Z" transform="translate(-0.163 -261.027)" fill="#fff"/>
      <path id="Trazado_609042" data-name="Trazado 609042" d="M99.108,581.03h-.751v-2.2l135.067-.02,62.451-.013,42.422-.005,47.243-.009,54.205-.009v2.2l-206.45.036h-43Z" transform="translate(-57.15 -337.978)" fill="#fff"/>
      <path id="Trazado_609043" data-name="Trazado 609043" d="M69.729,671.221l-.031-2.2,57.2-.8H413.374v2.2H126.86Z" transform="translate(-40.415 -390.211)" fill="#fff"/>
      <path id="Trazado_609044" data-name="Trazado 609044" d="M76.9,771.01l-.027-2.2L179.6,767.52l41.278.054,61.011.082,43.863.058,46.746.055,45.019.062v2.2h-.031l-44.99-.063-46.745-.056-43.864-.057-61.012-.083-41.263-.053Z" transform="translate(-44.607 -448.198)" fill="#fff"/>
      <path id="Trazado_609045" data-name="Trazado 609045" d="M482.291,860.929h-294.5v2.2h294.5Z" transform="translate(-109.376 -502.745)" fill="#fff"/>
      <path id="Trazado_609046" data-name="Trazado 609046" d="M314.679,520.554A128.317,128.317,0,1,0,186.362,392.237,128.317,128.317,0,0,0,314.679,520.554Z" transform="translate(-108.541 -154.118)" fill="#627289"/>
      <path id="Trazado_609047" data-name="Trazado 609047" d="M281.9,520.554A128.317,128.317,0,1,0,153.58,392.237,128.317,128.317,0,0,0,281.9,520.554Z" transform="translate(-89.398 -154.118)" fill="#a3bfe4"/>
      <path id="Trazado_609048" data-name="Trazado 609048" d="M320.823,531.747A100.585,100.585,0,1,0,220.239,431.163,100.585,100.585,0,0,0,320.823,531.747Z" transform="translate(-128.324 -193.043)" fill="#fcfbf9"/>
      <path id="Trazado_609049" data-name="Trazado 609049" d="M357.2,542.206a74.671,74.671,0,1,0-74.671-74.671A74.671,74.671,0,0,0,357.2,542.206Z" transform="translate(-164.696 -229.415)" fill="#a3bfe4"/>
      <path id="Trazado_609050" data-name="Trazado 609050" d="M393.885,552.755a48.531,48.531,0,1,0-48.531-48.531A48.531,48.531,0,0,0,393.885,552.755Z" transform="translate(-201.386 -266.105)" fill="#fcfbf9"/>
      <path id="Trazado_609051" data-name="Trazado 609051" d="M422.6,561.012a28.073,28.073,0,1,0-28.073-28.072A28.073,28.073,0,0,0,422.6,561.012Z" transform="translate(-230.1 -294.82)" fill="#a3bfe4"/>
      <path id="Trazado_609052" data-name="Trazado 609052" d="M950.486,561.585l15.457-8.639H943.667l-1.137,8.639Z" transform="translate(-550.11 -322.896)" fill="#8298b6"/>
      <path id="Trazado_609053" data-name="Trazado 609053" d="M820.281,534.287l12.729-26.141-98.2,6.592L728.9,534.287l8.411,20.684,94.107,5.683Z" transform="translate(-425.36 -296.735)" fill="#33ece0"/>
      <path id="Trazado_609054" data-name="Trazado 609054" d="M691.985,567.63a2.768,2.768,0,0,0-2.167-1.026H498.882L689.8,572.253a2.918,2.918,0,0,0,2.7-1.528A2.691,2.691,0,0,0,691.985,567.63Z" transform="translate(-291.039 -330.873)" fill="#3f4f66"/>
      <path id="Trazado_609055" data-name="Trazado 609055" d="M739.158,684.212h9.286a1.238,1.238,0,0,0,0-2.476h-9.286a1.238,1.238,0,1,0,0,2.476Z" transform="translate(-430.627 -398.104)" fill="#d06539"/>
      <path id="Trazado_609056" data-name="Trazado 609056" d="M849.765,359.983h10.166v-8.1h-10.11a18.786,18.786,0,0,0-2.43-5.922l7.122-7.15-5.726-5.726h-5.112l-2.011,7.122a18.521,18.521,0,0,0-5.922-2.486V327.668h-8.1v10.055a18.414,18.414,0,0,0-5.949,2.486l-7.122-7.122h-5.139l-.586,5.726,7.15,7.15a17.588,17.588,0,0,0-2.43,5.922H803.428v8.1h10.166a18.027,18.027,0,0,0,2.458,5.838l-7.205,7.205.586,5.726h5.139l7.234-7.205a18.3,18.3,0,0,0,5.837,2.4V384.17h8.1V373.948a18.823,18.823,0,0,0,5.837-2.4l2.1,7.205h5.112l5.726-5.726-7.205-7.205a18.016,18.016,0,0,0,2.458-5.838ZM821.11,355.85A10.571,10.571,0,1,1,831.7,366.407,10.6,10.6,0,0,1,821.11,355.85Z" transform="translate(-468.881 -191.344)" fill="#627289"/>
      <path id="Trazado_609057" data-name="Trazado 609057" d="M837.438,359.983H847.6v-8.1H837.465a18.168,18.168,0,0,0-2.43-5.922l7.15-7.15-5.726-5.726-7.123,7.122a18.412,18.412,0,0,0-5.949-2.486V327.668h-8.1v10.055a18.683,18.683,0,0,0-5.949,2.486l-7.123-7.122-5.726,5.726,7.15,7.15a18.8,18.8,0,0,0-2.43,5.922H791.071v8.1h10.194a18.582,18.582,0,0,0,2.431,5.838l-7.206,7.205,5.726,5.726,7.234-7.205a18.562,18.562,0,0,0,5.837,2.4V384.17h8.1V373.948a18.559,18.559,0,0,0,5.838-2.4l7.234,7.205,5.726-5.726-7.205-7.205a19.332,19.332,0,0,0,2.457-5.838Zm-28.655-4.133a10.557,10.557,0,1,1,10.557,10.557A10.573,10.573,0,0,1,808.782,355.85Z" transform="translate(-461.665 -191.344)" fill="#a3bfe4"/>
      <path id="Trazado_609058" data-name="Trazado 609058" d="M759.118,288.06h5.615v-4.473h-5.584a10.372,10.372,0,0,0-1.342-3.27l3.933-3.949-3.163-3.163h-2.822l-1.111,3.933a10.228,10.228,0,0,0-3.27-1.373v-5.553H746.9v5.553a10.168,10.168,0,0,0-3.285,1.373l-3.933-3.933h-2.839l-.324,3.163,3.949,3.949a9.717,9.717,0,0,0-1.342,3.27h-5.6v4.473h5.615a9.962,9.962,0,0,0,1.357,3.223l-3.98,3.979.324,3.162h2.839l3.994-3.979a10.13,10.13,0,0,0,3.223,1.327v5.644h4.473v-5.644a10.393,10.393,0,0,0,3.223-1.327l1.156,3.979h2.822l3.162-3.162-3.98-3.979a9.974,9.974,0,0,0,1.357-3.223Zm-15.824-2.283a5.838,5.838,0,1,1,5.846,5.83A5.853,5.853,0,0,1,743.294,285.777Z" transform="translate(-428.063 -157.793)" fill="#627289"/>
      <path id="Trazado_609059" data-name="Trazado 609059" d="M752.316,288.06h5.615v-4.473h-5.6a10.045,10.045,0,0,0-1.342-3.27l3.949-3.949-3.162-3.162-3.933,3.933a10.172,10.172,0,0,0-3.285-1.373v-5.553h-4.473v5.553a10.31,10.31,0,0,0-3.285,1.373l-3.933-3.933-3.162,3.162,3.949,3.949a10.372,10.372,0,0,0-1.342,3.27h-5.6v4.473h5.63a10.257,10.257,0,0,0,1.342,3.223l-3.98,3.98,3.162,3.162,3.995-3.98a10.257,10.257,0,0,0,3.223,1.327v5.644h4.473v-5.644a10.217,10.217,0,0,0,3.223-1.327l3.995,3.98,3.162-3.162-3.98-3.98A10.663,10.663,0,0,0,752.316,288.06Zm-15.824-2.283a5.83,5.83,0,1,1,5.83,5.83A5.84,5.84,0,0,1,736.491,285.777Z" transform="translate(-424.083 -157.793)" fill="#a3bfe4"/>
      <path id="Trazado_609060" data-name="Trazado 609060" d="M945.762,659.976H927.485v5.433h18.277Z" transform="translate(-541.325 -385.397)" fill="#e1ecff"/>
      <path id="Trazado_609061" data-name="Trazado 609061" d="M828.309,649.4c14.731,0,26.673-11.07,26.673-24.725s-11.942-24.725-26.673-24.725-26.673,11.07-26.673,24.725S813.578,649.4,828.309,649.4Z" transform="translate(-467.834 -350.346)" fill="#627289"/>
      <path id="Trazado_609062" data-name="Trazado 609062" d="M826.361,649.4a24.725,24.725,0,1,0-24.725-24.725A24.725,24.725,0,0,0,826.361,649.4Z" transform="translate(-467.834 -350.346)" fill="#a3bfe4"/>
      <path id="Trazado_609063" data-name="Trazado 609063" d="M835.114,644.183a6.427,6.427,0,1,1,6.427-6.427A6.435,6.435,0,0,1,835.114,644.183Zm0-11.088a4.661,4.661,0,1,0,4.661,4.661A4.666,4.666,0,0,0,835.114,633.1Z" transform="translate(-483.631 -368.669)" fill="#627289"/>
      <path id="Trazado_609064" data-name="Trazado 609064" d="M868.972,670.116a6.427,6.427,0,1,1,6.427-6.427A6.435,6.435,0,0,1,868.972,670.116Zm0-11.088a4.661,4.661,0,1,0,4.661,4.661A4.667,4.667,0,0,0,868.972,659.028Z" transform="translate(-503.402 -383.812)" fill="#627289"/>
      <path id="Trazado_609065" data-name="Trazado 609065" d="M841.815,654.971a.884.884,0,0,1-.719-1.4L856.681,631.7a.883.883,0,0,1,1.438,1.026L842.535,654.6A.881.881,0,0,1,841.815,654.971Z" transform="translate(-490.782 -368.667)" fill="#627289"/>
      <path id="Trazado_609066" data-name="Trazado 609066" d="M686.446,671.727c9.821,0,17.782-7.38,17.782-16.483s-7.961-16.484-17.782-16.484-17.782,7.38-17.782,16.484S676.625,671.727,686.446,671.727Z" transform="translate(-390.185 -373.008)" fill="#627289"/>
      <path id="Trazado_609067" data-name="Trazado 609067" d="M696.8,666.9a16.483,16.483,0,1,0-23.311,0A16.484,16.484,0,0,0,696.8,666.9Z" transform="translate(-390.185 -373.008)" fill="#a3bfe4"/>
      <path id="Trazado_609068" data-name="Trazado 609068" d="M690.568,668.125a4.58,4.58,0,1,1,4.58-4.58A4.585,4.585,0,0,1,690.568,668.125Zm0-7.392a2.814,2.814,0,1,0,2.814,2.814A2.817,2.817,0,0,0,690.568,660.732Z" transform="translate(-400.301 -384.807)" fill="#627289"/>
      <path id="Trazado_609069" data-name="Trazado 609069" d="M713.139,685.413a4.58,4.58,0,1,1,4.58-4.579A4.584,4.584,0,0,1,713.139,685.413Zm0-7.393a2.814,2.814,0,1,0,2.814,2.814A2.817,2.817,0,0,0,713.139,678.02Z" transform="translate(-413.482 -394.903)" fill="#627289"/>
      <path id="Trazado_609070" data-name="Trazado 609070" d="M695.035,675.318a.884.884,0,0,1-.719-1.4l10.39-14.585a.883.883,0,0,1,1.438,1.025l-10.39,14.585A.881.881,0,0,1,695.035,675.318Z" transform="translate(-405.069 -384.808)" fill="#627289"/>
      <path id="Trazado_609071" data-name="Trazado 609071" d="M738.743,724.858c24.279,0,43.961-18.245,43.961-40.751s-19.682-40.751-43.961-40.751-43.962,18.245-43.962,40.751S714.463,724.858,738.743,724.858Z" transform="translate(-405.436 -375.692)" fill="#627289"/>
      <path id="Trazado_609072" data-name="Trazado 609072" d="M735.532,724.858a40.751,40.751,0,1,0-40.751-40.751A40.751,40.751,0,0,0,735.532,724.858Z" transform="translate(-405.436 -375.692)" fill="#a3bfe4"/>
      <path id="Trazado_609073" data-name="Trazado 609073" d="M750.766,716.481a10.021,10.021,0,1,1,10.021-10.021A10.033,10.033,0,0,1,750.766,716.481Zm0-18.277a8.255,8.255,0,1,0,8.255,8.256A8.265,8.265,0,0,0,750.766,698.2Z" transform="translate(-432.276 -406.689)" fill="#627289"/>
      <path id="Trazado_609074" data-name="Trazado 609074" d="M806.565,759.221A10.021,10.021,0,1,1,816.586,749.2,10.032,10.032,0,0,1,806.565,759.221Zm0-18.276a8.255,8.255,0,1,0,8.255,8.255A8.265,8.265,0,0,0,806.565,740.945Z" transform="translate(-464.861 -431.648)" fill="#627289"/>
      <path id="Trazado_609075" data-name="Trazado 609075" d="M761.809,734.263a.882.882,0,0,1-.719-1.4l25.685-36.058a.883.883,0,0,1,1.438,1.025l-25.685,36.059a.88.88,0,0,1-.72.371Z" transform="translate(-444.062 -406.69)" fill="#627289"/>
      <path id="Trazado_609076" data-name="Trazado 609076" d="M695.591,765.873l-10.661-53.3h99.258l-16.123,53.05-72.473.253Zm-7.4-50.633,9.591,47.955,68.3-.24,3.392-11.158,3.749-12.349,7.36-24.209H688.188Z" transform="translate(-399.683 -416.109)" fill="#8298b6"/>
      <path id="Trazado_609077" data-name="Trazado 609077" d="M727.429,766.327l-2.138-24.663-1.409-16.3-.834-9.632,2.66-.23.835,9.632,1.407,16.3L730.09,766.1Z" transform="translate(-421.942 -417.822)" fill="#8298b6"/>
      <path id="Trazado_609078" data-name="Trazado 609078" d="M763.555,766.3l-.484-12.265-.485-12.349-1.021-25.932,2.669-.105,1.021,25.932.485,12.35.484,12.264Z" transform="translate(-444.435 -417.908)" fill="#8298b6"/>
      <path id="Trazado_609079" data-name="Trazado 609079" d="M794.641,766.267l-.281-12.22-.282-12.349-.38-16.3-.223-9.631,2.67-.062.223,9.632.38,16.3.282,12.349.281,12.22Z" transform="translate(-463.069 -417.94)" fill="#8298b6"/>
      <path id="Trazado_609080" data-name="Trazado 609080" d="M830.67,766.219l-2.67-.082.755-24.525.8-25.932,2.67.082Z" transform="translate(-483.23 -417.926)" fill="#8298b6"/>
      <path id="Trazado_609081" data-name="Trazado 609081" d="M860.994,766.151l-2.664-.188,2.89-40.781.686-9.633,2.664.191-.687,9.632Z" transform="translate(-500.941 -417.849)" fill="#8298b6"/>
      <path id="Trazado_609082" data-name="Trazado 609082" d="M784.448,735.719H693.476v2.671h90.972Z" transform="translate(-404.674 -429.628)" fill="#8298b6"/>
      <path id="Trazado_609083" data-name="Trazado 609083" d="M784.069,774.9H701.312v2.671h82.757Z" transform="translate(-409.25 -452.507)" fill="#8298b6"/>
      <path id="Trazado_609084" data-name="Trazado 609084" d="M783.786,804.58H707.249v2.671h76.537Z" transform="translate(-412.717 -469.84)" fill="#8298b6"/>
      <path id="Trazado_609085" data-name="Trazado 609085" d="M882.422,836.283h-2.671V843.2h2.671Z" transform="translate(-513.45 -488.353)" fill="#8298b6"/>
      <path id="Trazado_609086" data-name="Trazado 609086" d="M795.138,868.172H716.746V865.5h75.721v-7.96l-5.609-5.176H726.625V849.7H787.9l7.235,6.679Z" transform="translate(-418.262 -496.185)" fill="#8298b6"/>
      <path id="Trazado_609087" data-name="Trazado 609087" d="M984.347,657.009H966.07v7.9h18.277Z" transform="translate(-563.857 -383.665)" fill="#8298b6"/>
      <path id="Trazado_609088" data-name="Trazado 609088" d="M732.814,904.629a7.162,7.162,0,1,0-7.162-7.162A7.162,7.162,0,0,0,732.814,904.629Z" transform="translate(-423.463 -519.899)" fill="#8298b6"/>
      <path id="Trazado_609089" data-name="Trazado 609089" d="M868.161,904.629A7.162,7.162,0,1,0,861,897.467,7.162,7.162,0,0,0,868.161,904.629Z" transform="translate(-502.5 -519.899)" fill="#8298b6"/>
      <path id="Trazado_609090" data-name="Trazado 609090" d="M432.093,755.118s-28.454,21.915-25.2,43.771S427.572,823.768,441.1,824c0,0,31.078,4.185,34.566-27.9,0,0,2.616-20.578-26.449-40.981Z" transform="translate(-237.171 -440.956)" fill="#8298b6"/>
      <path id="Trazado_609091" data-name="Trazado 609091" d="M456.063,722.446c-.849-.031-2.74-2.434-3.28-2.99-1.484-1.529-3.137-3.325-3.647-5.449a2.179,2.179,0,0,1,2.557-2.906,5.38,5.38,0,0,1,3.516,1.552,4.868,4.868,0,0,0,1.545,1.322c3.609,1.361,4.508-4.723,7-5.9,2.986-1.412,6.238.779,7.829,3.284.428.674.629,1.657,1.41,2.034a2.023,2.023,0,0,0,.962.161c2.329-.1,3.719-2.308,6.163-2.273a2.961,2.961,0,0,1,2.034.748c2.654,2.6-5.473,9.446-7.3,11.115l-18.79-.7Z" transform="translate(-261.926 -413.225)" fill="#8298b6"/>
      <path id="Trazado_609092" data-name="Trazado 609092" d="M474.327,798.518v-3.19a.453.453,0,0,1,.454-.454h4.209a.454.454,0,0,1,.454.454v3.024a.452.452,0,0,0,.514.449,9.811,9.811,0,0,1,3.473.225.953.953,0,0,1,.741.93v2.387a.931.931,0,0,1-1.035.925c-2.173-.241-4.551-.7-6.7-.083-3.133.907-2.428,4.582-.075,6.1,1.307.844,2.745.758,4.175,1.17,4.94,1.424,7.236,8.578,3.311,12.28a8.343,8.343,0,0,1-3.029,1.761.449.449,0,0,0-.3.434l.047,3.14a.453.453,0,0,1-.454.46h-5.347a.454.454,0,0,1-.454-.454V825.6a.452.452,0,0,0-.532-.446,10.157,10.157,0,0,1-4.367-.051,1.268,1.268,0,0,1-.893-1.211v-3.673a.987.987,0,0,1,1.086-.983,47.066,47.066,0,0,0,5.439.276c1.435-.022,6.69-.142,4.382-2.847-1.1-1.291-2.884-1.621-4.382-2.243-2.168-.9-4.8-1.864-6.139-3.93-2.382-3.686-.831-11.355,4.98-11.522a.455.455,0,0,0,.445-.453Z" transform="translate(-272.906 -464.172)" fill="#a3bfe4"/>
      <path id="Trazado_609093" data-name="Trazado 609093" d="M480.25,748.261h-17.9a3.488,3.488,0,1,1,0-6.975h17.9a3.488,3.488,0,1,1,0,6.975Z" transform="translate(-267.667 -432.879)" fill="#a3bfe4"/>
      <path id="Trazado_609094" data-name="Trazado 609094" d="M591.846,897.091H568.283a4.027,4.027,0,1,0,0,8.054h23.563a4.027,4.027,0,1,0,0-8.054Z" transform="translate(-329.215 -523.862)" fill="#a3bfe4"/>
      <path id="Trazado_609095" data-name="Trazado 609095" d="M591.091,904.929H567.526a4.564,4.564,0,0,1,0-9.128h23.565a4.564,4.564,0,0,1,0,9.128Zm-23.565-8.054a3.49,3.49,0,0,0,0,6.979h23.565a3.49,3.49,0,0,0,0-6.979Z" transform="translate(-328.46 -523.109)" fill="#627289"/>
      <path id="Trazado_609096" data-name="Trazado 609096" d="M585.109,885.787H561.544a4.027,4.027,0,1,1,0-8.054h23.565a4.027,4.027,0,0,1,0,8.054Z" transform="translate(-325.28 -512.558)" fill="#a3bfe4"/>
      <path id="Trazado_609097" data-name="Trazado 609097" d="M584.355,885.571H560.791a4.564,4.564,0,0,1,0-9.128h23.565a4.564,4.564,0,0,1,0,9.128Zm-23.565-8.053a3.489,3.489,0,0,0,0,6.979h23.565a3.489,3.489,0,0,0,0-6.979Z" transform="translate(-324.526 -511.805)" fill="#627289"/>
      <path id="Trazado_609098" data-name="Trazado 609098" d="M600.351,858.376H576.788a4.027,4.027,0,1,0,0,8.053h23.563a4.027,4.027,0,1,0,0-8.053Z" transform="translate(-334.181 -501.254)" fill="#a3bfe4"/>
      <path id="Trazado_609099" data-name="Trazado 609099" d="M599.6,866.214H576.033a4.564,4.564,0,1,1,0-9.128H599.6a4.564,4.564,0,1,1,0,9.128Zm-23.563-8.054a3.489,3.489,0,1,0,0,6.979H599.6a3.489,3.489,0,1,0,0-6.979Z" transform="translate(-333.426 -500.501)" fill="#627289"/>
      <path id="Trazado_609100" data-name="Trazado 609100" d="M590.426,839.015H566.862a4.027,4.027,0,1,0,0,8.054h23.564a4.027,4.027,0,0,0,0-8.054Z" transform="translate(-328.385 -489.948)" fill="#a3bfe4"/>
      <path id="Trazado_609101" data-name="Trazado 609101" d="M589.674,846.853H566.108a4.564,4.564,0,0,1,0-9.128h23.565a4.564,4.564,0,0,1,0,9.128ZM566.108,838.8a3.49,3.49,0,0,0,0,6.979h23.565a3.49,3.49,0,0,0,0-6.979Z" transform="translate(-327.632 -489.195)" fill="#627289"/>
      <path id="Trazado_609102" data-name="Trazado 609102" d="M605.893,827.711H582.329a4.027,4.027,0,0,1,0-8.054h23.565a4.027,4.027,0,1,1,0,8.054Z" transform="translate(-337.417 -478.644)" fill="#a3bfe4"/>
      <path id="Trazado_609103" data-name="Trazado 609103" d="M605.14,827.5H581.576a4.564,4.564,0,1,1,0-9.128H605.14a4.564,4.564,0,1,1,0,9.128Zm-23.564-8.054a3.49,3.49,0,1,0,0,6.979H605.14a3.49,3.49,0,1,0,0-6.979Z" transform="translate(-336.663 -477.891)" fill="#627289"/>
      <path id="Trazado_609104" data-name="Trazado 609104" d="M605.77,827.678H582.207a4.116,4.116,0,0,1,0-8.232H605.77a4.116,4.116,0,0,1,0,8.232Zm-23.564-8.054a3.938,3.938,0,0,0,0,7.876H605.77a3.938,3.938,0,0,0,0-7.876Z" transform="translate(-337.294 -478.521)" fill="#6e47a0"/>
      <path id="Trazado_609105" data-name="Trazado 609105" d="M633.052,868.255a17.563,17.563,0,1,0-17.563-17.563A17.563,17.563,0,0,0,633.052,868.255Z" transform="translate(-359.133 -486.511)" fill="#627289"/>
      <path id="Trazado_609106" data-name="Trazado 609106" d="M647.734,865.376a14.313,14.313,0,1,0-20.241,0A14.313,14.313,0,0,0,647.734,865.376Z" transform="translate(-363.694 -491.074)" fill="#a3bfe4"/>
      <path id="Trazado_609107" data-name="Trazado 609107" d="M648.193,852.785l.106-1.291a.506.506,0,0,1,.564-.46l2.056.249a.5.5,0,0,1,.44.559l-.128,1.116a.5.5,0,0,0,.429.558,15.427,15.427,0,0,1,3.26.813.5.5,0,0,1,.3.591l-.739,2.924a.5.5,0,0,1-.647.356c-1.182-.391-4.09-1.252-5.281-.711a.505.505,0,0,0,.1.95c1.242.287,3.93,1,4.169,1.1a6.317,6.317,0,0,1,2.845,2.045,4.8,4.8,0,0,1-.324,4.869,4.324,4.324,0,0,1-2.278,1.833c-.2.058-1.9.314-1.916.491,0,0-.172.972-.278,1.578a.5.5,0,0,1-.559.412l-1.754-.218a.5.5,0,0,1-.438-.573l.151-1.052a.5.5,0,0,0-.37-.559L643.5,867.2a.506.506,0,0,1-.36-.611l.612-2.423a.5.5,0,0,1,.665-.35c1.194.446,4.1,1.441,5.342,1.068a.5.5,0,0,0-.02-.969c-1.139-.309-3.552-1-3.787-1.118a4.5,4.5,0,0,1-2.418-5.3,5.927,5.927,0,0,1,4.3-4.265.5.5,0,0,0,.355-.441Z" transform="translate(-375.273 -496.965)" fill="#627289"/>
      <path id="Trazado_609108" data-name="Trazado 609108" d="M588.684,145.648h45.379a1.9,1.9,0,0,0,1.9-1.9V123.313a1.9,1.9,0,0,0-1.9-1.9H588.684a1.9,1.9,0,0,0-1.9,1.9v20.431A1.9,1.9,0,0,0,588.684,145.648Z" transform="translate(-342.368 -70.897)" fill="#a3bfe4"/>
      <path id="Trazado_609109" data-name="Trazado 609109" d="M580.409,167.684l-7.874,9.944,10.079-6.1Z" transform="translate(-334.049 -97.92)" fill="#a3bfe4"/>
      <path id="Trazado_609110" data-name="Trazado 609110" d="M333.974,0H279.793a2.132,2.132,0,0,0-2.132,2.132V23.446a2.132,2.132,0,0,0,2.132,2.132h54.181a2.132,2.132,0,0,0,2.132-2.132V2.132A2.132,2.132,0,0,0,333.974,0Z" transform="translate(-161.856)" fill="#a3bfe4"/>
      <path id="Trazado_609111" data-name="Trazado 609111" d="M408.894,48.828l9.357,10.494-11.977-6.44Z" transform="translate(-236.961 -28.514)" fill="#a3bfe4"/>
      <path id="Trazado_609112" data-name="Trazado 609112" d="M492.638,14.455c0,1.663-1.986,2.88-5.218,3.136s-5.218-3.136-5.218-3.136a6.865,6.865,0,0,1,.242-1.17,5.292,5.292,0,0,1,4.626-4.144,4.682,4.682,0,0,1,5.012,2.887,6.272,6.272,0,0,1,.556,2.428Z" transform="translate(-281.299 -5.323)" fill="#627289"/>
      <path id="Trazado_609113" data-name="Trazado 609113" d="M492.422,12.027c-1.158-.015-2.735-.021-4.006.032a28.387,28.387,0,0,0-5.631,1.226,5.292,5.292,0,0,1,4.626-4.144,4.682,4.682,0,0,1,5.012,2.887Z" transform="translate(-281.639 -5.323)" fill="#627289"/>
      <path id="Trazado_609114" data-name="Trazado 609114" d="M465.034,70.5a17.769,17.769,0,0,0,6.252,8.979l1.558-7.923L464.7,67Z" transform="translate(-271.076 -39.124)" fill="#627289"/>
      <path id="Trazado_609115" data-name="Trazado 609115" d="M505.7,92.314c-.015.027-.032.056-.049.083-2.393,3.852-18.784,3.752-20.5,2.99s-4.129-10.563-2.88-14.213c.517-1.511,3.373-3.747,6.541-5.85,4.483-2.971,9.591-5.673,9.591-5.673a19.5,19.5,0,0,0,1.158,5.443,15.678,15.678,0,0,0,2.682,4.737c2.349,2.781,4.019,5.522,4.324,8.17a6.96,6.96,0,0,1-.866,4.314Z" transform="translate(-281.134 -40.674)" fill="#627289"/>
      <path id="Trazado_609116" data-name="Trazado 609116" d="M516.229,88c-2.683-1.88-6.687-4.728-7.375-5.47-.845-.91-.332-4.888-.1-6.414.162-.352.318-.7.466-1.024a19.446,19.446,0,0,1-1.158-5.443s-5.109,2.7-9.591,5.673l2.693,11.57a12.406,12.406,0,0,0,3.2-2.695l10.947,8.2c.017-.027.035-.056.05-.083a6.943,6.943,0,0,0,.866-4.314Z" transform="translate(-290.801 -40.67)" fill="#627289"/>
      <path id="Trazado_609117" data-name="Trazado 609117" d="M491.636,94.665a20.584,20.584,0,0,1-6.682,1.729c-3.031.063-7.538-1.984-7.538-1.984a28.825,28.825,0,0,0,.528-6.152c0-2.872-.2-5.372-.2-5.372l11.908.359c.1,1.334.337,2.971.616,4.586.594,3.47,1.369,6.833,1.369,6.833Z" transform="translate(-278.504 -48.402)" fill="#f9e0ac"/>
      <path id="Trazado_609118" data-name="Trazado 609118" d="M490.727,87.832c-2.449,1.8-5.293,2.841-6.464,2.841a13.627,13.627,0,0,1-5.857-2.414c0-2.872-.2-5.372-.2-5.372l11.908.359c.1,1.334.337,2.971.616,4.586Z" transform="translate(-278.964 -48.402)" fill="#d3bd94"/>
      <path id="Trazado_609119" data-name="Trazado 609119" d="M482.954,156.01c.553,7.36,1.068,13.806,1.115,14.2s-3.609.651-7.753.8c-5.359.2-11.529.236-11.529.236s-19.4-.115-19.283-1.039,2.8-35.3,2.539-36.343-4.965-9.961-4.965-11.345,1.723-13.883,1.723-13.883c2.927-3.476,10.6-8.028,10.6-8.028,3.637,2.51,15.127,2.51,18.764,0,0,0,8.034,4.9,10.824,7.649,0,0,1.5,12.873,1.5,14.261s-4.706,10.306-4.964,11.345C481.381,134.461,482.2,146.069,482.954,156.01Z" transform="translate(-258.453 -58.751)" fill="#a3bfe4"/>
      <path id="Trazado_609120" data-name="Trazado 609120" d="M520.553,247.968c.052.4-3.609.651-7.753.8l-7.245-10.98,13.883-4.019C519.99,241.131,520.505,247.577,520.553,247.968Z" transform="translate(-294.936 -136.512)" fill="#627289"/>
      <path id="Trazado_609121" data-name="Trazado 609121" d="M443.014,112.663s-5.283,3-6.669,10.97-2.8,31.465-1.068,34.007,5.773,2.309,7.275-4.157,4.041-28.637,4.273-30.946-1.27-9.237-3.81-9.873Z" transform="translate(-253.429 -65.79)" fill="#a3bfe4"/>
      <path id="Trazado_609122" data-name="Trazado 609122" d="M452.633,185.867l-1.117-9.9v-2.011l.251.058s1.44,4.226,1.583,5.3,1.128,7.058,1.128,7.058l-1.846-.5Z" transform="translate(-263.38 -101.584)" fill="#627289"/>
      <path id="Trazado_609123" data-name="Trazado 609123" d="M440.95,198.52c-2.686-.429-8.116,3.733-5.091,9.618s21.039,16.71,21.039,16.71,2.771.433,3.637-1.645-17.14-22.413-17.14-22.413-1.623-2.137-2.446-2.268Z" transform="translate(-253.716 -115.91)" fill="#f9e0ac"/>
      <path id="Trazado_609124" data-name="Trazado 609124" d="M532.33,113.781s5.3,2.973,6.729,10.933,2.976,31.449,1.258,34-5.76,2.341-7.3-4.116-4.2-28.613-4.445-30.922S529.792,114.43,532.33,113.781Z" transform="translate(-308.363 -66.443)" fill="#a3bfe4"/>
      <path id="Trazado_609125" data-name="Trazado 609125" d="M530.622,152.743l-2.07-16.873,4.489,25.585-1.088.325Z" transform="translate(-308.365 -79.342)" fill="#627289"/>
      <path id="Trazado_609126" data-name="Trazado 609126" d="M516.428,199.6c2.684-.444,8.135,3.688,5.144,9.589s-20.946,16.827-20.946,16.827-2.769.449-3.646-1.625,17.015-22.509,17.015-22.509S515.605,199.738,516.428,199.6Z" transform="translate(-289.91 -116.54)" fill="#f9e0ac"/>
      <path id="Trazado_609127" data-name="Trazado 609127" d="M477.369,257.735a9.863,9.863,0,0,1-1.041,2.331c-3.65,5.857-14.98,3.745-20.839,0-2.293-1.465-6.386-4.442-10.558-7.767-.947-.754-1.9-1.525-2.831-2.3-5.473-4.547-10.4-9.246-10.756-11.375a4.568,4.568,0,0,1,.573-3.1s0-.007.006-.011c1.317-2.288,4.377-3.762,6.494-4.428,7.628-2.391,24.946,4.591,31.958,7.856C476.549,241.816,479.3,251.47,477.369,257.735Z" transform="translate(-251.562 -134.658)" fill="#627289"/>
      <path id="Trazado_609128" data-name="Trazado 609128" d="M407.392,379.85a16.08,16.08,0,0,0,1.145-5.271c.242-2.734-1.789-11.859-3.4-11.66s-3.088,4.608-4.96,7.531a49.838,49.838,0,0,1-4.085,5.418l-3.314-2.177s-4.363,2.58-5.891,3.446-3.863,2.084-3.85,2.451,3.709.866,6.856.809,8.743-.355,9.064-.528,3.05-7.131,3.4-7.674a1.3,1.3,0,0,1,1.839-.057,47.236,47.236,0,0,1,2.117,6.233c.325,1.258.652,1.658,1.082,1.481Z" transform="translate(-223.388 -211.927)" fill="#627289"/>
      <path id="Trazado_609129" data-name="Trazado 609129" d="M423.84,284.514c-.98,5.165-2.407,11.073-3.521,15.439-.8,3.125-1.431,5.46-1.626,6.175-.042.15-.063.229-.063.229l-1.65,6.065-7.13,8.854-4.018-2.984s4.1-7.736,4.978-10.872a26.876,26.876,0,0,0,.587-3.377c.23-1.806.438-3.964.609-5.947.278-3.245.451-6.026.451-6.026l.763-23.24c1.608-1.851,4.839-1.8,7.057-1.376a6.311,6.311,0,0,1,4.085,2.666,44.449,44.449,0,0,1-.522,14.4Z" transform="translate(-236.702 -156.04)" fill="#f9e0ac"/>
      <path id="Trazado_609130" data-name="Trazado 609130" d="M428.131,343.3c-.8,3.125-1.431,5.46-1.626,6.175a30.239,30.239,0,0,1-5.081-1.114,10.953,10.953,0,0,1-2.215-.972c.23-1.806.438-3.964.609-5.947l8.312,1.859Z" transform="translate(-244.514 -199.386)" fill="#d3bd94"/>
      <path id="Trazado_609131" data-name="Trazado 609131" d="M436.709,251.033c-.242,1.184-.5,2.339-.743,3.434-.071.327-.142.647-.208.962-1.525,7.241-7.984,28.193-7.984,28.193s-.308.038-.845.053c-.382.011-.883.011-1.473-.02a19.431,19.431,0,0,1-3.689-.555,17.371,17.371,0,0,1-4.1-1.65,15.623,15.623,0,0,1-1.74-1.105s1.36-21.674,3.238-32.028c.841-4.63,2.1-8.233,3.789-10.626,0,0,0-.008.006-.011,2.088-2.95,4.836-4.053,8.273-2.962,7.507,2.382,6.821,9.753,5.48,16.315Z" transform="translate(-242.595 -136.824)" fill="#627289"/>
      <path id="Trazado_609132" data-name="Trazado 609132" d="M441.109,199.957a9.41,9.41,0,0,0-5.767,2.21c-2.785,2.305-2.581,4.216-2.581,4.216l.676,1.076s-1.841.534-3.25-2.027,0-8.631,4.418-9.629,6.851.6,6.915,1.306a16.3,16.3,0,0,1-.41,2.847Z" transform="translate(-250.617 -114.154)" fill="#627289"/>
      <path id="Trazado_609133" data-name="Trazado 609133" d="M536.137,199.679a9.4,9.4,0,0,1,5.779,2.178c2.8,2.289,2.6,4.2,2.6,4.2l-.67,1.08s1.844.523,3.239-2.046-.048-8.63-4.471-9.6-6.847.64-6.907,1.344a16.263,16.263,0,0,0,.427,2.844Z" transform="translate(-312.543 -113.979)" fill="#627289"/>
      <path id="Trazado_609134" data-name="Trazado 609134" d="M481,202.582l-6.336,18.336-.068.2H438.622l-3.993-16.984-.362-1.549Z" transform="translate(-253.306 -118.299)" fill="#fcfbf9"/>
      <path id="Trazado_609135" data-name="Trazado 609135" d="M444.735,247.127v1.44H480.7l.014-1.44Z" transform="translate(-259.42 -144.311)" fill="#3f4f66"/>
      <path id="Trazado_609136" data-name="Trazado 609136" d="M481,202.582l-6.336,18.336c-1.487-1.944-5.145-6.444-8.343-8.135-4.129-2.185-26.023-8.378-26.023-8.378l-5.672-.275-.362-1.549H481Z" transform="translate(-253.307 -118.299)" fill="#e0fcfb"/>
      <path id="Trazado_609137" data-name="Trazado 609137" d="M487.175,217.47a6.177,6.177,0,1,0-7.431,4.594A6.177,6.177,0,0,0,487.175,217.47Z" transform="translate(-277.084 -122.556)" fill="#3f4f66"/>
      <path id="Trazado_609138" data-name="Trazado 609138" d="M486.643,221.528a4.609,4.609,0,1,0-6.519,0A4.609,4.609,0,0,0,486.643,221.528Z" transform="translate(-279.297 -124.768)" fill="#e0fcfb"/>
      <path id="Trazado_609139" data-name="Trazado 609139" d="M434.266,201.726l.368-.609h45.279l1.091.609Z" transform="translate(-253.306 -117.444)" fill="#d3d3d3"/>
      <path id="Trazado_609140" data-name="Trazado 609140" d="M488.989,36.971s-.027,2.546-.313,5.474c-.292,2.981-.857,6.357-1.939,7.842-2.147,2.946-5.76,4.738-7.019,4.738s-4.87-1.792-7.017-4.738c-1.091-1.5-1.656-4.915-1.948-7.911-.278-2.9-.306-5.4-.306-5.4s2.15-7.554,3.981-9.347,5.29-1.344,5.29-1.344,3.457-.448,5.291,1.344S488.989,36.971,488.989,36.971Z" transform="translate(-274.435 -15.317)" fill="#f9e0ac"/>
      <path id="Trazado_609141" data-name="Trazado 609141" d="M490.165,18.336s-2.262,8.835,2.507,13.636a14.028,14.028,0,0,0,11.189,3.841s1.559-13.445-4.769-16.325A15.434,15.434,0,0,0,490.165,18.336Z" transform="translate(-285.636 -10.58)" fill="#627289"/>
      <path id="Trazado_609142" data-name="Trazado 609142" d="M474.176,18.336s2.262,8.835-2.507,13.636a14.027,14.027,0,0,1-11.189,3.841s-1.559-13.445,4.769-16.325A15.433,15.433,0,0,1,474.176,18.336Z" transform="translate(-268.515 -10.58)" fill="#627289"/>
      <path id="Trazado_609143" data-name="Trazado 609143" d="M464.052,57.685a59.016,59.016,0,0,0,1.19,13.07c1.438,6.619,2.227,8.218,2.227,8.218s.346-11.024.086-13.894-.951-7.627-.951-7.627l-2.55.233Z" transform="translate(-270.691 -33.55)" fill="#627289"/>
      <path id="Trazado_609144" data-name="Trazado 609144" d="M516.412,57.685a59.014,59.014,0,0,1-1.19,13.07c-1.438,6.619-2.227,8.218-2.227,8.218s-.346-11.024-.085-13.894.951-7.627.951-7.627l2.55.233Z" transform="translate(-299.174 -33.55)" fill="#627289"/>
      <path id="Trazado_609145" data-name="Trazado 609145" d="M449.411,135.873s-1.985,5.954-1.985,7.427,1.426,8.477,1.426,8.477l-.251,1.954s-2.2-8-2.071-10.174,2.88-7.683,2.88-7.683Z" transform="translate(-260.464 -79.344)" fill="#627289"/>
      <path id="Trazado_609146" data-name="Trazado 609146" d="M483.847,280.974a9.866,9.866,0,0,1-1.041,2.331c-3.65,5.857-14.98,3.745-20.839,0-2.293-1.465-6.386-4.442-10.558-7.767-.071.327-.142.647-.208.962-1.525,7.241-7.984,28.193-7.984,28.193s-.308.038-.845.053l6.206-31.511.56-2.844s1.154.67,3.014,1.713c5.5,3.081,17.166,9.421,23.386,11.333a7.585,7.585,0,0,0,8.308-2.463Z" transform="translate(-258.04 -157.897)" fill="#3f4f66"/>
      <path id="Trazado_609147" data-name="Trazado 609147" d="M473.731,402.764a8.778,8.778,0,0,0-1.367,3.593c-.271,2.065-1.417,7.982-1.091,9.338s4.856,9.859,5.5,10.013,6.372-9.132,6.755-10.719-.631-10.075-.757-10.924a5.449,5.449,0,0,0-1.215-2.037Z" transform="translate(-274.883 -234.767)" fill="#627289"/>
      <path id="Trazado_609148" data-name="Trazado 609148" d="M482.161,338.268a23.933,23.933,0,0,0-.114,3.112c.027.375.053.819.077,1.312.188,3.723.294,10.313-.071,11.792-.411,1.673-.638,2.369-.638,2.369l-6.221.428s-1.139-7.395-.962-9.53c.119-1.425.306-3.4.327-5.558.011-1.073-.02-2.193-.117-3.317-.015-.173-.035-.375-.056-.607-.411-4.327-1.967-18.5-1.98-22.819-.015-4.544.305-5.171,0-7.193-.015-.1-.035-.226-.058-.357a7.55,7.55,0,0,1,7.492-3.319,6.553,6.553,0,0,1,4.049,2.695c.05.069.093.142.139.213A33.482,33.482,0,0,1,484.672,319c-.689,4.63-2.08,14-2.512,19.267Z" transform="translate(-275.546 -177.787)" fill="#f9e0ac"/>
      <path id="Trazado_609149" data-name="Trazado 609149" d="M484.9,388.844c.027.375.053.819.077,1.312a14.354,14.354,0,0,1-4.047.33,17.276,17.276,0,0,1-3.518-.83c.011-1.073-.02-2.193-.117-3.317-.015-.173-.035-.375-.056-.607h7.774a23.928,23.928,0,0,0-.114,3.112Z" transform="translate(-278.402 -225.251)" fill="#d3bd94"/>
      <path id="Trazado_609150" data-name="Trazado 609150" d="M470.819,273.555c-6.519-.4-9.088,5.633-8.385,16.133s4.672,31.85,4.672,31.85a17.77,17.77,0,0,0,6.338,1.248,18.21,18.21,0,0,0,5.954-.959s1.153-21.9.865-29.289.258-18.392-9.443-18.982Z" transform="translate(-269.69 -159.733)" fill="#627289"/>
      <path id="Trazado_609151" data-name="Trazado 609151" d="M102.638,393.019c-2.088-5.056-7.712-8.014-7.858-7.817a1.968,1.968,0,0,0-.035.639c-.445,1.86-3.74,4.134-5.834,4.856-2.836.976-6.085,2.922-7.4,4.712-.711.971-.7,2.691-.534,4.063a20.38,20.38,0,0,0-2.168,5.518c-.213,1.722,3.056,10.042,3.476,10.913s5.822,4.678,5.822,4.678,11.743-7.33,14.357-11.738,2.258-10.768.171-15.824Z" transform="translate(-45.732 -224.936)" fill="#627289"/>
      <path id="Trazado_609152" data-name="Trazado 609152" d="M198.68,422.744a5.158,5.158,0,0,0,4.051-3.035c1.312-2.846,5.266-23.9,5.266-23.9a8.587,8.587,0,0,0-4.362,1.177c-1.621,1.194-2.416,4.1-2.416,4.1l-5.382,10.8-1.578,3s-1.8,3.523-.141,5.848a5.3,5.3,0,0,0,4.562,2Z" transform="translate(-112.66 -231.138)" fill="#f9e0ac"/>
      <path id="Trazado_609153" data-name="Trazado 609153" d="M169.282,449.089c.894,2.181.712,3.281-1.093,6.044a16.934,16.934,0,0,1-2.063,2.517c-3.927,4.032-15.2,16.6-15.2,16.6s-4.74,2.391-8.253-.248a5.594,5.594,0,0,1-1.033-7.8s1.064-1.011,2.7-2.55c4.309-4.058,12.584-11.791,15.838-14.4C164.664,445.647,168.488,447.841,169.282,449.089Z" transform="translate(-81.759 -261.19)" fill="#fcfbf9"/>
      <path id="Trazado_609154" data-name="Trazado 609154" d="M67.952,880.283l-.706,6.242s.993,3.688,3.068,4.175A9.446,9.446,0,0,0,75,890.171l1.373-2.056.056-4.6.12-3.363-8.6.126Z" transform="translate(-38.983 -513.973)" fill="#f9e0ac"/>
      <path id="Trazado_609155" data-name="Trazado 609155" d="M156.121,884.9l-.243,2.906s.24,1.5,2.748,1.7a35.216,35.216,0,0,0,4.311.1l1.677-.816.013-1.67-.352-2.319-8.155.105Z" transform="translate(-90.74 -516.684)" fill="#f9e0ac"/>
      <path id="Trazado_609156" data-name="Trazado 609156" d="M68.479,610.119s-4.734,11.182-4.691,18.706,2.971,16.709,3.159,17.625-1,21.523-.847,24.262.369,6.962.369,6.962-.759,10.813-.852,15.029-1.65,25.043-1.65,25.043a7.265,7.265,0,0,0,5.727,2.976,8.549,8.549,0,0,0,6.212-2.6s1.734-12.387,2.862-16.238,3.437-13.946,3.295-21.7,7.85-39.042,7.85-39.042.4-1.416.956,1.616,4.819,25.108,5.328,27.323,1.881,6.2,2.968,7.361c0,0-1.8,8.928-1.4,12.813s2.649,18.677,3.149,21.272,1.333,8.921,1.333,8.921,3.523,1.066,5.689.657a8.166,8.166,0,0,0,3.155-1.147s.791-29.621,1.369-36.9-.347-22.2-.347-22.2-2.644-35.394-6.8-49.012l-1.5-10.295-29.631.107-5.714,8.462Z" transform="translate(-36.963 -351.278)" fill="#627289"/>
      <path id="Trazado_609157" data-name="Trazado 609157" d="M110.562,630.257c-3.68,3.073-11.252,4.032-22.164,2.887a53.31,53.31,0,0,1-18.043-4.977c.815-2.4,1.505-4.1,1.635-4.417,8.745.367,31.2,1.5,37.91,3.685.226.882.446,1.825.661,2.821Z" transform="translate(-40.798 -364.243)" fill="#3f4f66"/>
      <path id="Trazado_609158" data-name="Trazado 609158" d="M74.484,475.9l-12.152,4.36s-.067,9.983,1.6,14.847,2.32,13.352,3.266,18.778L68.455,526.1,65.74,538.382s3.807,3,19.991,4.529l7.847.532s6.691.778,11.252-1.937c1.849-1.117-.307-8.551-.964-11.133s-.428-10.962-.428-10.962l-.728-18.977.43-21.284-7.88-3.237L77.118,474.9l-2.634,1Z" transform="translate(-36.113 -277.322)" fill="#fcfbf9"/>
      <path id="Trazado_609159" data-name="Trazado 609159" d="M65.539,888.617a39.147,39.147,0,0,0-1.372,7.143c-.056,2.527-.121,8.15.386,10.057s1.662,4.65,3.454,4.69,5.743-.758,7.136-6.226a39.3,39.3,0,0,0,.7-13.573,7.135,7.135,0,0,0-1.236-2.47,23.953,23.953,0,0,1-1.074,4.883c-.6,1.187-3.676,1.436-4.77,1.222s-2.988-3.542-2.9-4.74-.325-.987-.325-.987Z" transform="translate(-37.163 -518.693)" fill="#627289"/>
      <path id="Trazado_609160" data-name="Trazado 609160" d="M155.158,891.025a11.654,11.654,0,0,0-.51,2.137,18.031,18.031,0,0,0,.389,3.358c.326.955.818,2.293,5.33,2.2s15.031.349,15.031.349a4.159,4.159,0,0,0,1.31-1.7c.192-.818-.2-6.577-5-6.873s-7.805-.172-7.805-.172.03,1.265-2.757,1.709a8.027,8.027,0,0,1-5.993-1.016Z" transform="translate(-90.02 -519.9)" fill="#627289"/>
      <path id="Trazado_609161" data-name="Trazado 609161" d="M111.679,464.229l-7.615,7.132-8.644-9.847.586-5.464.5-4.716.139-1.284,5.856,2.25.07.973.5,6.964.01.14Z" transform="translate(-55.435 -262.81)" fill="#f9e0ac"/>
      <path id="Trazado_609162" data-name="Trazado 609162" d="M103.9,462.042a16.131,16.131,0,0,1-4.227-1.7,15.611,15.611,0,0,1-2.842-2.483l.506-4.715,6.065,1.939.5,6.964Z" transform="translate(-56.258 -264.614)" fill="#d3bd94"/>
      <path id="Trazado_609163" data-name="Trazado 609163" d="M25.887,418.495a6.1,6.1,0,0,0,1.153-5.6c-.949-3.34-12.664-23.637-12.664-23.637a10.165,10.165,0,0,0-2.725,4.315c-.476,2.224.937,5.217.937,5.217l3.274,12.99s1.621,4.055,3.15,5.105C20.468,417.884,25.887,418.495,25.887,418.495Z" transform="translate(-6.46 -227.31)" fill="#f9e0ac"/>
      <path id="Trazado_609164" data-name="Trazado 609164" d="M191.6,443.33l-1.281,2.4,8.391,5.844a2.9,2.9,0,0,0,2.209-1.925,3.69,3.69,0,0,0,.014-2.588L191.6,443.33Z" transform="translate(-110.854 -258.885)" fill="#f9e0ac"/>
      <path id="Trazado_609165" data-name="Trazado 609165" d="M53.839,457.519S42.28,441.964,38.473,437.647s-6.776-5.285-8.385-2.718-2.093,5.334,1.087,9.978,12.139,18.957,12.139,18.957,4.262,3.165,8.174,1.166A5.593,5.593,0,0,0,53.839,457.519Z" transform="translate(-16.548 -253.158)" fill="#fcfbf9"/>
      <path id="Trazado_609166" data-name="Trazado 609166" d="M36.383,433.967a7.529,7.529,0,0,0-4.057,2.942,25.87,25.87,0,0,0-2.2,6L28.355,441.2a7.578,7.578,0,0,1,.247-7.153c2.208-3.442,4.324-3.412,5.036-2.9a33.306,33.306,0,0,1,2.743,2.819Z" transform="translate(-15.804 -251.624)" fill="#a3bfe4"/>
      <path id="Trazado_609167" data-name="Trazado 609167" d="M88.367,469.133a66.322,66.322,0,0,1,5.847,3.7c.438.558,6.2,9.252,6.2,9.252l-.882,2a13.748,13.748,0,0,0-2.1-3.02c-1.075-1.018-5.935-6.132-5.935-6.132a52.409,52.409,0,0,1-4.393,3.264c-.308-.006.376-4.621.612-5.987s.651-3.072.651-3.072Z" transform="translate(-50.533 -273.953)" fill="#a3bfe4"/>
      <path id="Trazado_609168" data-name="Trazado 609168" d="M113.363,468.161l8.962,3.9.623,4.438-1.826-.722-6.139,7.584,3.066-8.581-4.486-3.826Z" transform="translate(-65.913 -273.386)" fill="#a3bfe4"/>
      <path id="Trazado_609169" data-name="Trazado 609169" d="M88.213,428.281s-2.187-1.91-4.217-1.26-.6,4.543.249,5.224a4.067,4.067,0,0,0,4.708-.163,36.85,36.85,0,0,0,5.185,3.659c1.614.711,6.2.58,6.521.273s3.2-6.117,3.354-7.446-1.1-7.688-1.8-9.929-5.28-6.861-8.09-6.1-4.669,5.8-5.063,7.6-.847,8.145-.847,8.145Z" transform="translate(-48.158 -240.855)" fill="#f9e0ac"/>
      <path id="Trazado_609170" data-name="Trazado 609170" d="M204.106,371.452s2.732,1.693,3.633,1.71a26.471,26.471,0,0,0,4.028-.877s2.673-12.316,1.362-14.691-.689.711-1.07,1.959-.187,2.3-.5,2.313.129-2.475.02-3.942-.362-2.472-.769-2.818-.427.022-.616.789-.153,4.21-.344,4.786-.433-.622-.493-1.85.285-4.641-.094-4.824-1.2-.657-1.336.858-.181,4.891-.313,5.256-.376-.642-.446-2.185-.018-4.582-.423-4.57a1.158,1.158,0,0,0-1.321,1.189c-.065,1.142.083,5.7.012,6.523a39.807,39.807,0,0,1-.618,4.718,8.826,8.826,0,0,1-2.185.446c-.173-.038-1.191-.976-1.941-1.395s-1.412.034-1.314.488A10.874,10.874,0,0,0,204.106,371.452Z" transform="translate(-116.135 -206.35)" fill="#f9e0ac"/>
      <path id="Trazado_609171" data-name="Trazado 609171" d="M12.516,373.505s-2.271,2.275-3.145,2.5a26.609,26.609,0,0,1-4.122.069S-.173,364.7.558,362.084s.834.534,1.49,1.662.709,2.2,1.019,2.136-.691-2.379-.921-3.833-.214-2.49.1-2.92.42-.077.78.627,1.113,4.063,1.431,4.579.279-.7.057-1.913S3.176,357.971,3.5,357.7s1.022-.915,1.5.529,1.3,4.72,1.509,5.045.219-.711-.066-2.23-1.031-4.465-.636-4.545a1.158,1.158,0,0,1,1.558.855c.324,1.1,1.224,5.565,1.482,6.352a40.052,40.052,0,0,0,1.682,4.451,8.934,8.934,0,0,0,2.23-.066c.16-.077.936-1.222,1.569-1.8s1.383-.291,1.391.174S15.621,370.12,12.516,373.505Z" transform="translate(0 -208.149)" fill="#f9e0ac"/>
      <path id="Trazado_609172" data-name="Trazado 609172" d="M291.078,793.153c-1.221,3.82.836,7.256,2.668,9.495a3.539,3.539,0,0,1,.972.068c3.436.407,4.951-.2,8.364-.385a17.332,17.332,0,0,0,3.684-1.243l1.537-.768s1.764-9.155-3.053-11.032c-4.792-1.876-4.181-10.85-4.385-15.666-.136-2.961-1.085-4.317-1.311-5.4-2.261-11.529.52-15.326-2.351-18.695-3.187-3.73-7.482-.158-11.144-4-4.115-4.364-1.4-11.846-6.126-15.077a7.393,7.393,0,0,0-2.916-1.333c-3.075-.611-5.221,1.515-7.685-.859-4.973-4.747-12.184-5.765-15.688.2-3.436,5.877,2.917,15.959,16.388,22.99,9.11,6.149,9.517,8.3,9.517,13.608.022,3.707-2.283,13.7,3.165,16.886s9.765,6.827,8.364,11.212Z" transform="translate(-147.294 -422.979)" fill="#e0fcfb"/>
      <path id="Trazado_609173" data-name="Trazado 609173" d="M303.138,807.4l.248-.068c-.384-1.447-.768-2.916-1.152-4.34a157.785,157.785,0,0,0-11.415-29.432,127.47,127.47,0,0,0-13.427-20.932A106.316,106.316,0,0,0,264.462,739a82.212,82.212,0,0,0-8.523-6.6c-.046.068-.09.136-.136.2a87.767,87.767,0,0,1,8.5,6.578,105.7,105.7,0,0,1,12.884,13.608,126.9,126.9,0,0,1,13.405,20.887,156.548,156.548,0,0,1,11.393,29.386c.385,1.424.792,2.894,1.153,4.34Z" transform="translate(-149.092 -427.69)" fill="#fff"/>
      <path id="Trazado_609174" data-name="Trazado 609174" d="M315.042,762.676l.226-.136c-4.973-7.867-4.364-22.628-4.069-26.652-.09-.022-.181-.046-.249-.068-.294,4-.926,18.9,4.091,26.855Z" transform="translate(-181.182 -429.687)" fill="#fff"/>
      <path id="Trazado_609175" data-name="Trazado 609175" d="M332.021,850.671l.226-.112c-2.736-5.719-13.156-9.268-16.185-10.195v.271C319.136,841.585,329.353,845.089,332.021,850.671Z" transform="translate(-184.28 -490.736)" fill="#fff"/>
      <path id="Trazado_609176" data-name="Trazado 609176" d="M357.133,846.353l.226-.068c-1.266-4.656-.543-11.664,2.08-19.78l.022-.022c-.068-.09-.136-.181-.181-.249-.023.046-.046.136-.068.2-2.645,8.138-3.367,15.213-2.08,19.915Z" transform="translate(-207.901 -482.485)" fill="#fff"/>
      <path id="Trazado_609177" data-name="Trazado 609177" d="M354,898.61l.2-.136c-2.351-3.752-8.16-5.019-10.082-5.357,0,.09-.023.181-.023.248,1.9.339,7.595,1.582,9.9,5.244Z" transform="translate(-200.653 -521.541)" fill="#fff"/>
      <path id="Trazado_609178" data-name="Trazado 609178" d="M370.153,894.643a28.373,28.373,0,0,1,4.77-12.592c-.068-.068-.136-.112-.2-.18a28.773,28.773,0,0,0-4.814,12.75Z" transform="translate(-215.722 -514.974)" fill="#fff"/>
      <path id="Trazado_609179" data-name="Trazado 609179" d="M273.264,737.168l.2-.136a70.67,70.67,0,0,1-6.6-12.184,1.1,1.1,0,0,0-.248.046A69.213,69.213,0,0,0,273.264,737.168Z" transform="translate(-155.407 -423.28)" fill="#fff"/>
      <path id="Trazado_609180" data-name="Trazado 609180" d="M278.375,768.178l.158-.2c-3.64-2.78-11.71-2.283-14.852-1.966.068.09.136.158.2.248,3.233-.317,11.054-.724,14.49,1.922Z" transform="translate(-153.692 -447.169)" fill="#fff"/>
      <path id="Trazado_609181" data-name="Trazado 609181" d="M263.811,829.718l.2.068a38.337,38.337,0,0,0,14.219,1.379l3.119-.475c.587-2.577.678-5.153-2.622-5.742-5.109-.9-6.239-9.607-5.221-12.84,1.243-4.023,3.956-13.4-3.957-14.942-6.578-1.288-11.076-.768-12.455-8.906-1.379-8.115-6.42-12.7-13.789-11.37-7.731,1.4-15.326-8.251-21.316-4.047-10.443,7.324,1.718,24.187,15.846,27.849,14.129,3.684,6.94,9.449,7.324,16.163.543,9.2,12.659,5.833,16.343,9.042a7.477,7.477,0,0,1,2.305,3.821Z" transform="translate(-127.056 -450.682)" fill="#33ece0"/>
      <path id="Trazado_609182" data-name="Trazado 609182" d="M273.3,836.357l.339-.112C265.437,811.13,245.363,790.018,221,780.7a2.4,2.4,0,0,0-.181.339C245.092,790.289,265.122,811.333,273.3,836.357Z" transform="translate(-128.66 -455.897)" fill="#fff"/>
      <path id="Trazado_609183" data-name="Trazado 609183" d="M332.83,854.546l.385-.046c-1.04-8.7,4.249-16.524,6.194-19.1-.09-.068-.2-.136-.295-.2-2.012,2.622-7.3,10.533-6.284,19.35Z" transform="translate(-193.997 -487.718)" fill="#fff"/>
      <path id="Trazado_609184" data-name="Trazado 609184" d="M308.372,891.824l.295-.226c-5.358-7.619-20.706-7.957-24.933-7.889a1.708,1.708,0,0,0,.09.361c4.318-.046,19.328.317,24.549,7.753Z" transform="translate(-165.402 -516.043)" fill="#fff"/>
      <path id="Trazado_609185" data-name="Trazado 609185" d="M292.145,803.724l.317-.181c-3.436-5.9-1.808-15.077-.972-18.649a1.662,1.662,0,0,0-.361-.113c-.814,3.594-2.487,12.93,1.018,18.943Z" transform="translate(-169.066 -458.278)" fill="#fff"/>
      <path id="Trazado_609186" data-name="Trazado 609186" d="M237.879,800.83l.158-.339c-6.125-2.848-14.015-1.65-18.31-.633.046.136.09.248.136.361C224.112,799.2,231.867,798.027,237.879,800.83Z" transform="translate(-128.025 -466.417)" fill="#fff"/>
      <path id="Trazado_609187" data-name="Trazado 609187" d="M316.54,878.985s12.5-13.224,6.216-13.224-9.313,6.307-15.62,4.317c-6.284-1.989,6.8-11.28.836-12.681-9.72-2.261-12.908,8.749-17.179,9.743-4.249.994-3.278-13.856-12.343-12.138-3.572.678,1.469,11.054-1.922,12.884-5.221,2.8-7.821-11.393-10.579-10.15-3.956,1.764,1.854,10.783-8.342,8.657-10.172-2.147,3.82,5.29-4.454,6.216s1.357,6.374,1.357,6.374h62.028Z" transform="translate(-145.585 -499.203)" fill="#3f4f66" fill-rule="evenodd"/>
      <path id="Trazado_609188" data-name="Trazado 609188" d="M306.448,833.521a79.251,79.251,0,0,0-5.38-7.166,18.694,18.694,0,0,1-3.55-5.764c-1.085-2.238-2.984-4.408-3.866-4.837s-1.289-.814-.587.7c.724,1.492,2.894,4.408,3.572,6.646a50.175,50.175,0,0,0,2.215,6.216,15.491,15.491,0,0,0,3.526,3.64c1.333.95,2.712,1.74,3.391,2.305s3.345,2.17.678-1.74Z" transform="translate(-170.643 -476.141)" fill="#8298b6" fill-rule="evenodd"/>
      <path id="Trazado_609189" data-name="Trazado 609189" d="M293.779,816.151a10.491,10.491,0,0,1,2.8,3.752c2.69,6.849,4.566,9,6.171,10.85.249.294.5.565.746.882l.384.361c1.764,1.7,5.087,4.883,6.715,7.889l.136-.136c-1.628-3.029-4.973-6.24-6.737-7.935l-.384-.361c-.226-.295-.475-.587-.746-.882-1.605-1.854-3.436-3.979-6.125-10.783a10.5,10.5,0,0,0-2.916-3.8c-.543-.384-.7-.429-.046.159Z" transform="translate(-171.017 -476.336)" fill="#627289"/>
      <path id="Trazado_609190" data-name="Trazado 609190" d="M369.751,806.329s5.516-12.7,8.725-17.135c3.209-4.453,3.82-8.318,4.883-13.156,1.062-4.815,4.43-10.285,6.488-11.8,2.08-1.515,2.848-2.532,2.147.7-.678,3.233-4.2,10.218-4.2,14.671s-.226,10.647-.9,12.749c-.7,2.1-3.752,6.533-6.578,9.4-2.826,2.848-5.877,5.38-7.256,6.985-1.379,1.582-7.256,6.714-3.3-2.419Z" transform="translate(-214.845 -445.446)" fill="#8298b6" fill-rule="evenodd"/>
      <path id="Trazado_609191" data-name="Trazado 609191" d="M384.667,764.971a19.632,19.632,0,0,0-4.5,8.974c-1.718,14.264-5,19.621-7.844,24.255-.453.746-.882,1.447-1.311,2.17v.022h-.022l-.724.972c-3.345,4.476-9.743,12.953-11.687,19.577l-.519-.09c1.966-6.714,8.386-15.235,11.777-19.711l.7-.95c.429-.724.86-1.447,1.311-2.17,2.826-4.634,6.081-9.946,7.8-24.142a19.017,19.017,0,0,1,4.747-9.11c1.2-1.175,1.56-1.4.271.2Z" transform="translate(-208.807 -446.041)" fill="#627289"/>
      <path id="Trazado_609192" data-name="Trazado 609192" d="M351.465,795.383a6.443,6.443,0,0,0,2.6-5.516c-.317-3.526-.068-4.86,1.717-12.138,1.764-7.278,1.221-14.2-1.9-19.3a32.73,32.73,0,0,1-3.526-6.985c-.882-1.944-1.65-3.64-1.65-.633-.022,3.006,1.673,14.852.791,17.225-.882,2.351-4.611,8.522-3.187,11.6,1.447,3.1,3.006,5.516,2.916,7.3-.09,1.582.022,8.567,1.582,8.749a50.578,50.578,0,0,0,2.758,19.011l.5-.158a49.966,49.966,0,0,1-2.712-19.056l.113-.09Z" transform="translate(-201.758 -437.483)" fill="#8298b6" fill-rule="evenodd"/>
      <path id="Trazado_609193" data-name="Trazado 609193" d="M352.91,800.447a4.041,4.041,0,0,0,2.938-2.419c.768-2.057,1.266-2.736,4.2-6.352,2.938-3.594,4.5-7.619,4.115-11.325a20.778,20.778,0,0,1-.113-4.86c.022-1.311.046-2.464-.768-.792s-3.029,8.771-4.159,9.878c-1.108,1.085-4.86,3.526-4.883,5.651-.022,2.1.226,3.888-.317,4.86-.475.86-2.283,4.815-1.447,5.335-1.2,2.147-5.041,25.838-5.719,31.262h.339c.678-5.47,4.544-29.116,5.719-31.218l.09-.022Z" transform="translate(-202.208 -451.905)" fill="#627289" fill-rule="evenodd"/>
      <path id="Trazado_609194" data-name="Trazado 609194" d="M340.922,833.008a3.4,3.4,0,0,0-.022-3.209c-.972-1.515-1.989-1.876-2.419-3.143a11.715,11.715,0,0,0-2.577-4.295c-1.221-1.108-2.373-3.007-2.125-1.7s.746,3.436.768,4.3c.046.859.385,3.413,1.4,4.544.95,1.063,2.646,4.612,4.68,3.685.633,1.537,3.616,18.422,2.939,25.566h.385C344.628,851.453,341.531,834.521,340.922,833.008Z" transform="translate(-194.606 -478.973)" fill="#627289" fill-rule="evenodd"/>
      <path id="Trazado_609195" data-name="Trazado 609195" d="M323.148,818.657s-2.283-9.878-3.866-13.427-1.628-6.488-1.854-10.172-1.808-8-2.961-9.291c-1.13-1.289-1.515-2.1-1.379.361s1.673,7.935,1.288,11.257c-.407,3.323-.836,7.98-.587,9.585a25.5,25.5,0,0,0,3.233,7.5c1.492,2.329,3.142,4.453,3.866,5.742.7,1.288,3.888,5.56,2.261-1.56Z" transform="translate(-182.529 -458.135)" fill="#627289" fill-rule="evenodd"/>
      <path id="Trazado_609196" data-name="Trazado 609196" d="M314.625,786.307a15.631,15.631,0,0,1,1.966,7.03c-.2,10.759,1.333,15.009,2.69,18.695.2.565.407,1.13.611,1.718l.361.791c1.673,3.572,4.883,10.377,5.493,15.462l.317-.022c-.609-5.154-3.82-11.98-5.515-15.6l-.362-.746c-.181-.565-.384-1.153-.611-1.718-1.333-3.662-2.87-7.867-2.645-18.581a15.615,15.615,0,0,0-2.125-7.166c-.633-.972-.836-1.175-.181.136Z" transform="translate(-183.205 -458.63)" fill="#8298b6"/>
      <path id="Trazado_609197" data-name="Trazado 609197" d="M309.159,866.176a3.58,3.58,0,0,0-1.537-3.053c-1.65-.994-2.758-.859-3.774-1.854a12.283,12.283,0,0,0-4.476-2.848c-1.65-.475-3.64-1.74-2.78-.609.836,1.13,2.305,2.916,2.736,3.708s1.989,3.052,3.459,3.64c1.425.565,4.656,3.119,6.172,1.311,1.062.611,3.006,2.239,4.114,6.262a77.34,77.34,0,0,1,1.9,7.708l.339-.068s-.294-1.944-1.9-7.731c-1.13-4.091-3.142-5.809-4.249-6.464Z" transform="translate(-172.789 -500.658)" fill="#627289" fill-rule="evenodd"/>
      <path id="Trazado_609198" data-name="Trazado 609198" d="M283.711,896.251s-6.149-6.488-3.053-6.488,4.566,3.1,7.641,2.125c3.1-.994-3.323-5.538-.407-6.216,4.77-1.108,6.33,4.273,8.409,4.77,2.1.5,1.628-6.781,6.058-5.945,1.764.339-.723,5.426.95,6.308,2.554,1.379,3.82-5.584,5.177-4.973,1.944.882-.9,5.289,4.091,4.25,4.995-1.063-1.876,2.6,2.17,3.052,4.069.453-.656,3.119-.656,3.119h-30.38Z" transform="translate(-163.097 -516.469)" fill="#627289" fill-rule="evenodd"/>
    </g>
  </g>
</svg>
