<svg xmlns="http://www.w3.org/2000/svg" xmlns:xlink="http://www.w3.org/1999/xlink" width="124.001" height="124" viewBox="0 0 124.001 124">
  <defs>
    <clipPath id="clip-path">
      <path id="path7455" d="M0-682.665H68.46v68.46H0Z" transform="translate(0 682.665)"/>
    </clipPath>
  </defs>
  <g id="Grupo_1083637" data-name="Grupo 1083637" transform="translate(-1088 -2058)">
    <g id="Grupo_159184" data-name="Grupo 159184" transform="translate(703.001)">
      <path id="Unión_12" data-name="Unión 12" d="M8464.769,11817.939a62.055,62.055,0,1,1,20.7-16.051l8.516,22.111Z" transform="translate(-7991 -9642)" fill="#a3bfe4"/>
      <circle id="Elipse_4842" data-name="Elipse 4842" cx="48" cy="48" r="48" transform="translate(399 2072)" fill="#e3ecf7"/>
    </g>
    <g id="g7437" transform="translate(1115.771 2768.435)">
      <path id="path7439" d="M307.223-669.332h-8.558v7.22h8.558Z" transform="translate(-268.715 -11.996)" fill="#ffb954"/>
      <path id="path7441" d="M307.223-181.333h-8.558v16.848h8.558Z" transform="translate(-268.715 -451.057)" fill="#ffb954"/>
      <g id="g7443" transform="translate(12.836 -632.39)">
        <path id="path7445" d="M-153.551,0h-8.558l-8.557,16.848h8.557Z" transform="translate(170.666)" fill="#ffb954"/>
      </g>
      <g id="g7447" transform="translate(38.509 -632.39)">
        <path id="path7449" d="M0,0H8.557l8.557,16.848H8.557Z" fill="#ffb954"/>
      </g>
      <g id="g7451" transform="translate(0 -682.665)">
        <g id="g7453" clip-path="url(#clip-path)">
          <path id="path7459" d="M286.67-682.665h8.557a1.337,1.337,0,0,1,1.337,1.337v7.22a1.337,1.337,0,0,1-1.337,1.337H286.67a1.337,1.337,0,0,1-1.337-1.337v-7.22A1.337,1.337,0,0,1,286.67-682.665Zm7.22,2.674h-5.883v4.546h5.883Z" transform="translate(-256.718 682.665)"/>
          <path id="path7461" d="M286.67-194.666h8.557a1.337,1.337,0,0,1,1.337,1.337v16.848a1.337,1.337,0,0,1-1.337,1.337H286.67a1.337,1.337,0,0,1-1.337-1.337v-16.848A1.337,1.337,0,0,1,286.67-194.666Zm7.22,2.674h-5.883v14.173h5.883Z" transform="translate(-256.719 243.604)"/>
          <g id="g7463" transform="translate(11.499 48.938)">
            <path id="path7465" d="M-174.1-13.333h8.557a1.337,1.337,0,0,1,1.14.638,1.337,1.337,0,0,1,.052,1.3l-8.557,16.848a1.337,1.337,0,0,1-1.192.732h-8.557a1.337,1.337,0,0,1-1.14-.638,1.337,1.337,0,0,1-.053-1.3L-175.3-12.6A1.337,1.337,0,0,1-174.1-13.333Zm6.379,2.674h-5.558l-7.2,14.173h5.558Z" transform="translate(184 13.333)"/>
          </g>
          <g id="g7467" transform="translate(37.172 48.938)">
            <path id="path7469" d="M-12-13.333h8.557a1.337,1.337,0,0,1,1.192.732L6.311,4.246A1.337,1.337,0,0,1,5.119,6.189H-3.439a1.337,1.337,0,0,1-1.192-.732l-8.557-16.848a1.337,1.337,0,0,1,.053-1.3A1.337,1.337,0,0,1-12-13.333Zm7.737,2.674H-9.817l7.2,14.173H2.94Z" transform="translate(13.333 13.333)"/>
          </g>
          <g id="g7471" transform="translate(7.243 19.329)">
            <path id="path7473" d="M-97.426,0a10.859,10.859,0,0,0-10.859,10.859A10.859,10.859,0,0,0-97.426,21.718,10.859,10.859,0,0,0-86.567,10.859H-97.426Z" transform="translate(108.285)" fill="#a0e557"/>
          </g>
          <g id="g7475" transform="translate(10.424 19.329)">
            <path id="path7477" d="M-68.891-97.426v-10.859a10.826,10.826,0,0,0-7.679,3.181Z" transform="translate(76.569 108.285)" fill="#2e9de3"/>
          </g>
          <g id="g7479" transform="translate(18.103 17.115)">
            <path id="path7481" d="M0,0V13.073H13.073A13.073,13.073,0,0,0,0,0" fill="#ff5d5d"/>
          </g>
          <g id="g7483" transform="translate(16.766 15.778)">
            <path id="path7485" d="M-12-13.333A14.427,14.427,0,0,1,2.414,1.077,1.337,1.337,0,0,1,1.077,2.414H-12a1.337,1.337,0,0,1-1.337-1.337V-12A1.337,1.337,0,0,1-12-13.333ZM-.336-.26A11.758,11.758,0,0,0-10.659-10.583V-.26Z" transform="translate(13.333 13.333)"/>
          </g>
          <g id="g7487" transform="translate(5.906 17.992)">
            <path id="path7489" d="M-109.422,11.059a12.21,12.21,0,0,1-12.2-12.2,12.21,12.21,0,0,1,12.2-12.2A1.337,1.337,0,0,1-108.085-12a1.337,1.337,0,0,1-1.337,1.337,9.533,9.533,0,0,0-9.522,9.522,9.533,9.533,0,0,0,9.522,9.522A9.533,9.533,0,0,0-99.9-1.137a1.337,1.337,0,0,1,1.337-1.337,1.337,1.337,0,0,1,1.337,1.337A12.21,12.21,0,0,1-109.422,11.059Z" transform="translate(121.618 13.333)"/>
          </g>
          <g id="g7491" transform="translate(9.405 21.491)">
            <path id="path7493" d="M-78.03-76.693a1.333,1.333,0,0,1-.945-.392l-7.36-7.36a1.337,1.337,0,0,1,0-1.891,1.337,1.337,0,0,1,1.891,0l7.36,7.36a1.337,1.337,0,0,1,0,1.891A1.333,1.333,0,0,1-78.03-76.693Z" transform="translate(86.728 86.728)"/>
          </g>
          <g id="g7495" transform="translate(0 7.22)">
            <path id="path7497" d="M-36.565,31.059H-95.422a4.807,4.807,0,0,1-4.8-4.8V-8.532a4.807,4.807,0,0,1,4.8-4.8h5.249A1.337,1.337,0,0,1-88.836-12a1.337,1.337,0,0,1-1.337,1.337h-5.249A2.13,2.13,0,0,0-97.55-8.532V26.257a2.13,2.13,0,0,0,2.127,2.127h58.857a2.13,2.13,0,0,0,2.127-2.127V-8.532a2.13,2.13,0,0,0-2.127-2.127H-79.455A1.337,1.337,0,0,1-80.792-12a1.337,1.337,0,0,1,1.337-1.337h42.889a4.807,4.807,0,0,1,4.8,4.8V26.257A4.807,4.807,0,0,1-36.565,31.059Z" transform="translate(100.224 13.333)"/>
          </g>
          <g id="g7499" transform="translate(15.4 8.557)">
            <path id="path7501"/>
          </g>
          <g id="g7503" transform="translate(32.91 22.071)">
            <path id="path7505" d="M-88.619-10.659H-97.16A1.337,1.337,0,0,1-98.5-12a1.337,1.337,0,0,1,1.337-1.337h8.541A1.337,1.337,0,0,1-87.282-12,1.337,1.337,0,0,1-88.619-10.659Z" transform="translate(98.497 13.333)"/>
          </g>
          <g id="g7507" transform="translate(32.91 15.653)">
            <path id="path7509" d="M-149.8-10.659h-15.359A1.337,1.337,0,0,1-166.494-12a1.337,1.337,0,0,1,1.337-1.337H-149.8A1.337,1.337,0,0,1-148.461-12,1.337,1.337,0,0,1-149.8-10.659Z" transform="translate(166.494 13.333)"/>
          </g>
          <g id="g7511" transform="translate(54.955 16.99)">
            <path id="path7513"/>
          </g>
          <g id="g7515" transform="translate(32.91 22.238)">
            <path id="path7517" d="M15.531-167.418H-12a1.337,1.337,0,0,1-1.337-1.337A1.337,1.337,0,0,1-12-170.092h26.19v-16.135a1.337,1.337,0,0,1,1.337-1.337,1.337,1.337,0,0,1,1.337,1.337v17.473A1.337,1.337,0,0,1,15.531-167.418Z" transform="translate(13.333 187.565)"/>
          </g>
          <path id="path7519" d="M370.666-332.2h6.418v-6.56h-6.418Z" transform="translate(-333.494 373.251)" fill="#a0e557"/>
          <path id="path7521" d="M434.666-371.912h6.418V-382.9h-6.418Z" transform="translate(-391.076 412.959)" fill="#2e9de3"/>
          <path id="path7523" d="M498.665-403.792h6.418v-14.539h-6.418Z" transform="translate(-448.658 444.839)" fill="#ff5d5d"/>
          <path id="path7525" d="M365.088-342.862H358.67a1.337,1.337,0,0,1-1.337-1.337v-6.56a1.337,1.337,0,0,1,1.337-1.337h6.418a1.337,1.337,0,0,1,1.337,1.337v6.56A1.337,1.337,0,0,1,365.088-342.862Zm-5.081-2.674h3.744v-3.886h-3.744Z" transform="translate(-321.498 385.247)"/>
          <path id="path7527" d="M429.088-382.571h-6.418a1.337,1.337,0,0,1-1.337-1.337v-10.986a1.337,1.337,0,0,1,1.337-1.337h6.418a1.337,1.337,0,0,1,1.337,1.337v10.986A1.337,1.337,0,0,1,429.088-382.571Zm-5.081-2.674h3.744v-8.312h-3.744Z" transform="translate(-379.08 424.956)"/>
          <path id="path7529" d="M493.087-414.451h-6.418a1.337,1.337,0,0,1-1.337-1.337v-14.539a1.337,1.337,0,0,1,1.337-1.337h6.418a1.337,1.337,0,0,1,1.337,1.337v14.539A1.337,1.337,0,0,1,493.087-414.451Zm-5.081-2.674h3.744V-428.99h-3.744Z" transform="translate(-436.661 456.835)"/>
        </g>
      </g>
    </g>
  </g>
</svg>
