<svg xmlns="http://www.w3.org/2000/svg" width="124.001" height="124" viewBox="0 0 124.001 124">
  <g id="Grupo_1083636" data-name="Grupo 1083636" transform="translate(-737 -2058)">
    <g id="Grupo_159183" data-name="Grupo 159183" transform="translate(352.001)">
      <path id="Unión_12" data-name="Unión 12" d="M8464.769,11817.939a62.055,62.055,0,1,1,20.7-16.051l8.516,22.111Z" transform="translate(-7991 -9642)" fill="#a3bfe4"/>
      <circle id="Elipse_4842" data-name="Elipse 4842" cx="48" cy="48" r="48" transform="translate(399 2072)" fill="#fffbe5"/>
    </g>
    <g id="cohete" transform="translate(768.436 2089.853)">
      <g id="Grupo_1083765" data-name="Grupo 1083765" transform="translate(1.356 0.883)">
        <g id="Grupo_1083764" data-name="Grupo 1083764">
          <path id="Trazado_838405" data-name="Trazado 838405" d="M55.864,329.2l-11.932,4.393,3.613,8.362,9.165,2.966,3.52-11.354Z" transform="translate(-39.697 -291.314)" fill="#ffe07d"/>
          <path id="Trazado_838406" data-name="Trazado 838406" d="M105.136,329.2l-1.245.458-4.11,13.256,6.2,2.007,3.52-11.354Z" transform="translate(-88.97 -291.314)" fill="#ffd064"/>
          <g id="Grupo_1083762" data-name="Grupo 1083762" transform="translate(5.483)">
            <g id="Grupo_1083761" data-name="Grupo 1083761">
              <g id="Grupo_1083758" data-name="Grupo 1083758" transform="translate(0 16.408)">
                <g id="Grupo_1083757" data-name="Grupo 1083757">
                  <g id="Grupo_1083755" data-name="Grupo 1083755">
                    <path id="Trazado_838407" data-name="Trazado 838407" d="M63.473,159.732l5.971.017,8.39-12.889-10.6-.031a6.271,6.271,0,0,0-5.269,2.842L54.8,160.639a1.594,1.594,0,0,0,2.1,2.269l5.1-2.8A3.02,3.02,0,0,1,63.473,159.732Z" transform="translate(-54.535 -146.83)" fill="#e07f84"/>
                  </g>
                  <g id="Grupo_1083756" data-name="Grupo 1083756" transform="translate(20.241 13.227)">
                    <path id="Trazado_838408" data-name="Trazado 838408" d="M229.794,273.513l-.017-5.971,12.889-8.39.031,10.6a6.271,6.271,0,0,1-2.842,5.269l-10.967,7.163a1.594,1.594,0,0,1-2.269-2.1l2.8-5.1A3.02,3.02,0,0,0,229.794,273.513Z" transform="translate(-226.412 -259.152)" fill="#e07f84"/>
                  </g>
                </g>
              </g>
              <g id="Grupo_1083760" data-name="Grupo 1083760" transform="translate(7.829)">
                <path id="Trazado_838409" data-name="Trazado 838409" d="M128.913,52.126l-7.419-7.419a1.638,1.638,0,0,1-.194-2.083l12.639-18.478A36.152,36.152,0,0,1,156.453,9.068l7.707-1.536a1.638,1.638,0,0,1,1.926,1.926l-1.535,7.707a36.152,36.152,0,0,1-15.077,22.514L131,52.319A1.638,1.638,0,0,1,128.913,52.126Z" transform="translate(-121.014 -7.5)" fill="#eaf2ff"/>
                <path id="Trazado_838410" data-name="Trazado 838410" d="M131,286.386l3.879-2.653-10.922-10.922L121.3,276.69a1.638,1.638,0,0,0,.194,2.083l7.419,7.419A1.638,1.638,0,0,0,131,286.386Z" transform="translate(-121.014 -241.567)" fill="#e07f84"/>
                <path id="Trazado_838411" data-name="Trazado 838411" d="M382.286,17.676a21.45,21.45,0,0,0,7.12,4.715,34.038,34.038,0,0,0,1.489-5.226l1.536-7.707A1.638,1.638,0,0,0,390.5,7.532L382.8,9.067a34.042,34.042,0,0,0-5.226,1.489A21.449,21.449,0,0,0,382.286,17.676Z" transform="translate(-347.358 -7.499)" fill="#e07f84"/>
                <path id="Trazado_838412" data-name="Trazado 838412" d="M181.5,7.533l-4.567.91-.626,3.14A36.152,36.152,0,0,1,161.233,34.1L142.755,46.735a1.638,1.638,0,0,1-2.083-.194l5.584,5.584a1.638,1.638,0,0,0,2.083.194l18.478-12.639a36.152,36.152,0,0,0,15.077-22.514l1.536-7.707A1.638,1.638,0,0,0,181.5,7.533Z" transform="translate(-138.357 -7.5)" fill="#dbe8f9"/>
                <g id="Grupo_1083759" data-name="Grupo 1083759" transform="translate(2.315 0)">
                  <path id="Trazado_838413" data-name="Trazado 838413" d="M142.755,320.791a1.638,1.638,0,0,1-2.083-.194l5.584,5.584a1.638,1.638,0,0,0,2.083.194l3.879-2.653-5.584-5.584Z" transform="translate(-140.672 -281.556)" fill="#db636e"/>
                  <path id="Trazado_838414" data-name="Trazado 838414" d="M432.269,7.533l-4.567.91-.626,3.14a34.28,34.28,0,0,1-2.165,6.907,21.474,21.474,0,0,0,6.26,3.9,34.043,34.043,0,0,0,1.489-5.226L434.2,9.459A1.638,1.638,0,0,0,432.269,7.533Z" transform="translate(-391.438 -7.5)" fill="#db636e"/>
                </g>
              </g>
            </g>
            <path id="Trazado_838415" data-name="Trazado 838415" d="M288.857,107.346a.79.79,0,0,0-.791-.793h-.036a.34.34,0,0,1-.312-.252,7.256,7.256,0,0,0-.686-1.64.345.345,0,0,1,.048-.41l.01-.011h0a.8.8,0,0,0-.006-1.128l-1.287-1.278a.788.788,0,0,0-1.121.01l-.011.011a.345.345,0,0,1-.409.051,7.264,7.264,0,0,0-1.645-.675.34.34,0,0,1-.254-.31c0-.012,0-.024,0-.036a.791.791,0,0,0-.8-.785l-1.808.006a.8.8,0,0,0-.794.791s0,.01,0,.014a.351.351,0,0,1-.257.335,7.265,7.265,0,0,0-1.635.685.349.349,0,0,1-.419-.056l0,0h0a.8.8,0,0,0-1.128.006l-1.272,1.281a.8.8,0,0,0,0,1.126h0l.01.011a.345.345,0,0,1,.051.41,7.254,7.254,0,0,0-.674,1.643.347.347,0,0,1-.329.256h-.018a.794.794,0,0,0-.785.8l.006,1.808a.79.79,0,0,0,.791.793h.036a.34.34,0,0,1,.312.252,7.256,7.256,0,0,0,.686,1.64.345.345,0,0,1-.048.41l-.01.011h0a.793.793,0,0,0,0,1.124l1.279,1.27a.8.8,0,0,0,1.132,0h0l.01-.01a.346.346,0,0,1,.41-.051,7.26,7.26,0,0,0,1.644.674.34.34,0,0,1,.254.311c0,.012,0,.024,0,.035a.791.791,0,0,0,.8.785l1.808-.006a.794.794,0,0,0,.793-.791.8.8,0,0,1,.053-.3,7.263,7.263,0,0,0,1.84-.739.345.345,0,0,1,.41.048l.011.011h0a.8.8,0,0,0,1.126,0l1.276-1.285a.794.794,0,0,0-.006-1.124h0l-.011-.011a.345.345,0,0,1-.051-.409,7.261,7.261,0,0,0,.726-1.845.794.794,0,0,1,.295-.055.8.8,0,0,0,.785-.8Zm-5.627,3.479a3.6,3.6,0,1,1,0-5.093,3.6,3.6,0,0,1,0,5.093Z" transform="translate(-246.834 -89.193)" fill="#c9e0fd"/>
          </g>
          <g id="Grupo_1083763" data-name="Grupo 1083763" transform="translate(0 36.491)">
            <path id="Trazado_838416" data-name="Trazado 838416" d="M28.177,335.723l-.039,0a1.686,1.686,0,0,1-1.334-.768,8.48,8.48,0,0,0-6.236-3.857,6.215,6.215,0,0,0-4.463-4.465,8.437,8.437,0,0,0-3.69-6.119,1.745,1.745,0,0,1-.755-1.381c0-.017,0-.034,0-.051a1.844,1.844,0,0,0-3.676-.017H7.973V336.69a2.712,2.712,0,0,0,2.712,2.713l17.329,0a1.844,1.844,0,0,0,.163-3.682Z" transform="translate(-7.973 -317.368)" fill="#ffd064"/>
          </g>
        </g>
        <path id="Trazado_838417" data-name="Trazado 838417" d="M332.772,150.727l-.006-1.808a.79.79,0,0,0-.791-.793h-.036a.34.34,0,0,1-.312-.252c-.062-.222-.138-.439-.22-.653a36.827,36.827,0,0,1-9.134,9.56c.128.043.258.084.39.12a.34.34,0,0,1,.254.311c0,.012,0,.024,0,.035a.791.791,0,0,0,.8.785l1.808-.006a.794.794,0,0,0,.793-.791.8.8,0,0,1,.053-.3,7.264,7.264,0,0,0,1.84-.739.345.345,0,0,1,.41.048l.011.011h0a.8.8,0,0,0,1.126,0l1.276-1.285a.794.794,0,0,0-.006-1.124h0l-.011-.011a.345.345,0,0,1-.051-.409,7.26,7.26,0,0,0,.726-1.845.794.794,0,0,1,.295-.055A.794.794,0,0,0,332.772,150.727Z" transform="translate(-285.26 -130.767)" fill="#bcd6f9"/>
      </g>
      <g id="Grupo_1083767" data-name="Grupo 1083767" transform="translate(0.473 0)">
        <g id="Grupo_1083766" data-name="Grupo 1083766" transform="translate(0 0)">
          <path id="Trazado_838418" data-name="Trazado 838418" d="M57.642.05C51.2,1.422,48.72,1.571,44.591,3.108l-.042.015-.013.006a37.455,37.455,0,0,0-17.251,13.3l-7.741-.022h-.021a7.128,7.128,0,0,0-5.989,3.242L6.37,30.617a2.478,2.478,0,0,0,3.267,3.526l5.1-2.8c.747-.41,1.308-.212,2.514-.26l-3.028,4.427a2.522,2.522,0,0,0,.3,3.206l.158.158L8.046,41.315A9.1,9.1,0,0,0,6.29,39.783a.866.866,0,0,1-.364-.686c0-.026,0-.052,0-.076a2.73,2.73,0,0,0-5.448.046V56.7a3.6,3.6,0,0,0,3.6,3.6l17.329,0a2.728,2.728,0,0,0,.232-5.446.836.836,0,0,1-.7-.366A9.385,9.385,0,0,0,19.754,53L21.9,46.089l.045.045a2.522,2.522,0,0,0,3.206.3l3.866-2.644h0l.559-.382c-.047,1.2.149,1.77-.26,2.514l-2.8,5.1a2.478,2.478,0,0,0,3.526,3.267l10.967-7.163a7.129,7.129,0,0,0,3.242-6.011l-.022-7.741a37.52,37.52,0,0,0,9.016-9.1.883.883,0,0,0-1.448-1.011,35.833,35.833,0,0,1-9.165,9.077L29.959,41l0,0-1.32.9-5.89-5.89A.883.883,0,0,0,21.5,37.265l5.656,5.656-3,2.053a.755.755,0,0,1-.96-.089l-7.419-7.419a.755.755,0,0,1-.089-.96l2.053-3,.827.827a.883.883,0,0,0,1.249-1.249l-1.061-1.061.9-1.321,0,0c4.276-6.25,8.382-12.259,8.818-12.886h0A35.725,35.725,0,0,1,44.407,5.072a22.279,22.279,0,0,0,11.18,11.179,34.546,34.546,0,0,1-1.676,3.574.883.883,0,1,0,1.554.84c3.721-6.887,3.774-11.882,5.141-17.649A2.522,2.522,0,0,0,57.642.05Zm-17.6,45.6L29.073,52.808a.711.711,0,0,1-1.012-.938l2.8-5.1c.747-1.36.39-2.418.474-4.57l11.125-7.609.019,6.53a5.369,5.369,0,0,1-2.442,4.526ZM21.466,56.609a.982.982,0,0,1,.892.915.96.96,0,0,1-.96,1l-17.329,0A1.832,1.832,0,0,1,2.239,56.7c0-4.561,0-17.467,0-17.557a.955.955,0,0,1,1.013-.881.974.974,0,0,1,.9.891,2.782,2.782,0,0,0,1.147,2.1,7.547,7.547,0,0,1,1.756,1.637l.024.031A7.491,7.491,0,0,1,8.61,46.731a.884.884,0,0,0,.659.762A5.314,5.314,0,0,1,13.1,51.321a.883.883,0,0,0,.762.659,7.494,7.494,0,0,1,4.317,1.948l.007.006q.119.11.234.225a7.621,7.621,0,0,1,1.028,1.276,2.581,2.581,0,0,0,2.023,1.173Zm-3.18-4.835a9.39,9.39,0,0,0-3.653-1.469,7.081,7.081,0,0,0-4.347-4.35A9.38,9.38,0,0,0,9.127,42.8l6.931-2.552,4.429,4.428Zm-4.4-21.981-5.1,2.8a.711.711,0,0,1-.938-1.012l7.163-10.967a5.368,5.368,0,0,1,4.51-2.441h.016l6.53.019L18.459,29.319C16.312,29.4,15.248,29.046,13.889,29.793ZM58.874,2.67c-1.419,6.8-1.548,8.63-2.671,11.921A20.525,20.525,0,0,1,46.067,4.456C49.394,3.319,51.2,3.2,57.987,1.782a.754.754,0,0,1,.888.887Z" transform="translate(-0.473 0)"/>
          <path id="Trazado_838419" data-name="Trazado 838419" d="M305.187,132.788a4.485,4.485,0,1,0,6.342,0A4.482,4.482,0,0,0,305.187,132.788Zm5.093,5.093a2.718,2.718,0,1,1,0-3.844A2.721,2.721,0,0,1,310.281,137.881Z" transform="translate(-268.143 -115.99)"/>
          <path id="Trazado_838420" data-name="Trazado 838420" d="M283.128,102.536l-.006-1.808a1.684,1.684,0,0,0-1.278-1.629,8.178,8.178,0,0,0-.493-1.178,1.686,1.686,0,0,0-.262-2.051L279.8,94.592a1.675,1.675,0,0,0-2.05-.242,8.148,8.148,0,0,0-1.178-.483,1.683,1.683,0,0,0-1.632-1.266h-.006l-1.808.006a1.688,1.688,0,0,0-1.628,1.278,8.184,8.184,0,0,0-1.179.494,1.686,1.686,0,0,0-2.051.262L267,95.921a1.68,1.68,0,0,0-.246,2.052,8.155,8.155,0,0,0-.485,1.181A1.688,1.688,0,0,0,265,100.791l.006,1.808a1.684,1.684,0,0,0,1.278,1.629,8.146,8.146,0,0,0,.492,1.176,1.677,1.677,0,0,0,.259,2.049l1.279,1.27a1.694,1.694,0,0,0,2.054.25,8.171,8.171,0,0,0,1.185.487,1.683,1.683,0,0,0,1.631,1.266h.006l1.808-.006a1.688,1.688,0,0,0,1.628-1.278,8.137,8.137,0,0,0,1.178-.493,1.682,1.682,0,0,0,2.05-.26l1.276-1.285a1.678,1.678,0,0,0,.245-2.051,8.15,8.15,0,0,0,.485-1.181A1.688,1.688,0,0,0,283.128,102.536Zm-2.285.034a.883.883,0,0,0-.555.708,2.837,2.837,0,0,1-.523,1.379,1.238,1.238,0,0,0-.1,1.349.35.35,0,0,1-.051.42l-.748.754a.35.35,0,0,1-.419.055,1.237,1.237,0,0,0-1.28.059,4.409,4.409,0,0,1-1.518.6.883.883,0,0,0-.63.546c-.075.2-.081.519-.409.52l-1.049,0a.347.347,0,0,1-.334-.256,1.23,1.23,0,0,0-1.073-.883,1.792,1.792,0,0,1-1.02-.4,1.236,1.236,0,0,0-1.418-.148.345.345,0,0,1-.413-.054l-.755-.75a.347.347,0,0,1-.056-.415,1.239,1.239,0,0,0-.02-1.226,5.5,5.5,0,0,1-.587-1.405,1.222,1.222,0,0,0-.854-.868.347.347,0,0,1-.258-.332l0-1.062a.346.346,0,0,1,.253-.333,1.239,1.239,0,0,0,.846-.854,6.488,6.488,0,0,1,.593-1.447,1.24,1.24,0,0,0,0-1.206.347.347,0,0,1,.053-.415l.75-.755a.347.347,0,0,1,.414-.056,1.236,1.236,0,0,0,1.205-.008,6.7,6.7,0,0,1,1.448-.6,1.242,1.242,0,0,0,.843-.851.346.346,0,0,1,.331-.255l1.063,0a.347.347,0,0,1,.334.257,1.221,1.221,0,0,0,.858.843,6.389,6.389,0,0,1,1.445.592,1.239,1.239,0,0,0,1.205,0,.347.347,0,0,1,.416.053l.755.75a.347.347,0,0,1,.056.415,1.239,1.239,0,0,0,.02,1.224,5.556,5.556,0,0,1,.588,1.408,1.221,1.221,0,0,0,.854.867.347.347,0,0,1,.258.332l0,1.05C281.361,102.486,281.036,102.495,280.843,102.57Z" transform="translate(-233.849 -81.695)"/>
        </g>
      </g>
    </g>
  </g>
</svg>
