<svg id="Grupo_1083548" data-name="Grupo 1083548" xmlns="http://www.w3.org/2000/svg" xmlns:xlink="http://www.w3.org/1999/xlink" width="295" height="195.751" viewBox="0 0 295 195.751">
  <defs>
    <clipPath id="clip-path">
      <rect id="Rectángulo_385208" data-name="Rectángulo 385208" width="295" height="195.751" fill="none"/>
    </clipPath>
    <clipPath id="clip-path-2">
      <path id="Trazado_838135" data-name="Trazado 838135" d="M139.541,25.774a2.363,2.363,0,0,0,4.019-.052,2.386,2.386,0,0,0-1.847-1.156,3.064,3.064,0,0,0-2.171,1.208" transform="translate(-139.541 -24.566)" fill="none"/>
    </clipPath>
    <clipPath id="clip-path-4">
      <path id="Trazado_838139" data-name="Trazado 838139" d="M154.559,25.426c1.338,2.332,2.887.134,2.887.134-.31-.853-.75-1.132-1.195-1.132-.84,0-1.692,1-1.692,1" transform="translate(-154.559 -24.428)" fill="none"/>
    </clipPath>
  </defs>
  <rect id="Rectángulo_385190" data-name="Rectángulo 385190" width="174.851" height="112.792" transform="translate(92.148 34.638)" fill="#fff"/>
  <g id="Grupo_1083539" data-name="Grupo 1083539">
    <g id="Grupo_1083538" data-name="Grupo 1083538" clip-path="url(#clip-path)">
      <path id="Trazado_838090" data-name="Trazado 838090" d="M191.7,22.743v19.74H366.553V22.743a6.978,6.978,0,0,0-6.848-7.1H198.55a6.978,6.978,0,0,0-6.848,7.1" transform="translate(-99.554 -7.845)" fill="#a3bfe4"/>
      <path id="Trazado_838091" data-name="Trazado 838091" d="M246.353,40.465a4.055,4.055,0,1,1-4.052-4.2,4.129,4.129,0,0,1,4.052,4.2" transform="translate(-123.726 -18.188)" fill="#420909"/>
      <path id="Trazado_838092" data-name="Trazado 838092" d="M244.17,26.63h0a2.367,2.367,0,0,1-2.323-2.409V7.942a2.324,2.324,0,1,1,4.645,0v16.28a2.366,2.366,0,0,1-2.322,2.409" transform="translate(-125.595 -2.775)" fill="#fff"/>
      <path id="Trazado_838093" data-name="Trazado 838093" d="M297.76,40.465a4.055,4.055,0,1,1-4.052-4.2,4.129,4.129,0,0,1,4.052,4.2" transform="translate(-150.423 -18.188)" fill="#420909"/>
      <path id="Trazado_838094" data-name="Trazado 838094" d="M295.577,26.63h0a2.367,2.367,0,0,1-2.323-2.409V7.942a2.324,2.324,0,1,1,4.645,0v16.28a2.366,2.366,0,0,1-2.322,2.409" transform="translate(-152.291 -2.775)" fill="#fff"/>
      <path id="Trazado_838095" data-name="Trazado 838095" d="M349.166,40.465a4.055,4.055,0,1,1-4.052-4.2,4.129,4.129,0,0,1,4.052,4.2" transform="translate(-177.118 -18.188)" fill="#420909"/>
      <path id="Trazado_838096" data-name="Trazado 838096" d="M346.983,26.63h0a2.366,2.366,0,0,1-2.322-2.409V7.942a2.324,2.324,0,1,1,4.645,0v16.28a2.367,2.367,0,0,1-2.323,2.409" transform="translate(-178.987 -2.775)" fill="#fff"/>
      <path id="Trazado_838097" data-name="Trazado 838097" d="M400.573,40.465a4.055,4.055,0,1,1-4.052-4.2,4.129,4.129,0,0,1,4.052,4.2" transform="translate(-203.815 -18.188)" fill="#420909"/>
      <path id="Trazado_838098" data-name="Trazado 838098" d="M398.39,26.63h0a2.367,2.367,0,0,1-2.323-2.409V7.942a2.324,2.324,0,1,1,4.645,0v16.28a2.367,2.367,0,0,1-2.323,2.409" transform="translate(-205.683 -2.775)" fill="#fff"/>
      <path id="Trazado_838099" data-name="Trazado 838099" d="M451.979,40.465a4.055,4.055,0,1,1-4.052-4.2,4.129,4.129,0,0,1,4.052,4.2" transform="translate(-230.511 -18.188)" fill="#420909"/>
      <path id="Trazado_838100" data-name="Trazado 838100" d="M449.8,26.63h0a2.367,2.367,0,0,1-2.323-2.409V7.942a2.324,2.324,0,1,1,4.645,0v16.28A2.367,2.367,0,0,1,449.8,26.63" transform="translate(-232.379 -2.775)" fill="#fff"/>
      <path id="Trazado_838101" data-name="Trazado 838101" d="M503.386,40.465a4.055,4.055,0,1,1-4.052-4.2,4.129,4.129,0,0,1,4.052,4.2" transform="translate(-257.207 -18.188)" fill="#420909"/>
      <path id="Trazado_838102" data-name="Trazado 838102" d="M501.2,26.63h0a2.367,2.367,0,0,1-2.323-2.409V7.942a2.324,2.324,0,1,1,4.645,0v16.28A2.366,2.366,0,0,1,501.2,26.63" transform="translate(-259.076 -2.775)" fill="#fff"/>
      <rect id="Rectángulo_385191" data-name="Rectángulo 385191" width="22.937" height="23.785" transform="translate(141.085 49.188)" fill="#bcb0f8"/>
      <rect id="Rectángulo_385192" data-name="Rectángulo 385192" width="22.937" height="23.785" transform="translate(171.602 49.188)" fill="#fff198"/>
      <rect id="Rectángulo_385193" data-name="Rectángulo 385193" width="22.937" height="23.785" transform="translate(202.119 49.188)" fill="#bcb0f8"/>
      <rect id="Rectángulo_385194" data-name="Rectángulo 385194" width="22.937" height="23.785" transform="translate(232.636 49.188)" fill="#bcb0f8"/>
      <rect id="Rectángulo_385195" data-name="Rectángulo 385195" width="22.937" height="23.785" transform="translate(110.568 49.188)" fill="#bcb0f8"/>
      <rect id="Rectángulo_385196" data-name="Rectángulo 385196" width="22.937" height="23.785" transform="translate(141.085 79.38)" fill="#bcb0f8"/>
      <rect id="Rectángulo_385197" data-name="Rectángulo 385197" width="22.937" height="23.785" transform="translate(171.602 79.38)" fill="#bcb0f8"/>
      <rect id="Rectángulo_385198" data-name="Rectángulo 385198" width="22.937" height="23.785" transform="translate(202.119 79.38)" fill="#fff198"/>
      <rect id="Rectángulo_385199" data-name="Rectángulo 385199" width="22.937" height="23.785" transform="translate(232.636 79.38)" fill="#bcb0f8"/>
      <rect id="Rectángulo_385200" data-name="Rectángulo 385200" width="22.937" height="23.785" transform="translate(110.568 79.38)" fill="#bcb0f8"/>
      <rect id="Rectángulo_385201" data-name="Rectángulo 385201" width="22.937" height="23.785" transform="translate(141.085 109.572)" fill="#fff198"/>
      <rect id="Rectángulo_385202" data-name="Rectángulo 385202" width="22.937" height="23.785" transform="translate(171.602 109.572)" fill="#bcb0f8"/>
      <rect id="Rectángulo_385203" data-name="Rectángulo 385203" width="22.937" height="23.785" transform="translate(202.119 109.572)" fill="#bcb0f8"/>
      <rect id="Rectángulo_385204" data-name="Rectángulo 385204" width="22.937" height="23.785" transform="translate(232.636 109.572)" fill="#bcb0f8"/>
      <rect id="Rectángulo_385205" data-name="Rectángulo 385205" width="22.937" height="23.785" transform="translate(110.568 109.572)" fill="#bcb0f8"/>
      <path id="Trazado_838103" data-name="Trazado 838103" d="M141.368,349.214l-.556-14.92,9.5.434.174,14.623Z" transform="translate(-73.126 -167.664)" fill="#c68c71"/>
      <path id="Trazado_838104" data-name="Trazado 838104" d="M148.4,364.364l16.038,8.491a2.985,2.985,0,0,1,1.494,3.308l-29.131-.475,2.481-11.46Z" transform="translate(-71.045 -182.677)"/>
      <path id="Trazado_838105" data-name="Trazado 838105" d="M136.73,387.219l-.07,2.3,26.629.147a2.694,2.694,0,0,0,2.573-1.974Z" transform="translate(-70.97 -194.209)" fill="#fff"/>
      <line id="Línea_943" data-name="Línea 943" x1="2.321" y2="1.108" transform="translate(79.895 184.101)" fill="none" stroke="#fff" stroke-linecap="round" stroke-linejoin="round" stroke-width="1.481"/>
      <line id="Línea_944" data-name="Línea 944" x1="2.397" y2="1.177" transform="translate(82.2 185.209)" fill="none" stroke="#fff" stroke-linecap="round" stroke-linejoin="round" stroke-width="1.481"/>
      <line id="Línea_945" data-name="Línea 945" x1="2.301" y2="1.09" transform="translate(84.537 186.704)" fill="none" stroke="#fff" stroke-linecap="round" stroke-linejoin="round" stroke-width="1.481"/>
      <path id="Trazado_838106" data-name="Trazado 838106" d="M139.648,145.913l3.105,104.694H128.229l-5.846-103.764Z" transform="translate(-63.555 -73.182)" fill="#050907"/>
      <path id="Trazado_838107" data-name="Trazado 838107" d="M62.264,350.715l2.878-13.428,9.023.434-3.26,13.131Z" transform="translate(-32.335 -169.166)" fill="#c68c71"/>
      <path id="Trazado_838108" data-name="Trazado 838108" d="M50.684,364.227l-9.21,7.312a6,6,0,0,0-1.508,4.149H60.075l-.748-11.324Z" transform="translate(-20.755 -182.677)"/>
      <rect id="Rectángulo_385206" data-name="Rectángulo 385206" width="20.109" height="2.326" transform="translate(19.211 193.01)" fill="#fff"/>
      <line id="Línea_946" data-name="Línea 946" x1="2.98" y1="0.704" transform="translate(26.541 183.915)" fill="none" stroke="#fff" stroke-linecap="round" stroke-linejoin="round" stroke-width="1.481"/>
      <line id="Línea_947" data-name="Línea 947" x1="3.573" y1="0.771" transform="translate(24.462 185.505)" fill="none" stroke="#fff" stroke-linecap="round" stroke-linejoin="round" stroke-width="1.481"/>
      <line id="Línea_948" data-name="Línea 948" x1="2.905" y1="0.647" transform="translate(22.706 187.115)" fill="none" stroke="#fff" stroke-linecap="round" stroke-linejoin="round" stroke-width="1.481"/>
      <path id="Trazado_838109" data-name="Trazado 838109" d="M77.137,147.776,57.6,250.3l14.75.49L98.1,146.921Z" transform="translate(-29.913 -73.688)" fill="#050907"/>
      <path id="Trazado_838110" data-name="Trazado 838110" d="M125.562,199.683l1.788-7.5,5.923-3.789" transform="translate(-65.206 -94.488)" fill="none" stroke="#f1e6d0" stroke-linecap="round" stroke-linejoin="round" stroke-width="0.393"/>
      <path id="Trazado_838111" data-name="Trazado 838111" d="M152.177,95.313l8.108,18.392a4.883,4.883,0,0,0,6.894,2.226,5.247,5.247,0,0,0,2.053-6.7l-8.519-19.886Z" transform="translate(-79.028 -44.812)" fill="#c68c71"/>
      <path id="Trazado_838112" data-name="Trazado 838112" d="M145.767,92.364s3.662,1.091,13.028-7.738L152.631,71.1a6.738,6.738,0,0,0-9.669-3.085,7.233,7.233,0,0,0-2.931,8.639Z" transform="translate(-72.488 -33.621)" fill="#33ece0"/>
      <path id="Trazado_838113" data-name="Trazado 838113" d="M171.95,118.167l24.821-6.022,1.217,5.591-23.05,9.913a4.8,4.8,0,0,1-6.54-3.526,5.012,5.012,0,0,1,3.552-5.956" transform="translate(-87.389 -56.246)" fill="#c68c71"/>
      <path id="Trazado_838114" data-name="Trazado 838114" d="M222.031,106.051l.912,5.31s13.643,5.863,14.994-7.956L233.154,98.8Z" transform="translate(-115.304 -49.551)" fill="#c68c71"/>
      <path id="Trazado_838145" data-name="Trazado 838145" d="M0,0,20.28-.317l-.317,20.666-20.28.317Z" transform="translate(109.647 48.119) rotate(-29.359)" fill="#fff198"/>
      <path id="Trazado_838115" data-name="Trazado 838115" d="M231.037,104.33l4.036-3.118a1.038,1.038,0,0,1,1.625.523,1.12,1.12,0,0,1-.235,1.106l-1.4,2.151s-.524,4.616-2.294,5.908Z" transform="translate(-119.981 -50.654)" fill="#c68c71"/>
      <path id="Trazado_838116" data-name="Trazado 838116" d="M113.107,62.526a46.493,46.493,0,0,0-14.365,4.819c-1.388.707-1.48,2.271-1.42,3.873L94.7,118.259c22.465,5.741,31.759-3.489,31.759-3.489l.926-46.393a3.188,3.188,0,0,0-2.1-3.229c-3.046-1.045-8.526-2.716-12.182-2.621" transform="translate(-49.181 -31.358)" fill="#33ece0"/>
      <path id="Trazado_838117" data-name="Trazado 838117" d="M122.516,63.211l2.92-.737,4.926-.8,2.812,1.147,1.637.409s2.448,4.059-2.928,4.584c-6.449.629-8.967-2.7-9.367-4.6" transform="translate(-63.624 -30.931)" fill="#c68c71"/>
      <line id="Línea_949" data-name="Línea 949" y1="10.382" x2="0.172" transform="translate(77.815 47.088)" fill="none" stroke="#000" stroke-linecap="round" stroke-linejoin="round" stroke-width="0.44"/>
      <path id="Trazado_838118" data-name="Trazado 838118" d="M59.755,114.408l13.818,18.823-4.414,3.451L52.65,121.133a5.121,5.121,0,0,1,.408-7.631,4.708,4.708,0,0,1,6.7.906" transform="translate(-26.557 -56.422)" fill="#c68c71"/>
      <path id="Trazado_838119" data-name="Trazado 838119" d="M84.616,171.434a5.012,5.012,0,0,1-1.791-2.364.917.917,0,0,0-1.206-.535.95.95,0,0,0-.566,1.074,6.109,6.109,0,0,0,1.834,3.186Z" transform="translate(-42.082 -84.495)" fill="#b97b61"/>
      <path id="Trazado_838120" data-name="Trazado 838120" d="M83.227,172.713a19.513,19.513,0,0,1-5.464-2.581.81.81,0,0,0-1.1.157.847.847,0,0,0,.063,1.091,9.942,9.942,0,0,0,4.612,2.647Z" transform="translate(-39.723 -85.256)" fill="#b97b61"/>
      <path id="Trazado_838121" data-name="Trazado 838121" d="M85.134,150.435s5.172,4.019,3.017,8.811-4.514,6.706-6.083,6.151c-1.085-.384-3.288-1.091-4.542-1.49a1.053,1.053,0,0,1-.679-1.272,1.015,1.015,0,0,1,1.093-.774l4.292.69s-1.267-5.1-.38-8.171Z" transform="translate(-39.89 -75.45)" fill="#c68c71"/>
      <path id="Trazado_838122" data-name="Trazado 838122" d="M68.07,89.163,52.825,101.775a5.28,5.28,0,0,0-.413,7.475,4.84,4.84,0,0,0,6.764.443L75.719,96.307Z" transform="translate(-26.515 -44.72)" fill="#c68c71"/>
      <path id="Trazado_838123" data-name="Trazado 838123" d="M73.759,81.4s-.15,3.948,10.351,11.279l11.2-9.429a7.281,7.281,0,0,0,.587-10.473,6.671,6.671,0,0,0-8.79-.9Z" transform="translate(-38.304 -35.426)" fill="#33ece0"/>
      <line id="Línea_950" data-name="Línea 950" y1="5.672" x2="6.628" transform="translate(47.372 50.264)" fill="none" stroke="#000" stroke-linecap="round" stroke-linejoin="round" stroke-width="0.44"/>
      <path id="Trazado_838124" data-name="Trazado 838124" d="M137.546,11.133c-.2,5.607-7.285,9.34-12.875,10.261-.4-.125-7.027-3.983-7.824-10.152C115.857,3.572,122.3-.606,129.266.071c5.343.519,8.543,3.767,8.28,11.062" transform="translate(-60.628 0)" fill="#050907"/>
      <path id="Trazado_838125" data-name="Trazado 838125" d="M129.568,34.751,128.4,50.2l8.265.984-.6-15.455Z" transform="translate(-66.678 -17.429)" fill="#c68c71"/>
      <path id="Trazado_838126" data-name="Trazado 838126" d="M138.561,48.84c-5.7-1.357-6.083-7.368-6.083-7.368l5.861.522Z" transform="translate(-68.798 -20.8)" fill="#b36f56"/>
      <path id="Trazado_838127" data-name="Trazado 838127" d="M152.926,30.284a8.175,8.175,0,0,1,1.026-2.836c.72-1.207,1.669-2.116,3.168-1.515,2.491,1-.352,5.377-2.906,5.521a1.14,1.14,0,0,1-1.288-1.169" transform="translate(-79.411 -12.911)" fill="#b36f56"/>
      <path id="Trazado_838128" data-name="Trazado 838128" d="M131.348,2.7c1.775-.363,4.118.463,5.857.98,2.355.7,4.7,2.221,5.381,7.521.974,7.54-.67,12.686-4.389,14.126-2.855,1.106-4.831.449-7.878-1.712a7.74,7.74,0,0,1-2.352-4.447l-1.083-4.145S122.867,4.438,131.348,2.7" transform="translate(-65.399 -1.311)" fill="#c68c71"/>
      <path id="Trazado_838129" data-name="Trazado 838129" d="M125.944,13.536s-2.929-9.966,1.785-9.34c6.012.8,8.988,1.117,8.578-1.713,0,0-7.231-4.986-12.731.943s1.138,11.269,1.138,11.269Z" transform="translate(-63.043 -0.261)" fill="#050907"/>
      <path id="Trazado_838130" data-name="Trazado 838130" d="M125.154,31.592a8.622,8.622,0,0,0-.978-3.021,2.667,2.667,0,0,0-3.651-1.348c-2.552,1.38.084,5.962,3.234,5.549.785-.1,1.485-.518,1.4-1.18" transform="translate(-62.057 -13.495)" fill="#c68c71"/>
      <path id="Trazado_838131" data-name="Trazado 838131" d="M122.809,31.563A2.088,2.088,0,0,1,125.367,33" transform="translate(-63.777 -15.785)" fill="none" stroke="#000" stroke-linecap="round" stroke-linejoin="round" stroke-width="0.44"/>
      <path id="Trazado_838132" data-name="Trazado 838132" d="M152.418,26.5l1.576,2.412-.813.735" transform="translate(-79.153 -13.293)" fill="none" stroke="#000" stroke-linecap="round" stroke-linejoin="round" stroke-width="0.44"/>
      <path id="Trazado_838133" data-name="Trazado 838133" d="M143.559,25.722s-1.53-2.635-4.018.052a2.362,2.362,0,0,0,4.018-.052" transform="translate(-72.466 -12.321)" fill="#fff"/>
    </g>
  </g>
  <g id="Grupo_1083541" data-name="Grupo 1083541" transform="translate(67.075 12.245)">
    <g id="Grupo_1083540" data-name="Grupo 1083540" clip-path="url(#clip-path-2)">
      <path id="Trazado_838134" data-name="Trazado 838134" d="M143.93,25.238a1.265,1.265,0,0,1-.786,1.577,1.206,1.206,0,0,1-1.5-.863,1.265,1.265,0,0,1,.786-1.577,1.2,1.2,0,0,1,1.5.863" transform="translate(-140.607 -24.444)"/>
    </g>
  </g>
  <g id="Grupo_1083543" data-name="Grupo 1083543">
    <g id="Grupo_1083542" data-name="Grupo 1083542" clip-path="url(#clip-path)">
      <path id="Trazado_838136" data-name="Trazado 838136" d="M139.4,25.636a2.867,2.867,0,0,1,.822-.814,2.586,2.586,0,0,1,1.083-.4h-.009a3.14,3.14,0,0,1,.653-.033,2.286,2.286,0,0,1,.652.138,1.967,1.967,0,0,1,.58.359,1.728,1.728,0,0,1,.426.567.166.166,0,0,1-.074.218.155.155,0,0,1-.21-.076l0-.005-.006-.014a1.46,1.46,0,0,0-.33-.464,1.7,1.7,0,0,0-.484-.324,2.053,2.053,0,0,0-.573-.143,2.935,2.935,0,0,0-.6.008h-.009a2.4,2.4,0,0,0-1,.338,2.682,2.682,0,0,0-.795.738.075.075,0,0,1-.107.018.082.082,0,0,1-.018-.11" transform="translate(-72.384 -12.229)"/>
      <path id="Trazado_838137" data-name="Trazado 838137" d="M154.559,25.427s1.991-2.332,2.887.134c0,0-1.548,2.2-2.887-.134" transform="translate(-80.265 -12.252)" fill="#fff"/>
    </g>
  </g>
  <g id="Grupo_1083545" data-name="Grupo 1083545" transform="translate(74.294 12.176)">
    <g id="Grupo_1083544" data-name="Grupo 1083544" clip-path="url(#clip-path-4)">
      <path id="Trazado_838138" data-name="Trazado 838138" d="M155.965,25.022a1.055,1.055,0,0,0,.323,1.4.987.987,0,0,0,1.241-.648,1.054,1.054,0,0,0-.324-1.4.986.986,0,0,0-1.241.647" transform="translate(-155.225 -24.367)"/>
    </g>
  </g>
  <g id="Grupo_1083547" data-name="Grupo 1083547">
    <g id="Grupo_1083546" data-name="Grupo 1083546" clip-path="url(#clip-path)">
      <path id="Trazado_838140" data-name="Trazado 838140" d="M157.335,25.521a1.6,1.6,0,0,0-.338-.668,1.109,1.109,0,0,0-.285-.221.857.857,0,0,0-.328-.1h-.008a1.608,1.608,0,0,0-.936.187,2.232,2.232,0,0,0-.734.64l-.006.008a.128.128,0,0,1-.184.026.139.139,0,0,1-.025-.19l0,0a2.459,2.459,0,0,1,.848-.689,1.809,1.809,0,0,1,1.058-.169h-.008a1.149,1.149,0,0,1,.72.407,1.748,1.748,0,0,1,.346.746.066.066,0,0,1-.048.079.064.064,0,0,1-.075-.047" transform="translate(-80.216 -12.197)"/>
      <path id="Trazado_838141" data-name="Trazado 838141" d="M129.53,26.631a17.344,17.344,0,0,0,1.706,3.178c.672.795,2.583.833,3.9,3.608a.413.413,0,0,0,.738.044c.949-1.854,2.772-3.652,7.943-2.688,0,0,2.5,6.783-4.246,7.6-7.391.893-9.285-2.992-9.589-5.953a9.2,9.2,0,0,0-1.68-4.628Z" transform="translate(-66.628 -13.357)" fill="#050907"/>
      <path id="Trazado_838142" data-name="Trazado 838142" d="M136.694,17.861a14.3,14.3,0,0,1,4.78-.661.343.343,0,0,0,.343-.5,2.274,2.274,0,0,0-2.372-1.07A4.108,4.108,0,0,0,136.4,17.5a.246.246,0,0,0,.294.357" transform="translate(-70.813 -7.834)" fill="#050907"/>
      <path id="Trazado_838143" data-name="Trazado 838143" d="M157.074,17.152a6.857,6.857,0,0,0-2.892-.162c-.19.014-.35-.24-.287-.459a1.608,1.608,0,0,1,1.67-1.169,1.726,1.726,0,0,1,1.67,1.466c.04.2,0,.388-.161.324" transform="translate(-79.913 -7.701)" fill="#050907"/>
      <path id="Trazado_838144" data-name="Trazado 838144" d="M150.031,37.237a3.2,3.2,0,0,0,3.036-.242" transform="translate(-77.913 -18.555)" fill="none" stroke="#fff" stroke-linecap="round" stroke-linejoin="round" stroke-width="0.44"/>
      <line id="Línea_951" data-name="Línea 951" x2="294.667" transform="translate(0.166 195.578)" fill="none" stroke="#000" stroke-linecap="round" stroke-linejoin="round" stroke-width="0.692"/>
    </g>
  </g>
</svg>
