<svg xmlns="http://www.w3.org/2000/svg" width="400" height="234.361" viewBox="0 0 400 234.361">
  <g id="img1" transform="translate(0 -8.987)">
    <path id="Trazado_608780" data-name="Trazado 608780" d="M1122.725,668.551a34.205,34.205,0,1,1,34.205-34.205A34.243,34.243,0,0,1,1122.725,668.551Zm0-61.707a27.5,27.5,0,1,0,27.5,27.5A27.53,27.53,0,0,0,1122.725,606.844Z" transform="translate(-798.248 -433.512)" fill="#99905b"/>
    <path id="Trazado_608781" data-name="Trazado 608781" d="M1323.2,208.21a27.2,27.2,0,1,1,27.2-27.2A27.23,27.23,0,0,1,1323.2,208.21Zm0-47.691a20.493,20.493,0,1,0,20.493,20.493A20.517,20.517,0,0,0,1323.2,160.519Z" transform="translate(-950.4 -106.203)" fill="#8298b6"/>
    <path id="Trazado_608782" data-name="Trazado 608782" d="M31.448,257.746A31.448,31.448,0,1,1,62.9,226.3,31.483,31.483,0,0,1,31.448,257.746Zm0-56.189A24.741,24.741,0,1,0,56.189,226.3,24.769,24.769,0,0,0,31.448,201.557Z" transform="translate(0 -136.299)" fill="#fff198"/>
    <path id="Trazado_608783" data-name="Trazado 608783" d="M217.1,760.372A23.176,23.176,0,1,1,240.272,737.2,23.2,23.2,0,0,1,217.1,760.372Zm0-39.645A16.469,16.469,0,1,0,233.565,737.2,16.488,16.488,0,0,0,217.1,720.727Z" transform="translate(-142.208 -517.024)" fill="#8298b6"/>
    <path id="Trazado_608784" data-name="Trazado 608784" d="M352.513,579.765a11.4,11.4,0,1,1,11.4-11.4A11.415,11.415,0,0,1,352.513,579.765Zm0-16.1a4.7,4.7,0,1,0,4.7,4.7A4.7,4.7,0,0,0,352.513,563.667Z" transform="translate(-250.147 -401.847)" fill="#99905b"/>
    <path id="Trazado_608785" data-name="Trazado 608785" d="M32.491,500.078a6.373,6.373,0,1,0-7.667-4.739A6.373,6.373,0,0,0,32.491,500.078Z" transform="translate(-18.078 -350.91)" fill="#8298b6"/>
    <path id="Trazado_608786" data-name="Trazado 608786" d="M693.97,789.637A6.373,6.373,0,1,0,686.3,784.9,6.373,6.373,0,0,0,693.97,789.637Z" transform="translate(-503.163 -563.253)" fill="#8298b6"/>
    <path id="Trazado_608787" data-name="Trazado 608787" d="M1303.932,480.5a6.373,6.373,0,1,0-7.667-4.739A6.375,6.375,0,0,0,1303.932,480.5Z" transform="translate(-950.468 -336.549)" fill="#8298b6"/>
    <path id="Trazado_608788" data-name="Trazado 608788" d="M1113.879,16.574a6.374,6.374,0,1,0-7.464,5.053A6.373,6.373,0,0,0,1113.879,16.574Z" transform="translate(-807.581 -0.005)" fill="#fff198"/>
    <path id="Trazado_608789" data-name="Trazado 608789" d="M310.211,20.783a6.373,6.373,0,1,0-8.772-2.07A6.374,6.374,0,0,0,310.211,20.783Z" transform="translate(-220.357)" fill="#8298b6"/>
    <path id="Trazado_608790" data-name="Trazado 608790" d="M728.009,129.3a6.373,6.373,0,1,0-9.013,0A6.374,6.374,0,0,0,728.009,129.3Z" transform="translate(-525.894 -80.254)" fill="#99905b"/>
    <path id="Trazado_608791" data-name="Trazado 608791" d="M280.529,632.666a6.373,6.373,0,1,0-9.013,0A6.373,6.373,0,0,0,280.529,632.666Z" transform="translate(-197.743 -449.386)" fill="#fff198"/>
    <path id="Trazado_608792" data-name="Trazado 608792" d="M861.433,801.015a11.4,11.4,0,1,1,11.4-11.4A11.415,11.415,0,0,1,861.433,801.015Zm0-16.1a4.7,4.7,0,1,0,4.7,4.7A4.7,4.7,0,0,0,861.433,784.917Z" transform="translate(-623.355 -564.097)" fill="#fff198"/>
    <path id="Trazado_608793" data-name="Trazado 608793" d="M968.436,569.722l-3.388,5.788,39.307,23.006,3.387-5.788Z" transform="translate(-707.702 -411.205)" fill="#99905b"/>
    <path id="Trazado_608794" data-name="Trazado 608794" d="M1055.159,281.319,964.439,311.3l2.1,6.368,90.719-29.985Z" transform="translate(-707.255 -199.71)" fill="#8298b6"/>
    <path id="Trazado_608795" data-name="Trazado 608795" d="M218.465,326.262l-1.927,6.424,72.21,21.664,1.927-6.424Z" transform="translate(-158.795 -232.668)" fill="#fff198"/>
    <path id="Trazado_608796" data-name="Trazado 608796" d="M428.791,554.418l-21.639,4.675,1.416,6.555,21.639-4.675Z" transform="translate(-298.578 -399.983)" fill="#99905b"/>
    <path id="Trazado_608797" data-name="Trazado 608797" d="M391.838,645.756l-52.211,28.786,3.238,5.873,52.211-28.787Z" transform="translate(-249.06 -466.964)" fill="#8298b6"/>
    <path id="Trazado_608798" data-name="Trazado 608798" d="M842.723,713.016l-6.089,2.811,8.929,19.342,6.089-2.811Z" transform="translate(-613.532 -516.288)" fill="#fff198"/>
    <path id="Trazado_608799" data-name="Trazado 608799" d="M535.34,118.94A11.4,11.4,0,1,1,524.83,131.17,11.418,11.418,0,0,1,535.34,118.94Zm1.211,16.053a4.7,4.7,0,1,0-5.037-4.331A4.7,4.7,0,0,0,536.55,134.994Z" transform="translate(-384.852 -80.608)" fill="#8298b6"/>
    <path id="Trazado_608800" data-name="Trazado 608800" d="M575.915,184.852l-5.861,3.261,10.358,18.617,5.861-3.261Z" transform="translate(-418.04 -128.967)" fill="#8298b6"/>
    <path id="Trazado_608801" data-name="Trazado 608801" d="M925.967,47.293a11.4,11.4,0,1,1-15.824-3.1A11.415,11.415,0,0,1,925.967,47.293ZM912.6,56.272a4.7,4.7,0,1,0,1.28-6.517,4.7,4.7,0,0,0-1.28,6.517Z" transform="translate(-663.743 -24.396)" fill="#8298b6"/>
    <path id="Trazado_608802" data-name="Trazado 608802" d="M861.028,108.118l-22.92,39.357-5.728-3.485,22.92-39.36Z" transform="translate(-610.412 -70.138)" fill="#8298b6"/>
    <path id="Trazado_608803" data-name="Trazado 608803" d="M900.516,321.18l7.563-.536a71.468,71.468,0,0,0-28.651-45.9l-3.968,6.437A63.918,63.918,0,0,1,900.516,321.18Z" transform="translate(-642.004 -194.885)" fill="#8298b6"/>
    <path id="Trazado_608804" data-name="Trazado 608804" d="M620.675,231.694a63.465,63.465,0,0,1,37.733,12.384l3.968-6.437a71.215,71.215,0,0,0-82.9-.371l4.861,5.805a63.46,63.46,0,0,1,36.331-11.381Z" transform="translate(-424.952 -157.786)" fill="#fff198"/>
    <path id="Trazado_608805" data-name="Trazado 608805" d="M531.83,279.155l-4.861-5.805a71.868,71.868,0,0,0-19.1,20.115l6.536,3.781a64.328,64.328,0,0,1,17.424-18.088Z" transform="translate(-372.438 -193.866)" fill="#99905b"/>
    <path id="Trazado_608806" data-name="Trazado 608806" d="M608.06,374.94l-7.563.536a63.826,63.826,0,1,1-116.549-22.915l-6.536-3.781a71.351,71.351,0,1,0,131.653,38.128,71.7,71.7,0,0,0-1.008-11.968Z" transform="translate(-341.983 -249.181)" fill="#8298b6"/>
    <path id="Trazado_608807" data-name="Trazado 608807" d="M260.5,766.613a.7.7,0,0,0-.549-.688l-2.5-.56,1.376-2.171a.7.7,0,0,0-.1-.875l-3.256-3.261a.714.714,0,0,0-.875-.1l-2.165,1.376-.56-2.507a.7.7,0,0,0-.688-.552h-4.6a.7.7,0,0,0-.688.552l-.56,2.507-2.163-1.376a.713.713,0,0,0-.877.1l-3.253,3.261a.706.706,0,0,0-.1.875l1.376,2.171-2.5.56a.7.7,0,0,0-.552.688v4.611a.7.7,0,0,0,.552.688l2.5.56-1.376,2.171a.7.7,0,0,0,.1.875l3.253,3.259a.721.721,0,0,0,.877.1l2.165-1.376.56,2.507a.71.71,0,0,0,.688.552h4.6a.7.7,0,0,0,.688-.552l.56-2.507,2.165,1.376a.713.713,0,0,0,.875-.1l3.253-3.261a.709.709,0,0,0,.1-.875l-1.376-2.171,2.5-.56a.7.7,0,0,0,.552-.688v-4.611Zm-11.635,7.451h-.069a4.84,4.84,0,0,1,0-9.677c.029,0,.059,0,.085,0h.016a4.84,4.84,0,0,1-.029,9.68Z" transform="translate(-173.991 -548.748)" fill="#33ece0"/>
    <path id="Trazado_608808" data-name="Trazado 608808" d="M1352.973,202.85c-9.027,0-16.373,5.768-16.373,12.859s7.344,12.859,16.373,12.859c.472,0,.96-.019,1.451-.053l1.285,3.109a.746.746,0,0,0,1.245.213l4.688-5.216c4.827-2.365,7.7-6.44,7.7-10.912C1369.347,208.618,1362,202.85,1352.973,202.85Zm-6.136,16.163a1.957,1.957,0,1,1,1.957-1.957A1.959,1.959,0,0,1,1346.837,219.013Zm6.179,0a1.957,1.957,0,1,1,1.958-1.957A1.959,1.959,0,0,1,1353.016,219.013Zm5.9,0a1.957,1.957,0,1,1,1.958-1.957A1.959,1.959,0,0,1,1358.912,219.013Z" transform="translate(-980.173 -142.166)" fill="#33ece0"/>
    <path id="Trazado_608809" data-name="Trazado 608809" d="M664.615,460.473l23.219-9.363a1.534,1.534,0,0,0,.869-1.939l-.325-.9a.447.447,0,0,1,.069-.419c4.664-6.107,1.477-14.237,1.477-14.237l-4.677-11.955c-.008-.024-.011-.035-.019-.056-.088-.411-1.4-6.1-5.643-6.1a5.342,5.342,0,0,0-4.525,2.019.454.454,0,0,1-.813-.147c-.293-1.227-1.261-2.779-4.232-3.115-3.3-.373-4.613,1.477-5.131,2.819a.447.447,0,0,1-.816.04c-1.067-2.211-3.339-4.776-6.211-3.819a5.183,5.183,0,0,0-3.288,2.888.452.452,0,0,1-.84,0l-4.773-12.267s-2.3-7.371-7.083-5.552-2.2,8.136-2.2,8.136l11.021,29.117a.453.453,0,0,1-.659.547l-5.259-3.179-.053-.037c-.381-.333-5.944-5.064-9.456-1.368s.352,7.72.653,8.021l.048.04,26.1,18.957.144.173.437.933a1.532,1.532,0,0,0,1.96.771Z" transform="translate(-464.791 -285.333)" fill="#33ece0"/>
    <path id="Trazado_608810" data-name="Trazado 608810" d="M777.3,614.381l-5.232-11.773a1.722,1.722,0,0,0-2.216-.9l-25.624,10.317a1.723,1.723,0,0,0-.92,2.317l5.325,11.555a1.72,1.72,0,0,0,2.195.88l25.533-10.1A1.721,1.721,0,0,0,777.3,614.381Z" transform="translate(-544.975 -434.572)" fill="#33ece0"/>
    <path id="Trazado_608811" data-name="Trazado 608811" d="M625.477,325.232a3.062,3.062,0,1,0,5.715-2.2l-3.2-8.307a3.063,3.063,0,0,0-5.717,2.2l3.2,8.307Z" transform="translate(-456.184 -222.766)" fill="#33ece0"/>
    <path id="Trazado_608812" data-name="Trazado 608812" d="M577.842,362.56l8.136,3.613a3.063,3.063,0,1,0,2.485-5.6l-8.136-3.613a3.063,3.063,0,0,0-2.485,5.6Z" transform="translate(-422.415 -254.986)" fill="#33ece0"/>
    <path id="Trazado_608813" data-name="Trazado 608813" d="M710.116,414.284l-8.139-3.613a3.063,3.063,0,0,0-2.485,5.6l8.139,3.613a3.063,3.063,0,0,0,2.483-5.6Z" transform="translate(-511.625 -294.373)" fill="#33ece0"/>
    <path id="Trazado_608814" data-name="Trazado 608814" d="M588.751,410.322a3.064,3.064,0,0,0-3.96-1.757l-8.309,3.2a3.063,3.063,0,1,0,2.2,5.717l8.309-3.2a3.063,3.063,0,0,0,1.757-3.96Z" transform="translate(-421.314 -292.873)" fill="#33ece0"/>
    <path id="Trazado_608815" data-name="Trazado 608815" d="M698.717,367.678a3.059,3.059,0,0,0,3.957,1.757l8.309-3.2a3.063,3.063,0,1,0-2.2-5.717l-8.309,3.2a3.063,3.063,0,0,0-1.757,3.96Z" transform="translate(-512.24 -257.639)" fill="#33ece0"/>
    <path id="Trazado_608816" data-name="Trazado 608816" d="M624.335,448.342l3.613-8.136a3.063,3.063,0,1,0-5.6-2.485l-3.613,8.136a3.062,3.062,0,1,0,5.6,2.485Z" transform="translate(-453.545 -313.069)" fill="#33ece0"/>
    <path id="Trazado_608817" data-name="Trazado 608817" d="M673.995,328.24a3.058,3.058,0,0,0,4.04-1.557l3.613-8.139a3.063,3.063,0,0,0-5.6-2.485l-3.613,8.139a3.064,3.064,0,0,0,1.557,4.043Z" transform="translate(-492.925 -223.85)" fill="#33ece0"/>
    <path id="Trazado_608818" data-name="Trazado 608818" d="M1194.582,656.63h-15.307a3.238,3.238,0,0,0-3.206,3.272v31.731a3.238,3.238,0,0,0,3.206,3.272h15.307a3.238,3.238,0,0,0,3.2-3.272V659.9A3.238,3.238,0,0,0,1194.582,656.63Zm-5.661,35.595a.78.78,0,0,1-.779.781h-2.424a.782.782,0,0,1-.781-.781v-1.336a.778.778,0,0,1,.781-.779h2.424a.78.78,0,0,1,.779.779Zm4.352-4.347h-12.688a1.56,1.56,0,0,1-1.56-1.56V661.854a1.56,1.56,0,0,1,1.56-1.56h12.688a1.56,1.56,0,0,1,1.56,1.56v24.464A1.56,1.56,0,0,1,1193.273,687.878Z" transform="translate(-862.451 -474.938)" fill="#33ece0"/>
    <path id="Trazado_608819" data-name="Trazado 608819" d="M75.613,267.534a8.043,8.043,0,0,0-1.04.067,8.493,8.493,0,0,0,.053-.949,9.576,9.576,0,0,0-18.7-2.909c-.291-.027-.565-.037-.832-.037a10.163,10.163,0,1,0,0,20.325h20.52a8.248,8.248,0,1,0,0-16.5Z" transform="translate(-32.949 -181.927)" fill="#33ece0"/>
  </g>
</svg>
