<svg xmlns="http://www.w3.org/2000/svg" width="120" height="120" viewBox="0 0 120 120">
  <g id="Grupo_1071392" data-name="Grupo 1071392" transform="translate(-285 -9975)">
    <circle id="Elipse_4744" data-name="Elipse 4744" cx="60" cy="60" r="60" transform="translate(285 9975)" fill="#fff198"/>
    <g id="recurso" transform="translate(307.615 9997.615)">
      <g id="Grupo_1083819" data-name="Grupo 1083819" transform="translate(2.174 2.174)">
        <g id="Grupo_1083807" data-name="Grupo 1083807" transform="translate(35.211 23.474)">
          <ellipse id="Elipse_6007" data-name="Elipse 6007" cx="12" cy="11.5" rx="12" ry="11.5" transform="translate(-0.385 0.123)" fill="#e6e9ed"/>
        </g>
        <g id="Grupo_1083808" data-name="Grupo 1083808" transform="translate(46.948 46.948)">
          <circle id="Elipse_6008" data-name="Elipse 6008" cx="12" cy="12" r="12" transform="translate(-0.122 -0.351)" fill="#e6e9ed"/>
        </g>
        <g id="Grupo_1083809" data-name="Grupo 1083809" transform="translate(46.948)">
          <circle id="Elipse_6009" data-name="Elipse 6009" cx="12" cy="12" r="12" transform="translate(-0.122 -0.403)" fill="#e6e9ed"/>
        </g>
        <g id="Grupo_1083810" data-name="Grupo 1083810" transform="translate(50.716 14.084)">
          <path id="Trazado_838473" data-name="Trazado 838473" d="M53.179,14a8.208,8.208,0,0,1,7.969,6.256,11.7,11.7,0,0,1-15.939,0A8.208,8.208,0,0,1,53.179,14Z" transform="translate(-45.21 -14)" fill="#b4dd7f"/>
        </g>
        <g id="Grupo_1083811" data-name="Grupo 1083811" transform="translate(50.716 61.033)">
          <path id="Trazado_838474" data-name="Trazado 838474" d="M53.179,54a8.208,8.208,0,0,1,7.969,6.256,11.7,11.7,0,0,1-15.939,0A8.208,8.208,0,0,1,53.179,54Z" transform="translate(-45.21 -54)" fill="#b4dd7f"/>
        </g>
        <g id="Grupo_1083812" data-name="Grupo 1083812" transform="translate(38.979 37.558)">
          <path id="Trazado_838475" data-name="Trazado 838475" d="M43.179,34a8.208,8.208,0,0,1,7.969,6.256,11.7,11.7,0,0,1-15.939,0A8.208,8.208,0,0,1,43.179,34Z" transform="translate(-35.21 -34)" fill="#fcd770"/>
        </g>
        <g id="Grupo_1083813" data-name="Grupo 1083813" transform="translate(53.99 51.643)">
          <ellipse id="Elipse_6010" data-name="Elipse 6010" cx="5" cy="4.5" rx="5" ry="4.5" transform="translate(-0.164 -0.046)" fill="#f0d0b4"/>
        </g>
        <g id="Grupo_1083814" data-name="Grupo 1083814" transform="translate(42.253 28.169)">
          <ellipse id="Elipse_6011" data-name="Elipse 6011" cx="5" cy="4.5" rx="5" ry="4.5" transform="translate(-0.427 0.428)" fill="#f0d0b4"/>
        </g>
        <g id="Grupo_1083815" data-name="Grupo 1083815" transform="translate(53.99 4.695)">
          <ellipse id="Elipse_6012" data-name="Elipse 6012" cx="5" cy="4.5" rx="5" ry="4.5" transform="translate(-0.164 -0.098)" fill="#f0d0b4"/>
        </g>
        <g id="Grupo_1083816" data-name="Grupo 1083816" transform="translate(0 4.695)">
          <path id="Trazado_838476" data-name="Trazado 838476" d="M30.169,6H4.347A2.354,2.354,0,0,0,2,8.347v9.39a2.354,2.354,0,0,0,2.347,2.347H30.169a2.354,2.354,0,0,0,2.347-2.347V8.347A2.354,2.354,0,0,0,30.169,6Z" transform="translate(-2 -6)" fill="#e6e9ed"/>
        </g>
        <g id="Grupo_1083817" data-name="Grupo 1083817" transform="translate(7.042 53.99)">
          <path id="Trazado_838477" data-name="Trazado 838477" d="M26.779,55.758v8.674H8V55.758A14.018,14.018,0,0,1,10.347,48H24.432a14.017,14.017,0,0,1,2.347,7.758Z" transform="translate(-8 -48)" fill="#4fc1e9"/>
        </g>
        <g id="Grupo_1083818" data-name="Grupo 1083818" transform="translate(2.347 14.084)">
          <path id="Trazado_838478" data-name="Trazado 838478" d="M25.127,30.432l2.923.728a2.337,2.337,0,0,1,1.772,2.277V45.573a7.014,7.014,0,0,1-1.538,4.39l-3.157,3.944H11.042L7.885,49.962a7.014,7.014,0,0,1-1.538-4.39V40.314a7.169,7.169,0,0,0-.739-3.157L4.2,34.352a1.9,1.9,0,0,1,1.7-2.746,5.129,5.129,0,0,1,5.141,5.141v-20.4A2.354,2.354,0,0,1,13.39,14a2.365,2.365,0,0,1,2.347,2.347V28.084l4.695,1.174Z" transform="translate(-4 -14)" fill="#f0d0b4"/>
        </g>
      </g>
      <path id="Trazado_838479" data-name="Trazado 838479" d="M60.859,47.948A12.923,12.923,0,0,0,48.008,59.685H28.563a15.072,15.072,0,0,0-1.484-3.432l2.636-3.295a8.25,8.25,0,0,0,1.8-5.133V38.558h4.755a12.911,12.911,0,1,0,0-2.347H31.516V35.7a3.516,3.516,0,0,0-2.667-3.415l-2.028-.507h0L22.127,30.6l-2.347-.587-2.347-.587v-7.3H30.343a3.525,3.525,0,0,0,3.521-3.521V15.084H48.008a12.911,12.911,0,1,0,0-2.347H33.864V9.216a3.525,3.525,0,0,0-3.521-3.521H4.521A3.525,3.525,0,0,0,1,9.216v9.39a3.525,3.525,0,0,0,3.521,3.521H10.39V34.134A6.252,6.252,0,0,0,6.42,32.69a3.074,3.074,0,0,0-2.749,4.447l1.4,2.807a5.9,5.9,0,0,1,.62,2.623v5.257a8.245,8.245,0,0,0,1.8,5.133l2.636,3.295a15.1,15.1,0,0,0-2.089,7.664V73.77H29.169V63.916a15.233,15.233,0,0,0-.126-1.884H48.008A12.908,12.908,0,1,0,60.859,47.948ZM42.511,45.611a7,7,0,0,1,13.221,0,10.518,10.518,0,0,1-13.221,0ZM45.6,35.037a3.521,3.521,0,1,1,3.521,3.521A3.525,3.525,0,0,1,45.6,35.037Zm3.521-8.216a10.544,10.544,0,0,1,8.4,16.948,9.349,9.349,0,0,0-4.508-4.37,5.869,5.869,0,1,0-7.775,0,9.349,9.349,0,0,0-4.508,4.37,10.544,10.544,0,0,1,8.4-16.948Zm5.127-4.684a7,7,0,0,1,13.221,0,10.518,10.518,0,0,1-13.221,0Zm3.089-10.574a3.521,3.521,0,1,1,3.521,3.521A3.525,3.525,0,0,1,57.338,11.563Zm3.521-8.216a10.544,10.544,0,0,1,8.4,16.948,9.349,9.349,0,0,0-4.508-4.37,5.869,5.869,0,1,0-7.775,0,9.349,9.349,0,0,0-4.508,4.37,10.544,10.544,0,0,1,8.4-16.948ZM4.521,19.779a1.175,1.175,0,0,1-1.174-1.174V9.216A1.175,1.175,0,0,1,4.521,8.042H30.343a1.175,1.175,0,0,1,1.174,1.174v9.39a1.175,1.175,0,0,1-1.174,1.174H17.432V18.606a3.521,3.521,0,1,0-7.042,0v1.174ZM8.042,47.826V42.569A8.247,8.247,0,0,0,7.175,38.9l-1.4-2.807a.726.726,0,0,1,.649-1.05,3.974,3.974,0,0,1,3.969,3.969v5.42h2.347V18.606a1.174,1.174,0,1,1,2.347,0V44.427h2.347V31.846l2.347.587V44.427h2.347V33.02l2.347.587v10.82h2.347V34.192l1.458.365a1.174,1.174,0,0,1,.89,1.14V47.826a5.885,5.885,0,0,1-1.286,3.665l-2.8,3.5H12.128l-2.8-3.5a5.887,5.887,0,0,1-1.286-3.665Zm18.779,23.6H10.39V63.916a12.752,12.752,0,0,1,1.819-6.579H25a12.752,12.752,0,0,1,1.819,6.579Zm27.427-2.337a7,7,0,0,1,13.221,0,10.518,10.518,0,0,1-13.221,0Zm3.089-10.574a3.521,3.521,0,1,1,3.521,3.521A3.525,3.525,0,0,1,57.338,58.511Zm11.917,8.732a9.349,9.349,0,0,0-4.508-4.37,5.869,5.869,0,1,0-7.775,0,9.349,9.349,0,0,0-4.508,4.37,10.563,10.563,0,1,1,16.791,0Z"/>
    </g>
  </g>
</svg>
