<svg xmlns="http://www.w3.org/2000/svg" width="294.999" height="261.208" viewBox="0 0 294.999 261.208">
  <g id="Group_5_3_" data-name="Group 5 (3)" transform="translate(-25.751)">
    <path id="Trazado_610469" data-name="Trazado 610469" d="M195.1,571.283H170.981v.175H195.1Z" transform="translate(-101.09 -334.31)" fill="#e0e0e0"/>
    <path id="Trazado_610470" data-name="Trazado 610470" d="M139.442,571.494H125.871v.175h13.571Z" transform="translate(-74.692 -334.434)" fill="#e0e0e0"/>
    <path id="Trazado_610471" data-name="Trazado 610471" d="M323.258,570.5H295.75v.175h27.508Z" transform="translate(-174.104 -333.854)" fill="#e0e0e0"/>
    <path id="Trazado_610472" data-name="Trazado 610472" d="M417.1,564.494H335.935v.175H417.1Z" transform="translate(-197.62 -330.338)" fill="#e0e0e0"/>
    <path id="Trazado_610473" data-name="Trazado 610473" d="M646.695,564.705H609.551v.175h37.144Z" transform="translate(-357.738 -330.461)" fill="#e0e0e0"/>
    <path id="Trazado_610474" data-name="Trazado 610474" d="M203.939,198.283H68.571a4.006,4.006,0,0,1-4-4V4a4.006,4.006,0,0,1,4-4H203.939a4.006,4.006,0,0,1,4,4V194.282A4.006,4.006,0,0,1,203.939,198.283ZM68.571.176A3.83,3.83,0,0,0,64.745,4v190.28a3.83,3.83,0,0,0,3.826,3.826H203.939a3.83,3.83,0,0,0,3.825-3.826V4A3.83,3.83,0,0,0,203.939.175Z" transform="translate(-38.819)" fill="#e0e0e0"/>
    <path id="Trazado_610475" data-name="Trazado 610475" d="M569.481,198.283H434.114a4.006,4.006,0,0,1-4-4V4a4.006,4.006,0,0,1,4-4H569.481a4.006,4.006,0,0,1,4,4V194.282A4.006,4.006,0,0,1,569.481,198.283ZM434.114.176A3.83,3.83,0,0,0,430.289,4v190.28a3.83,3.83,0,0,0,3.825,3.826H569.481a3.83,3.83,0,0,0,3.826-3.826V4A3.831,3.831,0,0,0,569.481.175Z" transform="translate(-252.733)" fill="#e0e0e0"/>
    <path id="Trazado_610476" data-name="Trazado 610476" d="M337.807,388.122v.005c-.386,0-.773.008-1.164.035a16.6,16.6,0,0,0-14.863,20.872,83.084,83.084,0,0,1,2.6,21.618v21.227a2.787,2.787,0,0,0,2.787,2.787h67.377V388.122Z" transform="translate(-189.004 -227.126)" fill="#e6e6e6"/>
    <path id="Trazado_610477" data-name="Trazado 610477" d="M491.185,404.716a16.6,16.6,0,1,0-32.621,4.317,83.081,83.081,0,0,1,2.6,21.618v21.226a2.787,2.787,0,0,0,2.787,2.787h21.275a2.787,2.787,0,0,0,2.787-2.787V429.4a75.764,75.764,0,0,1,2.57-20.254A16.563,16.563,0,0,0,491.185,404.716Z" transform="translate(-269.048 -227.125)" fill="#f0f0f0"/>
    <path id="Trazado_610478" data-name="Trazado 610478" d="M357.558,451.14H297.082v40.4h60.476Z" transform="translate(-174.883 -264.004)" fill="#e6e6e6"/>
    <path id="Trazado_610479" data-name="Trazado 610479" d="M244.969,293.489H189.144a12.559,12.559,0,0,0-12.56,12.56v61.97H257.53v-61.97A12.561,12.561,0,0,0,244.969,293.489Z" transform="translate(-104.369 -171.748)" fill="#e0e0e0"/>
    <path id="Trazado_610480" data-name="Trazado 610480" d="M283.695,293.489H226.659A11.955,11.955,0,0,0,214.7,305.443v62.575h80.945V305.443A11.954,11.954,0,0,0,283.695,293.489Z" transform="translate(-126.676 -171.748)" fill="#f0f0f0"/>
    <path id="Trazado_610481" data-name="Trazado 610481" d="M360.829,442.248H305.086A1.088,1.088,0,0,0,304,443.336v14.276a1.089,1.089,0,0,0,1.089,1.089h55.743a3.645,3.645,0,0,0,3.645-3.645v-9.164A3.644,3.644,0,0,0,360.829,442.248Z" transform="translate(-178.93 -258.8)" fill="#e0e0e0"/>
    <path id="Trazado_610482" data-name="Trazado 610482" d="M138.794,388.122v.005c-.386,0-.773.008-1.164.035a16.6,16.6,0,0,0-14.863,20.872,83.066,83.066,0,0,1,2.6,21.618v21.227a2.787,2.787,0,0,0,2.787,2.787h67.377V388.122Z" transform="translate(-72.543 -227.126)" fill="#e6e6e6"/>
    <path id="Trazado_610483" data-name="Trazado 610483" d="M292.172,404.716a16.6,16.6,0,1,0-32.622,4.317,83.082,83.082,0,0,1,2.6,21.618v21.226a2.787,2.787,0,0,0,2.787,2.787h21.275A2.787,2.787,0,0,0,289,451.877V429.4a75.764,75.764,0,0,1,2.57-20.254A16.548,16.548,0,0,0,292.172,404.716Z" transform="translate(-152.587 -227.125)" fill="#f0f0f0"/>
    <path id="Trazado_610484" data-name="Trazado 610484" d="M299.133,550.56H162.21a2.02,2.02,0,0,1-2.02-2.02H301.153A2.02,2.02,0,0,1,299.133,550.56Z" transform="translate(-94.775 -321.001)" fill="#e0e0e0"/>
    <path id="Trazado_610485" data-name="Trazado 610485" d="M185.42,78.6H145.129v41.753H185.42Z" transform="translate(-85.962 -45.993)" fill="#e0e0e0"/>
    <path id="Trazado_610486" data-name="Trazado 610486" d="M192.373,78.6H153.1v41.753h39.276Z" transform="translate(-90.624 -45.993)" fill="#f0f0f0"/>
    <path id="Trazado_610487" data-name="Trazado 610487" d="M193.724,121.7V86.528h-32.7V121.7Z" transform="translate(-95.266 -50.636)" fill="#fafafa"/>
    <path id="Trazado_610488" data-name="Trazado 610488" d="M187.825,107.489l-8.942,15.488h17.884Z" transform="translate(-105.714 -62.902)" fill="#f0f0f0"/>
    <path id="Trazado_610489" data-name="Trazado 610489" d="M314.88,120.992H274.589v41.753H314.88Z" transform="translate(-161.721 -70.804)" fill="#e0e0e0"/>
    <path id="Trazado_610490" data-name="Trazado 610490" d="M321.834,120.992H282.558v41.753h39.276Z" transform="translate(-166.384 -70.804)" fill="#f0f0f0"/>
    <path id="Trazado_610491" data-name="Trazado 610491" d="M323.186,164.1V128.924h-32.7V164.1Z" transform="translate(-171.026 -75.445)" fill="#fafafa"/>
    <path id="Trazado_610492" data-name="Trazado 610492" d="M321.9,167.186l3.879-6.718a4.62,4.62,0,0,0-4-6.931h-7.758a4.621,4.621,0,0,0-4,6.931l3.879,6.718A4.62,4.62,0,0,0,321.9,167.186Z" transform="translate(-182.088 -89.849)" fill="#f0f0f0"/>
    <path id="Trazado_610493" data-name="Trazado 610493" d="M581.146,313.5H570.135v96.188h11.011Z" transform="translate(-334.672 -183.457)" fill="#e6e6e6"/>
    <path id="Trazado_610494" data-name="Trazado 610494" d="M638.136,545.385h-61V548.7h61Z" transform="translate(-338.771 -319.155)" fill="#e6e6e6"/>
    <path id="Trazado_610495" data-name="Trazado 610495" d="M596.681,409.685h55.8V313.5h-55.8Z" transform="translate(-350.207 -183.456)" fill="#f0f0f0"/>
    <path id="Trazado_610496" data-name="Trazado 610496" d="M611.022,451.42h43.9V434.244h-43.9Z" transform="translate(-358.599 -254.116)" fill="#e6e6e6"/>
    <path id="Trazado_610497" data-name="Trazado 610497" d="M611.022,505.613h43.9V488.437h-43.9Z" transform="translate(-358.599 -285.83)" fill="#e6e6e6"/>
    <path id="Trazado_610498" data-name="Trazado 610498" d="M659.751,454.464H647.039a1.118,1.118,0,0,1-1.115-1.115v-.126a1.118,1.118,0,0,1,1.115-1.115h12.712a1.118,1.118,0,0,1,1.115,1.115v.126A1.118,1.118,0,0,1,659.751,454.464Z" transform="translate(-379.023 -264.571)" fill="#f0f0f0"/>
    <path id="Trazado_610499" data-name="Trazado 610499" d="M659.751,508.657H647.039a1.118,1.118,0,0,1-1.115-1.115v-.126a1.118,1.118,0,0,1,1.115-1.115h12.712a1.118,1.118,0,0,1,1.115,1.115v.126A1.118,1.118,0,0,1,659.751,508.657Z" transform="translate(-379.023 -296.284)" fill="#f0f0f0"/>
    <path id="Trazado_610500" data-name="Trazado 610500" d="M611.022,343.461h43.9V326.285h-43.9Z" transform="translate(-358.599 -190.94)" fill="#e6e6e6"/>
    <path id="Trazado_610501" data-name="Trazado 610501" d="M611.022,397.226h43.9V380.05h-43.9Z" transform="translate(-358.599 -222.402)" fill="#e6e6e6"/>
    <path id="Trazado_610502" data-name="Trazado 610502" d="M659.751,346.5H647.039a1.118,1.118,0,0,1-1.115-1.115v-.127a1.118,1.118,0,0,1,1.115-1.115h12.712a1.118,1.118,0,0,1,1.115,1.115v.127A1.118,1.118,0,0,1,659.751,346.5Z" transform="translate(-379.023 -201.393)" fill="#f0f0f0"/>
    <path id="Trazado_610503" data-name="Trazado 610503" d="M659.751,400.269H647.039a1.118,1.118,0,0,1-1.115-1.115v-.126a1.118,1.118,0,0,1,1.115-1.115h12.712a1.118,1.118,0,0,1,1.115,1.115v.126A1.117,1.117,0,0,1,659.751,400.269Z" transform="translate(-379.023 -232.856)" fill="#f0f0f0"/>
    <path id="Trazado_610504" data-name="Trazado 610504" d="M680.74,246.5H670.4s1.8,6.2,1.8,9.846-7.865,17.946,3.376,17.946,3.374-14.3,3.374-17.946S680.74,246.5,680.74,246.5Z" transform="translate(-392.831 -144.248)" fill="#f0f0f0"/>
    <path id="Trazado_610505" data-name="Trazado 610505" d="M617.741,259.6a4.944,4.944,0,1,1-4.944-4.944A4.943,4.943,0,0,1,617.741,259.6Z" transform="translate(-356.745 -149.024)" fill="#f0f0f0"/>
    <path id="Trazado_610506" data-name="Trazado 610506" d="M638.141,265.282a4.943,4.943,0,1,1-4.943-4.944A4.943,4.943,0,0,1,638.141,265.282Z" transform="translate(-368.683 -152.348)" fill="#f0f0f0"/>
    <path id="Trazado_610507" data-name="Trazado 610507" d="M655.57,260.693a4.943,4.943,0,1,1-4.943-4.944A4.943,4.943,0,0,1,655.57,260.693Z" transform="translate(-378.882 -149.662)" fill="#f0f0f0"/>
    <path id="Trazado_610508" data-name="Trazado 610508" d="M598.447,272.479v5.645c0,6.254,6.048,11.37,13.441,11.37h6.672c7.392,0,13.441-5.117,13.441-11.37v-5.645Z" transform="translate(-351.24 -159.453)" fill="#e6e6e6"/>
    <path id="Trazado_610509" data-name="Trazado 610509" d="M526.677,163.282a14.041,14.041,0,0,1,0-28.082H528.4v28.082h-1.722Z" transform="translate(-301.024 -79.118)" fill="#e0e0e0"/>
    <path id="Trazado_610510" data-name="Trazado 610510" d="M544.494,152.438a14.041,14.041,0,1,0-16.87,10.473A14.04,14.04,0,0,0,544.494,152.438Z" transform="translate(-303.448 -79.116)" fill="#f0f0f0"/>
    <path id="Trazado_610511" data-name="Trazado 610511" d="M549.691,111.593a1.753,1.753,0,1,1,0-3.505,15.176,15.176,0,0,0,15.159-15.16v-23.3a1.753,1.753,0,1,1,3.505,0v23.3A18.686,18.686,0,0,1,549.691,111.593Z" transform="translate(-321.682 -39.718)" fill="#e0e0e0"/>
    <path id="Trazado_610512" data-name="Trazado 610512" d="M586.126,85.322H552.978l3.7-30.371h25.74Z" transform="translate(-324.632 -32.157)" fill="#f0f0f0"/>
    <path id="Trazado_610513" data-name="Trazado 610513" d="M230.749,607.313c75.067,0,135.921-3.554,135.921-7.938s-60.854-7.937-135.921-7.937-135.921,3.554-135.921,7.937S155.681,607.313,230.749,607.313Z" transform="translate(-56.526 -346.105)" fill="#f5f5f5"/>
    <path id="Trazado_610514" data-name="Trazado 610514" d="M364.373,243.515l-1.2-9.32a5.752,5.752,0,0,0-5.7-5.016H326.412a5.751,5.751,0,0,1-5.7-5.016L314.26,174.2a5.752,5.752,0,0,1,5.7-6.488h28.086a5.752,5.752,0,0,0,5.7-6.488l-1.2-9.32a5.753,5.753,0,0,0-5.7-5.016H315.794a5.752,5.752,0,0,1-5.7-5.016l-5.968-46.255a5.753,5.753,0,0,0-5.7-5.016h-9.225a5.752,5.752,0,0,0-5.7,6.488l5.588,43.311a5.752,5.752,0,0,1-5.7,6.488H208.194a5.752,5.752,0,0,1-5.7-5.016l-5.969-46.255a5.752,5.752,0,0,0-5.7-5.016h-9.225a5.752,5.752,0,0,0-5.7,6.488l5.588,43.311a5.752,5.752,0,0,1-5.7,6.488H147.686a5.752,5.752,0,0,0-5.7,6.488l1.2,9.32a5.751,5.751,0,0,0,5.7,5.016h31.055a5.752,5.752,0,0,1,5.7,5.016l6.447,49.965a5.752,5.752,0,0,1-5.7,6.488H158.3a5.752,5.752,0,0,0-5.7,6.488l1.2,9.32a5.752,5.752,0,0,0,5.7,5.016H190.56a5.751,5.751,0,0,1,5.7,5.015l5.969,46.255a5.752,5.752,0,0,0,5.7,5.016h9.225a5.751,5.751,0,0,0,5.7-6.488l-5.588-43.311a5.751,5.751,0,0,1,5.7-6.488H298.16a5.751,5.751,0,0,1,5.7,5.016l5.969,46.255a5.752,5.752,0,0,0,5.7,5.016h9.225a5.751,5.751,0,0,0,5.7-6.488l-5.588-43.311a5.752,5.752,0,0,1,5.7-6.488h28.087A5.751,5.751,0,0,0,364.373,243.515ZM213.107,224.163,206.66,174.2a5.751,5.751,0,0,1,5.7-6.488h75.177a5.751,5.751,0,0,1,5.7,5.016l6.447,49.965a5.752,5.752,0,0,1-5.7,6.488H218.812A5.753,5.753,0,0,1,213.107,224.163Z" transform="translate(-84.091 -53.018)" fill="#33ece0"/>
    <path id="Trazado_610515" data-name="Trazado 610515" d="M364.373,243.515l-1.2-9.32a5.752,5.752,0,0,0-5.7-5.016H326.412a5.751,5.751,0,0,1-5.7-5.016L314.26,174.2a5.752,5.752,0,0,1,5.7-6.488h28.086a5.752,5.752,0,0,0,5.7-6.488l-1.2-9.32a5.753,5.753,0,0,0-5.7-5.016H315.794a5.752,5.752,0,0,1-5.7-5.016l-5.968-46.255a5.753,5.753,0,0,0-5.7-5.016h-9.225a5.752,5.752,0,0,0-5.7,6.488l5.588,43.311a5.752,5.752,0,0,1-5.7,6.488H208.194a5.752,5.752,0,0,1-5.7-5.016l-5.969-46.255a5.752,5.752,0,0,0-5.7-5.016h-9.225a5.752,5.752,0,0,0-5.7,6.488l5.588,43.311a5.752,5.752,0,0,1-5.7,6.488H147.686a5.752,5.752,0,0,0-5.7,6.488l1.2,9.32a5.751,5.751,0,0,0,5.7,5.016h31.055a5.752,5.752,0,0,1,5.7,5.016l6.447,49.965a5.752,5.752,0,0,1-5.7,6.488H158.3a5.752,5.752,0,0,0-5.7,6.488l1.2,9.32a5.752,5.752,0,0,0,5.7,5.016H190.56a5.751,5.751,0,0,1,5.7,5.015l5.969,46.255a5.752,5.752,0,0,0,5.7,5.016h9.225a5.751,5.751,0,0,0,5.7-6.488l-5.588-43.311a5.751,5.751,0,0,1,5.7-6.488H298.16a5.751,5.751,0,0,1,5.7,5.016l5.969,46.255a5.752,5.752,0,0,0,5.7,5.016h9.225a5.751,5.751,0,0,0,5.7-6.488l-5.588-43.311a5.752,5.752,0,0,1,5.7-6.488h28.087A5.751,5.751,0,0,0,364.373,243.515ZM213.107,224.163,206.66,174.2a5.751,5.751,0,0,1,5.7-6.488h75.177a5.751,5.751,0,0,1,5.7,5.016l6.447,49.965a5.752,5.752,0,0,1-5.7,6.488H218.812A5.753,5.753,0,0,1,213.107,224.163Z" transform="translate(-84.091 -53.018)" opacity="0.4"/>
    <path id="Trazado_610516" data-name="Trazado 610516" d="M328.679,305l-.687-5.325.7-.09.687,5.325Zm98.355-71.644-2.464-19.1.7-.09,2.464,19.1ZM310.441,163.652l-.991-7.673.7-.09.991,7.674Zm-1.6-12.389-1.68-13.02.7-.09,1.68,13.02Z" transform="translate(-180.782 -80.847)" fill="#33ece0"/>
    <path id="Trazado_610517" data-name="Trazado 610517" d="M328.679,305l-.687-5.325.7-.09.687,5.325Zm98.355-71.644-2.464-19.1.7-.09,2.464,19.1ZM310.441,163.652l-.991-7.673.7-.09.991,7.674Zm-1.6-12.389-1.68-13.02.7-.09,1.68,13.02Z" transform="translate(-180.782 -80.847)" opacity="0.3"/>
    <path id="Trazado_610518" data-name="Trazado 610518" d="M389.142,243.515l-1.2-9.32a5.752,5.752,0,0,0-5.7-5.016H351.18a5.751,5.751,0,0,1-5.7-5.016L339.029,174.2a5.752,5.752,0,0,1,5.7-6.488H372.82a5.752,5.752,0,0,0,5.7-6.488l-1.2-9.32a5.752,5.752,0,0,0-5.7-5.016H340.563a5.752,5.752,0,0,1-5.7-5.016L328.89,95.615a5.752,5.752,0,0,0-5.7-5.016h-9.225a5.752,5.752,0,0,0-5.7,6.488l5.589,43.311a5.752,5.752,0,0,1-5.7,6.488H232.962a5.752,5.752,0,0,1-5.7-5.016L221.29,95.615a5.752,5.752,0,0,0-5.7-5.016h-9.225a5.752,5.752,0,0,0-5.7,6.488l5.589,43.311a5.752,5.752,0,0,1-5.7,6.488H172.454a5.752,5.752,0,0,0-5.7,6.488l1.2,9.32a5.752,5.752,0,0,0,5.7,5.016h31.055a5.752,5.752,0,0,1,5.7,5.016l6.447,49.965a5.752,5.752,0,0,1-5.7,6.488H183.072a5.752,5.752,0,0,0-5.7,6.488l1.2,9.32a5.752,5.752,0,0,0,5.7,5.016h31.055a5.752,5.752,0,0,1,5.7,5.015L227,301.273a5.753,5.753,0,0,0,5.7,5.016h9.225a5.751,5.751,0,0,0,5.7-6.488l-5.589-43.311a5.752,5.752,0,0,1,5.7-6.488h75.177a5.751,5.751,0,0,1,5.7,5.016l5.969,46.255a5.752,5.752,0,0,0,5.7,5.016h9.225a5.752,5.752,0,0,0,5.7-6.488l-5.589-43.311a5.752,5.752,0,0,1,5.7-6.488h28.086A5.751,5.751,0,0,0,389.142,243.515ZM237.876,224.163,231.429,174.2a5.751,5.751,0,0,1,5.7-6.488H312.31a5.752,5.752,0,0,1,5.7,5.016l6.447,49.965a5.752,5.752,0,0,1-5.7,6.488H243.58A5.753,5.753,0,0,1,237.876,224.163Z" transform="translate(-98.586 -53.018)" fill="#33ece0"/>
    <path id="Trazado_610519" data-name="Trazado 610519" d="M389.142,243.515l-1.2-9.32a5.752,5.752,0,0,0-5.7-5.016H351.18a5.751,5.751,0,0,1-5.7-5.016L339.029,174.2a5.752,5.752,0,0,1,5.7-6.488H372.82a5.752,5.752,0,0,0,5.7-6.488l-1.2-9.32a5.752,5.752,0,0,0-5.7-5.016H340.563a5.752,5.752,0,0,1-5.7-5.016L328.89,95.615a5.752,5.752,0,0,0-5.7-5.016h-9.225a5.752,5.752,0,0,0-5.7,6.488l5.589,43.311a5.752,5.752,0,0,1-5.7,6.488H232.962a5.752,5.752,0,0,1-5.7-5.016L221.29,95.615a5.752,5.752,0,0,0-5.7-5.016h-9.225a5.752,5.752,0,0,0-5.7,6.488l5.589,43.311a5.752,5.752,0,0,1-5.7,6.488H172.454a5.752,5.752,0,0,0-5.7,6.488l1.2,9.32a5.752,5.752,0,0,0,5.7,5.016h31.055a5.752,5.752,0,0,1,5.7,5.016l6.447,49.965a5.752,5.752,0,0,1-5.7,6.488H183.072a5.752,5.752,0,0,0-5.7,6.488l1.2,9.32a5.752,5.752,0,0,0,5.7,5.016h31.055a5.752,5.752,0,0,1,5.7,5.015L227,301.273a5.753,5.753,0,0,0,5.7,5.016h9.225a5.751,5.751,0,0,0,5.7-6.488l-5.589-43.311a5.752,5.752,0,0,1,5.7-6.488h75.177a5.751,5.751,0,0,1,5.7,5.016l5.969,46.255a5.752,5.752,0,0,0,5.7,5.016h9.225a5.752,5.752,0,0,0,5.7-6.488l-5.589-43.311a5.752,5.752,0,0,1,5.7-6.488h28.086A5.751,5.751,0,0,0,389.142,243.515ZM237.876,224.163,231.429,174.2a5.751,5.751,0,0,1,5.7-6.488H312.31a5.752,5.752,0,0,1,5.7,5.016l6.447,49.965a5.752,5.752,0,0,1-5.7,6.488H243.58A5.753,5.753,0,0,1,237.876,224.163Z" transform="translate(-98.586 -53.018)" opacity="0.3"/>
    <path id="Trazado_610520" data-name="Trazado 610520" d="M352.374,307.122H343.15a3.745,3.745,0,0,1-3.706-3.259l-5.968-46.254a7.785,7.785,0,0,0-7.7-6.773H250.6a7.768,7.768,0,0,0-7.7,8.761l5.588,43.311a3.736,3.736,0,0,1-3.7,4.214h-9.224a3.745,3.745,0,0,1-3.706-3.258l-5.968-46.254a7.787,7.787,0,0,0-7.7-6.773H187.119a3.744,3.744,0,0,1-3.705-3.257l-1.2-9.32a3.737,3.737,0,0,1,3.706-4.215H214a7.768,7.768,0,0,0,7.7-8.761l-6.447-49.964a7.786,7.786,0,0,0-7.7-6.773H176.5a3.743,3.743,0,0,1-3.705-3.258l-1.2-9.319a3.735,3.735,0,0,1,3.705-4.214h28.086a7.766,7.766,0,0,0,7.7-8.761L205.5,99.682a3.736,3.736,0,0,1,3.706-4.214h9.224a3.744,3.744,0,0,1,3.705,3.258l5.969,46.255a7.784,7.784,0,0,0,7.7,6.773h75.177a7.766,7.766,0,0,0,7.7-8.761L313.1,99.683a3.735,3.735,0,0,1,3.705-4.215h9.224a3.744,3.744,0,0,1,3.705,3.258l5.968,46.255a7.787,7.787,0,0,0,7.7,6.773h31.055a3.744,3.744,0,0,1,3.705,3.257l1.2,9.32a3.737,3.737,0,0,1-3.705,4.214H347.575a7.766,7.766,0,0,0-7.7,8.76l6.447,49.966a7.786,7.786,0,0,0,7.7,6.773h31.055a3.745,3.745,0,0,1,3.706,3.258l1.2,9.32a3.735,3.735,0,0,1-3.705,4.214H358.193a7.769,7.769,0,0,0-7.7,8.762l5.589,43.31a3.733,3.733,0,0,1-3.7,4.213ZM250.6,250.66h75.177a7.96,7.96,0,0,1,7.877,6.926l5.969,46.255a3.57,3.57,0,0,0,3.532,3.106h9.224a3.561,3.561,0,0,0,3.531-4.018l-5.588-43.31a7.943,7.943,0,0,1,7.877-8.959H386.28a3.561,3.561,0,0,0,3.531-4.018l-1.2-9.319a3.57,3.57,0,0,0-3.532-3.105H354.023a7.961,7.961,0,0,1-7.878-6.926L339.7,177.327a7.941,7.941,0,0,1,7.877-8.958h28.086a3.562,3.562,0,0,0,3.531-4.017l-1.2-9.32a3.569,3.569,0,0,0-3.532-3.1H343.4A7.961,7.961,0,0,1,335.527,145l-5.969-46.255a3.567,3.567,0,0,0-3.531-3.105H316.8a3.561,3.561,0,0,0-3.532,4.017l5.589,43.31a7.942,7.942,0,0,1-7.877,8.959H235.806A7.96,7.96,0,0,1,227.929,145L221.96,98.747a3.567,3.567,0,0,0-3.531-3.1h-9.224a3.56,3.56,0,0,0-3.533,4.017l5.588,43.31a7.943,7.943,0,0,1-7.877,8.959H175.3a3.56,3.56,0,0,0-3.532,4.017l1.2,9.32a3.568,3.568,0,0,0,3.531,3.105h31.055a7.961,7.961,0,0,1,7.877,6.926l6.447,49.965A7.942,7.942,0,0,1,214,234.219H185.916a3.562,3.562,0,0,0-3.532,4.017l1.2,9.32a3.568,3.568,0,0,0,3.531,3.1h31.055a7.961,7.961,0,0,1,7.877,6.927l5.969,46.255a3.57,3.57,0,0,0,3.532,3.106h9.224a3.562,3.562,0,0,0,3.531-4.017l-5.589-43.311a7.946,7.946,0,0,1,7.878-8.96ZM321.6,234.218H246.425a7.962,7.962,0,0,1-7.878-6.926L232.1,177.327a7.943,7.943,0,0,1,7.878-8.958h75.176a7.961,7.961,0,0,1,7.877,6.925l6.447,49.965a7.942,7.942,0,0,1-7.876,8.959Zm-81.625-65.673a7.766,7.766,0,0,0-7.7,8.76l6.447,49.966a7.785,7.785,0,0,0,7.7,6.773H321.6a7.768,7.768,0,0,0,7.7-8.762l-6.447-49.964a7.786,7.786,0,0,0-7.7-6.773Z" transform="translate(-101.429 -55.867)" fill="#33ece0"/>
    <path id="Trazado_610521" data-name="Trazado 610521" d="M466.3,523.316l5.508,3.221,8.307-12.26-5.508-3.221Z" transform="translate(-273.909 -299.066)" fill="#e4897b"/>
    <path id="Trazado_610522" data-name="Trazado 610522" d="M465.142,539.814l-4.526-5.559a.5.5,0,0,0-.66-.12l-4.914,2.947a1.025,1.025,0,0,0-.234,1.51c1.611,1.911,2.485,2.752,4.475,5.2,1.225,1.5,3.6,4.742,5.292,6.819,1.653,2.032,3.834.516,3.316-.5-2.323-4.557-2.415-7.019-2.381-9.218A1.654,1.654,0,0,0,465.142,539.814Z" transform="translate(-267.048 -312.529)" fill="#0c544f"/>
    <path id="Trazado_610523" data-name="Trazado 610523" d="M481.526,552.373a.82.82,0,0,1-.131-.01c-.9-.141-1.853-1.709-2.34-2.631a.108.108,0,0,1,.015-.123.106.106,0,0,1,.121-.025c.3.128,2.888,1.27,3.046,2.125a.444.444,0,0,1-.136.413A.806.806,0,0,1,481.526,552.373Zm-2.131-2.465c.74,1.326,1.49,2.158,2.034,2.242a.579.579,0,0,0,.523-.183.227.227,0,0,0,.076-.22C481.924,551.184,480.293,550.323,479.4,549.908Z" transform="translate(-281.366 -321.606)" fill="#33ece0"/>
    <path id="Trazado_610524" data-name="Trazado 610524" d="M481.218,549.055a5.566,5.566,0,0,1-2.116-.423.108.108,0,0,1-.013-.185,4.228,4.228,0,0,1,2.476-.8,1.051,1.051,0,0,1,.7.465c.216.328.136.538.031.655A1.511,1.511,0,0,1,481.218,549.055Zm-1.842-.536c.862.341,2.447.463,2.764.1.03-.034.121-.136-.05-.4a.838.838,0,0,0-.565-.373A3.678,3.678,0,0,0,479.376,548.519Z" transform="translate(-281.366 -320.462)" fill="#33ece0"/>
    <path id="Trazado_610525" data-name="Trazado 610525" d="M436.266,307.876l.264,1.067.3,1.152c.207.772.434,1.548.67,2.323.451,1.557.942,3.115,1.479,4.661s1.073,3.1,1.663,4.635c.29.77.575,1.543.881,2.308l.358.918a1.843,1.843,0,0,0,.278.44,8.109,8.109,0,0,0,3.109,1.963,29.069,29.069,0,0,0,4.419,1.372c1.554.364,3.156.664,4.776.912,1.609.273,3.28.454,4.876.63l.058,3.3a50.718,50.718,0,0,1-10.528,0,30.6,30.6,0,0,1-5.406-1.048,17.937,17.937,0,0,1-2.783-1.1,10.725,10.725,0,0,1-2.8-1.968,7.979,7.979,0,0,1-1.228-1.587c-.091-.149-.17-.314-.252-.471l-.161-.329-.283-.584c-.38-.778-.758-1.557-1.11-2.349-.71-1.58-1.407-3.173-2.018-4.8s-1.212-3.268-1.747-4.941c-.255-.841-.5-1.687-.728-2.546l-.333-1.3c-.1-.46-.19-.85-.293-1.4Z" transform="translate(-252.507 -180.167)" fill="#e4897b"/>
    <path id="Trazado_610526" data-name="Trazado 610526" d="M429.079,290.515c2.63.669,4.47,11.491,4.47,11.491l-7.247,4.928s-6.948-10.917-4.925-13.809C423.483,290.115,425.242,289.538,429.079,290.515Z" transform="translate(-247.404 -169.752)" fill="#33ece0"/>
    <path id="Trazado_610527" data-name="Trazado 610527" d="M429.079,290.515c2.63.669,4.47,11.491,4.47,11.491l-7.247,4.928s-6.948-10.917-4.925-13.809C423.483,290.115,425.242,289.538,429.079,290.515Z" transform="translate(-247.404 -169.752)" opacity="0.2"/>
    <path id="Trazado_610528" data-name="Trazado 610528" d="M432.336,300.614l-5.629,1.3-.54,5.5a63.86,63.86,0,0,0,3.155,5.678l4.4-2.987C433.528,307.582,433.051,302.324,432.336,300.614Z" transform="translate(-250.423 -175.917)" fill="#33ece0"/>
    <path id="Trazado_610529" data-name="Trazado 610529" d="M432.336,300.614l-5.629,1.3-.54,5.5a63.86,63.86,0,0,0,3.155,5.678l4.4-2.987C433.528,307.582,433.051,302.324,432.336,300.614Z" transform="translate(-250.423 -175.917)" opacity="0.3"/>
    <path id="Trazado_610530" data-name="Trazado 610530" d="M497.973,355.255l4.526-4.587.6,6.461s-3.393,2.3-5.741,1.062Z" transform="translate(-292.081 -205.208)" fill="#e4897b"/>
    <path id="Trazado_610531" data-name="Trazado 610531" d="M515.078,349.015l.206,5.436-4.931,1.71-.6-6.461Z" transform="translate(-299.34 -204.241)" fill="#e4897b"/>
    <path id="Trazado_610532" data-name="Trazado 610532" d="M444.416,550.171h6.38l2.052-14.776h-6.381Z" transform="translate(-261.102 -313.309)" fill="#e4897b"/>
    <path id="Trazado_610533" data-name="Trazado 610533" d="M445.929,561.568,439.6,558.2a.5.5,0,0,0-.654.145l-3.387,4.622a1.026,1.026,0,0,0,.37,1.483c2.227,1.137,3.358,1.573,6.14,3.055,1.712.911,6.007,3.427,8.371,4.686,2.312,1.231,3.734-1.011,2.863-1.748-3.908-3.3-5.8-5.985-6.619-8.026A1.665,1.665,0,0,0,445.929,561.568Z" transform="translate(-255.816 -326.617)" fill="#0c544f"/>
    <path id="Trazado_610534" data-name="Trazado 610534" d="M348.791,216.228c-.159,7.014-8.74,4.114-9.7,12.19-.54,4.542-6.038,5.006-7.03,9.133-.954,3.973,2.921,6.863,0,11.809-3.911,6.623-6.1,18.179,15.847,19.375,16.324.89,22.059-15.684,19.3-25.875s-4.317-11.754-1.279-14.558,7.9-4.243,6.346-12.774c-1.205-6.621-4.133-5.841-4.133-5.841C368.01,206.011,349.144,200.63,348.791,216.228Z" transform="translate(-193.883 -120.388)" fill="#0c544f"/>
    <path id="Trazado_610535" data-name="Trazado 610535" d="M485.782,514.281l-4.28,6.32-5.51-3.222,4.28-6.32Z" transform="translate(-279.58 -299.068)" fill="#ce6f64"/>
    <path id="Trazado_610536" data-name="Trazado 610536" d="M447.86,535.4h6.383l-1.06,7.617H446.8Z" transform="translate(-262.497 -313.314)" fill="#ce6f64"/>
    <path id="Trazado_610537" data-name="Trazado 610537" d="M393.125,288.525s3.04,1.071-3.049,38.509H364.162c.435-10.547.448-17.05-4.594-38.694a76.429,76.429,0,0,1,11-1.45,82.422,82.422,0,0,1,11.766,0C387.394,287.351,393.125,288.525,393.125,288.525Z" transform="translate(-211.45 -167.761)" fill="#33ece0"/>
    <path id="Trazado_610538" data-name="Trazado 610538" d="M393.125,288.525s3.04,1.071-3.049,38.509H364.162c.435-10.547.448-17.05-4.594-38.694a76.429,76.429,0,0,1,11-1.45,82.422,82.422,0,0,1,11.766,0C387.394,287.351,393.125,288.525,393.125,288.525Z" transform="translate(-211.45 -167.761)" opacity="0.2"/>
    <path id="Trazado_610539" data-name="Trazado 610539" d="M387.263,255.247c.742,3.786,1.483,10.724-1.166,13.249,0,0,1.035,3.841,8.071,3.841,6.767,0,3.7-3.84,3.7-3.84-4.222-1.008-4.113-4.141-3.378-7.082Z" transform="translate(-226.974 -149.369)" fill="#e4897b"/>
    <path id="Trazado_610540" data-name="Trazado 610540" d="M395.819,261.315l4.276,3.648a12.157,12.157,0,0,0-.363,2.089c-1.613-.234-3.828-2-4-3.692A5.687,5.687,0,0,1,395.819,261.315Z" transform="translate(-232.586 -152.92)" fill="#ce6f64"/>
    <path id="Trazado_610541" data-name="Trazado 610541" d="M387.035,220.251c-.731,6.29-1.175,8.937,1.4,12.693,3.868,5.65,11.754,5.171,14.349-.773,2.337-5.351,3.139-14.739-2.508-18.3A8.636,8.636,0,0,0,387.035,220.251Z" transform="translate(-227.191 -124.348)" fill="#e4897b"/>
    <path id="Trazado_610542" data-name="Trazado 610542" d="M385.776,222.151c.886,1.651,14.515-5.879,12.964-9.93s-5.607-2.576-5.607-2.576-7.2,1.635-8.409,5.375A9.041,9.041,0,0,0,385.776,222.151Z" transform="translate(-225.963 -122.53)" fill="#0c544f"/>
    <path id="Trazado_610543" data-name="Trazado 610543" d="M381.415,238.58a4.807,4.807,0,0,0,1.636,3.133c1.23,1.046,2.459.118,2.629-1.388.154-1.356-.3-3.533-1.782-4A1.961,1.961,0,0,0,381.415,238.58Z" transform="translate(-224.228 -138.24)" fill="#e4897b"/>
    <path id="Trazado_610544" data-name="Trazado 610544" d="M406.225,383.968s40.336,3.881,39.917,23.339c-.435,20.238-14.97,38.462-14.97,38.462l-7.619-4.312s8.381-17.811,7.976-29.949c-.347-10.376-39.028-12.365-39.028-12.365l-5.337-15.176Z" transform="translate(-227.599 -224.695)" fill="#33ece0"/>
    <path id="Trazado_610545" data-name="Trazado 610545" d="M406.225,383.968s40.336,3.881,39.917,23.339c-.435,20.238-14.97,38.462-14.97,38.462l-7.619-4.312s8.381-17.811,7.976-29.949c-.347-10.376-39.028-12.365-39.028-12.365l-5.337-15.176Z" transform="translate(-227.599 -224.695)" fill="#fafafa" opacity="0.6"/>
    <path id="Trazado_610546" data-name="Trazado 610546" d="M467,411.461l.813,8.272c5.643,1.767,9.983,4.185,10.41,7.473C479.175,419.887,474.071,415.562,467,411.461Z" transform="translate(-274.317 -240.784)" fill="#33ece0"/>
    <path id="Trazado_610547" data-name="Trazado 610547" d="M467,411.461l.813,8.272c5.643,1.767,9.983,4.185,10.41,7.473C479.175,419.887,474.071,415.562,467,411.461Z" transform="translate(-274.317 -240.784)" fill="#fafafa" opacity="0.4"/>
    <path id="Trazado_610548" data-name="Trazado 610548" d="M388.174,383.968s27.649,9.171,28.346,20.517c1.284,20.9-7.9,48.442-7.9,48.442h-8.7s.493-18.278,1.533-37.208c1.307-23.787-40.661-.329-32.346-31.75Z" transform="translate(-216.392 -224.695)" fill="#33ece0"/>
    <path id="Trazado_610549" data-name="Trazado 610549" d="M388.174,383.968s27.649,9.171,28.346,20.517c1.284,20.9-7.9,48.442-7.9,48.442h-8.7s.493-18.278,1.533-37.208c1.307-23.787-40.661-.329-32.346-31.75Z" transform="translate(-216.392 -224.695)" fill="#fafafa" opacity="0.6"/>
    <path id="Trazado_610550" data-name="Trazado 610550" d="M409.8,238.309c-.09.507.1.965.436,1.025s.673-.3.763-.811-.1-.965-.435-1.025S409.9,237.8,409.8,238.309Z" transform="translate(-240.834 -138.979)" fill="#0c544f"/>
    <path id="Trazado_610551" data-name="Trazado 610551" d="M423.61,240.78c-.091.507.1.965.435,1.024s.673-.3.763-.81-.1-.965-.435-1.025S423.7,240.273,423.61,240.78Z" transform="translate(-248.914 -140.424)" fill="#0c544f"/>
    <path id="Trazado_610552" data-name="Trazado 610552" d="M425.116,239.8l1.279-.133S425.6,240.5,425.116,239.8Z" transform="translate(-249.808 -140.248)" fill="#0c544f"/>
    <path id="Trazado_610553" data-name="Trazado 610553" d="M418.715,243.377a13.754,13.754,0,0,0,1.227,3.556,2.213,2.213,0,0,1-1.867.016Z" transform="translate(-245.688 -142.422)" fill="#de5753"/>
    <path id="Trazado_610554" data-name="Trazado 610554" d="M407.828,251.616a.085.085,0,0,1-.037-.008,4.4,4.4,0,0,1-2.23-2.378.1.1,0,0,1,.059-.124.1.1,0,0,1,.123.059,4.273,4.273,0,0,0,2.123,2.265.1.1,0,0,1-.037.186Z" transform="translate(-238.361 -145.772)" fill="#0c544f"/>
    <path id="Trazado_610555" data-name="Trazado 610555" d="M408.033,232.413a.192.192,0,0,1-.129-.336,2.886,2.886,0,0,1,2.555-.719.192.192,0,1,1-.1.371,2.5,2.5,0,0,0-2.2.636A.19.19,0,0,1,408.033,232.413Z" transform="translate(-239.698 -135.352)" fill="#0c544f"/>
    <path id="Trazado_610556" data-name="Trazado 610556" d="M428.262,233.617a.191.191,0,0,1-.177-.116,2.527,2.527,0,0,0-1.727-1.5.194.194,0,0,1-.158-.222.191.191,0,0,1,.222-.158,2.881,2.881,0,0,1,2.016,1.726.192.192,0,0,1-.1.254A.177.177,0,0,1,428.262,233.617Z" transform="translate(-250.44 -135.541)" fill="#0c544f"/>
    <path id="Trazado_610557" data-name="Trazado 610557" d="M463.228,569.743a4.6,4.6,0,0,1-2.341-1.289.106.106,0,0,1,.061-.186c.256-.024,2.534-.216,3.017.411a.475.475,0,0,1,.06.474.821.821,0,0,1-.568.564A.979.979,0,0,1,463.228,569.743Zm-2-1.282c.923.773,1.722,1.166,2.181,1.047a.608.608,0,0,0,.419-.428.263.263,0,0,0-.027-.271C463.485,568.406,462.014,568.412,461.224,568.461Z" transform="translate(-270.72 -332.519)" fill="#33ece0"/>
    <path id="Trazado_610558" data-name="Trazado 610558" d="M460.959,565.938a.106.106,0,0,1-.095-.156c.036-.069.9-1.669,1.78-1.881a.747.747,0,0,1,.624.116.48.48,0,0,1,.234.562c-.193.645-1.77,1.339-2.541,1.36Zm1.879-1.848a.611.611,0,0,0-.144.018c-.628.151-1.293,1.179-1.54,1.6.735-.115,2-.705,2.144-1.188.023-.078.033-.2-.151-.325A.536.536,0,0,0,462.838,564.091Z" transform="translate(-270.72 -329.977)" fill="#33ece0"/>
    <path id="Trazado_610559" data-name="Trazado 610559" d="M411.312,237.325l1.279-.133S411.8,238.031,411.312,237.325Z" transform="translate(-241.73 -138.803)" fill="#0c544f"/>
    <path id="Trazado_610560" data-name="Trazado 610560" d="M369.386,380.027l-.207,2.32c-.09.18.123.363.422.363h26.214c.234,0,.427-.114.442-.261l.234-2.32c.016-.161-.187-.3-.442-.3H369.807A.468.468,0,0,0,369.386,380.027Z" transform="translate(-217.062 -222.275)" fill="#0c544f"/>
    <path id="Trazado_610561" data-name="Trazado 610561" d="M376.877,382.671h-.7c-.14,0-.247-.072-.237-.16l.329-3.014c.01-.088.132-.161.272-.161h.7c.14,0,.247.072.237.161l-.329,3.014C377.14,382.6,377.017,382.671,376.877,382.671Z" transform="translate(-221.029 -221.984)" fill="#33ece0"/>
    <path id="Trazado_610562" data-name="Trazado 610562" d="M376.877,382.671h-.7c-.14,0-.247-.072-.237-.16l.329-3.014c.01-.088.132-.161.272-.161h.7c.14,0,.247.072.237.161l-.329,3.014C377.14,382.6,377.017,382.671,376.877,382.671Z" transform="translate(-221.029 -221.984)" fill="#fafafa" opacity="0.6"/>
    <path id="Trazado_610563" data-name="Trazado 610563" d="M427.335,382.671h-.7c-.14,0-.247-.072-.237-.16l.33-3.014c.01-.088.131-.161.272-.161h.7c.14,0,.246.072.237.161l-.33,3.014C427.6,382.6,427.475,382.671,427.335,382.671Z" transform="translate(-250.556 -221.984)" fill="#33ece0"/>
    <path id="Trazado_610564" data-name="Trazado 610564" d="M427.335,382.671h-.7c-.14,0-.247-.072-.237-.16l.33-3.014c.01-.088.131-.161.272-.161h.7c.14,0,.246.072.237.161l-.33,3.014C427.6,382.6,427.475,382.671,427.335,382.671Z" transform="translate(-250.556 -221.984)" fill="#fafafa" opacity="0.6"/>
    <path id="Trazado_610565" data-name="Trazado 610565" d="M402.106,382.671h-.7c-.14,0-.247-.072-.237-.16l.329-3.014c.01-.088.132-.161.272-.161h.7c.14,0,.247.072.237.161l-.329,3.014C402.368,382.6,402.246,382.671,402.106,382.671Z" transform="translate(-235.792 -221.984)" fill="#33ece0"/>
    <path id="Trazado_610566" data-name="Trazado 610566" d="M402.106,382.671h-.7c-.14,0-.247-.072-.237-.16l.329-3.014c.01-.088.132-.161.272-.161h.7c.14,0,.247.072.237.161l-.329,3.014C402.368,382.6,402.246,382.671,402.106,382.671Z" transform="translate(-235.792 -221.984)" fill="#fafafa" opacity="0.6"/>
    <path id="Trazado_610567" data-name="Trazado 610567" d="M369.55,314.911l-3.344,2.846c.715,3.786,1.192,6.94,1.5,9.744C368.33,324.69,369.921,317.063,369.55,314.911Z" transform="translate(-215.334 -184.284)" fill="#33ece0"/>
    <path id="Trazado_610568" data-name="Trazado 610568" d="M369.55,314.911l-3.344,2.846c.715,3.786,1.192,6.94,1.5,9.744C368.33,324.69,369.921,317.063,369.55,314.911Z" transform="translate(-215.334 -184.284)" opacity="0.3"/>
    <path id="Trazado_610569" data-name="Trazado 610569" d="M471.592,340.79H426.115l-6.591,26.854H465Z" transform="translate(-246.536 -199.428)" fill="#fafafa"/>
    <path id="Trazado_610570" data-name="Trazado 610570" d="M425.081,393.473l-27.813,6.486-17.85-5,.184-1.484Z" transform="translate(-223.066 -230.257)" fill="#fafafa"/>
    <path id="Trazado_610571" data-name="Trazado 610571" d="M353.263,309.965c-.545,1.783-1.134,3.629-1.655,5.456-.545,1.827-1.081,3.654-1.559,5.483s-.93,3.652-1.282,5.442c-.173.893-.327,1.78-.434,2.625a12.887,12.887,0,0,0-.117,1.775,3.181,3.181,0,0,0,.77,1.273,11.448,11.448,0,0,0,1.755,1.551,33.284,33.284,0,0,0,4.608,2.757c1.65.85,3.375,1.623,5.132,2.339,1.741.745,3.555,1.422,5.312,2.07l-.789,3.2c-2.012-.317-3.924-.764-5.872-1.254-1.929-.524-3.85-1.115-5.766-1.823a33.5,33.5,0,0,1-5.689-2.7,17.06,17.06,0,0,1-2.78-2.1,8.734,8.734,0,0,1-2.372-3.576,6.85,6.85,0,0,1-.278-1.285l-.032-.338-.012-.247-.017-.451c-.013-.592,0-1.152.03-1.7.058-1.093.178-2.134.326-3.158.293-2.046.683-4.02,1.141-5.969a115.358,115.358,0,0,1,3.27-11.475Z" transform="translate(-201.273 -180.156)" fill="#e4897b"/>
    <path id="Trazado_610572" data-name="Trazado 610572" d="M350.3,290.483c-2.6.789-6.57,10.979-6.57,10.979l10.072,7.2s4.528-8.713,3.438-12.068C356.1,293.1,353.263,289.582,350.3,290.483Z" transform="translate(-202.182 -169.905)" fill="#33ece0"/>
    <path id="Trazado_610573" data-name="Trazado 610573" d="M350.3,290.483c-2.6.789-6.57,10.979-6.57,10.979l10.072,7.2s4.528-8.713,3.438-12.068C356.1,293.1,353.263,289.582,350.3,290.483Z" transform="translate(-202.182 -169.905)" opacity="0.2"/>
    <path id="Trazado_610574" data-name="Trazado 610574" d="M392.748,385.5l6.052-1.533-2.883,5.812s-4.093.175-5.444-2.108Z" transform="translate(-229.535 -224.695)" fill="#e4897b"/>
    <path id="Trazado_610575" data-name="Trazado 610575" d="M411.369,386.176l-2.677,4.736-5.1-1.131,2.883-5.812Z" transform="translate(-237.215 -224.695)" fill="#e4897b"/>
    <path id="Trazado_610576" data-name="Trazado 610576" d="M474.965,340.79H429.488L422.9,367.644h45.477Z" transform="translate(-248.509 -199.428)" fill="#0c544f"/>
    <path id="Trazado_610577" data-name="Trazado 610577" d="M468.112,405.529l-.184,1.485H422.449l.184-1.485Z" transform="translate(-248.247 -237.312)" fill="#0c544f"/>
    <path id="Trazado_610578" data-name="Trazado 610578" d="M414.612,217.177c6.13,2.454,6.633,5.984,6.309,3.488a9.368,9.368,0,0,0-5.53-6.975C414.152,213.19,411.932,216.1,414.612,217.177Z" transform="translate(-242.92 -125.016)" fill="#0c544f"/>
    <path id="Trazado_610579" data-name="Trazado 610579" d="M388.158,229.686l-.411.48a.358.358,0,0,0,.03.5l3.3,3.019a.358.358,0,0,0,.485,0l.57-.529a.357.357,0,0,0-.01-.534l-3.464-2.97A.357.357,0,0,0,388.158,229.686Z" transform="translate(-227.889 -134.337)" fill="#33ece0"/>
    <path id="Trazado_610580" data-name="Trazado 610580" d="M388.158,229.686l-.411.48a.358.358,0,0,0,.03.5l3.3,3.019a.358.358,0,0,0,.485,0l.57-.529a.357.357,0,0,0-.01-.534l-3.464-2.97A.357.357,0,0,0,388.158,229.686Z" transform="translate(-227.889 -134.337)" opacity="0.3"/>
    <path id="Trazado_610581" data-name="Trazado 610581" d="M382.2,286.029c.068.534.657,3.164,5.668,4.151a12.424,12.424,0,0,0-2.326,5.494s-8.777-3.439-6.119-9.02a.331.331,0,0,1,.227-.179l2.442-.516A.087.087,0,0,1,382.2,286.029Z" transform="translate(-222.772 -167.339)" fill="#33ece0"/>
    <path id="Trazado_610582" data-name="Trazado 610582" d="M382.2,286.029c.068.534.657,3.164,5.668,4.151a12.424,12.424,0,0,0-2.326,5.494s-8.777-3.439-6.119-9.02a.331.331,0,0,1,.227-.179l2.442-.516A.087.087,0,0,1,382.2,286.029Z" transform="translate(-222.772 -167.339)" fill="#fafafa" opacity="0.6"/>
    <path id="Trazado_610583" data-name="Trazado 610583" d="M411.084,286.905c.6.638,2.246,2.8-1.915,3.8a8,8,0,0,1,3.369,5.282s6.235-4.283.565-8.941a.093.093,0,0,0-.046-.02l-1.9-.263A.087.087,0,0,0,411.084,286.905Z" transform="translate(-240.476 -167.809)" fill="#33ece0"/>
    <path id="Trazado_610584" data-name="Trazado 610584" d="M411.084,286.905c.6.638,2.246,2.8-1.915,3.8a8,8,0,0,1,3.369,5.282s6.235-4.283.565-8.941a.093.093,0,0,0-.046-.02l-1.9-.263A.087.087,0,0,0,411.084,286.905Z" transform="translate(-240.476 -167.809)" fill="#fafafa" opacity="0.6"/>
    <path id="Trazado_610585" data-name="Trazado 610585" d="M501.537,161.748c-1.069-11.013-10.749-19.937-21.621-19.933s-18.817,8.937-17.748,19.95A22.5,22.5,0,0,0,473.6,178.977l-.176,6.995,5.833-4.8a20.128,20.128,0,0,0,4.537.524C494.66,181.693,502.606,172.761,501.537,161.748Z" transform="translate(-271.435 -82.989)" fill="#33ece0"/>
    <path id="Trazado_610586" data-name="Trazado 610586" d="M501.537,161.748c-1.069-11.013-10.749-19.937-21.621-19.933s-18.817,8.937-17.748,19.95A22.5,22.5,0,0,0,473.6,178.977l-.176,6.995,5.833-4.8a20.128,20.128,0,0,0,4.537.524C494.66,181.693,502.606,172.761,501.537,161.748Z" transform="translate(-271.435 -82.989)" fill="#fafafa" opacity="0.6"/>
    <path id="Trazado_610587" data-name="Trazado 610587" d="M493.823,172.2c-4.816-1.445-8.214-6.6-8.214-6.6s-1.489-.084-1.427,1.27a7.448,7.448,0,0,0,2.417,4.921l-2.26-.128a7.113,7.113,0,0,0-2.352.256l-.725.207a2.27,2.27,0,0,0-1.451,3l1.5,4.427a6.3,6.3,0,0,0,2.78,3.394,5.685,5.685,0,0,0,3.691.748c2.257-.339,5.77-.871,6.377-.98l1.616-.139-.411-9.932Z" transform="translate(-281.731 -96.909)" fill="#fafafa"/>
    <path id="Trazado_610588" data-name="Trazado 610588" d="M522.354,191.278l-6.3,0a1.013,1.013,0,0,1-.978-.9l-1.1-11.281a.8.8,0,0,1,.8-.9l6.3,0a1.013,1.013,0,0,1,.978.9l1.1,11.281A.8.8,0,0,1,522.354,191.278Z" transform="translate(-301.81 -104.278)" fill="#33ece0"/>
    <path id="Trazado_610589" data-name="Trazado 610589" d="M240.3,275.072l-6.293-5.983a22.2,22.2,0,0,0-.045-3.74c-1.182-12.171-11.88-22.034-23.894-22.028s-20.8,9.876-19.614,22.047S202.336,287.4,214.35,287.4a19.318,19.318,0,0,0,17.756-11.006Z" transform="translate(-112.425 -142.39)" fill="#33ece0"/>
    <path id="Trazado_610590" data-name="Trazado 610590" d="M234.287,274.234c-3.286-3.031-8.138-3.029-10.836,0-3.287-3.031-8.138-3.029-10.836,0s-2.221,7.948,1.066,10.978l11.9,10.973,9.771-10.983C238.051,282.18,237.575,277.265,234.287,274.234Z" transform="translate(-124.43 -159.151)" fill="#33ece0"/>
    <path id="Trazado_610591" data-name="Trazado 610591" d="M234.287,274.234c-3.286-3.031-8.138-3.029-10.836,0-3.287-3.031-8.138-3.029-10.836,0s-2.221,7.948,1.066,10.978l11.9,10.973,9.771-10.983C238.051,282.18,237.575,277.265,234.287,274.234Z" transform="translate(-124.43 -159.151)" fill="#fafafa" opacity="0.6"/>
  </g>
</svg>
