<svg xmlns="http://www.w3.org/2000/svg" width="120" height="120" viewBox="0 0 120 120">
  <g id="Grupo_1071390" data-name="Grupo 1071390" transform="translate(-285 -9975)">
    <circle id="Elipse_4744" data-name="Elipse 4744" cx="60" cy="60" r="60" transform="translate(285 9975)" fill="#fff198"/>
    <g id="analisis_3_" data-name="analisis (3)" transform="translate(302 9986.979)">
      <g id="Grupo_1083803" data-name="Grupo 1083803" transform="translate(1.36 7.918)">
        <g id="Grupo_1083801" data-name="Grupo 1083801" transform="translate(0 0)">
          <path id="Trazado_838448" data-name="Trazado 838448" d="M7.5,50.1v56.107A2.487,2.487,0,0,0,9.987,108.7H83.3a2.487,2.487,0,0,0,2.487-2.487V50.1A2.487,2.487,0,0,0,83.3,47.615H9.987A2.487,2.487,0,0,0,7.5,50.1Z" transform="translate(-7.5 -41.53)" fill="#ebeef2"/>
          <path id="Trazado_838449" data-name="Trazado 838449" d="M405.192,47.616h-4.5a2.487,2.487,0,0,1,2.487,2.487V106.21a2.487,2.487,0,0,1-2.487,2.487h4.5a2.487,2.487,0,0,0,2.487-2.487V50.1A2.487,2.487,0,0,0,405.192,47.616Z" transform="translate(-329.392 -41.531)" fill="#d1d6de"/>
          <g id="Grupo_1083800" data-name="Grupo 1083800" transform="translate(17.247 13.872)">
            <g id="Grupo_1083796" data-name="Grupo 1083796" transform="translate(0 17.438)">
              <circle id="Elipse_6001" data-name="Elipse 6001" cx="3.173" cy="3.173" r="3.173" fill="#5c9cee"/>
            </g>
            <g id="Grupo_1083797" data-name="Grupo 1083797" transform="translate(12.482 10.351)">
              <circle id="Elipse_6002" data-name="Elipse 6002" cx="3.173" cy="3.173" r="3.173" fill="#f2df33"/>
            </g>
            <g id="Grupo_1083798" data-name="Grupo 1083798" transform="translate(24.964 17.438)">
              <circle id="Elipse_6003" data-name="Elipse 6003" cx="3.173" cy="3.173" r="3.173" fill="#ed5575"/>
            </g>
            <g id="Grupo_1083799" data-name="Grupo 1083799" transform="translate(37.446)">
              <circle id="Elipse_6004" data-name="Elipse 6004" cx="3.173" cy="3.173" r="3.173" fill="#9fd479"/>
            </g>
          </g>
          <path id="Trazado_838450" data-name="Trazado 838450" d="M80.428,388.818v-4.353h51.839v4.353a1.732,1.732,0,0,1-1.732,1.732H82.16A1.732,1.732,0,0,1,80.428,388.818Z" transform="translate(-67.204 -317.299)" fill="#f2df33"/>
          <path id="Trazado_838451" data-name="Trazado 838451" d="M334.239,384.465v4.353a1.732,1.732,0,0,1-1.732,1.732h4.4a1.732,1.732,0,0,0,1.732-1.732v-4.353Z" transform="translate(-273.573 -317.299)" fill="#fcab29"/>
          <path id="Trazado_838452" data-name="Trazado 838452" d="M189.243,20.142V16.109a2.052,2.052,0,0,1,2.052-2.052h8.272a2.052,2.052,0,0,1,2.052,2.052v4.033H189.243Z" transform="translate(-156.287 -14.057)" fill="#f2df33"/>
          <path id="Trazado_838453" data-name="Trazado 838453" d="M226.184,14.058h-4.428a2.052,2.052,0,0,1,2.052,2.052v4.033h4.428V16.11A2.052,2.052,0,0,0,226.184,14.058Z" transform="translate(-182.905 -14.058)" fill="#fcab29"/>
          <rect id="Rectángulo_385221" data-name="Rectángulo 385221" width="5.517" height="12.017" transform="translate(17.662 47.331)" fill="#48cfb7"/>
          <rect id="Rectángulo_385222" data-name="Rectángulo 385222" width="5.517" height="18.967" transform="translate(30.144 40.381)" fill="#48cfb7"/>
          <rect id="Rectángulo_385223" data-name="Rectángulo 385223" width="5.517" height="12.017" transform="translate(42.626 47.331)" fill="#48cfb7"/>
          <rect id="Rectángulo_385224" data-name="Rectángulo 385224" width="5.517" height="24.387" transform="translate(55.108 34.961)" fill="#48cfb7"/>
        </g>
        <g id="Grupo_1083802" data-name="Grupo 1083802" transform="translate(53.585 25.005)">
          <path id="Trazado_838454" data-name="Trazado 838454" d="M409.456,294.871l10.124,17.536a3.81,3.81,0,0,0,5.2,1.395h0a3.81,3.81,0,0,0,1.395-5.2l-10.124-17.536Z" transform="translate(-390.155 -265.837)" fill="#ed5575"/>
          <path id="Trazado_838455" data-name="Trazado 838455" d="M416.055,291.06l-6.6,3.81,3.946,6.836a20.751,20.751,0,0,0,6.6-3.81Z" transform="translate(-390.155 -265.836)" fill="#cc3a60"/>
          <circle id="Elipse_6005" data-name="Elipse 6005" cx="16.415" cy="16.415" r="16.415" fill="#f2df33"/>
          <circle id="Elipse_6006" data-name="Elipse 6006" cx="11.552" cy="11.552" r="11.552" transform="translate(4.863 4.863)" fill="#5c9cee"/>
        </g>
      </g>
      <g id="Grupo_1083804" data-name="Grupo 1083804" transform="translate(0 6.558)">
        <path id="Trazado_838456" data-name="Trazado 838456" d="M137.1,92.128a4.539,4.539,0,1,0-3.622-1.811l-7.448,10.409a4.521,4.521,0,0,0-4.5.99L116.565,98.9a4.533,4.533,0,1,0-8.863,0l-4.965,2.817a4.527,4.527,0,1,0,1.346,2.364l4.965-2.817a4.522,4.522,0,0,0,6.171,0l4.965,2.817a4.534,4.534,0,1,0,8.054-1.77L135.685,91.9A4.519,4.519,0,0,0,137.1,92.128Zm0-6.347a1.813,1.813,0,1,1-1.813,1.813A1.815,1.815,0,0,1,137.1,85.781ZM99.651,106.846a1.813,1.813,0,1,1,1.813-1.813A1.815,1.815,0,0,1,99.651,106.846Zm12.482-7.087a1.813,1.813,0,1,1,1.813-1.813A1.815,1.815,0,0,1,112.133,99.759Zm12.482,7.087a1.813,1.813,0,1,1,1.813-1.813A1.815,1.815,0,0,1,124.615,106.846Z" transform="translate(-77.87 -69.189)"/>
        <path id="Trazado_838457" data-name="Trazado 838457" d="M75.94,101.2H3.847A1.128,1.128,0,0,1,2.72,100.07V43.963a1.128,1.128,0,0,1,1.127-1.127h6.411a1.36,1.36,0,1,0,0-2.72H3.847A3.851,3.851,0,0,0,0,43.963V100.07a3.851,3.851,0,0,0,3.847,3.847h9.377v2.993A3.1,3.1,0,0,0,16.316,110H29.929l-6.408,12.511a1.36,1.36,0,1,0,2.421,1.24L32.985,110H48.022l7.043,13.751a1.36,1.36,0,1,0,2.421-1.24L51.078,110H64.691a3.1,3.1,0,0,0,3.092-3.092v-2.993H75.94a1.36,1.36,0,0,0,0-2.72ZM65.063,106.91a.373.373,0,0,1-.372.372H16.316a.373.373,0,0,1-.372-.372v-2.993H65.063Z" transform="translate(0 -34.031)"/>
        <path id="Trazado_838458" data-name="Trazado 838458" d="M80.431,15.363h61.462a1.128,1.128,0,0,1,1.127,1.127V29.421a1.36,1.36,0,1,0,2.72,0V16.49a3.851,3.851,0,0,0-3.847-3.847H112.785V9.97a3.416,3.416,0,0,0-3.412-3.412H101.1A3.416,3.416,0,0,0,97.689,9.97v2.673H80.431a1.36,1.36,0,1,0,0,2.72ZM100.409,9.97a.693.693,0,0,1,.692-.692h8.272a.693.693,0,0,1,.692.692v2.673h-9.656V9.97Z" transform="translate(-64.733 -6.558)"/>
        <path id="Trazado_838459" data-name="Trazado 838459" d="M98.762,267.576a1.36,1.36,0,0,0-1.36,1.36v12.017a1.36,1.36,0,0,0,1.36,1.36h5.517a1.36,1.36,0,0,0,1.36-1.36V268.936a1.36,1.36,0,0,0-1.36-1.36Zm4.157,12.017h-2.8v-9.3h2.8Z" transform="translate(-79.74 -220.245)"/>
        <path id="Trazado_838460" data-name="Trazado 838460" d="M167.6,229.248a1.36,1.36,0,0,0-1.36,1.36v18.967a1.36,1.36,0,0,0,1.36,1.36h5.517a1.36,1.36,0,0,0,1.36-1.36V230.608a1.36,1.36,0,0,0-1.36-1.36Zm4.158,18.967h-2.8V231.968h2.8Z" transform="translate(-136.093 -188.868)"/>
        <path id="Trazado_838461" data-name="Trazado 838461" d="M236.433,267.576a1.36,1.36,0,0,0-1.36,1.36v12.017a1.36,1.36,0,0,0,1.36,1.36h5.517a1.36,1.36,0,0,0,1.36-1.36V268.936a1.36,1.36,0,0,0-1.36-1.36Zm4.157,12.017h-2.8v-9.3h2.8Z" transform="translate(-192.447 -220.245)"/>
        <path id="Trazado_838462" data-name="Trazado 838462" d="M305.269,311.832a1.36,1.36,0,0,0-1.36,1.36v3.992a1.36,1.36,0,0,0,1.36,1.36h5.517a1.36,1.36,0,1,0,0-2.72h-4.157v-2.632A1.36,1.36,0,0,0,305.269,311.832Z" transform="translate(-248.801 -256.477)"/>
        <path id="Trazado_838463" data-name="Trazado 838463" d="M334.091,187.911l-7.8-13.514a17.784,17.784,0,1,0-17.585,5.019,17.873,17.873,0,0,0,4.629.613,17.552,17.552,0,0,0,4-.462l7.8,13.514a5.17,5.17,0,1,0,8.954-5.17Zm-24.683-11.123a15.056,15.056,0,1,1,11.424-1.5A14.958,14.958,0,0,1,309.408,176.788Zm21.432,15.829a2.452,2.452,0,0,1-3.347-.9l-7.5-13a17.849,17.849,0,0,0,4.241-2.451l7.507,13a2.447,2.447,0,0,1-.9,3.347Z" transform="translate(-241.944 -119.466)"/>
        <path id="Trazado_838464" data-name="Trazado 838464" d="M347.549,187.991a12.87,12.87,0,0,0-.644-9.323,1.36,1.36,0,1,0-2.46,1.159,10.186,10.186,0,1,1-3.071-3.795,1.36,1.36,0,1,0,1.641-2.169,12.915,12.915,0,1,0,4.534,14.128Z" transform="translate(-263.857 -141.379)"/>
      </g>
    </g>
  </g>
</svg>
