<svg xmlns="http://www.w3.org/2000/svg" width="120" height="120" viewBox="0 0 120 120">
  <g id="Grupo_1071391" data-name="Grupo 1071391" transform="translate(-285 -9975)">
    <circle id="Elipse_4744" data-name="Elipse 4744" cx="60" cy="60" r="60" transform="translate(285 9975)" fill="#fff198"/>
    <g id="cronograma" transform="translate(271.167 9994.008)">
      <g id="Grupo_1083805" data-name="Grupo 1083805" transform="translate(40.304 5.55)">
        <path id="Trazado_838465" data-name="Trazado 838465" d="M110.728,157.871H49.537a2.934,2.934,0,0,1-2.934-2.933V91.785h67.059v41.1l-1.6,6.93,1.6,5.552v9.567A2.933,2.933,0,0,1,110.728,157.871Z" transform="translate(-46.603 -82.638)" fill="#f9f1f4"/>
        <path id="Trazado_838466" data-name="Trazado 838466" d="M113.663,43.81H46.6V37.842a3.179,3.179,0,0,1,3.179-3.179h60.7a3.179,3.179,0,0,1,3.179,3.179V43.81Z" transform="translate(-46.604 -34.663)" fill="#ff6472"/>
        <path id="Trazado_838467" data-name="Trazado 838467" d="M108.859,91.785v59.331a1.951,1.951,0,0,1-1.951,1.951H46.6v1.87a2.934,2.934,0,0,0,2.934,2.934h61.192a2.934,2.934,0,0,0,2.934-2.934V91.785Z" transform="translate(-46.604 -82.638)" fill="#ebe1e5"/>
        <path id="Trazado_838468" data-name="Trazado 838468" d="M420.346,34.663h-4.8a3.179,3.179,0,0,1,3.179,3.179V43.81h4.8V37.842A3.179,3.179,0,0,0,420.346,34.663Z" transform="translate(-356.466 -34.663)" fill="#ff4255"/>
        <path id="Trazado_838469" data-name="Trazado 838469" d="M145.626,411.774H96.8a1.286,1.286,0,0,1-1.286-1.286v-7.45h51.394v7.45A1.286,1.286,0,0,1,145.626,411.774Z" transform="translate(-87.685 -344.052)" fill="#ffe35e"/>
        <rect id="Rectángulo_385225" data-name="Rectángulo 385225" width="12.849" height="8.736" transform="translate(46.378 32.779)" fill="#00abff"/>
        <rect id="Rectángulo_385226" data-name="Rectángulo 385226" width="12.849" height="8.736" transform="translate(46.378 41.514)" fill="#ffe35e"/>
        <rect id="Rectángulo_385227" data-name="Rectángulo 385227" width="12.849" height="8.736" transform="translate(20.681 50.25)" fill="#ffe35e"/>
        <path id="Trazado_838470" data-name="Trazado 838470" d="M347.8,411.774H336.242v-8.736h12.849v7.45A1.286,1.286,0,0,1,347.8,411.774Z" transform="translate(-289.864 -344.052)" fill="#ffe35e"/>
        <rect id="Rectángulo_385228" data-name="Rectángulo 385228" width="12.849" height="8.736" transform="translate(33.53 58.986)" fill="#00abff"/>
        <rect id="Rectángulo_385229" data-name="Rectángulo 385229" width="12.849" height="8.736" transform="translate(33.53 32.779)" fill="#ff6472"/>
        <rect id="Rectángulo_385230" data-name="Rectángulo 385230" width="12.849" height="8.736" transform="translate(20.681 32.779)" fill="#00abff"/>
        <rect id="Rectángulo_385231" data-name="Rectángulo 385231" width="12.849" height="8.736" transform="translate(7.832 32.779)" fill="#ff6472"/>
        <path id="Trazado_838471" data-name="Trazado 838471" d="M281.679,193.55H256v-8.736h24.393a1.286,1.286,0,0,1,1.286,1.286Z" transform="translate(-222.47 -160.771)" fill="#ffe35e"/>
        <rect id="Rectángulo_385232" data-name="Rectángulo 385232" width="12.849" height="8.736" transform="translate(20.681 24.043)" fill="#ff6472"/>
        <path id="Trazado_838472" data-name="Trazado 838472" d="M108.366,193.55H95.517V186.1a1.286,1.286,0,0,1,1.286-1.286h11.563Z" transform="translate(-87.685 -160.771)" fill="#00abff"/>
        <rect id="Rectángulo_385233" data-name="Rectángulo 385233" width="51.394" height="8.736" transform="translate(7.832 41.514)" fill="#ffe35e"/>
        <rect id="Rectángulo_385234" data-name="Rectángulo 385234" width="51.394" height="8.736" transform="translate(7.832 50.25)" fill="#ff6472"/>
      </g>
      <g id="Grupo_1083806" data-name="Grupo 1083806" transform="translate(39.103)">
        <path id="Trazado_838473" data-name="Trazado 838473" d="M104.429,214.111H43.238a4.139,4.139,0,0,1-4.135-4.134V158.519a1.2,1.2,0,0,1,2.4,0v51.458a1.735,1.735,0,0,0,1.733,1.733h61.192a1.735,1.735,0,0,0,1.733-1.733V197.342a1.2,1.2,0,0,1,2.4,0v12.635A4.139,4.139,0,0,1,104.429,214.111Z" transform="translate(-39.103 -132.128)"/>
        <path id="Trazado_838474" data-name="Trazado 838474" d="M107.364,131.44a1.2,1.2,0,0,1-1.2-1.2V86.687H41.506v4.889a1.2,1.2,0,1,1-2.4,0v-6.09a1.2,1.2,0,0,1,1.2-1.2h67.059a1.2,1.2,0,0,1,1.2,1.2v44.753A1.2,1.2,0,0,1,107.364,131.44Z" transform="translate(-39.104 -70.789)"/>
        <path id="Trazado_838475" data-name="Trazado 838475" d="M107.364,38.711H40.3a1.2,1.2,0,0,1-1.2-1.2V31.543a4.385,4.385,0,0,1,4.38-4.38h60.7a4.385,4.385,0,0,1,4.38,4.38v5.968A1.2,1.2,0,0,1,107.364,38.711Zm-65.858-2.4h64.657V31.543a1.98,1.98,0,0,0-1.978-1.978h-60.7a1.98,1.98,0,0,0-1.978,1.978Z" transform="translate(-39.104 -22.814)"/>
        <path id="Línea_952" data-name="Línea 952" d="M-6.3,2.48a1.2,1.2,0,0,1-1.2-1.2V-6.3A1.2,1.2,0,0,1-6.3-7.5,1.2,1.2,0,0,1-5.1-6.3V1.279A1.2,1.2,0,0,1-6.3,2.48Z" transform="translate(15.314 7.5)"/>
        <path id="Línea_953" data-name="Línea 953" d="M-6.3,2.48a1.2,1.2,0,0,1-1.2-1.2V-6.3A1.2,1.2,0,0,1-6.3-7.5,1.2,1.2,0,0,1-5.1-6.3V1.279A1.2,1.2,0,0,1-6.3,2.48Z" transform="translate(23.88 7.5)"/>
        <path id="Línea_954" data-name="Línea 954" d="M-6.3,2.48a1.2,1.2,0,0,1-1.2-1.2V-6.3A1.2,1.2,0,0,1-6.3-7.5,1.2,1.2,0,0,1-5.1-6.3V1.279A1.2,1.2,0,0,1-6.3,2.48Z" transform="translate(32.445 7.5)"/>
        <path id="Línea_955" data-name="Línea 955" d="M-6.3,2.48a1.2,1.2,0,0,1-1.2-1.2V-6.3A1.2,1.2,0,0,1-6.3-7.5,1.2,1.2,0,0,1-5.1-6.3V1.279A1.2,1.2,0,0,1-6.3,2.48Z" transform="translate(41.011 7.5)"/>
        <path id="Línea_956" data-name="Línea 956" d="M-6.3,2.48a1.2,1.2,0,0,1-1.2-1.2V-6.3A1.2,1.2,0,0,1-6.3-7.5,1.2,1.2,0,0,1-5.1-6.3V1.279A1.2,1.2,0,0,1-6.3,2.48Z" transform="translate(49.577 7.5)"/>
        <path id="Línea_957" data-name="Línea 957" d="M-6.3,2.48a1.2,1.2,0,0,1-1.2-1.2V-6.3A1.2,1.2,0,0,1-6.3-7.5,1.2,1.2,0,0,1-5.1-6.3V1.279A1.2,1.2,0,0,1-6.3,2.48Z" transform="translate(58.143 7.5)"/>
        <path id="Línea_958" data-name="Línea 958" d="M-6.3,2.48a1.2,1.2,0,0,1-1.2-1.2V-6.3A1.2,1.2,0,0,1-6.3-7.5,1.2,1.2,0,0,1-5.1-6.3V1.279A1.2,1.2,0,0,1-6.3,2.48Z" transform="translate(66.708 7.5)"/>
        <path id="Rectángulo_385235" data-name="Rectángulo 385235" d="M-6.3-7.5H6.55a1.2,1.2,0,0,1,1.2,1.2V2.437a1.2,1.2,0,0,1-1.2,1.2H-6.3a1.2,1.2,0,0,1-1.2-1.2V-6.3A1.2,1.2,0,0,1-6.3-7.5ZM5.349-5.1H-5.1V1.236H5.349Z" transform="translate(53.878 44.628)"/>
        <path id="Rectángulo_385236" data-name="Rectángulo 385236" d="M-6.3-7.5H6.55a1.2,1.2,0,0,1,1.2,1.2V2.437a1.2,1.2,0,0,1-1.2,1.2H-6.3a1.2,1.2,0,0,1-1.2-1.2V-6.3A1.2,1.2,0,0,1-6.3-7.5ZM5.349-5.1H-5.1V1.236H5.349Z" transform="translate(53.878 53.364)"/>
        <path id="Rectángulo_385237" data-name="Rectángulo 385237" d="M-6.3-7.5H6.55a1.2,1.2,0,0,1,1.2,1.2V2.437a1.2,1.2,0,0,1-1.2,1.2H-6.3a1.2,1.2,0,0,1-1.2-1.2V-6.3A1.2,1.2,0,0,1-6.3-7.5ZM5.349-5.1H-5.1V1.236H5.349Z" transform="translate(28.181 62.099)"/>
        <path id="Trazado_838476" data-name="Trazado 838476" d="M341.506,406.676H329.943a1.2,1.2,0,0,1-1.2-1.2v-8.736a1.2,1.2,0,0,1,1.2-1.2h12.849a1.2,1.2,0,0,1,1.2,1.2v7.45A2.49,2.49,0,0,1,341.506,406.676Zm-10.362-2.4h10.362a.085.085,0,0,0,.085-.085V397.94H331.144Z" transform="translate(-282.364 -332.203)"/>
        <path id="Rectángulo_385238" data-name="Rectángulo 385238" d="M-6.3-7.5H6.55a1.2,1.2,0,0,1,1.2,1.2V2.437a1.2,1.2,0,0,1-1.2,1.2H-6.3a1.2,1.2,0,0,1-1.2-1.2V-6.3A1.2,1.2,0,0,1-6.3-7.5ZM5.349-5.1H-5.1V1.236H5.349Z" transform="translate(41.03 70.835)"/>
        <path id="Rectángulo_385239" data-name="Rectángulo 385239" d="M-6.3-7.5H6.55a1.2,1.2,0,0,1,1.2,1.2V2.437a1.2,1.2,0,0,1-1.2,1.2H-6.3a1.2,1.2,0,0,1-1.2-1.2V-6.3A1.2,1.2,0,0,1-6.3-7.5ZM5.349-5.1H-5.1V1.236H5.349Z" transform="translate(41.03 44.628)"/>
        <path id="Rectángulo_385240" data-name="Rectángulo 385240" d="M-6.3-7.5H6.55a1.2,1.2,0,0,1,1.2,1.2V2.437a1.2,1.2,0,0,1-1.2,1.2H-6.3a1.2,1.2,0,0,1-1.2-1.2V-6.3A1.2,1.2,0,0,1-6.3-7.5ZM5.349-5.1H-5.1V1.236H5.349Z" transform="translate(28.181 44.628)"/>
        <path id="Rectángulo_385241" data-name="Rectángulo 385241" d="M-6.3-7.5H6.55a1.2,1.2,0,0,1,1.2,1.2V2.437a1.2,1.2,0,0,1-1.2,1.2H-6.3a1.2,1.2,0,0,1-1.2-1.2V-6.3A1.2,1.2,0,0,1-6.3-7.5ZM5.349-5.1H-5.1V1.236H5.349Z" transform="translate(15.332 44.628)"/>
        <path id="Trazado_838477" data-name="Trazado 838477" d="M275.38,188.452H249.7a1.2,1.2,0,0,1-1.2-1.2v-8.736a1.2,1.2,0,0,1,1.2-1.2h24.393a2.489,2.489,0,0,1,2.487,2.487v7.45A1.2,1.2,0,0,1,275.38,188.452Zm-24.478-2.4h23.277V179.8L250.9,179.72Z" transform="translate(-214.97 -148.922)"/>
        <path id="Rectángulo_385242" data-name="Rectángulo 385242" d="M-6.3-7.5H6.55a1.2,1.2,0,0,1,1.2,1.2V2.437a1.2,1.2,0,0,1-1.2,1.2H-6.3a1.2,1.2,0,0,1-1.2-1.2V-6.3A1.2,1.2,0,0,1-6.3-7.5ZM5.349-5.1H-5.1V1.236H5.349Z" transform="translate(28.181 35.892)"/>
        <path id="Trazado_838478" data-name="Trazado 838478" d="M102.066,188.452H89.218a1.2,1.2,0,0,1-1.2-1.2V179.8a2.489,2.489,0,0,1,2.487-2.487h11.563a1.2,1.2,0,0,1,1.2,1.2v8.736A1.2,1.2,0,0,1,102.066,188.452Zm-11.634-2.4h10.433v-6.334H90.5Z" transform="translate(-80.185 -148.922)"/>
        <path id="Rectángulo_385243" data-name="Rectángulo 385243" d="M-6.3-7.5H45.1a1.2,1.2,0,0,1,1.2,1.2V2.437a1.2,1.2,0,0,1-1.2,1.2H-6.3a1.2,1.2,0,0,1-1.2-1.2V-6.3A1.2,1.2,0,0,1-6.3-7.5ZM43.894-5.1H-5.1V1.236H43.894Z" transform="translate(15.332 53.364)"/>
        <path id="Rectángulo_385244" data-name="Rectángulo 385244" d="M-6.3-7.5H45.1a1.2,1.2,0,0,1,1.2,1.2V2.437a1.2,1.2,0,0,1-1.2,1.2H-6.3a1.2,1.2,0,0,1-1.2-1.2V-6.3A1.2,1.2,0,0,1-6.3-7.5ZM43.894-5.1H-5.1V1.236H43.894Z" transform="translate(15.332 62.099)"/>
        <path id="Trazado_838479" data-name="Trazado 838479" d="M139.327,406.676H90.5a2.489,2.489,0,0,1-2.487-2.487v-7.45a1.2,1.2,0,0,1,1.2-1.2h51.394a1.2,1.2,0,0,1,1.2,1.2v7.45A2.489,2.489,0,0,1,139.327,406.676ZM90.419,397.94v6.249l48.908.085a.085.085,0,0,0,.085-.085V397.94Z" transform="translate(-80.185 -332.203)"/>
        <path id="Línea_959" data-name="Línea 959" d="M1.444-5.1H-6.3A1.2,1.2,0,0,1-7.5-6.3,1.2,1.2,0,0,1-6.3-7.5H1.444a1.2,1.2,0,0,1,1.2,1.2A1.2,1.2,0,0,1,1.444-5.1Z" transform="translate(15.314 29.605)"/>
        <path id="Línea_960" data-name="Línea 960" d="M1.444-5.1H-6.3A1.2,1.2,0,0,1-7.5-6.3,1.2,1.2,0,0,1-6.3-7.5H1.444a1.2,1.2,0,0,1,1.2,1.2A1.2,1.2,0,0,1,1.444-5.1Z" transform="translate(29.864 29.605)"/>
        <path id="Línea_961" data-name="Línea 961" d="M1.444-5.1H-6.3A1.2,1.2,0,0,1-7.5-6.3,1.2,1.2,0,0,1-6.3-7.5H1.444a1.2,1.2,0,0,1,1.2,1.2A1.2,1.2,0,0,1,1.444-5.1Z" transform="translate(44.415 29.605)"/>
        <path id="Línea_962" data-name="Línea 962" d="M1.444-5.1H-6.3A1.2,1.2,0,0,1-7.5-6.3,1.2,1.2,0,0,1-6.3-7.5H1.444a1.2,1.2,0,0,1,1.2,1.2A1.2,1.2,0,0,1,1.444-5.1Z" transform="translate(58.965 29.605)"/>
      </g>
    </g>
  </g>
</svg>
