<svg xmlns="http://www.w3.org/2000/svg" width="120" height="120" viewBox="0 0 120 120">
  <g id="Grupo_1071393" data-name="Grupo 1071393" transform="translate(-285 -9975)">
    <circle id="Elipse_4744" data-name="Elipse 4744" cx="60" cy="60" r="60" transform="translate(285 9975)" fill="#fff198"/>
    <g id="socializar_1_" data-name="socializar (1)" transform="translate(277.975 9987.462)">
      <g id="Grupo_1083820" data-name="Grupo 1083820" transform="translate(25.736 5.145)">
        <path id="Trazado_838480" data-name="Trazado 838480" d="M299.6,60.173H285.123a1.638,1.638,0,0,1-1.635-1.635V20.663a1.638,1.638,0,0,1,1.635-1.635h22.809l7.781,7.781V58.538a1.638,1.638,0,0,1-1.635,1.635Z" transform="translate(-242.269 -17.714)" fill="#b6dbff" fill-rule="evenodd"/>
        <path id="Trazado_838481" data-name="Trazado 838481" d="M309.135,60.173H296.523a1.638,1.638,0,0,1-1.635-1.635V20.663a1.638,1.638,0,0,1,1.634-1.635h20.944l7.781,7.781V58.538a1.638,1.638,0,0,1-1.635,1.635Z" transform="translate(-251.803 -17.714)" fill="#e3f1ff" fill-rule="evenodd"/>
        <path id="Trazado_838482" data-name="Trazado 838482" d="M440.646,26.809H434.78a1.919,1.919,0,0,1-1.916-1.916V19.028l7.781,7.781Z" transform="translate(-367.201 -17.714)" fill="#7cb5ef" fill-rule="evenodd"/>
        <path id="Trazado_838483" data-name="Trazado 838483" d="M53.481,11A21.886,21.886,0,0,0,39.172,49.447l-1.606,10.5,8.216-6.568A21.888,21.888,0,1,0,53.481,11Z" transform="translate(-31.595 -11)" fill="#fcdb35" fill-rule="evenodd"/>
        <path id="Trazado_838484" data-name="Trazado 838484" d="M51.714,11.436A21.886,21.886,0,0,0,39.172,49.811l-1.606,10.5,8.216-6.568a21.782,21.782,0,0,0,5.927,1.323,21.886,21.886,0,0,0,0-43.63Z" transform="translate(-31.595 -11.365)" fill="#ffeb87" fill-rule="evenodd"/>
        <path id="Trazado_838485" data-name="Trazado 838485" d="M78.362,392.278A14.379,14.379,0,0,1,92.68,405.35v4.759H64.044V405.35A14.379,14.379,0,0,1,78.362,392.278Z" transform="translate(-58.734 -329.887)" fill="#9cf" fill-rule="evenodd"/>
        <path id="Trazado_838486" data-name="Trazado 838486" d="M89.168,410.167H64.044v-4.759a14.379,14.379,0,0,1,13.765-13.06,14.884,14.884,0,0,1,11.359,13.06Z" transform="translate(-58.734 -329.945)" fill="#b6dbff" fill-rule="evenodd"/>
      </g>
      <circle id="Elipse_6013" data-name="Elipse 6013" cx="6.848" cy="6.848" r="6.848" transform="translate(38.517 53.795)" fill="#fdb0a0"/>
      <path id="Trazado_838487" data-name="Trazado 838487" d="M115.175,322.565a6.849,6.849,0,0,1,0-13.42,6.849,6.849,0,0,1,0,13.42Z" transform="translate(-71.182 -255.213)" fill="#ffcec0" fill-rule="evenodd"/>
      <path id="Trazado_838488" data-name="Trazado 838488" d="M137.278,392.343l-1.154,11.539,2.533,3.625,2.533-3.625-1.154-11.538q-.685-.066-1.388-.066t-1.369.065Z" transform="translate(-93.283 -324.742)" fill="#f23353" fill-rule="evenodd"/>
      <path id="Trazado_838489" data-name="Trazado 838489" d="M137.278,392.359,136.124,403.9l1.7,2.428,1.7-2.428-.984-9.835-.177-1.766q-.544.011-1.079.062Z" transform="translate(-93.283 -324.758)" fill="#ff5471" fill-rule="evenodd"/>
      <path id="Trazado_838490" data-name="Trazado 838490" d="M303.728,392.278a14.379,14.379,0,0,1,14.318,13.072v4.759H289.41V405.35a14.379,14.379,0,0,1,14.318-13.072Z" transform="translate(-221.486 -324.742)" fill="#2a92fa" fill-rule="evenodd"/>
      <path id="Trazado_838491" data-name="Trazado 838491" d="M314.535,410.167H289.411v-4.759a14.379,14.379,0,0,1,13.765-13.06,14.884,14.884,0,0,1,11.359,13.06Z" transform="translate(-221.486 -324.8)" fill="#4eb1fc" fill-rule="evenodd"/>
      <circle id="Elipse_6014" data-name="Elipse 6014" cx="6.848" cy="6.848" r="6.848" transform="translate(75.395 53.795)" fill="#fdb0a0"/>
      <path id="Trazado_838492" data-name="Trazado 838492" d="M340.542,322.565a6.849,6.849,0,1,1,5.476-6.71A6.85,6.85,0,0,1,340.542,322.565Z" transform="translate(-259.67 -255.213)" fill="#ffcec0" fill-rule="evenodd"/>
      <path id="Trazado_838493" data-name="Trazado 838493" d="M362.644,392.343l-1.154,11.539,2.533,3.625,2.533-3.625L365.4,392.344q-.685-.066-1.388-.066T362.644,392.343Z" transform="translate(-281.771 -324.742)" fill="#f23353" fill-rule="evenodd"/>
      <path id="Trazado_838494" data-name="Trazado 838494" d="M362.644,392.359,361.49,403.9l1.7,2.428,1.7-2.428-.984-9.835-.177-1.766q-.544.011-1.079.062Z" transform="translate(-281.771 -324.758)" fill="#ff5471" fill-rule="evenodd"/>
      <path id="Trazado_838495" data-name="Trazado 838495" d="M119.076,55.373h4.943V71.464l-2.242.21c-3.029.238-6.851.827-9.808.289-2.2-.4-2.759-1.057-5.9-1.057l-1.239,0V56.763c8.363-.545,10-4.186,9.383-11.563a.858.858,0,0,1,.759-.925c5.611-.631,4.449,8.407,4.1,11.1Z" transform="translate(-67.111 -33.659)" fill="#fdb0a0" fill-rule="evenodd"/>
      <path id="Trazado_838496" data-name="Trazado 838496" d="M104.83,58.261V56.766c8.363-.545,10-4.186,9.383-11.563a.858.858,0,0,1,.759-.925,4.141,4.141,0,0,1,1.343.052.859.859,0,0,0-.547.873c.405,4.814.874,12.837-10.938,13.058Z" transform="translate(-67.11 -33.662)" fill="#f29988" fill-rule="evenodd"/>
      <path id="Trazado_838497" data-name="Trazado 838497" d="M171.807,112.256c-.058,1.683-.451,4.846-4.624,4.886a6.8,6.8,0,0,1-3.935,3.314c-1.295.347-1.753-1.228-.679-1.582a5.319,5.319,0,0,0,3.078-2.594,9.147,9.147,0,0,0,1.229-4.024h4.932Z" transform="translate(-114.9 -90.542)" fill="#f29988" fill-rule="evenodd"/>
      <path id="Trazado_838498" data-name="Trazado 838498" d="M196.165,112.256H200.3a2.087,2.087,0,0,1,0,4.173h-4.139a2.086,2.086,0,0,1,0-4.173Z" transform="translate(-141.754 -90.542)" fill="#f29988"/>
      <path id="Trazado_838499" data-name="Trazado 838499" d="M196.164,112.256H200.3a2.093,2.093,0,0,1,2.087,2.087h-8.312a2.093,2.093,0,0,1,2.087-2.087Z" transform="translate(-141.753 -90.542)" fill="#ffcec0" fill-rule="evenodd"/>
      <path id="Trazado_838500" data-name="Trazado 838500" d="M85.206,130.215h1.705a1.162,1.162,0,0,0,1.159-1.159v-14.1a1.162,1.162,0,0,0-1.159-1.159H83.5a1.162,1.162,0,0,0-1.159,1.159v14.1a1.162,1.162,0,0,0,1.159,1.159Z" transform="translate(-48.302 -91.834)" fill="#2a92fa" fill-rule="evenodd"/>
      <rect id="Rect치ngulo_385235" data-name="Rect치ngulo 385235" width="3.312" height="16.414" rx="1.656" transform="translate(34.04 21.967)" fill="#4eb1fc"/>
      <path id="Trazado_838501" data-name="Trazado 838501" d="M191.215,137.758h5.517a2.087,2.087,0,1,1,0,4.173h-5.516a2.087,2.087,0,0,1,0-4.173Z" transform="translate(-137.614 -111.871)" fill="#f29988"/>
      <path id="Trazado_838502" data-name="Trazado 838502" d="M191.216,137.758h5.516a2.093,2.093,0,0,1,2.087,2.087h-9.689A2.093,2.093,0,0,1,191.216,137.758Z" transform="translate(-137.614 -111.871)" fill="#ffcec0" fill-rule="evenodd"/>
      <rect id="Rect치ngulo_385236" data-name="Rect치ngulo 385236" width="8.925" height="4.173" rx="2.087" transform="translate(51.681 30.06)" fill="#f29988"/>
      <path id="Trazado_838503" data-name="Trazado 838503" d="M192.234,163.259h4.752a2.093,2.093,0,0,1,2.086,2.087h-8.925a2.093,2.093,0,0,1,2.087-2.087Z" transform="translate(-138.466 -133.199)" fill="#ffcec0" fill-rule="evenodd"/>
      <path id="Trazado_838504" data-name="Trazado 838504" d="M198.718,188.76h2.938a1.891,1.891,0,0,1,0,3.782h-2.938a1.891,1.891,0,0,1,0-3.782Z" transform="translate(-144.053 -154.527)" fill="#f29988" fill-rule="evenodd"/>
      <path id="Trazado_838505" data-name="Trazado 838505" d="M198.718,188.76h2.938a1.9,1.9,0,0,1,1.891,1.891h-6.72A1.9,1.9,0,0,1,198.718,188.76Z" transform="translate(-144.053 -154.527)" fill="#ffcec0" fill-rule="evenodd"/>
      <path id="Trazado_838506" data-name="Trazado 838506" d="M57.6,36.866H54.663a.745.745,0,1,1,0-1.489H57.6a.745.745,0,1,1,0,1.489Zm-12.538.308a14.827,14.827,0,0,1-1.73-.435,13.071,13.071,0,0,0-2.418-.536V23.845c6.692-1.386,7.836-5.85,7.352-12.11a2.009,2.009,0,0,1,1.656.581c1.229,1.249,1.533,4.361.9,9.252a.033.033,0,0,0,0,.013c0,.026,0,.052-.006.077s0,.03,0,.046,0,.046,0,.069,0,.035,0,.053v.013c.4,3.647-.463,5.4-3.073,6.262a1.145,1.145,0,0,0,.358,2.234,1.18,1.18,0,0,0,.358-.058,7.892,7.892,0,0,0,2.148-1.066,3.26,3.26,0,0,0,.608.946,3.222,3.222,0,0,0,.708,4.646,3,3,0,0,0-.131,2.325,26.534,26.534,0,0,1-6.738.046Zm-6.439.047-.013.012H35.2l-.3,1.1.293-1.116v-14.1l-1.115-.263,1.128.252h3.411l.013.011v14.1ZM58.546,22.86a.941.941,0,1,1,0,1.882H54.408a.941.941,0,0,1,0-1.882Zm-.029,10.226H53.765a.941.941,0,0,1,0-1.882h4.752a.941.941,0,0,1,0,1.882Zm.6-6.054a.94.94,0,1,1,0,1.88H53.6a.94.94,0,1,1,0-1.88Zm3.232.939a3.22,3.22,0,0,0-1.092-2.413,3.227,3.227,0,0,0-2.709-4.99H53.255c.3-2.811.536-7.588-1.7-9.859a4.457,4.457,0,0,0-3.822-1.228,1.992,1.992,0,0,0-1.772,2.158c.548,6.506-.828,9.049-5.606,9.985a2.3,2.3,0,0,0-1.744-.8H35.2a2.307,2.307,0,0,0-2.3,2.3V37.219a2.307,2.307,0,0,0,2.3,2.3h3.411a2.3,2.3,0,0,0,1.934-1.057,10.882,10.882,0,0,1,2.132.466,17.107,17.107,0,0,0,1.975.495,16.934,16.934,0,0,0,3.019.239c1.707,0,3.482-.173,5.121-.332.674-.065,1.311-.128,1.919-.177H57.6a3.028,3.028,0,0,0,2.736-4.345,3.222,3.222,0,0,0,.9-4.407A3.226,3.226,0,0,0,62.346,27.972ZM58.5,84.182H32.226V80.632a13.1,13.1,0,0,1,10.485-11.68L41.706,79a1.137,1.137,0,0,0,.2.769l2.526,3.616a1.145,1.145,0,0,0,1.877,0l2.526-3.616a1.132,1.132,0,0,0,.2-.769l-1-10.048A13.106,13.106,0,0,1,58.5,80.632v3.549ZM39.679,60.665a5.685,5.685,0,1,1,5.685,5.684A5.692,5.692,0,0,1,39.679,60.665Zm7.038,18.143L45.705,68.695c-.114,0-.227-.008-.342-.008s-.216,0-.324.008L44.029,78.808l1.345,1.925Zm9.122-8.332a15.432,15.432,0,0,0-5.8-3.356,7.975,7.975,0,1,0-9.354,0A15.49,15.49,0,0,0,29.939,80.477c0,.035,0,.069,0,.1v4.747a1.145,1.145,0,0,0,1.145,1.145H59.646a1.145,1.145,0,0,0,1.145-1.145V80.58c0-.035,0-.069,0-.1a15.441,15.441,0,0,0-4.949-10ZM95.379,84.182H69.1V80.632A13.1,13.1,0,0,1,79.59,68.952L78.586,79a1.143,1.143,0,0,0,.2.769l2.526,3.616a1.147,1.147,0,0,0,1.879,0l2.526-3.616a1.15,1.15,0,0,0,.2-.769l-1-10.048A13.107,13.107,0,0,1,95.38,80.632v3.549ZM76.556,60.666a5.686,5.686,0,1,1,5.687,5.684A5.693,5.693,0,0,1,76.556,60.666ZM83.6,78.808,82.585,68.695c-.114,0-.227-.008-.344-.008s-.214,0-.322.008L80.908,78.808l1.343,1.925Zm9.121-8.332a15.435,15.435,0,0,0-5.8-3.356,7.976,7.976,0,1,0-9.352,0A15.484,15.484,0,0,0,66.818,80.477c0,.035,0,.069,0,.1v4.747a1.146,1.146,0,0,0,1.145,1.145H96.525a1.146,1.146,0,0,0,1.146-1.145V80.58a.911.911,0,0,0-.006-.1A15.434,15.434,0,0,0,92.717,70.476ZM94.1,40.816a1.146,1.146,0,0,1-1.146,1.146H73.18a1.146,1.146,0,0,1,0-2.291H92.953A1.145,1.145,0,0,1,94.1,40.816ZM72.035,18.464a1.147,1.147,0,0,1,1.145-1.145h11.95a1.146,1.146,0,1,1,0,2.291H73.18A1.146,1.146,0,0,1,72.035,18.464Zm0-5.218A1.145,1.145,0,0,1,73.18,12.1h11.95a1.145,1.145,0,1,1,0,2.291H73.18A1.146,1.146,0,0,1,72.035,13.246ZM94.1,30.274a1.145,1.145,0,0,1-1.146,1.145H73.18a1.145,1.145,0,1,1,0-2.291H92.952A1.146,1.146,0,0,1,94.1,30.274Zm0,5.271a1.146,1.146,0,0,1-1.146,1.145H73.18a1.145,1.145,0,1,1,0-2.291H92.952A1.145,1.145,0,0,1,94.1,35.545Zm3.446,10.913a.491.491,0,0,0,.489-.489V15.385H93.315a3.065,3.065,0,0,1-3.062-3.062V7.6H68.589a.489.489,0,0,0-.489.489V16.5a23,23,0,0,1,0,21.063v8.406a.49.49,0,0,0,.489.489H97.545ZM47.622,47.77a20.736,20.736,0,1,0-13.561-5.045,1.144,1.144,0,0,1,.385,1.04l-1.163,7.6,5.925-4.736a1.142,1.142,0,0,1,1.118-.178,20.647,20.647,0,0,0,7.3,1.32ZM92.544,9.224l3.87,3.87h-3.1a.77.77,0,0,1-.771-.771Zm7.445,4.206-7.78-7.781a1.14,1.14,0,0,0-.81-.336H68.588a2.783,2.783,0,0,0-2.78,2.78v4.824A23.026,23.026,0,1,0,32.086,44.033l-1.512,9.884a1.146,1.146,0,0,0,1.847,1.069l7.715-6.169a23.031,23.031,0,0,0,25.672-7.673V45.97a2.785,2.785,0,0,0,2.78,2.78H97.544a2.785,2.785,0,0,0,2.78-2.78V14.24a1.144,1.144,0,0,0-.336-.81Z" fill-rule="evenodd"/>
    </g>
  </g>
</svg>
