<svg xmlns="http://www.w3.org/2000/svg" width="124.001" height="124" viewBox="0 0 124.001 124">
  <g id="Grupo_1013405" data-name="Grupo 1013405" transform="translate(-385 -2058)">
    <g id="Grupo_159182" data-name="Grupo 159182" transform="translate(0.001)">
      <path id="Unión_12" data-name="Unión 12" d="M8464.769,11817.939a62.055,62.055,0,1,1,20.7-16.051l8.516,22.111Z" transform="translate(-7991 -9642)" fill="#a3bfe4"/>
      <circle id="Elipse_4842" data-name="Elipse 4842" cx="48" cy="48" r="48" transform="translate(399 2072)" fill="#e3ecf7"/>
    </g>
    <g id="problema_2_" data-name="problema (2)" transform="translate(416.973 2087.091)">
      <g id="Grupo_1071454" data-name="Grupo 1071454" transform="translate(32.43 5.629)">
        <path id="Trazado_608830" data-name="Trazado 608830" d="M308.743,51.29H284.614a10.93,10.93,0,0,1,.061,10.806l-.06.106.1.065A17.948,17.948,0,0,1,291,85.823h17.745a1.363,1.363,0,0,0,1.363-1.363V52.653A1.363,1.363,0,0,0,308.743,51.29Z" transform="translate(-283.805 -50.326)" fill="#fff0ad"/>
        <path id="Trazado_608831" data-name="Trazado 608831" d="M435.8,51.29h-5.386a1.363,1.363,0,0,1,1.363,1.363V84.461a1.363,1.363,0,0,1-1.363,1.363H435.8a1.363,1.363,0,0,0,1.363-1.363V52.653A1.363,1.363,0,0,0,435.8,51.29Z" transform="translate(-410.86 -50.326)" fill="#ffe177"/>
        <path id="Trazado_608832" data-name="Trazado 608832" d="M346.518,80.252H328.925a.964.964,0,0,1,0-1.928h17.593a.4.4,0,0,0,.4-.4V46.117a.4.4,0,0,0-.4-.4h-4.924a.964.964,0,0,1,0-1.928h4.924a2.329,2.329,0,0,1,2.327,2.327V77.925A2.329,2.329,0,0,1,346.518,80.252Z" transform="translate(-321.58 -43.79)"/>
        <path id="Línea_139" data-name="Línea 139" d="M8.015-5.572H-6.536A.964.964,0,0,1-7.5-6.536.964.964,0,0,1-6.536-7.5H8.015a.964.964,0,0,1,.964.964A.964.964,0,0,1,8.015-5.572Z" transform="translate(7.5 7.5)"/>
        <g id="Grupo_1071453" data-name="Grupo 1071453" transform="translate(1.685 4.386)">
          <path id="Trazado_608833" data-name="Trazado 608833" d="M418.2,253.128h-2.82a.386.386,0,0,1-.386-.386v-2.82a.386.386,0,0,1,.386-.386h2.82a.386.386,0,0,1,.386.386v2.82A.386.386,0,0,1,418.2,253.128Z" transform="translate(-399.112 -227.474)" fill="#fff"/>
          <path id="Trazado_608833_-_Contorno" data-name="Trazado 608833 - Contorno" d="M411.666,247.556h-2.82a1.351,1.351,0,0,1-1.35-1.35v-2.82a1.351,1.351,0,0,1,1.35-1.35h2.82a1.351,1.351,0,0,1,1.35,1.35v2.82A1.351,1.351,0,0,1,411.666,247.556Zm-2.241-1.928h1.663v-1.663h-1.663Z" transform="translate(-392.576 -220.938)"/>
          <g id="Grupo_1071444" data-name="Grupo 1071444" transform="translate(14.522)">
            <g id="Grupo_1071443" data-name="Grupo 1071443">
              <g id="Grupo_1071442" data-name="Grupo 1071442">
                <path id="Trazado_608834" data-name="Trazado 608834" d="M407.053,83.429a.964.964,0,0,1-.682-.282l-1.7-1.7a.964.964,0,0,1,1.363-1.364l.91.91,2.026-2.7a.964.964,0,1,1,1.543,1.157l-2.693,3.591a.964.964,0,0,1-.7.383Z" transform="translate(-404.393 -77.91)"/>
              </g>
            </g>
          </g>
          <g id="Grupo_1071446" data-name="Grupo 1071446" transform="translate(14.522 6.756)">
            <g id="Grupo_1071445" data-name="Grupo 1071445">
              <path id="Trazado_608835" data-name="Trazado 608835" d="M407.053,135.986a.964.964,0,0,1-.682-.282l-1.7-1.7a.964.964,0,0,1,1.363-1.364l.91.91,2.026-2.7a.964.964,0,1,1,1.543,1.157l-2.693,3.591a.964.964,0,0,1-.7.383Z" transform="translate(-404.393 -130.467)"/>
            </g>
          </g>
          <g id="Grupo_1071449" data-name="Grupo 1071449" transform="translate(14.522 13.513)">
            <g id="Grupo_1071448" data-name="Grupo 1071448">
              <g id="Grupo_1071447" data-name="Grupo 1071447">
                <path id="Trazado_608836" data-name="Trazado 608836" d="M407.053,188.542a.964.964,0,0,1-.682-.282l-1.7-1.7a.964.964,0,1,1,1.363-1.364l.91.91,2.026-2.7a.964.964,0,1,1,1.543,1.157l-2.693,3.591a.964.964,0,0,1-.7.383Z" transform="translate(-404.393 -183.023)"/>
              </g>
            </g>
          </g>
          <path id="Línea_140" data-name="Línea 140" d="M4.155-5.572H-6.536A.964.964,0,0,1-7.5-6.536.964.964,0,0,1-6.536-7.5H4.155a.964.964,0,0,1,.964.964A.964.964,0,0,1,4.155-5.572Z" transform="translate(7.5 9.912)"/>
          <path id="Línea_141" data-name="Línea 141" d="M2.6-5.572H-6.536A.964.964,0,0,1-7.5-6.536.964.964,0,0,1-6.536-7.5H2.6a.964.964,0,0,1,.964.964A.964.964,0,0,1,2.6-5.572Z" transform="translate(9.054 16.669)"/>
          <path id="Línea_142" data-name="Línea 142" d="M-2.026-5.572H-6.536A.964.964,0,0,1-7.5-6.536.964.964,0,0,1-6.536-7.5h4.509a.964.964,0,0,1,.964.964A.964.964,0,0,1-2.026-5.572Z" transform="translate(13.682 23.425)"/>
          <g id="Grupo_1071452" data-name="Grupo 1071452" transform="translate(7.081 22.895)">
            <g id="Grupo_1071451" data-name="Grupo 1071451">
              <g id="Grupo_1071450" data-name="Grupo 1071450">
                <path id="Línea_143" data-name="Línea 143" d="M-2.926-5.572h-3.61A.964.964,0,0,1-7.5-6.536.964.964,0,0,1-6.536-7.5h3.61a.964.964,0,0,1,.964.964A.964.964,0,0,1-2.926-5.572Z" transform="translate(7.5 7.5)"/>
              </g>
            </g>
          </g>
        </g>
      </g>
      <g id="Grupo_1071457" data-name="Grupo 1071457" transform="translate(4.697 0)">
        <path id="Trazado_608837" data-name="Trazado 608837" d="M307.124,343.607l-5.432-5.432a18.115,18.115,0,0,1-3.1,3.227l5.371,5.371Z" transform="translate(-268.25 -294.701)" fill="#c2bce0"/>
        <path id="Trazado_608838" data-name="Trazado 608838" d="M297.992,341.771a.964.964,0,0,1-.682-.282l-5.183-5.183a.964.964,0,0,1,.074-1.43,17.237,17.237,0,0,0,2.939-3.055.964.964,0,0,1,1.454-.1l5.244,5.244a.964.964,0,0,1,0,1.364l-3.165,3.165A.964.964,0,0,1,297.992,341.771Zm-3.765-6.093,3.765,3.765,1.8-1.8-3.8-3.8A19.18,19.18,0,0,1,294.226,335.678Z" transform="translate(-262.373 -288.827)"/>
        <path id="Trazado_608839" data-name="Trazado 608839" d="M350.592,390.659h0a3.823,3.823,0,0,1-5.406,0l-9.726-9.726a1.286,1.286,0,0,1,0-1.818l3.588-3.588a1.286,1.286,0,0,1,1.818,0l9.726,9.726A3.823,3.823,0,0,1,350.592,390.659Z" transform="translate(-300.053 -326.923)" fill="#978ecb"/>
        <path id="Trazado_608840" data-name="Trazado 608840" d="M336.851,382.324l2.445-2.445a1.286,1.286,0,0,1,1.818,0l10.05,10.05a3.824,3.824,0,0,0-.572-4.675l-9.726-9.726a1.286,1.286,0,0,0-1.818,0l-3.588,3.588a1.286,1.286,0,0,0,0,1.818Z" transform="translate(-300.054 -326.923)" fill="#8379c1"/>
        <path id="Trazado_608841" data-name="Trazado 608841" d="M341.36,386.2a4.772,4.772,0,0,1-3.385-1.4l-3.13-3.13a.964.964,0,0,1,1.364-1.364l3.13,3.13a2.859,2.859,0,0,0,4.043-4.043l-9.726-9.726a.321.321,0,0,0-.454,0l-3.588,3.588a.322.322,0,0,0,0,.454l3.414,3.414a.964.964,0,1,1-1.363,1.364l-3.414-3.414a2.252,2.252,0,0,1,0-3.182l3.588-3.588a2.25,2.25,0,0,1,3.182,0l9.726,9.726a4.785,4.785,0,0,1-3.385,8.17Z" transform="translate(-293.524 -320.387)"/>
        <path id="Trazado_608842" data-name="Trazado 608842" d="M97.734,135.307a10.979,10.979,0,0,1-1.56,2.132,15.142,15.142,0,0,0-3.031,4.729l-.331.827a1.452,1.452,0,0,0-.731-.2h-7.81a1.451,1.451,0,0,0-.731.2l-.309-.772a14.73,14.73,0,0,0-2.991-4.718,10.976,10.976,0,0,1-1.621-2.2,18.105,18.105,0,0,0-7.6,21.1,9.475,9.475,0,0,1,12.227,11.661,18.088,18.088,0,0,0,14.483-32.76Z" transform="translate(-69.128 -117.913)" fill="#fe646f"/>
        <path id="Trazado_608843" data-name="Trazado 608843" d="M197.743,135.835a11.111,11.111,0,0,1-1.574,2.152,15.748,15.748,0,0,0-1.1,1.313,18.146,18.146,0,0,1,1.575,2.115,12.943,12.943,0,0,1,0,19.409,18.1,18.1,0,0,1-11.915,8.071,18.087,18.087,0,0,0,13.014-33.061Z" transform="translate(-169.028 -118.373)" fill="#fd4755"/>
        <path id="Trazado_608844" data-name="Trazado 608844" d="M171.7,163.634a19.094,19.094,0,0,1-5.055-.68.964.964,0,0,1,.511-1.859,17.123,17.123,0,0,0,13.694-30.982.964.964,0,1,1,1.032-1.629,19.05,19.05,0,0,1-10.182,35.15Z" transform="translate(-152.646 -111.836)"/>
        <path id="Trazado_608845" data-name="Trazado 608845" d="M64.446,151.167a.965.965,0,0,1-.916-.665,19.067,19.067,0,0,1,7.928-22.021.964.964,0,1,1,1.032,1.629A17.139,17.139,0,0,0,65.362,149.9a.965.965,0,0,1-.917,1.264Z" transform="translate(-62.59 -111.834)"/>
        <path id="Trazado_608846" data-name="Trazado 608846" d="M129.438,167.275a14.781,14.781,0,0,0-1.455,2.75l-.331.827a1.452,1.452,0,0,0-.731-.2h-7.81a1.451,1.451,0,0,0-.731.2l-.309-.772a15.328,15.328,0,0,0-1.472-2.806A12.954,12.954,0,0,0,111.287,184a9.512,9.512,0,0,1,6.81,6.495,12.948,12.948,0,0,0,11.342-23.219Z" transform="translate(-103.967 -145.769)" fill="#d8ecfe"/>
        <path id="Trazado_608847" data-name="Trazado 608847" d="M199.238,167.8a14.671,14.671,0,0,0-1.448,2.732l-.2.5a12.944,12.944,0,0,1-7.551,20.617,12.947,12.947,0,0,0,9.2-23.847Z" transform="translate(-173.656 -146.229)" fill="#c4e2ff"/>
        <path id="Trazado_608848" data-name="Trazado 608848" d="M109.948,160.28a.964.964,0,0,1,.8.43,16.227,16.227,0,0,1,1.558,2.965l.025.063a2.321,2.321,0,0,1,.239-.012h7.81a2.32,2.32,0,0,1,.239.012l.047-.117a15.67,15.67,0,0,1,1.542-2.911.964.964,0,0,1,1.288-.294,13.912,13.912,0,0,1-12.144,24.944.964.964,0,0,1-.572-.631,8.639,8.639,0,0,0-6.325-6.033.964.964,0,0,1-.658-.541,13.8,13.8,0,0,1-1.232-5.73,13.971,13.971,0,0,1,6.893-12.012A.96.96,0,0,1,109.948,160.28Zm1.833,5.635a.964.964,0,0,1-.9-.606l-.367-.918a14.343,14.343,0,0,0-.875-1.808,12.039,12.039,0,0,0-5.147,9.841,11.891,11.891,0,0,0,.881,4.518,10.571,10.571,0,0,1,7.113,6.783,11.983,11.983,0,0,0,10.822-21.142,13.576,13.576,0,0,0-.854,1.753l-.389.972a.964.964,0,0,1-1.466.419.367.367,0,0,0-.221-.074h-7.81a.367.367,0,0,0-.221.074A.964.964,0,0,1,111.78,165.915Z" transform="translate(-97.429 -139.675)"/>
        <g id="Grupo_1071456" data-name="Grupo 1071456" transform="translate(7.004 0)">
          <path id="Trazado_608849" data-name="Trazado 608849" d="M135.574,7.5a11.08,11.08,0,0,0-7.949,18.717,14.666,14.666,0,0,1,2.965,4.677l.367.918a1.333,1.333,0,0,1,.792-.261h7.81a1.332,1.332,0,0,1,.792.261l.389-.972a15.064,15.064,0,0,1,3.006-4.689A11.08,11.08,0,0,0,135.574,7.5Z" transform="translate(-123.608 -6.536)" fill="#ffd15b"/>
          <path id="Trazado_608850" data-name="Trazado 608850" d="M195.222,7.5a11.011,11.011,0,0,0-2.2.237,11.081,11.081,0,0,1,5.8,18.413,15.059,15.059,0,0,0-3.006,4.689l-.284.711h3.674a1.332,1.332,0,0,1,.792.261l.389-.972a15.064,15.064,0,0,1,3.006-4.689A11.08,11.08,0,0,0,195.222,7.5Z" transform="translate(-183.257 -6.536)" fill="#ffc344"/>
          <path id="Trazado_608851" data-name="Trazado 608851" d="M129.117,0a12.045,12.045,0,0,1,8.8,20.273,14.054,14.054,0,0,0-2.815,4.388l-.339.848a.964.964,0,0,1-1.448.432.5.5,0,0,0-.289-.092h-7.81a.5.5,0,0,0-.289.092.964.964,0,0,1-1.448-.432l-.318-.794a13.645,13.645,0,0,0-2.768-4.37A12.044,12.044,0,0,1,129.031,0Zm4.194,23.938a15.976,15.976,0,0,1,3.194-4.983,10.116,10.116,0,0,0-7.388-17.027V.964l-.073.964a10.116,10.116,0,0,0-7.258,17.088,15.548,15.548,0,0,1,3.137,4.922,2.451,2.451,0,0,1,.289-.017h7.81A2.45,2.45,0,0,1,133.311,23.938Z" transform="translate(-117.072 0)"/>
          <path id="Rectángulo_377351" data-name="Rectángulo 377351" d="M-6.536-7.5H-3.1a.964.964,0,0,1,.964.964V5.142a.964.964,0,0,1-.964.964H-6.536A.964.964,0,0,1-7.5,5.142V-6.536A.964.964,0,0,1-6.536-7.5Zm2.471,1.928H-5.572v9.75h1.507Z" transform="translate(16.863 19.872)"/>
          <path id="Trazado_608852" data-name="Trazado 608852" d="M181.648,251.585l1.532,3.136a1.47,1.47,0,0,0,1.321.825h1.782a1.47,1.47,0,0,0,1.321-.825l1.532-3.136Z" transform="translate(-173.347 -219.243)" fill="#a79ba7"/>
          <path id="Trazado_608853" data-name="Trazado 608853" d="M202.167,251.585l-1.532,3.136a1.47,1.47,0,0,1-.806.731,1.467,1.467,0,0,0,.516.094h1.781a1.47,1.47,0,0,0,1.321-.825l1.532-3.136Z" transform="translate(-189.19 -219.243)" fill="#918291"/>
          <path id="Trazado_608854" data-name="Trazado 608854" d="M175.112,244.085H182.6a.964.964,0,0,1,.866,1.387l-1.532,3.136a2.45,2.45,0,0,1-2.187,1.366h-1.782a2.45,2.45,0,0,1-2.187-1.366l-1.532-3.136a.964.964,0,0,1,.866-1.387Zm5.943,1.928h-4.4l.854,1.749a.509.509,0,0,0,.455.284h1.782a.509.509,0,0,0,.455-.284Z" transform="translate(-166.811 -212.707)"/>
          <path id="Trazado_608855" data-name="Trazado 608855" d="M178.237,193.58h-7.81a1.47,1.47,0,0,0-1.47,1.47v.8a1.47,1.47,0,0,0,1.47,1.47h7.81a1.47,1.47,0,0,0,1.47-1.47v-.8A1.47,1.47,0,0,0,178.237,193.58Z" transform="translate(-162.287 -168.694)" fill="#e2dee2"/>
          <path id="Trazado_608856" data-name="Trazado 608856" d="M211.019,193.58h-4.444a1.47,1.47,0,0,1,1.47,1.47v.8a1.47,1.47,0,0,1-1.47,1.47h4.444a1.47,1.47,0,0,0,1.47-1.47v-.8A1.47,1.47,0,0,0,211.019,193.58Z" transform="translate(-195.069 -168.694)" fill="#cbc4cc"/>
          <path id="Trazado_608857" data-name="Trazado 608857" d="M163.891,186.08h7.81a2.437,2.437,0,0,1,2.434,2.434v.8a2.437,2.437,0,0,1-2.434,2.434h-7.81a2.437,2.437,0,0,1-2.434-2.434v-.8A2.437,2.437,0,0,1,163.891,186.08Zm7.81,3.743a.507.507,0,0,0,.506-.506v-.8a.507.507,0,0,0-.506-.506h-7.81a.507.507,0,0,0-.506.506v.8a.507.507,0,0,0,.506.506Z" transform="translate(-155.751 -162.159)"/>
          <path id="Trazado_608858" data-name="Trazado 608858" d="M178.237,222.7h-7.81a1.47,1.47,0,0,0-1.47,1.47v.8a1.47,1.47,0,0,0,1.47,1.47h7.81a1.47,1.47,0,0,0,1.47-1.47v-.8A1.47,1.47,0,0,0,178.237,222.7Z" transform="translate(-162.287 -194.071)" fill="#f3f0f3"/>
          <path id="Trazado_608859" data-name="Trazado 608859" d="M211.019,222.7h-4.444a1.47,1.47,0,0,1,1.47,1.47v.8a1.47,1.47,0,0,1-1.47,1.47h4.444a1.47,1.47,0,0,0,1.47-1.47v-.8A1.47,1.47,0,0,0,211.019,222.7Z" transform="translate(-195.069 -194.071)" fill="#e2dee2"/>
          <path id="Trazado_608860" data-name="Trazado 608860" d="M163.891,215.2h7.81a2.437,2.437,0,0,1,2.434,2.434v.8a2.437,2.437,0,0,1-2.434,2.434h-7.81a2.437,2.437,0,0,1-2.434-2.434v-.8A2.437,2.437,0,0,1,163.891,215.2Zm7.81,3.743a.507.507,0,0,0,.506-.506v-.8a.507.507,0,0,0-.506-.506h-7.81a.507.507,0,0,0-.506.506v.8a.507.507,0,0,0,.506.506Z" transform="translate(-155.751 -187.535)"/>
          <g id="Grupo_1071455" data-name="Grupo 1071455" transform="translate(5.246 10.314)">
            <path id="Trazado_608861" data-name="Trazado 608861" d="M167.441,91.845a2.058,2.058,0,1,1,2.058-2.058A2.061,2.061,0,0,1,167.441,91.845Z" transform="translate(-164.419 -86.764)" fill="#fff"/>
            <path id="Trazado_608861_-_Contorno" data-name="Trazado 608861 - Contorno" d="M160.906,86.273a3.023,3.023,0,1,1,3.023-3.023A3.026,3.026,0,0,1,160.906,86.273Zm0-4.117A1.094,1.094,0,1,0,162,83.251,1.1,1.1,0,0,0,160.906,82.156Z" transform="translate(-157.883 -80.228)"/>
            <path id="Trazado_608862" data-name="Trazado 608862" d="M226.188,91.845a2.058,2.058,0,1,1,2.058-2.058A2.061,2.061,0,0,1,226.188,91.845Z" transform="translate(-215.614 -86.764)" fill="#fff"/>
            <path id="Trazado_608862_-_Contorno" data-name="Trazado 608862 - Contorno" d="M219.653,86.273a3.023,3.023,0,1,1,3.023-3.023A3.026,3.026,0,0,1,219.653,86.273Zm0-4.117a1.094,1.094,0,1,0,1.094,1.094A1.1,1.1,0,0,0,219.653,82.156Z" transform="translate(-209.078 -80.228)"/>
          </g>
        </g>
      </g>
      <g id="Grupo_1071458" data-name="Grupo 1071458" transform="translate(-3.844 33.845)">
        <circle id="Elipse_4843" data-name="Elipse 4843" cx="9.607" cy="9.607" r="9.607" transform="translate(0 13.586) rotate(-45)" fill="#05e39c"/>
        <path id="Trazado_608863" data-name="Trazado 608863" d="M85.042,294.229a9.615,9.615,0,0,0-2.479.324,9.608,9.608,0,0,1,0,18.565,9.607,9.607,0,1,0,2.479-18.889Z" transform="translate(-71.455 -290.25)" fill="#0ed290"/>
        <path id="Trazado_608864" data-name="Trazado 608864" d="M31.9,307.871a10.522,10.522,0,0,1-10.292-8.161.964.964,0,1,1,1.878-.438,8.64,8.64,0,1,0,.024-4.049.964.964,0,1,1-1.872-.462A10.571,10.571,0,1,1,31.9,307.871Z" transform="translate(-18.317 -283.714)"/>
        <path id="Trazado_608865" data-name="Trazado 608865" d="M62.369,347.337a.964.964,0,0,1-.716-.319l-3.7-4.108a.964.964,0,0,1,1.433-1.29l2.958,3.286,4.773-5.664a.964.964,0,1,1,1.474,1.243l-5.487,6.51a.964.964,0,0,1-.721.343Z" transform="translate(-49.794 -329.177)"/>
      </g>
    </g>
  </g>
</svg>
