<svg xmlns="http://www.w3.org/2000/svg" width="124.001" height="124" viewBox="0 0 124.001 124">
  <g id="Grupo_1083535" data-name="Grupo 1083535" transform="translate(-385 -2058)">
    <g id="Grupo_159182" data-name="Grupo 159182" transform="translate(0.001)">
      <path id="Unión_12" data-name="Unión 12" d="M8464.769,11817.939a62.055,62.055,0,1,1,20.7-16.051l8.516,22.111Z" transform="translate(-7991 -9642)" fill="#a3bfe4"/>
      <circle id="Elipse_4842" data-name="Elipse 4842" cx="48" cy="48" r="48" transform="translate(399 2072)" fill="#e3ecf7"/>
    </g>
    <g id="XMLID_35_" transform="translate(410.763 2082.115)">
      <g id="XMLID_55_" transform="translate(1.479 7.414)">
        <circle id="XMLID_112_" cx="33.429" cy="33.429" r="33.429" fill="#ff7b79"/>
      </g>
      <g id="XMLID_175_" transform="translate(10.946 16.88)">
        <circle id="XMLID_111_" cx="23.962" cy="23.962" r="23.962" fill="#fff"/>
      </g>
      <g id="XMLID_174_" transform="translate(20.412 26.347)">
        <circle id="XMLID_110_" cx="14.496" cy="14.496" r="14.496" fill="#ff7b79"/>
      </g>
      <g id="XMLID_53_" transform="translate(29.879 35.814)">
        <circle id="XMLID_97_" cx="5.029" cy="5.029" r="5.029" fill="#fff"/>
      </g>
      <g id="XMLID_37_" transform="translate(38.482 1.497)">
        <g id="XMLID_168_" transform="translate(5.299 11.384)">
          <g id="XMLID_43_" transform="translate(0 0)">
            <path id="Trazado_838280" data-name="Trazado 838280" d="M0,0H19.823V7.179H0Z" transform="translate(0 14.015) rotate(-45)" fill="#66e0f7"/>
          </g>
        </g>
        <g id="XMLID_167_" transform="translate(0 25.396)">
          <path id="XMLID_96_" d="M265.237,192.079l-5.067-.009L260.161,187l5.305-5.306,5.076,5.076Z" transform="translate(-260.161 -181.697)" fill="#c193dc"/>
        </g>
        <g id="XMLID_38_" transform="translate(18.212)">
          <g id="XMLID_42_" transform="translate(2.062 5.923)">
            <path id="XMLID_95_" d="M407.011,61.687l-9.783-2.062,8.355-8.355a4.188,4.188,0,0,1,5.922,5.922Z" transform="translate(-397.228 -50.043)" fill="#ccf5fc"/>
          </g>
          <g id="XMLID_41_">
            <path id="XMLID_57_" d="M383.285,15.724l2.062,9.783,8.355-8.355a4.188,4.188,0,1,0-5.922-5.922Z" transform="translate(-383.285 -10.002)" fill="#ccf5fc"/>
          </g>
        </g>
      </g>
      <g id="XMLID_118_" transform="translate(0 0.021)">
        <path id="XMLID_142_" d="M68.234,20.511a1.479,1.479,0,0,0,1.351-.4l4.495-4.495A5.667,5.667,0,0,0,70.072,5.94q-.131,0-.261.006.006-.13.006-.261a5.667,5.667,0,0,0-9.674-4.007L55.648,6.172a1.48,1.48,0,0,0-.4,1.351l1.013,4.806-.51.51a34.9,34.9,0,1,0,7.168,7.169l.511-.511Zm-19.37,9.367-2.985-2.984L56.988,15.785l.321,1.521a1.479,1.479,0,0,0,1.142,1.142l1.521.321Zm-.939,10.965a13.014,13.014,0,1,1-8.118-12.061l-2.371,2.371A1.48,1.48,0,0,0,37,32.2l0,2.482a6.514,6.514,0,1,0,4.062,4.067l2.486,0h0a1.479,1.479,0,0,0,1.046-.433l2.368-2.368a13.037,13.037,0,0,1,.952,4.89ZM42.947,35.8l-2.979-.005-.005-2.979,3.825-3.825,2.984,2.984Zm-4.489,5.048a3.551,3.551,0,1,1-2.31-3.326l-1.7,1.7a1.479,1.479,0,1,0,2.092,2.092l1.7-1.7A3.532,3.532,0,0,1,38.458,40.843ZM70.072,8.9a2.708,2.708,0,0,1,1.915,4.624L68.06,17.45l-6.327-1.334,6.424-6.424h0A2.693,2.693,0,0,1,70.072,8.9ZM62.235,3.77A2.709,2.709,0,0,1,66.065,7.6h0l-6.424,6.424L58.307,7.7Zm4.623,37.073a31.95,31.95,0,1,1-31.95-31.95,31.569,31.569,0,0,1,18.727,6.061l-4.677,4.677a25.447,25.447,0,0,0-36.3,33.56,1.479,1.479,0,1,0,2.585-1.438A22.489,22.489,0,0,1,46.819,21.77l-4.777,4.777a15.965,15.965,0,1,0,7.167,7.17l4.778-4.778A22.49,22.49,0,0,1,24,60.5a1.479,1.479,0,1,0-1.438,2.585A25.446,25.446,0,0,0,56.125,26.8L60.8,22.125A32.044,32.044,0,0,1,66.858,40.843Z" transform="translate(0 -0.021)"/>
        <path id="XMLID_149_" d="M112.93,380.553a1.48,1.48,0,1,0,1.046.433A1.488,1.488,0,0,0,112.93,380.553Z" transform="translate(-94.966 -324.266)"/>
      </g>
    </g>
  </g>
</svg>
