<svg xmlns="http://www.w3.org/2000/svg" xmlns:xlink="http://www.w3.org/1999/xlink" width="124.001" height="124" viewBox="0 0 124.001 124">
  <defs>
    <clipPath id="clip-path">
      <path id="path2013" d="M0-682.665H74.205v74.205H0Z" transform="translate(0 682.665)"/>
    </clipPath>
  </defs>
  <g id="Grupo_1015035" data-name="Grupo 1015035" transform="translate(-737 -2058)">
    <g id="Grupo_159183" data-name="Grupo 159183" transform="translate(352.001)">
      <path id="Unión_12" data-name="Unión 12" d="M8464.769,11817.939a62.055,62.055,0,1,1,20.7-16.051l8.516,22.111Z" transform="translate(-7991 -9642)" fill="#a3bfe4"/>
      <circle id="Elipse_4842" data-name="Elipse 4842" cx="48" cy="48" r="48" transform="translate(399 2072)" fill="#fffbe5"/>
    </g>
    <g id="g2007" transform="translate(764.401 2760.993)">
      <g id="g2009" transform="translate(0 -682.665)">
        <g id="g2011" clip-path="url(#clip-path)">
          <g id="g2017" transform="translate(55.203 1.066)">
            <path id="path2019" d="M-92.057-54.644l-1.311-5.031a2.182,2.182,0,0,0-3.655-.993l-5.621,5.622a2.182,2.182,0,0,0-.56,2.124l2.041,7.384Z" transform="translate(103.284 61.308)" fill="#5a5a5a"/>
          </g>
          <g id="g2021" transform="translate(57.322 7.731)">
            <path id="path2023" d="M-74.675,0l5.031,1.311a2.182,2.182,0,0,1,.993,3.655l-5.622,5.622a2.182,2.182,0,0,1-2.124.56l-7.384-2.041Z" transform="translate(83.782)" fill="#5a5a5a"/>
          </g>
          <g id="g2025" transform="translate(61.829 8.539)">
            <path id="path2027" d="M-87.11-34.083l-5.622,5.622a2.182,2.182,0,0,1-2.125.561l-2.877-.794a2.273,2.273,0,0,0,1.68-.664l5.854-5.852a2.273,2.273,0,0,0,.168-3.029l1.929.5a2.181,2.181,0,0,1,.993,3.654" transform="translate(97.733 38.24)" fill="#444"/>
          </g>
          <g id="g2029" transform="translate(1.112 10.801)">
            <path id="path2031" d="M-511.149-255.575a31.169,31.169,0,0,1-31.169,31.169,31.169,31.169,0,0,1-31.169-31.169,31.169,31.169,0,0,1,31.169-31.169,31.169,31.169,0,0,1,31.169,31.169" transform="translate(573.487 286.743)" fill="#ee6161"/>
          </g>
          <g id="g2033" transform="translate(12.621 16.111)">
            <path id="path2035" d="M-416.783-212.034a31.169,31.169,0,0,1-31.169,31.169,31.03,31.03,0,0,1-19.66-6.983,31.017,31.017,0,0,0,17.408,5.312,31.169,31.169,0,0,0,31.169-31.169,31.106,31.106,0,0,0-11.509-24.188,31.139,31.139,0,0,1,13.761,25.859" transform="translate(467.612 237.893)" fill="#e94444"/>
          </g>
          <g id="g2037" transform="translate(0.024 9.714)">
            <path id="path2039" d="M-393.527,23.905A32.292,32.292,0,0,1-425.783-8.351a32.292,32.292,0,0,1,32.256-32.256,32.257,32.257,0,0,1,9.592,1.45,1.087,1.087,0,0,1,.715,1.361,1.087,1.087,0,0,1-1.361.715,30.085,30.085,0,0,0-8.946-1.352A30.116,30.116,0,0,0-423.609-8.351a30.116,30.116,0,0,0,30.082,30.082A30.116,30.116,0,0,0-363.445-8.351a29.957,29.957,0,0,0-16.545-26.872,1.087,1.087,0,0,1-.481-1.46,1.087,1.087,0,0,1,1.46-.481A32.121,32.121,0,0,1-361.271-8.351,32.292,32.292,0,0,1-393.527,23.905Z" transform="translate(425.783 40.607)"/>
          </g>
          <g id="g2041" transform="translate(9.416 19.105)">
            <path id="path2043" d="M-374.962-187.481a22.864,22.864,0,0,1-22.864,22.864,22.864,22.864,0,0,1-22.864-22.864,22.864,22.864,0,0,1,22.864-22.864,22.864,22.864,0,0,1,22.864,22.864" transform="translate(420.691 210.345)" fill="#f9f7f8"/>
          </g>
          <g id="g2045" transform="translate(18.209 22.354)">
            <path id="path2047" d="M-302.863-160.838a22.865,22.865,0,0,1-22.864,22.864,22.763,22.763,0,0,1-14.071-4.842,22.749,22.749,0,0,0,11.753,3.248,22.865,22.865,0,0,0,22.864-22.864,22.827,22.827,0,0,0-8.79-18.021,22.856,22.856,0,0,1,11.109,19.615" transform="translate(339.799 180.453)" fill="#efedef"/>
          </g>
          <g id="g2049" transform="translate(8.329 18.018)">
            <path id="path2051" d="M-406.74-220.345a23.978,23.978,0,0,1,23.951,23.951,23.978,23.978,0,0,1-23.951,23.951,23.978,23.978,0,0,1-23.951-23.951A23.978,23.978,0,0,1-406.74-220.345Zm0,45.729a21.8,21.8,0,0,0,21.777-21.777,21.8,21.8,0,0,0-21.777-21.777,21.8,21.8,0,0,0-21.777,21.777A21.8,21.8,0,0,0-406.74-174.616Z" transform="translate(430.691 220.345)"/>
          </g>
          <g id="g2053" transform="translate(17.763 27.452)">
            <path id="path2055" d="M-238.075-119.038a14.518,14.518,0,0,1-14.517,14.517,14.517,14.517,0,0,1-14.517-14.517,14.517,14.517,0,0,1,14.517-14.517,14.518,14.518,0,0,1,14.517,14.517" transform="translate(267.11 133.556)" fill="#ee6161"/>
          </g>
          <g id="g2057" transform="translate(22.872 29.104)">
            <path id="path2059" d="M-196.181-105.494A14.517,14.517,0,0,1-210.7-90.976a14.454,14.454,0,0,1-9.409-3.462,14.44,14.44,0,0,0,6.728,1.651,14.517,14.517,0,0,0,14.516-14.518,14.482,14.482,0,0,0-5.107-11.054,14.51,14.51,0,0,1,7.788,12.866" transform="translate(220.106 118.36)" fill="#e94444"/>
          </g>
          <g id="g2061" transform="translate(16.676 26.365)">
            <path id="path2063" d="M-261.506-143.556a15.622,15.622,0,0,1,15.6,15.6,15.622,15.622,0,0,1-15.6,15.6,15.622,15.622,0,0,1-15.6-15.6A15.622,15.622,0,0,1-261.506-143.556Zm0,29.035a13.446,13.446,0,0,0,13.43-13.43,13.446,13.446,0,0,0-13.43-13.43,13.446,13.446,0,0,0-13.43,13.43A13.446,13.446,0,0,0-261.506-114.521Z" transform="translate(277.11 143.556)"/>
          </g>
          <g id="g2065" transform="translate(25.689 35.379)">
            <path id="path2067" d="M-108.09-54.045a6.591,6.591,0,0,1-6.591,6.591,6.591,6.591,0,0,1-6.591-6.591,6.591,6.591,0,0,1,6.591-6.591,6.591,6.591,0,0,1,6.591,6.591" transform="translate(121.272 60.636)" fill="#f9f7f8"/>
          </g>
          <g id="g2069" transform="translate(27.123 36.003)">
            <path id="path2071" d="M-96.332-48.926a6.591,6.591,0,0,1-6.59,6.591,6.577,6.577,0,0,1-5.158-2.488,6.553,6.553,0,0,0,2.8.623,6.591,6.591,0,0,0,6.591-6.59,6.563,6.563,0,0,0-1.433-4.1,6.59,6.59,0,0,1,3.791,5.967" transform="translate(108.08 54.893)" fill="#efedef"/>
          </g>
          <g id="g2073" transform="translate(24.602 34.292)">
            <path id="path2075" d="M-123.594-70.636a7.687,7.687,0,0,1,7.678,7.678,7.687,7.687,0,0,1-7.678,7.678,7.687,7.687,0,0,1-7.678-7.678A7.687,7.687,0,0,1-123.594-70.636Zm0,13.182a5.51,5.51,0,0,0,5.5-5.5,5.51,5.51,0,0,0-5.5-5.5,5.51,5.51,0,0,0-5.5,5.5A5.51,5.51,0,0,0-123.594-57.454Z" transform="translate(131.272 70.636)"/>
          </g>
          <g id="g2077" transform="translate(54.116 -0.021)">
            <path id="path2079" d="M-104.4-71.308h0a3.277,3.277,0,0,1,3.172,2.446l1.311,5.031a1.087,1.087,0,0,1-.283,1.043l-9.107,9.107a1.087,1.087,0,0,1-1.046.282,1.087,1.087,0,0,1-.771-.761l-2.041-7.384a3.275,3.275,0,0,1,.839-3.183l5.621-5.622A3.238,3.238,0,0,1-104.4-71.308Zm2.223,7.423-1.154-4.428a1.09,1.09,0,0,0-1.069-.821,1.068,1.068,0,0,0-.766.322l-5.621,5.622a1.1,1.1,0,0,0-.281,1.066l1.544,5.586Z" transform="translate(113.28 71.308)"/>
          </g>
          <g id="g2081" transform="translate(56.235 6.644)">
            <path id="path2083" d="M-83.589-10a1.086,1.086,0,0,1,.274.035l5.031,1.311a3.235,3.235,0,0,1,2.33,2.307A3.235,3.235,0,0,1-76.8-3.178l-5.622,5.622A3.248,3.248,0,0,1-84.73,3.4a3.269,3.269,0,0,1-.871-.118l-7.384-2.041a1.087,1.087,0,0,1-.761-.77,1.087,1.087,0,0,1,.282-1.046l9.107-9.107A1.087,1.087,0,0,1-83.589-10ZM-84.73,1.227a1.088,1.088,0,0,0,.774-.321l5.622-5.622a1.076,1.076,0,0,0,.282-1.062,1.076,1.076,0,0,0-.781-.773L-83.26-7.7-90.608-.357l5.586,1.544A1.1,1.1,0,0,0-84.73,1.227Z" transform="translate(93.783 10)"/>
          </g>
          <g id="g2085" transform="translate(31.004 9.995)">
            <path id="path2087" d="M-293.8,23.141a1.084,1.084,0,0,1-.769-.318,1.087,1.087,0,0,1,0-1.537L-263.6-9.682a1.087,1.087,0,0,1,1.537,0,1.087,1.087,0,0,1,0,1.537L-293.03,22.822A1.084,1.084,0,0,1-293.8,23.141Z" transform="translate(294.886 10)"/>
          </g>
          <g id="g2089" transform="translate(1.111 52.718)">
            <path id="path2091" d="M-167.443-83.721a10.21,10.21,0,0,1-10.21,10.21,10.21,10.21,0,0,1-10.21-10.21,10.21,10.21,0,0,1,10.21-10.21,10.21,10.21,0,0,1,10.21,10.21" transform="translate(187.864 93.932)" fill="#57be92"/>
          </g>
          <g id="g2093" transform="translate(4.804 53.618)">
            <path id="path2095" d="M-137.165-76.343a10.21,10.21,0,0,1-10.21,10.21,10.165,10.165,0,0,1-6.518-2.349,10.176,10.176,0,0,0,4.2.9,10.21,10.21,0,0,0,10.21-10.21,10.193,10.193,0,0,0-3.693-7.861,10.212,10.212,0,0,1,6.012,9.31" transform="translate(153.893 85.653)" fill="#09a76d"/>
          </g>
          <g id="g2097" transform="translate(0.025 51.631)">
            <path id="path2099" d="M-3.659-111.526A11.266,11.266,0,0,1-11.3-114.5a1.087,1.087,0,0,1-.066-1.536,1.087,1.087,0,0,1,1.536-.066,9.1,9.1,0,0,0,6.168,2.4,9.134,9.134,0,0,0,9.123-9.123,9.134,9.134,0,0,0-9.123-9.123,9.133,9.133,0,0,0-9.123,9.123,9.111,9.111,0,0,0,.481,2.933,1.087,1.087,0,0,1-.68,1.379,1.087,1.087,0,0,1-1.379-.68,11.281,11.281,0,0,1-.6-3.631,11.31,11.31,0,0,1,11.3-11.3,11.31,11.31,0,0,1,11.3,11.3A11.31,11.31,0,0,1-3.659-111.526Z" transform="translate(14.956 134.121)"/>
          </g>
          <g id="g2101" transform="translate(5.403 58.27)">
            <path id="path2103" d="M-91.87-4.28h0a1.969,1.969,0,0,0-2.783.112L-98.045-.49a.369.369,0,0,1-.542,0l-1.061-1.15a1.974,1.974,0,0,0-2.79-.112,1.974,1.974,0,0,0-.119,2.783l2.485,2.72a2.353,2.353,0,0,0,3.467.009L-91.758-1.5A1.969,1.969,0,0,0-91.87-4.28" transform="translate(103.074 4.801)" fill="#f9f7f8"/>
          </g>
          <g id="g2105" transform="translate(8.248 58.27)">
            <path id="path2107" d="M-69.462-27.092l-4.848,5.255a2.354,2.354,0,0,1-3.467-.009l-.157-.171a2.341,2.341,0,0,0,1.717-.758l4.848-5.255a1.967,1.967,0,0,0,.238-2.354,1.96,1.96,0,0,1,1.555.509,1.968,1.968,0,0,1,.113,2.783" transform="translate(77.933 30.396)" fill="#efedef"/>
          </g>
          <g id="g2109" transform="translate(4.318 57.183)">
            <path id="path2111" d="M-102.1-14.8h0a3.048,3.048,0,0,1,2.072.81,3.036,3.036,0,0,1,.981,2.123,3.036,3.036,0,0,1-.808,2.2L-104.7-4.418a3.449,3.449,0,0,1-2.528,1.107,3.448,3.448,0,0,1-2.54-1.12l-2.485-2.72a3.068,3.068,0,0,1,.184-4.315,3.052,3.052,0,0,1,2.075-.811,3.07,3.07,0,0,1,2.251.985l.533.578,2.865-3.105A3.066,3.066,0,0,1-102.1-14.8Zm-5.13,9.317a1.252,1.252,0,0,0,.93-.408l4.848-5.255a.877.877,0,0,0,.233-.634.876.876,0,0,0-.283-.613.88.88,0,0,0-.6-.234h0a.874.874,0,0,0-.649.284l-3.392,3.677a1.46,1.46,0,0,1-1.07.469,1.46,1.46,0,0,1-1.07-.469l-1.061-1.15a.879.879,0,0,0-.653-.286.884.884,0,0,0-.6.235.889.889,0,0,0-.054,1.251l2.485,2.72A1.252,1.252,0,0,0-107.226-5.484Z" transform="translate(113.049 14.801)"/>
          </g>
        </g>
      </g>
    </g>
  </g>
</svg>
