<svg xmlns="http://www.w3.org/2000/svg" width="124.001" height="124" viewBox="0 0 124.001 124">
  <g id="Grupo_1083536" data-name="Grupo 1083536" transform="translate(-737 -2058)">
    <g id="Grupo_159183" data-name="Grupo 159183" transform="translate(352.001)">
      <path id="Unión_12" data-name="Unión 12" d="M8464.769,11817.939a62.055,62.055,0,1,1,20.7-16.051l8.516,22.111Z" transform="translate(-7991 -9642)" fill="#a3bfe4"/>
      <circle id="Elipse_4842" data-name="Elipse 4842" cx="48" cy="48" r="48" transform="translate(399 2072)" fill="#fffbe5"/>
    </g>
    <g id="segmentacion" transform="translate(760.414 2080.914)">
      <g id="Grupo_1083630" data-name="Grupo 1083630" transform="translate(2.229 2.229)">
        <g id="Grupo_1083615" data-name="Grupo 1083615" transform="translate(49.143 24.572)">
          <ellipse id="Elipse_5952" data-name="Elipse 5952" cx="12.5" cy="12" rx="12.5" ry="12" transform="translate(-0.286 0.286)" fill="#e6e9ed"/>
        </g>
        <g id="Grupo_1083616" data-name="Grupo 1083616" transform="translate(0 24.572)">
          <ellipse id="Elipse_5953" data-name="Elipse 5953" cx="12.5" cy="12" rx="12.5" ry="12" transform="translate(-0.143 0.286)" fill="#e6e9ed"/>
        </g>
        <g id="Grupo_1083617" data-name="Grupo 1083617" transform="translate(24.572 0)">
          <ellipse id="Elipse_5954" data-name="Elipse 5954" cx="12" cy="12.5" rx="12" ry="12.5" transform="translate(0.286 -0.143)" fill="#e6e9ed"/>
        </g>
        <g id="Grupo_1083618" data-name="Grupo 1083618" transform="translate(47.915 46.588)">
          <path id="Trazado_838281" data-name="Trazado 838281" d="M54.011,42.463a27.02,27.02,0,0,1-9.325,10.381V51.69a2.561,2.561,0,0,0-1.757-2.42,2.513,2.513,0,0,1-1.548-1.45l-.184-.442a2.292,2.292,0,0,1-.2-.946h.012A19.934,19.934,0,0,0,47.02,39.92a12.177,12.177,0,0,0,6.991,2.543Z" transform="translate(-41 -39.92)" fill="#ffeaa7"/>
        </g>
        <g id="Grupo_1083619" data-name="Grupo 1083619" transform="translate(46.588 12.79)">
          <path id="Trazado_838282" data-name="Trazado 838282" d="M42.463,12.41A26.954,26.954,0,0,1,54.258,24.2a12.177,12.177,0,0,0-6.991,2.543A20.067,20.067,0,0,0,39.92,19.4a12.177,12.177,0,0,0,2.543-6.991Z" transform="translate(-39.92 -12.41)" fill="#ffeaa7"/>
        </g>
        <g id="Grupo_1083620" data-name="Grupo 1083620" transform="translate(12.79 12.79)">
          <path id="Trazado_838283" data-name="Trazado 838283" d="M24.2,12.41A12.177,12.177,0,0,0,26.748,19.4,20.067,20.067,0,0,0,19.4,26.748,12.177,12.177,0,0,0,12.41,24.2,26.955,26.955,0,0,1,24.2,12.41Z" transform="translate(-12.41 -12.41)" fill="#ffeaa7"/>
        </g>
        <g id="Grupo_1083621" data-name="Grupo 1083621" transform="translate(12.79 46.588)">
          <path id="Trazado_838284" data-name="Trazado 838284" d="M25.224,47.377l-.184.442a2.513,2.513,0,0,1-1.548,1.45,2.561,2.561,0,0,0-1.757,2.42v1.155A27.02,27.02,0,0,1,12.41,42.463,12.177,12.177,0,0,0,19.4,39.92a19.934,19.934,0,0,0,6.008,6.511h.012A2.292,2.292,0,0,1,25.224,47.377Z" transform="translate(-12.41 -39.92)" fill="#ffeaa7"/>
        </g>
        <g id="Grupo_1083622" data-name="Grupo 1083622" transform="translate(22.114 44.229)">
          <path id="Trazado_838285" data-name="Trazado 838285" d="M49.486,53.284v.074a2.561,2.561,0,0,1-1.757,2.42,2.513,2.513,0,0,0-1.548,1.45L46,57.67a2.406,2.406,0,0,0-.2.971,2.482,2.482,0,0,0,.27,1.143,2.537,2.537,0,0,1-.467,2.949l-.872.872a2.542,2.542,0,0,1-1.794.749,2.583,2.583,0,0,1-1.155-.283A2.5,2.5,0,0,0,39.67,64l-.442.184a2.513,2.513,0,0,0-1.45,1.548,2.561,2.561,0,0,1-2.42,1.757H34.129a2.561,2.561,0,0,1-2.42-1.757,2.513,2.513,0,0,0-1.45-1.548L29.816,64a2.406,2.406,0,0,0-.971-.2,2.482,2.482,0,0,0-1.143.27,2.537,2.537,0,0,1-2.949-.467l-.872-.872a2.542,2.542,0,0,1-.749-1.794,2.583,2.583,0,0,1,.283-1.155,2.5,2.5,0,0,0,.074-2.113l-.184-.442a2.513,2.513,0,0,0-1.548-1.45A2.561,2.561,0,0,1,20,53.357V52.129a2.561,2.561,0,0,1,1.757-2.42,2.514,2.514,0,0,0,1.548-1.45l.184-.442a2.292,2.292,0,0,0,.2-.946v-.025a2.482,2.482,0,0,0-.27-1.143,2.537,2.537,0,0,1,.467-2.949l.872-.872a2.542,2.542,0,0,1,1.794-.749,2.583,2.583,0,0,1,1.155.283,2.5,2.5,0,0,0,2.113.074l.442-.184a2.513,2.513,0,0,0,1.45-1.548A2.561,2.561,0,0,1,34.129,38h1.229a2.561,2.561,0,0,1,2.42,1.757,2.513,2.513,0,0,0,1.45,1.548l.442.184a2.406,2.406,0,0,0,.971.2,2.482,2.482,0,0,0,1.143-.27,2.537,2.537,0,0,1,2.949.467l.872.872a2.542,2.542,0,0,1,.749,1.794A2.583,2.583,0,0,1,46.07,45.7a2.465,2.465,0,0,0-.27,1.167,2.292,2.292,0,0,0,.2.946l.184.442a2.514,2.514,0,0,0,1.548,1.45,2.561,2.561,0,0,1,1.757,2.42Zm-7.371-.541a7.371,7.371,0,1,0-7.371,7.371A7.377,7.377,0,0,0,42.114,52.743Z" transform="translate(-20 -38)" fill="#ffc729"/>
        </g>
        <g id="Grupo_1083623" data-name="Grupo 1083623" transform="translate(29.486 51.6)">
          <path id="Trazado_838286" data-name="Trazado 838286" d="M33.371,44A7.371,7.371,0,1,1,26,51.371,7.377,7.377,0,0,1,33.371,44Zm2.457,7.371a2.457,2.457,0,1,0-2.457,2.457A2.464,2.464,0,0,0,35.829,51.371Z" transform="translate(-26 -44)" fill="#fcd770"/>
        </g>
        <g id="Grupo_1083624" data-name="Grupo 1083624" transform="translate(63.886 31.943)">
          <path id="Trazado_838287" data-name="Trazado 838287" d="M54,28h4.914V40.286H54Z" transform="translate(-54 -28)" fill="#ff826e"/>
        </g>
        <g id="Grupo_1083625" data-name="Grupo 1083625" transform="translate(58.972 29.486)">
          <path id="Trazado_838288" data-name="Trazado 838288" d="M54.914,28.457V40.743H50V26h4.914Z" transform="translate(-50 -26)" fill="#ff826e"/>
        </g>
        <g id="Grupo_1083626" data-name="Grupo 1083626" transform="translate(54.057 34.4)">
          <path id="Trazado_838289" data-name="Trazado 838289" d="M46,30h4.914v9.829H46Z" transform="translate(-46 -30)" fill="#ff826e"/>
        </g>
        <g id="Grupo_1083627" data-name="Grupo 1083627" transform="translate(3.28 39.315)">
          <path id="Trazado_838290" data-name="Trazado 838290" d="M14.179,43.816c-.16.012-.332.012-.5.012A12.185,12.185,0,0,1,4.67,39.885a9.833,9.833,0,0,1,18.011,0,10.687,10.687,0,0,1-1.511,1.376v.012a12.177,12.177,0,0,1-6.991,2.543Z" transform="translate(-4.67 -34)" fill="#4fc1e9"/>
        </g>
        <g id="Grupo_1083628" data-name="Grupo 1083628" transform="translate(7.371 29.486)">
          <circle id="Elipse_5955" data-name="Elipse 5955" cx="4.5" cy="4.5" r="4.5" transform="translate(0.486 0.371)" fill="#f0d0b4"/>
        </g>
        <g id="Grupo_1083629" data-name="Grupo 1083629" transform="translate(31.943 4.914)">
          <path id="Trazado_838291" data-name="Trazado 838291" d="M37.829,10.914v.221a4.923,4.923,0,0,1-.393,1.929l-2.813,6.548a1.855,1.855,0,0,1-3.415,0l-2.813-6.548A4.923,4.923,0,0,1,28,11.135v-.221a4.914,4.914,0,1,1,9.829,0Z" transform="translate(-28 -6)" fill="#ff826e"/>
        </g>
      </g>
      <g id="Grupo_1083631" data-name="Grupo 1083631" transform="translate(1 1)">
        <path id="Trazado_838292" data-name="Trazado 838292" d="M30.3,20.328a3.092,3.092,0,0,0,5.683,0l2.8-6.543a6.117,6.117,0,0,0,.5-2.42v-.22a6.143,6.143,0,0,0-12.286,0v.22a6.117,6.117,0,0,0,.5,2.42Zm-.844-9.185a3.686,3.686,0,0,1,7.371,0v.22a3.687,3.687,0,0,1-.3,1.452l-2.8,6.543a.661.661,0,0,1-1.167,0l-2.8-6.543a3.687,3.687,0,0,1-.3-1.452Z" transform="translate(4.943 -0.086)"/>
        <path id="Trazado_838293" data-name="Trazado 838293" d="M33.6,43a8.6,8.6,0,1,0,8.6,8.6A8.609,8.609,0,0,0,33.6,43Zm0,14.743A6.143,6.143,0,1,1,39.743,51.6,6.15,6.15,0,0,1,33.6,57.743Z" transform="translate(4.486 8.6)"/>
        <path id="Trazado_838294" data-name="Trazado 838294" d="M32.686,47a3.686,3.686,0,1,0,3.686,3.686A3.69,3.69,0,0,0,32.686,47Zm0,4.914a1.229,1.229,0,1,1,1.229-1.229A1.231,1.231,0,0,1,32.686,51.914Z" transform="translate(5.4 9.515)"/>
        <path id="Trazado_838295" data-name="Trazado 838295" d="M37,31h2.457v2.457H37Z" transform="translate(7.229 5.857)"/>
        <path id="Trazado_838296" data-name="Trazado 838296" d="M29,31h2.457v2.457H29Z" transform="translate(5.4 5.857)"/>
        <path id="Trazado_838297" data-name="Trazado 838297" d="M25,31h2.457v2.457H25Z" transform="translate(4.486 5.857)"/>
        <path id="Trazado_838298" data-name="Trazado 838298" d="M33,31h2.457v2.457H33Z" transform="translate(6.315 5.857)"/>
        <path id="Trazado_838299" data-name="Trazado 838299" d="M63.881,25.583A28.535,28.535,0,0,0,52.589,14.291a13.505,13.505,0,0,0-27.007,0A28.535,28.535,0,0,0,14.291,25.583a13.5,13.5,0,0,0-.006,27.005,28.365,28.365,0,0,0,8.878,9.819A3.771,3.771,0,0,0,25.715,65.4a1.259,1.259,0,0,1,.794.73c.063.162.128.323.2.483a1.265,1.265,0,0,1-.047,1.073,3.768,3.768,0,0,0,.7,4.375l.865.866a3.77,3.77,0,0,0,4.375.7,1.259,1.259,0,0,1,1.074-.047c.158.069.319.135.479.2a1.258,1.258,0,0,1,.732.8,3.772,3.772,0,0,0,3.589,2.6H39.7a3.771,3.771,0,0,0,3.589-2.6,1.259,1.259,0,0,1,.73-.794c.162-.063.323-.128.483-.2a1.256,1.256,0,0,1,1.073.047,3.77,3.77,0,0,0,4.375-.7l.866-.865a3.768,3.768,0,0,0,.7-4.375,1.263,1.263,0,0,1-.047-1.074c.069-.158.135-.319.2-.479a1.258,1.258,0,0,1,.8-.732,3.77,3.77,0,0,0,2.551-2.994,28.365,28.365,0,0,0,8.878-9.819,13.505,13.505,0,0,0-.007-27.007Zm-11.517-8.6a26.12,26.12,0,0,1,8.827,8.827,13.41,13.41,0,0,0-4.664,1.818,20.965,20.965,0,0,0-5.983-5.983,13.4,13.4,0,0,0,1.82-4.662Zm2.2,12.138a13.447,13.447,0,0,0-.017,19.919,18.623,18.623,0,0,1-2.694,3.285,3.77,3.77,0,0,0-1.039-1.984l-.865-.865a3.768,3.768,0,0,0-4.375-.7,1.263,1.263,0,0,1-1.074.047c-.157-.069-.318-.134-.479-.2a1.261,1.261,0,0,1-.732-.8,3.774,3.774,0,0,0-3.59-2.6H38.474a3.771,3.771,0,0,0-3.589,2.6,1.256,1.256,0,0,1-.732.794c-.161.063-.321.128-.48.2a1.261,1.261,0,0,1-1.073-.047,3.768,3.768,0,0,0-4.375.7l-.865.865a3.77,3.77,0,0,0-1.039,1.984,18.668,18.668,0,0,1-2.694-3.285,13.449,13.449,0,0,0-.018-19.919,18.5,18.5,0,0,1,5.51-5.51,13.448,13.448,0,0,0,19.935,0,18.525,18.525,0,0,1,5.51,5.51ZM39.086,3.457A11.057,11.057,0,1,1,28.029,14.514,11.071,11.071,0,0,1,39.086,3.457ZM25.807,16.98a13.41,13.41,0,0,0,1.818,4.664,20.965,20.965,0,0,0-5.983,5.983,13.4,13.4,0,0,0-4.664-1.818,26.138,26.138,0,0,1,8.829-8.829ZM5.336,45.244a11.057,11.057,0,1,1,18.357,0,11.051,11.051,0,0,0-5.048-4.1,6.142,6.142,0,1,0-8.261,0,11.041,11.041,0,0,0-5.048,4.1ZM18.2,36.629a3.686,3.686,0,1,1-3.686-3.686A3.69,3.69,0,0,1,18.2,36.629ZM7.024,47.2a8.553,8.553,0,0,1,14.981,0,10.992,10.992,0,0,1-14.981,0ZM23.289,59.464a25.923,25.923,0,0,1-6.315-7.1,13.41,13.41,0,0,0,4.7-1.835,21.024,21.024,0,0,0,5.011,5.317c-.06.14-.118.28-.173.421a1.258,1.258,0,0,1-.8.732A3.762,3.762,0,0,0,23.289,59.464ZM52.6,61.812a1.319,1.319,0,0,1-.909,1.254,3.706,3.706,0,0,0-2.317,2.177c-.052.131-.106.263-.161.391a3.709,3.709,0,0,0,.107,3.16,1.317,1.317,0,0,1-.244,1.528l-.866.866a1.315,1.315,0,0,1-1.528.244,3.711,3.711,0,0,0-3.159-.107q-.194.083-.394.162a3.709,3.709,0,0,0-2.176,2.318,1.318,1.318,0,0,1-1.254.908H38.474a1.319,1.319,0,0,1-1.254-.909,3.706,3.706,0,0,0-2.177-2.317c-.131-.052-.263-.106-.391-.161a3.637,3.637,0,0,0-1.457-.3,3.785,3.785,0,0,0-1.7.409,1.316,1.316,0,0,1-1.528-.244l-.866-.866a1.317,1.317,0,0,1-.244-1.528,3.707,3.707,0,0,0,.107-3.159q-.083-.193-.162-.394a3.709,3.709,0,0,0-2.318-2.176,1.315,1.315,0,0,1-.908-1.253V60.589a1.319,1.319,0,0,1,.908-1.254A3.705,3.705,0,0,0,28.8,57.157c.052-.131.106-.263.161-.391a3.709,3.709,0,0,0-.107-3.16,1.318,1.318,0,0,1,.244-1.53l.865-.865a1.314,1.314,0,0,1,1.53-.244,3.707,3.707,0,0,0,3.159.107c.13-.057.262-.111.393-.161A3.717,3.717,0,0,0,37.22,48.6a1.317,1.317,0,0,1,1.254-.909H39.7a1.319,1.319,0,0,1,1.254.909,3.71,3.71,0,0,0,2.176,2.317c.131.052.263.106.392.161a3.714,3.714,0,0,0,3.16-.107,1.317,1.317,0,0,1,1.53.244l.865.865a1.318,1.318,0,0,1,.244,1.53,3.707,3.707,0,0,0-.107,3.159q.083.194.162.394a3.709,3.709,0,0,0,2.318,2.176,1.318,1.318,0,0,1,.908,1.254Zm2.283-2.348A3.77,3.77,0,0,0,52.458,57a1.259,1.259,0,0,1-.794-.73c-.054-.141-.113-.283-.173-.423A21.024,21.024,0,0,0,56.5,50.53a13.405,13.405,0,0,0,4.7,1.835,25.941,25.941,0,0,1-6.315,7.1Zm8.775-9.321a11,11,0,0,1-6.934-2.457H70.592a11,11,0,0,1-6.934,2.457Zm-6.143-4.914V37.857h2.457v7.371Zm4.914,0V32.943h2.457V45.229Zm4.914,0V35.4H69.8v9.829Zm5.5,0h-.587V32.943H67.343V30.486H59.972V35.4H55.057v9.829H54.47a11.057,11.057,0,1,1,18.375,0Z" transform="translate(-1 -1)"/>
      </g>
    </g>
  </g>
</svg>
