<svg xmlns="http://www.w3.org/2000/svg" xmlns:xlink="http://www.w3.org/1999/xlink" width="124.001" height="124" viewBox="0 0 124.001 124">
  <defs>
    <clipPath id="clip-path">
      <path id="path1425" d="M0-682.665H68.971v68.971H0Z" transform="translate(0 682.665)"/>
    </clipPath>
  </defs>
  <g id="Grupo_1083632" data-name="Grupo 1083632" transform="translate(-385 -2058)">
    <g id="Grupo_159182" data-name="Grupo 159182" transform="translate(0.001)">
      <path id="Unión_12" data-name="Unión 12" d="M8464.769,11817.939a62.055,62.055,0,1,1,20.7-16.051l8.516,22.111Z" transform="translate(-7991 -9642)" fill="#a3bfe4"/>
      <circle id="Elipse_4842" data-name="Elipse 4842" cx="48" cy="48" r="48" transform="translate(399 2072)" fill="#e3ecf7"/>
    </g>
    <g id="g1419" transform="translate(416.5 2768.18)">
      <g id="g1421" transform="translate(0 -682.665)">
        <g id="g1423" clip-path="url(#clip-path)">
          <g id="g1429" transform="translate(18.567 12.208)">
            <path id="path1431" d="M-183.859-91.929A10.331,10.331,0,0,1-194.19-81.6a10.332,10.332,0,0,1-10.332-10.331,10.332,10.332,0,0,1,10.332-10.332,10.332,10.332,0,0,1,10.331,10.332" transform="translate(204.522 102.261)" fill="#fe7ab7"/>
          </g>
          <g id="g1433" transform="translate(18.567 12.209)">
            <path id="path1435" d="M-106.917-182.634a10.354,10.354,0,0,1-1.684.137,10.332,10.332,0,0,1-10.332-10.332A10.332,10.332,0,0,1-108.6-203.159a10.354,10.354,0,0,1,1.684.137,10.332,10.332,0,0,0-8.648,10.193,10.333,10.333,0,0,0,8.648,10.195" transform="translate(118.933 203.159)" fill="#fe5ca7"/>
          </g>
          <g id="g1437" transform="translate(16.294 22.041)">
            <path id="path1439" d="M-133.318-185.663V-197.99a2.878,2.878,0,0,1,2.792-2.9,2.814,2.814,0,0,1,2.034.828,2.816,2.816,0,0,1,.828,2v3.475a2.878,2.878,0,0,1,2.791-2.9,2.814,2.814,0,0,1,2.034.828,2.813,2.813,0,0,1,.828,2v3.872a2.878,2.878,0,0,1,2.792-2.9,2.814,2.814,0,0,1,2.034.828,2.813,2.813,0,0,1,.828,2v11.5a11.086,11.086,0,0,1-1.658,5.832h0a11.087,11.087,0,0,0-1.658,5.832v3.344h-17.722v-5.771a6.108,6.108,0,0,0-1.236-3.684l-9.315-12.323a1.741,1.741,0,0,1,.9-2.728A5.663,5.663,0,0,1-142.2-188l2.8,2.031a.269.269,0,0,0,.427-.218v-17.433a2.878,2.878,0,0,1,2.792-2.9,2.814,2.814,0,0,1,2.034.828,2.811,2.811,0,0,1,.828,2Z" transform="translate(148.301 206.528)" fill="#ffe5c2"/>
          </g>
          <g id="g1441" transform="translate(16.293 39.487)">
            <path id="path1443" d="M-112.426-135.789a6.107,6.107,0,0,1,1.235,3.683v5.772h-2.964v-5.772a6.107,6.107,0,0,0-1.235-3.683l-9.316-12.324a1.742,1.742,0,0,1,.9-2.728,5.657,5.657,0,0,1,3-.011l-.04.011a1.742,1.742,0,0,0-.9,2.728Z" transform="translate(125.061 151.05)" fill="#fed2a4"/>
          </g>
          <g id="g1445" transform="translate(25.244 60.578)">
            <path id="path1447" d="M-181.462-64.769h-19.316a1.078,1.078,0,0,1-1.078-1.078V-70.97a1.078,1.078,0,0,1,1.078-1.078h19.316a1.078,1.078,0,0,1,1.078,1.078v5.124a1.078,1.078,0,0,1-1.078,1.078" transform="translate(201.855 72.048)" fill="#bd80e1"/>
          </g>
          <g id="g1449" transform="translate(25.244 60.578)">
            <path id="path1451" d="M-39.555-64.774h-3.368A1.078,1.078,0,0,1-44-65.851v-5.124a1.077,1.077,0,0,1,1.078-1.078h3.368a1.077,1.077,0,0,0-1.078,1.078v5.124a1.078,1.078,0,0,0,1.078,1.078" transform="translate(44 72.053)" fill="#af66da"/>
          </g>
          <g id="g1453" transform="translate(50.629 13.773)">
            <path id="path1455" d="M-73.778-152.932l-8.134-8.134a.539.539,0,0,1,0-.762l8.134-8.134a.539.539,0,0,1,.762,0l8.134,8.134a.539.539,0,0,1,0,.762l-8.134,8.134a.539.539,0,0,1-.762,0" transform="translate(82.07 170.119)" fill="#bbf49c"/>
          </g>
          <g id="g1457" transform="translate(0.996 1.112)">
            <path id="path1459" d="M-76.45-38.226a4.3,4.3,0,0,1-4.3,4.3,4.3,4.3,0,0,1-4.3-4.3,4.3,4.3,0,0,1,4.3-4.3,4.3,4.3,0,0,1,4.3,4.3" transform="translate(85.042 42.523)" fill="#99e6fc"/>
          </g>
          <g id="g1461" transform="translate(0.996 23.667)">
            <path id="path1463" d="M-108.232-54.115a6.082,6.082,0,0,1-6.082,6.082,6.082,6.082,0,0,1-6.082-6.082,6.082,6.082,0,0,1,6.082-6.082,6.082,6.082,0,0,1,6.082,6.082" transform="translate(120.396 60.197)" fill="#fef48b"/>
          </g>
          <g id="g1465" transform="translate(0.997 23.667)">
            <path id="path1467" d="M-69.1-106.138a6.1,6.1,0,0,1-1.684.236,6.081,6.081,0,0,1-6.082-6.082,6.082,6.082,0,0,1,6.082-6.082,6.1,6.1,0,0,1,1.684.236,6.087,6.087,0,0,0-4.4,5.846,6.084,6.084,0,0,0,4.4,5.846" transform="translate(76.866 118.066)" fill="#fee45a"/>
          </g>
          <g id="g1469" transform="translate(50.629 13.773)">
            <path id="path1471" d="M-31.368-80.559l6.831,6.831-1.3,1.3a.538.538,0,0,1-.761,0l-8.135-8.134a.54.54,0,0,1,0-.762l8.135-8.134a.538.538,0,0,1,.761,0l1.3,1.3-6.831,6.831a.54.54,0,0,0,0,.762" transform="translate(34.893 89.613)" fill="#9be69d"/>
          </g>
          <g id="g1473" transform="translate(31.276 27.674)">
            <path id="path1475" d="M-38.44-3.8A2.936,2.936,0,0,0-39.8-1.325V9.656a1.078,1.078,0,0,1-1.078,1.078H-42.76V-1.329A2.875,2.875,0,0,1-40-4.229,2.805,2.805,0,0,1-38.44-3.8" transform="translate(42.76 4.23)" fill="#fed2a4"/>
          </g>
          <g id="g1477" transform="translate(25.623 22.041)">
            <path id="path1479" d="M0-182.168v-17.572a2.875,2.875,0,0,1,2.76-2.9,2.8,2.8,0,0,1,1.559.426,2.942,2.942,0,0,0-1.355,2.479v16.49a1.078,1.078,0,0,1-1.078,1.078Z" transform="translate(0 202.642)" fill="#fed2a4"/>
          </g>
          <g id="g1481" transform="translate(36.93 31.072)">
            <path id="path1483" d="M-38.44-3.8A2.936,2.936,0,0,0-39.8-1.324V6.26a1.078,1.078,0,0,1-1.078,1.078H-42.76V-1.324a2.878,2.878,0,0,1,2.793-2.9A2.8,2.8,0,0,1-38.44-3.8" transform="translate(42.76 4.229)" fill="#fed2a4"/>
          </g>
          <g id="g1485" transform="translate(42.585 34.866)">
            <path id="path1487" d="M-37.265-3.107a2.922,2.922,0,0,0-1.763,2.69V3.257a1.078,1.078,0,0,1-1.093,1.078l-1.332-.018V-.551a2.877,2.877,0,0,1,2.791-2.9,2.8,2.8,0,0,1,1.4.349" transform="translate(41.453 3.456)" fill="#fed2a4"/>
          </g>
          <g id="g1489" transform="translate(30.316 26.664)">
            <path id="path1491" d="M-3.336-143.52a1.01,1.01,0,0,1-1.01-1.01v-12.406a1.8,1.8,0,0,0-.533-1.284,1.8,1.8,0,0,0-1.307-.532,1.864,1.864,0,0,0-1.794,1.895v12.328a1.01,1.01,0,0,1-1.01,1.01,1.01,1.01,0,0,1-1.01-1.01v-12.328a3.892,3.892,0,0,1,3.789-3.915,3.8,3.8,0,0,1,2.762,1.125,3.811,3.811,0,0,1,1.123,2.712v12.406A1.01,1.01,0,0,1-3.336-143.52Z" transform="translate(10 160.774)"/>
          </g>
          <g id="g1493" transform="translate(35.971 30.062)">
            <path id="path1495" d="M-3.336-113.287a1.01,1.01,0,0,1-1.01-1.01v-9.008a1.8,1.8,0,0,0-.531-1.283,1.8,1.8,0,0,0-1.308-.534,1.864,1.864,0,0,0-1.794,1.894v8.93a1.01,1.01,0,0,1-1.01,1.01A1.01,1.01,0,0,1-10-114.3v-8.93a3.891,3.891,0,0,1,3.789-3.915,3.8,3.8,0,0,1,2.762,1.125,3.8,3.8,0,0,1,1.123,2.712v9.008A1.01,1.01,0,0,1-3.336-113.287Z" transform="translate(10 127.143)"/>
          </g>
          <g id="g1497" transform="translate(15.334 21.03)">
            <path id="path1499" d="M-146.381-175.977a1.01,1.01,0,0,1-1.01-1.01v-2.147a5.126,5.126,0,0,0-1.031-3.074l-9.316-12.323a2.77,2.77,0,0,1-.412-2.559,2.717,2.717,0,0,1,1.843-1.751,6.632,6.632,0,0,1,5.713,1.024l1.627,1.179v-15.981a3.893,3.893,0,0,1,3.789-3.916,3.805,3.805,0,0,1,2.763,1.125,3.806,3.806,0,0,1,1.123,2.713v18.039a1.01,1.01,0,0,1-1.01,1.01,1.01,1.01,0,0,1-1.01-1.01V-212.7a1.8,1.8,0,0,0-.532-1.284,1.8,1.8,0,0,0-1.309-.534,1.865,1.865,0,0,0-1.793,1.9v17.433a1.275,1.275,0,0,1-.7,1.139,1.275,1.275,0,0,1-1.333-.1l-2.8-2.033a4.623,4.623,0,0,0-3.983-.714.685.685,0,0,0-.472.453.745.745,0,0,0,.111.693l9.316,12.323a7.158,7.158,0,0,1,1.44,4.292v2.147A1.01,1.01,0,0,1-146.381-175.977Z" transform="translate(158.298 216.535)"/>
          </g>
          <g id="g1501" transform="translate(41.625 33.856)">
            <path id="path1503" d="M-8.99-79.527A1.01,1.01,0,0,1-10-80.537v-5.136a3.89,3.89,0,0,1,3.789-3.915,3.8,3.8,0,0,1,2.762,1.125,3.8,3.8,0,0,1,1.123,2.711V-83.2a1.01,1.01,0,0,1-1.01,1.01,1.01,1.01,0,0,1-1.01-1.01v-2.554a1.8,1.8,0,0,0-.532-1.282,1.8,1.8,0,0,0-1.308-.534,1.863,1.863,0,0,0-1.793,1.894v5.136A1.01,1.01,0,0,1-8.99-79.527Z" transform="translate(10 89.589)"/>
          </g>
          <g id="g1505" transform="translate(43.966 43.951)">
            <path id="path1507" d="M-41.776,7.637H-41.8A1.01,1.01,0,0,1-42.786,6.6a12.019,12.019,0,0,1,.457-3A12.043,12.043,0,0,1-40.981.543a10.066,10.066,0,0,0,1.507-5.3V-8.99A1.01,1.01,0,0,1-38.464-10a1.01,1.01,0,0,1,1.01,1.01v4.233a12.086,12.086,0,0,1-1.81,6.365,10.026,10.026,0,0,0-1.122,2.545,10,10,0,0,0-.381,2.5A1.01,1.01,0,0,1-41.776,7.637Z" transform="translate(42.787 10)"/>
          </g>
          <g id="g1509" transform="translate(24.284 59.568)">
            <path id="path1511" d="M-71.636-72.753h-12a1.01,1.01,0,0,1-1.01-1.01,1.01,1.01,0,0,1,1.01-1.01h12l.067-5.192-19.383-.067-.067,5.192,2.665.067a1.01,1.01,0,0,1,1.01,1.01,1.01,1.01,0,0,1-1.01,1.01h-2.6a2.09,2.09,0,0,1-2.088-2.088v-5.124a2.09,2.09,0,0,1,2.088-2.088h19.316a2.09,2.09,0,0,1,2.088,2.088v5.124A2.09,2.09,0,0,1-71.636-72.753Z" transform="translate(93.04 82.053)"/>
          </g>
          <g id="g1513" transform="translate(17.607 11.198)">
            <path id="path1515" d="M-71.773-187.113a1.009,1.009,0,0,1-.32-.052,11.329,11.329,0,0,1-7.746-10.758A11.355,11.355,0,0,1-68.5-209.266a11.355,11.355,0,0,1,11.341,11.342,11.337,11.337,0,0,1-2.8,7.462,1.01,1.01,0,0,1-1.426.1,1.01,1.01,0,0,1-.1-1.426,9.317,9.317,0,0,0,2.3-6.133,9.332,9.332,0,0,0-9.321-9.322,9.332,9.332,0,0,0-9.322,9.322,9.31,9.31,0,0,0,6.366,8.842,1.01,1.01,0,0,1,.638,1.278A1.011,1.011,0,0,1-71.773-187.113Z" transform="translate(79.84 209.266)"/>
          </g>
          <g id="g1517" transform="translate(49.57 12.858)">
            <path id="path1519" d="M-82.377-160.753a1.539,1.539,0,0,1-1.1-.454l-8.134-8.134a1.552,1.552,0,0,1,0-2.191l8.134-8.134a1.539,1.539,0,0,1,1.1-.454,1.539,1.539,0,0,1,1.1.454l8.134,8.134a1.551,1.551,0,0,1,0,2.191l-8.134,8.134A1.539,1.539,0,0,1-82.377-160.753Zm-7.467-9.683,7.467,7.467,7.467-7.467-7.467-7.467Z" transform="translate(92.059 180.119)"/>
          </g>
          <g id="g1521" transform="translate(38.269 21.53)">
            <path id="path1523" d="M-109.53-7.979h-11.3a1.01,1.01,0,0,1-1.01-1.01,1.01,1.01,0,0,1,1.01-1.01h11.3a1.01,1.01,0,0,1,1.01,1.01A1.01,1.01,0,0,1-109.53-7.979Z" transform="translate(121.84 10)"/>
          </g>
          <g id="g1525" transform="translate(0.036 0.102)">
            <path id="path1527" d="M-89.736-41.91a5.312,5.312,0,0,1-5.306-5.306,5.312,5.312,0,0,1,5.306-5.306,5.312,5.312,0,0,1,5.306,5.306A5.312,5.312,0,0,1-89.736-41.91Zm0-8.592a3.289,3.289,0,0,0-3.286,3.286,3.289,3.289,0,0,0,3.286,3.286,3.289,3.289,0,0,0,3.286-3.286A3.29,3.29,0,0,0-89.736-50.5Z" transform="translate(95.042 52.523)"/>
          </g>
          <g id="g1529" transform="translate(7.809 6.921)">
            <path id="path1531" d="M-113.7-83.973a1.006,1.006,0,0,1-.593-.193l-11.768-8.541a1.01,1.01,0,0,1-.224-1.411,1.01,1.01,0,0,1,1.411-.224l11.768,8.541a1.01,1.01,0,0,1,.224,1.411A1.009,1.009,0,0,1-113.7-83.973Z" transform="translate(126.479 94.534)"/>
          </g>
          <g id="g1533" transform="translate(0.036 22.657)">
            <path id="path1535" d="M-123.3-70.2a7.1,7.1,0,0,1,7.092,7.092,7.1,7.1,0,0,1-7.092,7.092,7.1,7.1,0,0,1-7.092-7.092A7.1,7.1,0,0,1-123.3-70.2Zm0,12.164a5.077,5.077,0,0,0,5.071-5.071,5.077,5.077,0,0,0-5.071-5.071,5.077,5.077,0,0,0-5.072,5.071A5.077,5.077,0,0,0-123.3-58.034Z" transform="translate(130.394 70.197)"/>
          </g>
          <g id="g1537" transform="translate(11.923 24.958)">
            <path id="path1539" d="M-71.032-6.019A1.011,1.011,0,0,1-72-6.727a1.01,1.01,0,0,1,.662-1.266l6.268-1.963a1.01,1.01,0,0,1,1.266.662,1.01,1.01,0,0,1-.662,1.266L-70.73-6.065A1.01,1.01,0,0,1-71.032-6.019Z" transform="translate(72.042 10.003)"/>
          </g>
        </g>
      </g>
    </g>
  </g>
</svg>
