<svg xmlns="http://www.w3.org/2000/svg" width="124.001" height="124" viewBox="0 0 124.001 124">
  <g id="Grupo_1071489" data-name="Grupo 1071489" transform="translate(-736.999 -2058)">
    <g id="Grupo_159183" data-name="Grupo 159183" transform="translate(352.001)">
      <path id="Unión_12" data-name="Unión 12" d="M8464.769,11817.939a62.055,62.055,0,1,1,20.7-16.051l8.516,22.111Z" transform="translate(-7991 -9642)" fill="#a3bfe4"/>
      <circle id="Elipse_4842" data-name="Elipse 4842" cx="48" cy="48" r="48" transform="translate(399 2072)" fill="#fffbe5"/>
    </g>
    <g id="presupuesto_3_" data-name="presupuesto (3)" transform="translate(766.668 2088.16)">
      <g id="Grupo_1071501" data-name="Grupo 1071501">
        <g id="Grupo_1071492" data-name="Grupo 1071492">
          <path id="Trazado_608906" data-name="Trazado 608906" d="M4,42h8V62H4Z" fill="#ff826e"/>
        </g>
        <g id="Grupo_1071493" data-name="Grupo 1071493">
          <path id="Trazado_608907" data-name="Trazado 608907" d="M16,44h8V62H16Z" fill="#ff826e"/>
        </g>
        <g id="Grupo_1071494" data-name="Grupo 1071494">
          <path id="Trazado_608908" data-name="Trazado 608908" d="M53,62H40V24h8V34h-.17a2.828,2.828,0,0,0-2,4.83L49,42l-3.63,5.81A8.939,8.939,0,0,0,44,52.58V53A9,9,0,0,0,53,62Z" fill="#ff826e"/>
        </g>
        <g id="Grupo_1071495" data-name="Grupo 1071495">
          <path id="Trazado_608909" data-name="Trazado 608909" d="M28,32h8V62H28Z" fill="#ff826e"/>
        </g>
        <g id="Grupo_1071496" data-name="Grupo 1071496">
          <path id="Trazado_608910" data-name="Trazado 608910" d="M51.08,34a2.627,2.627,0,0,1,2.55-2h2.74A2.629,2.629,0,0,1,59,34.63a2.457,2.457,0,0,1-.1.72L57,42H49l-3.17-3.17a2.828,2.828,0,0,1,2-4.83h3.25Z" fill="#a0d468"/>
        </g>
        <g id="Grupo_1071497" data-name="Grupo 1071497">
          <path id="Trazado_608911" data-name="Trazado 608911" d="M49,42h8l3.63,5.81A8.939,8.939,0,0,1,62,52.58V53a9,9,0,0,1-18,0v-.42a8.939,8.939,0,0,1,1.37-4.77Z" fill="#b4dd7f"/>
        </g>
        <g id="Grupo_1071498" data-name="Grupo 1071498">
          <path id="Trazado_608912" data-name="Trazado 608912" d="M46.12,14.88A3,3,0,1,1,44,14,2.993,2.993,0,0,1,46.12,14.88Z" fill="#fcd770"/>
        </g>
        <g id="Grupo_1071499" data-name="Grupo 1071499">
          <path id="Trazado_608913" data-name="Trazado 608913" d="M32.61,23.52A2.944,2.944,0,0,1,33,25a3,3,0,0,1-5.96.49A2.628,2.628,0,0,1,27,25a3,3,0,0,1,5.61-1.48Z" fill="#fcd770"/>
        </g>
        <g id="Grupo_1071500" data-name="Grupo 1071500">
          <path id="Trazado_608914" data-name="Trazado 608914" d="M21.86,26.36A9.808,9.808,0,0,1,22,28a10.03,10.03,0,1,1-.14-1.64Z" fill="#fcd770"/>
        </g>
      </g>
      <g id="Grupo_1071502" data-name="Grupo 1071502">
        <path id="Trazado_608915" data-name="Trazado 608915" d="M11,32.855V35h2V32.855a2.844,2.844,0,0,0,.422-5.262l-1.95-.974A.855.855,0,0,1,11.854,25h.292a.855.855,0,0,1,.854.854V26h2v-.146a2.849,2.849,0,0,0-2-2.709V21H11v2.145a2.844,2.844,0,0,0-.422,5.262l1.95.974A.855.855,0,0,1,12.146,31h-.292A.855.855,0,0,1,11,30.146V29H9v1.146A2.849,2.849,0,0,0,11,32.855Z"/>
        <path id="Trazado_608916" data-name="Trazado 608916" d="M12,39A11.013,11.013,0,0,0,23,28c0-.274-.021-.543-.041-.813l3.392-.566a3.984,3.984,0,0,0,7.493-2.666l7.295-4.169a3.984,3.984,0,0,0,6.294-4.8L58,4.414V10h2V1H51V3h5.586L46.019,13.567A3.947,3.947,0,0,0,44,13a4,4,0,0,0-4,4,3.964,3.964,0,0,0,.156,1.045l-7.3,4.169a3.978,3.978,0,0,0-6.825,2.433l-3.407.568A10.995,10.995,0,1,0,12,39ZM44,15a2,2,0,1,1-2,2A2,2,0,0,1,44,15ZM30,23a2,2,0,1,1-2,2A2,2,0,0,1,30,23ZM12,19a9,9,0,1,1-9,9A9.011,9.011,0,0,1,12,19Z"/>
        <path id="Trazado_608917" data-name="Trazado 608917" d="M3,63H13V41H3ZM5,43h6V61H5Z"/>
        <path id="Trazado_608918" data-name="Trazado 608918" d="M15,63H25V43H15Zm2-18h6V61H17Z"/>
        <path id="Trazado_608919" data-name="Trazado 608919" d="M27,63H37V31H27Zm2-30h6V61H29Z"/>
        <path id="Trazado_608920" data-name="Trazado 608920" d="M54,47.145V45H52v2.145a2.844,2.844,0,0,0-.422,5.262l1.95.975A.854.854,0,0,1,53.146,55h-.292A.855.855,0,0,1,52,54.146V53H50v1.146a2.847,2.847,0,0,0,2,2.709V59h2V56.855a2.844,2.844,0,0,0,.422-5.262l-1.95-.975A.854.854,0,0,1,52.854,49h.292a.855.855,0,0,1,.854.854V50h2v-.146A2.849,2.849,0,0,0,54,47.145Z"/>
        <path id="Trazado_608921" data-name="Trazado 608921" d="M61.48,47.281l-3.4-5.434,1.777-6.219A3.633,3.633,0,0,0,56.369,31H53.632a3.621,3.621,0,0,0-3.226,2H49V23H39V63H53A10.011,10.011,0,0,0,63,53v-.419a9.991,9.991,0,0,0-1.52-5.3ZM52,34.632A1.633,1.633,0,0,1,53.631,33h2.737a1.631,1.631,0,0,1,1.569,2.08L56.246,41H49.414l-2.879-2.879A1.829,1.829,0,0,1,47.829,35H50v2h2ZM41,61V25h6v8.1a3.823,3.823,0,0,0-1.878,6.439l2.609,2.609-3.21,5.137A9.983,9.983,0,0,0,43,52.581V53a9.98,9.98,0,0,0,4.026,8Zm20-8a8,8,0,1,1-16,0v-.419a7.982,7.982,0,0,1,1.216-4.239L49.554,43h6.892l3.338,5.342A7.982,7.982,0,0,1,61,52.581Z"/>
      </g>
    </g>
  </g>
</svg>
