<svg xmlns="http://www.w3.org/2000/svg" xmlns:xlink="http://www.w3.org/1999/xlink" width="124.001" height="124" viewBox="0 0 124.001 124">
  <defs>
    <clipPath id="clip-path">
      <path id="path2346" d="M0-682.665H61.572v61.572H0Z" transform="translate(0 682.665)"/>
    </clipPath>
  </defs>
  <g id="Grupo_1071509" data-name="Grupo 1071509" transform="translate(-384.999 -2058)">
    <g id="Grupo_159182" data-name="Grupo 159182" transform="translate(0.001)">
      <path id="Unión_12" data-name="Unión 12" d="M8464.769,11817.939a62.055,62.055,0,1,1,20.7-16.051l8.516,22.111Z" transform="translate(-7991 -9642)" fill="#a3bfe4"/>
      <circle id="Elipse_4842" data-name="Elipse 4842" cx="48" cy="48" r="48" transform="translate(399 2072)" fill="#e3ecf7"/>
    </g>
    <g id="g2340" transform="translate(416.214 2771.879)">
      <g id="g2342" transform="translate(0 -682.665)">
        <g id="g2344" transform="translate(0 0)" clip-path="url(#clip-path)">
          <g id="g2350" transform="translate(1.203 6.013)">
            <path id="path2352" d="M-542.85,0H-594.2a2.465,2.465,0,0,0-2.465,2.465V47.081a2.465,2.465,0,0,0,2.465,2.465h51.35a2.465,2.465,0,0,0,2.465-2.465V2.465A2.465,2.465,0,0,0-542.85,0" transform="translate(596.665)" fill="#fff"/>
          </g>
          <g id="g2354" transform="translate(1.203 6.013)">
            <path id="path2356" d="M-120.094,0h-9.44A2.465,2.465,0,0,0-132,2.465V47.081a2.465,2.465,0,0,0,2.465,2.465h51.35a2.465,2.465,0,0,0,2.465-2.465V2.465A2.465,2.465,0,0,0-78.184,0h-9.44" transform="translate(132)" fill="#fff"/>
          </g>
          <g id="g2358" transform="translate(1.203 6.013)">
            <path id="path2360" d="M-542.85,0H-594.2a2.465,2.465,0,0,0-2.465,2.465V47.081a2.465,2.465,0,0,0,2.465,2.465h51.35a2.465,2.465,0,0,0,2.465-2.465V2.465A2.465,2.465,0,0,0-542.85,0" transform="translate(596.665)" fill="#fff"/>
          </g>
          <path id="path2362" d="M122.069-416.951H77.333v-28.381h44.736Z" transform="translate(-70.358 466.738)" fill="#c9f3ff"/>
          <path id="path2364" d="M185.48-330.739h-8.947V-340h8.947Z" transform="translate(-160.611 370.906)" fill="#ff5d5d"/>
          <g id="g2366" transform="translate(1.203 6.013)">
            <path id="path2368" d="M-542.85,0H-594.2a2.465,2.465,0,0,0-2.465,2.465V9.621h56.281V2.465A2.465,2.465,0,0,0-542.85,0" transform="translate(596.665)" fill="#a0e557"/>
          </g>
          <g id="g2370" transform="translate(13.589 1.203)">
            <path id="path2372" d="M-24.261-97.046h0a2.4,2.4,0,0,1-2.405-2.405v-4.81a2.4,2.4,0,0,1,2.405-2.405h0a2.4,2.4,0,0,1,2.405,2.405v4.81a2.4,2.4,0,0,1-2.405,2.405" transform="translate(26.667 106.666)" fill="#72d8ff"/>
          </g>
          <g id="g2374" transform="translate(40.287 1.203)">
            <path id="path2376" d="M-24.261-97.046h0a2.4,2.4,0,0,0,2.405-2.405v-4.81a2.4,2.4,0,0,0-2.405-2.405h0a2.4,2.4,0,0,0-2.405,2.405v4.81a2.4,2.4,0,0,0,2.405,2.405" transform="translate(26.667 106.666)" fill="#72d8ff"/>
          </g>
          <g id="g2378" transform="translate(9.621 14.431)">
            <path id="path2380" d="M34.008-10.928H-12.131a1.2,1.2,0,0,1-1.2-1.2,1.2,1.2,0,0,1,1.2-1.2H34.008a1.2,1.2,0,0,1,1.2,1.2A1.2,1.2,0,0,1,34.008-10.928Z" transform="translate(13.333 13.333)"/>
          </g>
          <g id="g2382" transform="translate(12.387 0)">
            <path id="path2384" d="M-36.392-107.974A3.612,3.612,0,0,1-40-111.582v-4.81A3.612,3.612,0,0,1-36.392-120a3.612,3.612,0,0,1,3.608,3.608v4.81A3.612,3.612,0,0,1-36.392-107.974Zm0-9.621a1.2,1.2,0,0,0-1.2,1.2v4.81a1.2,1.2,0,0,0,1.2,1.2,1.2,1.2,0,0,0,1.2-1.2v-4.81A1.2,1.2,0,0,0-36.392-117.595Z" transform="translate(40 120)"/>
          </g>
          <g id="g2386" transform="translate(39.084 0)">
            <path id="path2388" d="M-36.392-107.974A3.612,3.612,0,0,1-40-111.582v-4.81A3.612,3.612,0,0,1-36.392-120a3.612,3.612,0,0,1,3.608,3.608v4.81A3.612,3.612,0,0,1-36.392-107.974Zm0-9.621a1.2,1.2,0,0,0-1.2,1.2v4.81a1.2,1.2,0,0,0,1.2,1.2,1.2,1.2,0,0,0,1.2-1.2v-4.81A1.2,1.2,0,0,0-36.392-117.595Z" transform="translate(40 120)"/>
          </g>
          <g id="g2390" transform="translate(44.375 4.81)">
            <path id="path2392" d="M-132.225-383.745a1.2,1.2,0,0,1-1.2-1.2v-34.494a1.264,1.264,0,0,0-1.263-1.263h-9.44a1.2,1.2,0,0,1-1.2-1.2,1.2,1.2,0,0,1,1.2-1.2h9.44a3.672,3.672,0,0,1,3.668,3.668v34.494A1.2,1.2,0,0,1-132.225-383.745Z" transform="translate(145.333 423.11)"/>
          </g>
          <g id="g2394" transform="translate(28.477 54.357)">
            <path id="path2396" d="M-.321-10.928H-12.131a1.2,1.2,0,0,1-1.2-1.2,1.2,1.2,0,0,1,1.2-1.2H-.321a1.2,1.2,0,0,1,1.2,1.2A1.2,1.2,0,0,1-.321-10.928Z" transform="translate(13.333 13.333)"/>
          </g>
          <g id="g2398" transform="translate(0 4.81)">
            <path id="path2400" d="M-125.274,38.618h-16.391a3.672,3.672,0,0,1-3.668-3.668V-9.665a3.672,3.672,0,0,1,3.668-3.668h9.44a1.2,1.2,0,0,1,1.2,1.2,1.2,1.2,0,0,1-1.2,1.2h-9.44a1.264,1.264,0,0,0-1.263,1.263V34.95a1.264,1.264,0,0,0,1.263,1.263h16.391a1.2,1.2,0,0,1,1.2,1.2A1.2,1.2,0,0,1-125.274,38.618Z" transform="translate(145.333 13.333)"/>
          </g>
          <g id="g2402" transform="translate(17.798 4.81)">
            <path id="path2404" d="M-222.8-10.928h-20.885a1.2,1.2,0,0,1-1.2-1.2,1.2,1.2,0,0,1,1.2-1.2H-222.8a1.2,1.2,0,0,1,1.2,1.2A1.2,1.2,0,0,1-222.8-10.928Z" transform="translate(244.889 13.333)"/>
          </g>
          <g id="g2406" transform="translate(5.772 20.203)">
            <path id="path2408" d="M-341.682-297.213h-32.67a1.2,1.2,0,0,1-1.2-1.2V-326.8a1.2,1.2,0,0,1,1.2-1.2h44.736a1.2,1.2,0,0,1,1.2,1.2v18.76a1.2,1.2,0,0,1-1.2,1.2,1.2,1.2,0,0,1-1.2-1.2v-17.558H-373.15v25.976h31.468a1.2,1.2,0,0,1,1.2,1.2A1.2,1.2,0,0,1-341.682-297.213Z" transform="translate(375.555 327.999)"/>
          </g>
          <g id="g2410" transform="translate(40.166 40.166)">
            <path id="path2412" d="M-203.8-101.9A10.1,10.1,0,0,0-213.9-112,10.1,10.1,0,0,0-224-101.9a10.1,10.1,0,0,0,10.1,10.1,10.1,10.1,0,0,0,10.1-10.1" transform="translate(223.999 112)" fill="#ff5d5d"/>
          </g>
          <g id="g2414" transform="translate(38.964 38.964)">
            <path id="path2416" d="M-226.029-125.333a11.317,11.317,0,0,1,11.3,11.3,11.317,11.317,0,0,1-11.3,11.3,11.317,11.317,0,0,1-11.3-11.3A11.317,11.317,0,0,1-226.029-125.333Zm0,20.2a8.909,8.909,0,0,0,8.9-8.9,8.909,8.909,0,0,0-8.9-8.9,8.909,8.909,0,0,0-8.9,8.9A8.909,8.909,0,0,0-226.029-105.13Z" transform="translate(237.333 125.333)"/>
          </g>
          <g id="g2418" transform="translate(46.319 47.001)">
            <path id="path2420" d="M-9.625-29.248a1.2,1.2,0,0,1-.85-.352l-2.505-2.505a1.2,1.2,0,0,1,0-1.7,1.2,1.2,0,0,1,1.7,0l1.655,1.655,3.719-3.719a1.2,1.2,0,0,1,1.7,0,1.2,1.2,0,0,1,0,1.7l-4.57,4.57A1.2,1.2,0,0,1-9.625-29.248Z" transform="translate(13.333 36.223)"/>
          </g>
          <g id="g2422" transform="translate(6.173 29.704)">
            <path id="path2424" d="M32.024-10.928H-12.131a1.2,1.2,0,0,1-1.2-1.2,1.2,1.2,0,0,1,1.2-1.2H32.024a1.2,1.2,0,0,1,1.2,1.2A1.2,1.2,0,0,1,32.024-10.928Z" transform="translate(13.333 13.333)"/>
          </g>
          <g id="g2426" transform="translate(6.173 39.084)">
            <path id="path2428" d="M29.2-10.928H-12.131a1.2,1.2,0,0,1-1.2-1.2,1.2,1.2,0,0,1,1.2-1.2H29.2a1.2,1.2,0,0,1,1.2,1.2A1.2,1.2,0,0,1,29.2-10.928Z" transform="translate(13.333 13.333)"/>
          </g>
          <g id="g2430" transform="translate(14.72 20.203)">
            <path id="path2432" d="M-12.131,17.3a1.2,1.2,0,0,1-1.2-1.2V-12.131a1.2,1.2,0,0,1,1.2-1.2,1.2,1.2,0,0,1,1.2,1.2V16.1A1.2,1.2,0,0,1-12.131,17.3Z" transform="translate(13.333 13.333)"/>
          </g>
          <g id="g2434" transform="translate(23.667 20.203)">
            <path id="path2436" d="M-12.131,17.3a1.2,1.2,0,0,1-1.2-1.2V-12.131a1.2,1.2,0,0,1,1.2-1.2,1.2,1.2,0,0,1,1.2,1.2V16.1A1.2,1.2,0,0,1-12.131,17.3Z" transform="translate(13.333 13.333)"/>
          </g>
          <g id="g2438" transform="translate(32.614 20.203)">
            <path id="path2440" d="M-12.131,17.3a1.2,1.2,0,0,1-1.2-1.2V-12.131a1.2,1.2,0,0,1,1.2-1.2,1.2,1.2,0,0,1,1.2,1.2V16.1A1.2,1.2,0,0,1-12.131,17.3Z" transform="translate(13.333 13.333)"/>
          </g>
          <g id="g2442" transform="translate(41.561 20.203)">
            <path id="path2444" d="M-12.131,11.079a1.2,1.2,0,0,1-1.2-1.2V-12.131a1.2,1.2,0,0,1,1.2-1.2,1.2,1.2,0,0,1,1.2,1.2V9.877A1.2,1.2,0,0,1-12.131,11.079Z" transform="translate(13.333 13.333)"/>
          </g>
          <g id="g2446" transform="translate(24.869 55.559)">
            <path id="path2448"/>
          </g>
          <g id="g2450" transform="translate(6.013 15.634)">
            <path id="path2452"/>
          </g>
        </g>
      </g>
    </g>
  </g>
</svg>
