<svg xmlns="http://www.w3.org/2000/svg" width="124.001" height="124" viewBox="0 0 124.001 124">
  <g id="Grupo_1083635" data-name="Grupo 1083635" transform="translate(-385 -2058)">
    <g id="Grupo_159182" data-name="Grupo 159182" transform="translate(0.001)">
      <path id="Unión_12" data-name="Unión 12" d="M8464.769,11817.939a62.055,62.055,0,1,1,20.7-16.051l8.516,22.111Z" transform="translate(-7991 -9642)" fill="#a3bfe4"/>
      <circle id="Elipse_4842" data-name="Elipse 4842" cx="48" cy="48" r="48" transform="translate(399 2072)" fill="#e3ecf7"/>
    </g>
    <g id="lista-de-verificacion_3_" data-name="lista-de-verificacion (3)" transform="translate(416.118 2083.956)">
      <path id="Trazado_838377" data-name="Trazado 838377" d="M310.277,363.093v8.786H296V366.75a2.883,2.883,0,0,0,.878-1.417l1.175-4.294a14.7,14.7,0,0,1,2.811.648l1.856.615a15.252,15.252,0,0,0,4.865.791,14.174,14.174,0,0,0,2.647-.242Zm0,0" transform="translate(-255.366 -311.477)" fill="#ccd1d9"/>
      <path id="Trazado_838378" data-name="Trazado 838378" d="M325.778,288.648a2.2,2.2,0,0,1-1.559,3.745H322L323.187,288h1.032A2.193,2.193,0,0,1,325.778,288.648Zm0,0" transform="translate(-277.798 -248.465)" fill="#ccd1d9"/>
      <path id="Trazado_838379" data-name="Trazado 838379" d="M234.1,288.066l-1.164,4.327h-3.481a4.421,4.421,0,0,0-3.108,1.285l-.187-.187,4.206-4.206A4.4,4.4,0,0,1,233.474,288h.373Zm0,0" transform="translate(-195.114 -248.464)" fill="#e6e9ed"/>
      <path id="Trazado_838380" data-name="Trazado 838380" d="M201.052,248.164l-1.461,5.392-.253-.066h-.373a4.4,4.4,0,0,0-3.108,1.285l-4.206,4.206-1.5,1.515a2.328,2.328,0,0,1-1.647.681,2.369,2.369,0,0,1-1.658-.681,2.32,2.32,0,0,1,.011-3.295l7.907-7.918A4.4,4.4,0,0,1,197.868,248h2.57Zm0,0" transform="translate(-160.605 -213.956)" fill="#f0d0b4"/>
      <path id="Trazado_838381" data-name="Trazado 838381" d="M137.259,39.848V14.589H112V8h39.535V44.241l-.077.11-4.009-2.669a4.358,4.358,0,0,0-2.438-.736H143.5l2.119-7.83,1.175-4.371,1.647-6.1a2.987,2.987,0,0,0,.1-.758,2.906,2.906,0,0,0-2.9-2.91h-.362a2.9,2.9,0,0,0-2.8,2.152L140.948,26.8l-1.186,4.36L137.4,39.892Zm0,0" transform="translate(-96.625 -6.902)" fill="#ccd1d9"/>
      <path id="Trazado_838382" data-name="Trazado 838382" d="M47.535,81.259l.143.044-.329,1.219-.615-.165h-2.57a4.4,4.4,0,0,0-3.108,1.285L33.149,91.56a2.32,2.32,0,0,0-.011,3.295,2.369,2.369,0,0,0,1.658.681,2.328,2.328,0,0,0,1.647-.681l1.5-1.515.187.187a4.421,4.421,0,0,0-1.285,3.108,1.1,1.1,0,0,0,1.1,1.1h5.293l-.79,2.921a3.005,3.005,0,0,0-.11.758,2.915,2.915,0,0,0,2.91,2.91h.362a2.888,2.888,0,0,0,1.922-.736V115.3H8V56H47.535Zm0,0" transform="translate(-6.902 -48.313)" fill="#e6e9ed"/>
      <path id="Trazado_838383" data-name="Trazado 838383" d="M40,88H66.357v8.786H40Zm0,0" transform="translate(-34.509 -75.92)" fill="#b4dd7f"/>
      <path id="Trazado_838384" data-name="Trazado 838384" d="M47.687,352h3.295v10.982H40V352Zm0,0" transform="translate(-34.509 -303.679)" fill="#ff826e"/>
      <path id="Trazado_838385" data-name="Trazado 838385" d="M47.687,216h3.295v10.982H40V216Zm0,0" transform="translate(-34.509 -186.349)" fill="#ff826e"/>
      <path id="Trazado_838386" data-name="Trazado 838386" d="M330.467,90.91a2.988,2.988,0,0,1-.1.758l-1.647,6.1-5.843-1.944,1.527-5.667a2.9,2.9,0,0,1,2.8-2.152h.363a2.906,2.906,0,0,1,2.9,2.91Zm0,0" transform="translate(-278.555 -75.92)" fill="#ffeaa7"/>
      <path id="Trazado_838387" data-name="Trazado 838387" d="M321.267,146.9l-1.175,4.371-5.854-1.955,1.186-4.36Zm0,0" transform="translate(-271.101 -125.061)" fill="#e6e9ed"/>
      <path id="Trazado_838388" data-name="Trazado 838388" d="M263.355,365.854a2.888,2.888,0,0,1-1.922.736h-.362a2.915,2.915,0,0,1-2.91-2.91,3.007,3.007,0,0,1,.11-.758l.79-2.921h4.294a14.265,14.265,0,0,1,2.054.143l-1.175,4.294A2.883,2.883,0,0,1,263.355,365.854Zm0,0" transform="translate(-222.721 -310.581)" fill="#fcd770"/>
      <path id="Trazado_838389" data-name="Trazado 838389" d="M284.569,186.5l-2.669,9.884h-6.381l1.164-4.327,1.461-5.392.329-1.219,2.361-8.731,5.854,1.955Zm0,0" transform="translate(-237.697 -152.46)" fill="#fcd770"/>
      <path id="Trazado_838390" data-name="Trazado 838390" d="M230.9,263.517a14.26,14.26,0,0,0-2.054-.143h-9.587a1.1,1.1,0,0,1-1.1-1.1,4.387,4.387,0,0,1,4.393-4.393h12.08a2.2,2.2,0,1,0,0-4.393H233.6L235.084,248H236.6a4.358,4.358,0,0,1,2.438.736l4.009,2.669,3.668,2.449a4.359,4.359,0,0,0,2.438.736H256.3v8.786h-3.295a15.261,15.261,0,0,0-3.734.461l-5.107,1.274c-.363.088-.725.165-1.087.219a14.176,14.176,0,0,1-2.647.242,15.252,15.252,0,0,1-4.865-.791l-1.856-.615a14.7,14.7,0,0,0-2.811-.648Zm0,0" transform="translate(-188.212 -213.956)" fill="#f0d0b4"/>
      <path id="Trazado_838391" data-name="Trazado 838391" d="M48.39,35.142a3.282,3.282,0,0,1,1.827.553l7.67,5.114a5.485,5.485,0,0,0,3.046.922h7.155v-2.2H60.935a3.287,3.287,0,0,1-1.829-.553l-3.1-2.066V0H14.277V6.589H0v61.5H41.732V61.5H56.008V52.26c.069-.017.14-.022.21-.04l5.108-1.277a14.362,14.362,0,0,1,3.468-.426h3.295v-2.2H64.794a16.518,16.518,0,0,0-4,.492L55.686,50.09a14.356,14.356,0,0,1-7.987-.306l-1.851-.617a16.455,16.455,0,0,0-5.214-.846H31.051a3.3,3.3,0,0,1,3.295-3.295h12.08a3.286,3.286,0,0,0,.386-6.551l.9-3.333ZM47,51.867a16.44,16.44,0,0,0,5.215.847c.533,0,1.064-.046,1.594-.1V59.3H41.732V55.711a3.961,3.961,0,0,0,.845-1.566l.9-3.331a14.174,14.174,0,0,1,1.677.437Zm-5.728-1.324-.818,3.029a1.814,1.814,0,0,1-1.748,1.339h-.356a1.81,1.81,0,0,1-1.747-2.282l.57-2.111h3.458c.214,0,.427.017.641.025ZM34.9,50.517l-.415,1.536a3.981,3.981,0,0,0,1.886,4.507l-.345,1.377,2.13.533.342-1.364h.211a3.989,3.989,0,0,0,.827-.1v8.882H2.2V8.785H16.473V2.2H53.812V35.452l-2.376-1.584a5.482,5.482,0,0,0-3.046-.922h-.085l4.571-16.911a4.009,4.009,0,0,0-3.868-5.053h-.356a4.014,4.014,0,0,0-3.868,2.962l-3.053,11.3V6.589H18.669v2.2H39.535v24.16H37.264A5.431,5.431,0,0,0,34,34.044H23.062v2.2h8.632l-2.2,2.2H23.062v2.2H27.3l-1.835,1.835a3.408,3.408,0,0,0,3.4,5.693c0,.054-.017.1-.017.159a2.2,2.2,0,0,0,2.2,2.2Zm8.46-7.687H39.253l4.637-17.158,3.767,1.255Zm-8.425-6.723a3.274,3.274,0,0,1,2.33-.964h1.791l-.9,3.314a5.439,5.439,0,0,0-3.68,1.588l-5.718,5.718a1.232,1.232,0,0,1-2.1-.87,1.223,1.223,0,0,1,.361-.871Zm1.1,5.491a3.26,3.26,0,0,1,1.508-.849l-.563,2.081H34.8ZM50.755,15.462l-1.345,4.976-3.767-1.255L46.9,14.517a1.815,1.815,0,0,1,1.748-1.339h.356a1.811,1.811,0,0,1,1.747,2.283ZM45.07,21.306l3.767,1.255L48.231,24.8l-3.767-1.255Zm1.355,19.327a1.1,1.1,0,1,1,0,2.2h-.791l.594-2.2Zm0,0"/>
      <path id="Trazado_838392" data-name="Trazado 838392" d="M60.553,80H32V90.982H60.553Zm-2.2,8.786H34.2V82.2h24.16Zm0,0" transform="translate(-27.607 -69.018)"/>
      <path id="Trazado_838393" data-name="Trazado 838393" d="M64,112h2.2v2.2H64Zm0,0" transform="translate(-55.214 -96.625)"/>
      <path id="Trazado_838394" data-name="Trazado 838394" d="M96,112h2.2v2.2H96Zm0,0" transform="translate(-82.822 -96.625)"/>
      <path id="Trazado_838395" data-name="Trazado 838395" d="M128,112h2.2v2.2H128Zm0,0" transform="translate(-110.429 -96.625)"/>
      <path id="Trazado_838396" data-name="Trazado 838396" d="M160,112h2.2v2.2H160Zm0,0" transform="translate(-138.036 -96.625)"/>
      <path id="Trazado_838397" data-name="Trazado 838397" d="M192,112h2.2v2.2H192Zm0,0" transform="translate(-165.643 -96.625)"/>
      <path id="Trazado_838398" data-name="Trazado 838398" d="M45.178,214.589h-2.2v4.393H34.2V210.2h6.589V208H32v13.178H45.178Zm0,0" transform="translate(-27.607 -179.447)"/>
      <path id="Trazado_838399" data-name="Trazado 838399" d="M71.522,178.344,61.317,188.55l-1.42-1.42-1.553,1.553,2.973,2.973L73.075,179.9Zm0,0" transform="translate(-50.335 -153.862)"/>
      <path id="Trazado_838400" data-name="Trazado 838400" d="M42.982,354.982H34.2V346.2h6.589V344H32v13.178H45.178v-6.589h-2.2Zm0,0" transform="translate(-27.607 -296.777)"/>
      <path id="Trazado_838401" data-name="Trazado 838401" d="M59.9,323.13l-1.553,1.553,2.973,2.973L73.075,315.9l-1.553-1.553L61.317,324.55Zm0,0" transform="translate(-50.335 -271.192)"/>
      <path id="Trazado_838402" data-name="Trazado 838402" d="M256,440h2.2v2.2H256Zm0,0" transform="translate(-220.857 -379.599)"/>
      <path id="Trazado_838403" data-name="Trazado 838403" d="M152,440h12.08v2.2H152Zm0,0" transform="translate(-131.134 -379.599)"/>
      <path id="Trazado_838404" data-name="Trazado 838404" d="M168,216h14.277v2.2H168Zm0,0" transform="translate(-144.938 -186.349)"/>
    </g>
  </g>
</svg>
